<svg xmlns="http://www.w3.org/2000/svg" xmlns:xlink="http://www.w3.org/1999/xlink" version="1.1" viewBox="0 0 2504 1305" style="background: #ffffff"><defs><style>@import url(https://fonts.googleapis.com/css2?family=Red+Hat+Display:wght@500..900);</style></defs><defs joint-selector="defs"></defs><g  joint-selector="layers" transform="matrix(1,0,0,1,0,0)"><g ></g><g ><!--z-index:-1--><!--z-index:0--><!--z-index:1--><!--z-index:2--><!--z-index:3--><!--z-index:4--><!--z-index:5--><!--z-index:6--><!--z-index:7--><!--z-index:8--><!--z-index:9--><!--z-index:10--><!--z-index:11--><g   id="j_4"  transform="translate(20,1199)"><g id="v-9"><image  id="v-10" xlink:href="https://raw.githubusercontent.com/jaimeib/hosting/refs/heads/main/wattnet-logo-icon-dark-background-rounded.png" pointer-events="none" width="96" height="96"></image></g></g><!--z-index:12--><g   id="j_3"  transform="translate(136,1268.6)"><g id="v-7"><text  id="v-8" font-size="22px" xml:space="preserve" y="0.8em" font-weight="normal" text-anchor="start" fill="#aaaaaa" pointer-events="none" display="block" font-family="Red Hat Display"><tspan  dy="0" display="block">Monday, March 2, 2026 at 4:03 PM Central European Standard Time</tspan></text></g></g><!--z-index:13--><g   id="j_2"  transform="translate(136,1242.1999999999998)"><g id="v-5"><text  id="v-6" font-size="22px" xml:space="preserve" y="0.8em" font-weight="normal" text-anchor="start" fill="#aaaaaa" pointer-events="none" display="block" font-family="Red Hat Display"><tspan  dy="0" display="block">© Spanish National Research Council (CSIC) | Licensed under CC BY 4.0</tspan></text></g></g><!--z-index:14--><g   id="j_1"  transform="translate(136,1198.9999999999998)"><g id="v-3"><text  id="v-4" font-size="36px" xml:space="preserve" y="0.8em" font-weight="normal" text-anchor="start" fill="#000000" pointer-events="none" display="block" font-family="Red Hat Display"><tspan  dy="0" display="block">[System Context] wattnet</tspan></text></g></g><!--z-index:15--><g   id="j_5"  transform="translate(224,152)" style=""><g  id="v-14" style="opacity: 1;"><rect  x="0" y="160" width="400" height="240" rx="70" id="v-16" stroke="#122d58" stroke-width="2" pointer-events="visiblePainted" fill="#143262" style="fill: rgb(20, 50, 98); stroke: rgb(18, 45, 88);"></rect><circle  cx="200" cy="88.88888888888889" r="88.88888888888889" id="v-15" stroke="#122d58" stroke-width="2" pointer-events="visiblePainted" fill="#143262" style="fill: rgb(20, 50, 98); stroke: rgb(18, 45, 88);"></circle><line  x1="80" y1="266.6666666666667" x2="80" y2="400" id="v-22" stroke="#122d58" stroke-width="2" style="stroke: rgb(18, 45, 88);"></line><line  x1="320" y1="266.6666666666667" x2="320" y2="400" id="v-23" stroke="#122d58" stroke-width="2" style="stroke: rgb(18, 45, 88);"></line><text  id="v-17" font-size="34" xml:space="preserve" y="0.8em" font-weight="bold" text-anchor="middle" pointer-events="visible" font-family="Red Hat Display" fill="#ffffff" transform="matrix(1,0,0,1,200,203.6999969482422)" style="fill: rgb(255, 255, 255);"><tspan  dy="0">User</tspan></text><text  id="v-18" font-size="17" xml:space="preserve" y="0.8em" text-anchor="middle" font-family="Red Hat Display" fill="#ffffff" transform="matrix(1,0,0,1,200,244.5)" style="fill: rgb(255, 255, 255);"><tspan  dy="0">[Person]</tspan></text><text  id="v-19" font-size="24" xml:space="preserve" y="0.8em" text-anchor="middle" font-family="Red Hat Display" fill="#ffffff" transform="matrix(1,0,0,1,200,274.8999938964844)" style="fill: rgb(255, 255, 255);"><tspan  dy="0">An individual who accesses and</tspan><tspan dy="1.2em" x="0" >analyzes environmental impact</tspan><tspan dy="1.2em" x="0" >data through wattnet.</tspan></text><g  id="v-20" font-weight="normal" text-anchor="middle" color="#ffffff" transform="matrix(1,0,0,1,197.5,368)" style="fill: rgb(255, 255, 255);" display="none"><g ></g><g ></g><g ></g><g ></g></g><image  id="v-21"></image></g></g><!--z-index:16--><g   id="j_6"  transform="translate(199,757)" style=""><g  id="v-30" style="opacity: 1;"><rect  id="v-31" rx="20" ry="20" stroke="#0a1932" stroke-width="2" pointer-events="visiblePainted" fill="#0b1c38" width="450" height="300" style="fill: rgb(11, 28, 56); stroke: rgb(10, 25, 50);"></rect><text  id="v-32" font-size="34" xml:space="preserve" y="0.8em" font-weight="bold" text-anchor="middle" pointer-events="visible" font-family="Red Hat Display" fill="#e6e6e6" transform="matrix(1,0,0,1,225,73.69999694824219)" style="fill: rgb(230, 230, 230);"><tspan  dy="0">External Consumer</tspan></text><text  id="v-33" font-size="17" xml:space="preserve" y="0.8em" text-anchor="middle" font-family="Red Hat Display" fill="#e6e6e6" transform="matrix(1,0,0,1,225,114.5)" style="fill: rgb(230, 230, 230);"><tspan  dy="0">[Software System]</tspan></text><text  id="v-34" font-size="24" xml:space="preserve" y="0.8em" text-anchor="middle" font-family="Red Hat Display" fill="#e6e6e6" transform="matrix(1,0,0,1,225,144.89999389648438)" style="fill: rgb(230, 230, 230);"><tspan  dy="0">A third-party system or service that</tspan><tspan dy="1.2em" x="0" >connects to wattnet to retrieve and</tspan><tspan dy="1.2em" x="0" >use environmental impact data.</tspan></text><g  id="v-35" color="#e6e6e6" transform="matrix(1,0,0,1,222.5,268)" style="fill: rgb(230, 230, 230);" display="none"><g ></g><g ></g><g ></g><g ></g></g><image  id="v-36"></image></g></g><!--z-index:17--><g   id="j_7"  transform="translate(1853,267)" style=""><g  id="v-43" style="opacity: 1;"><rect  id="v-44" rx="20" ry="20" stroke="#0a1932" stroke-width="2" pointer-events="visiblePainted" fill="#0b1c38" width="450" height="300" style="fill: rgb(11, 28, 56); stroke: rgb(10, 25, 50);"></rect><text  id="v-45" font-size="34" xml:space="preserve" y="0.8em" font-weight="bold" text-anchor="middle" pointer-events="visible" font-family="Red Hat Display" fill="#e6e6e6" transform="matrix(1,0,0,1,225,73.69999694824219)" style="fill: rgb(230, 230, 230);"><tspan  dy="0">ENTSO-E Public API</tspan></text><text  id="v-46" font-size="17" xml:space="preserve" y="0.8em" text-anchor="middle" font-family="Red Hat Display" fill="#e6e6e6" transform="matrix(1,0,0,1,225,114.5)" style="fill: rgb(230, 230, 230);"><tspan  dy="0">[Software System]</tspan></text><text  id="v-47" font-size="24" xml:space="preserve" y="0.8em" text-anchor="middle" font-family="Red Hat Display" fill="#e6e6e6" transform="matrix(1,0,0,1,225,144.89999389648438)" style="fill: rgb(230, 230, 230);"><tspan  dy="0">European Network of Transmission</tspan><tspan dy="1.2em" x="0" >System Operators for Electricity</tspan><tspan dy="1.2em" x="0" >RESTful API.</tspan></text><g  id="v-48" color="#e6e6e6" transform="matrix(1,0,0,1,222.5,268)" style="fill: rgb(230, 230, 230);" display="none"><g ></g><g ></g><g ></g><g ></g></g><image  id="v-49"></image></g></g><!--z-index:18--><g   id="j_8"  transform="translate(1853,757)" style=""><g  id="v-56" style="opacity: 1;"><rect  id="v-57" rx="20" ry="20" stroke="#0a1932" stroke-width="2" pointer-events="visiblePainted" fill="#0b1c38" width="450" height="300" style="fill: rgb(11, 28, 56); stroke: rgb(10, 25, 50);"></rect><text  id="v-58" font-size="34" xml:space="preserve" y="0.8em" font-weight="bold" text-anchor="middle" pointer-events="visible" font-family="Red Hat Display" fill="#e6e6e6" transform="matrix(1,0,0,1,225,73.69999694824219)" style="fill: rgb(230, 230, 230);"><tspan  dy="0">Elexon Insights API</tspan></text><text  id="v-59" font-size="17" xml:space="preserve" y="0.8em" text-anchor="middle" font-family="Red Hat Display" fill="#e6e6e6" transform="matrix(1,0,0,1,225,114.5)" style="fill: rgb(230, 230, 230);"><tspan  dy="0">[Software System]</tspan></text><text  id="v-60" font-size="24" xml:space="preserve" y="0.8em" text-anchor="middle" font-family="Red Hat Display" fill="#e6e6e6" transform="matrix(1,0,0,1,225,144.89999389648438)" style="fill: rgb(230, 230, 230);"><tspan  dy="0">Elexon Insights RESTful API for</tspan><tspan dy="1.2em" x="0" >operational data about the</tspan><tspan dy="1.2em" x="0" >electricity system in Great Britain.</tspan></text><g  id="v-61" color="#e6e6e6" transform="matrix(1,0,0,1,222.5,268)" style="fill: rgb(230, 230, 230);" display="none"><g ></g><g ></g><g ></g><g ></g></g><image  id="v-62"></image></g></g><!--z-index:19--><g   id="j_9"  transform="translate(1028,522)" style=""><g  id="v-66" style="opacity: 1;"><rect  id="v-67" rx="20" ry="20" stroke="#1a417e" stroke-width="2" pointer-events="visiblePainted" fill="#1d488c" width="450" height="300" style="fill: rgb(29, 72, 140); stroke: rgb(26, 65, 126);"></rect><text  id="v-68" font-size="34" xml:space="preserve" y="0.8em" font-weight="bold" text-anchor="middle" pointer-events="visible" font-family="Red Hat Display" fill="#ffffff" transform="matrix(1,0,0,1,225,73.69999694824219)" style="fill: rgb(255, 255, 255);"><tspan  dy="0">wattnet</tspan></text><text  id="v-69" font-size="17" xml:space="preserve" y="0.8em" text-anchor="middle" font-family="Red Hat Display" fill="#ffffff" transform="matrix(1,0,0,1,225,114.5)" style="fill: rgb(255, 255, 255);"><tspan  dy="0">[Software System]</tspan></text><text  id="v-70" font-size="24" xml:space="preserve" y="0.8em" text-anchor="middle" font-family="Red Hat Display" fill="#ffffff" transform="matrix(1,0,0,1,225,144.89999389648438)" style="fill: rgb(255, 255, 255);"><tspan  dy="0">An open-source service for tracking</tspan><tspan dy="1.2em" x="0" >the environmental footprint of</tspan><tspan dy="1.2em" x="0" >electricity across Europe.</tspan></text><g  id="v-71" color="#ffffff" transform="matrix(1,0,0,1,210,268)" style="fill: rgb(255, 255, 255);" display="none"><g  transform="translate(5 0)"><svg xmlns="http://www.w3.org/2000/svg" width="20" height="20" fill="currentColor" viewBox="0 0 16 16"><path fill-rule="evenodd" d="M6.5 12a5.5 5.5 0 1 0 0-11 5.5 5.5 0 0 0 0 11zM13 6.5a6.5 6.5 0 1 1-13 0 6.5 6.5 0 0 1 13 0z"></path><path d="M10.344 11.742c.03.04.062.078.098.115l3.85 3.85a1 1 0 0 0 1.415-1.414l-3.85-3.85a1.007 1.007 0 0 0-.115-.1 6.538 6.538 0 0 1-1.398 1.4z"></path><path fill-rule="evenodd" d="M6.5 3a.5.5 0 0 1 .5.5V6h2.5a.5.5 0 0 1 0 1H7v2.5a.5.5 0 0 1-1 0V7H3.5a.5.5 0 0 1 0-1H6V3.5a.5.5 0 0 1 .5-.5z"></path></svg></g><g ></g><g ></g><g ></g></g><image  id="v-72"></image></g></g><!--z-index:20--><g   id="j_10" ><path  stroke="#707070" d="M 1478 736 L 1853 843" id="v-88" stroke-width="2" stroke-dasharray="30 30" fill="none" style="opacity: 1;"></path><path  fill="black" stroke="black" d="M 0 0 0 0" transform="matrix(0.9617423415184021,0.2739555239677429,-0.2739555239677429,0.9617423415184021,1478,736.0900268554688)"></path><path  fill="#707070" stroke="#707070" d="M 20 0 L 0 10 L 20 20 z" id="v-90" transform="matrix(-0.9617423415184021,-0.2739555239677429,0.2739555239677429,-0.9617423415184021,1850.2603759765625,852.5274658203125)" style="opacity: 1;"></path><path  d="M 1478 736 L 1853 843" id="v-89" fill="none" style="cursor: default;"></path><g ><g id="v-79"  label-idx="0" cursor="move" transform="matrix(1,0,0,1,1665.5,789.5)" style="cursor: default; opacity: 1;"><rect joint-selector="rect" id="v-83" fill="#ffffff" rx="3" ry="3" pointer-events="none" width="151.2206573486328" height="33.68776893615723" transform="matrix(1,0,0,1,-75.5999984741211,-16.899999618530273)"></rect><text joint-selector="text" id="v-82" font-size="24px" xml:space="preserve" y="0.8em" fill="#707070" text-anchor="middle" pointer-events="none" font-family="Red Hat Display" font-weight="normal" transform="matrix(1,0,0,1,0,-10.399999618530273)"><tspan  dy="0">Request Data</tspan></text></g><g id="v-80"  label-idx="1" cursor="move" transform="matrix(1,0,0,1,1665.5,815.9000244140625)" style="cursor: default; opacity: 1;"><rect joint-selector="rect" id="v-85" fill="#ffffff" rx="3" ry="3" pointer-events="none" width="254.3426513671875" height="25.6668701171875" transform="matrix(1,0,0,1,-127.19999694824219,-12.899999618530273)"></rect><text joint-selector="text" id="v-84" font-size="17px" xml:space="preserve" y="0.8em" fill="#707070" text-anchor="middle" pointer-events="none" font-family="Red Hat Display" font-weight="normal" transform="matrix(1,0,0,1,0,-7.199999809265137)"><tspan  dy="0">[data.elexon.co.uk/bmrs/api/v1]</tspan></text></g><g id="v-81"  label-idx="2" cursor="move" transform="matrix(1,0,0,1,1655.5,824.2999877929688)" style="cursor: default; opacity: 1;"><rect joint-selector="rect" id="v-87" fill="#ffffff" rx="3" ry="3"  width="0" height="0" transform="matrix(1,0,0,1,0,0)" display="none"></rect><text joint-selector="text" id="v-86" fill="#000000" font-size="14" text-anchor="middle" pointer-events="none"></text></g></g><g  display="none"></g><g  id="v-92" display="none"><g  id="v-77"><path  end="source" d="M 26 0 L 0 13 L 26 26 z"></path></g><g  id="v-78"><path  end="target" d="M 26 0 L 0 13 L 26 26 z"></path></g></g><g  id="v-91" display="none"><g  id="v-76" transform="translate(1516.4648261940283, 746.9752970740294) "><g  event="remove"><circle r="11"></circle><path transform="scale(.8) translate(-16, -16)" d="M24.778,21.419 19.276,15.917 24.777,10.415 21.949,7.585 16.447,13.087 10.945,7.585 8.117,10.415 13.618,15.917 8.116,21.419 10.946,24.248 16.447,18.746 21.948,24.248z"></path><title>Remove link.</title></g><g  event="link:options"><circle r="11" transform="translate(25)"></circle><path fill="white" transform="scale(.55) translate(29, -16)" d="M31.229,17.736c0.064-0.571,0.104-1.148,0.104-1.736s-0.04-1.166-0.104-1.737l-4.377-1.557c-0.218-0.716-0.504-1.401-0.851-2.05l1.993-4.192c-0.725-0.91-1.549-1.734-2.458-2.459l-4.193,1.994c-0.647-0.347-1.334-0.632-2.049-0.849l-1.558-4.378C17.165,0.708,16.588,0.667,16,0.667s-1.166,0.041-1.737,0.105L12.707,5.15c-0.716,0.217-1.401,0.502-2.05,0.849L6.464,4.005C5.554,4.73,4.73,5.554,4.005,6.464l1.994,4.192c-0.347,0.648-0.632,1.334-0.849,2.05l-4.378,1.557C0.708,14.834,0.667,15.412,0.667,16s0.041,1.165,0.105,1.736l4.378,1.558c0.217,0.715,0.502,1.401,0.849,2.049l-1.994,4.193c0.725,0.909,1.549,1.733,2.459,2.458l4.192-1.993c0.648,0.347,1.334,0.633,2.05,0.851l1.557,4.377c0.571,0.064,1.148,0.104,1.737,0.104c0.588,0,1.165-0.04,1.736-0.104l1.558-4.377c0.715-0.218,1.399-0.504,2.049-0.851l4.193,1.993c0.909-0.725,1.733-1.549,2.458-2.458l-1.993-4.193c0.347-0.647,0.633-1.334,0.851-2.049L31.229,17.736zM16,20.871c-2.69,0-4.872-2.182-4.872-4.871c0-2.69,2.182-4.872,4.872-4.872c2.689,0,4.871,2.182,4.871,4.872C20.871,18.689,18.689,20.871,16,20.871z"></path><title>Link options.</title></g></g></g></g><!--z-index:21--><g   id="j_11" ><path  stroke="#707070" d="M 624 429 L 1028 585" id="v-105" stroke-width="2" stroke-dasharray="30 30" fill="none" style="opacity: 1;"></path><path  fill="black" stroke="black" d="M 0 0 0 0" transform="matrix(0.9329074621200562,0.3601161241531372,-0.3601161241531372,0.9329074621200562,624,429.20001220703125)"></path><path  fill="#707070" stroke="#707070" d="M 20 0 L 0 10 L 20 20 z" id="v-107" transform="matrix(-0.9329074621200562,-0.3601161539554596,0.3601161539554596,-0.9329074621200562,1024.3988037109375,594.4790649414062)" style="opacity: 1;"></path><path  d="M 624 429 L 1028 585" id="v-106" fill="none" style="cursor: default;"></path><g ><g id="v-96"  label-idx="0" cursor="move" transform="matrix(1,0,0,1,826,507)" style="cursor: default; opacity: 1;"><rect joint-selector="rect" id="v-100" fill="#ffffff" rx="3" ry="3" pointer-events="none" width="54.11431884765625" height="33.68776893615723" transform="matrix(1,0,0,1,-27.100000381469727,-16.899999618530273)"></rect><text joint-selector="text" id="v-99" font-size="24px" xml:space="preserve" y="0.8em" fill="#707070" text-anchor="middle" pointer-events="none" font-family="Red Hat Display" font-weight="normal" transform="matrix(1,0,0,1,0,-10.399999618530273)"><tspan  dy="0">Uses</tspan></text></g><g id="v-97"  label-idx="1" cursor="move" transform="matrix(1,0,0,1,826,533.4000244140625)" style="cursor: default; opacity: 1;"><rect joint-selector="rect" id="v-102" fill="#ffffff" rx="3" ry="3" pointer-events="none" width="187.7692108154297" height="25.6668701171875" transform="matrix(1,0,0,1,-93.9000015258789,-12.899999618530273)"></rect><text joint-selector="text" id="v-101" font-size="17px" xml:space="preserve" y="0.8em" fill="#707070" text-anchor="middle" pointer-events="none" font-family="Red Hat Display" font-weight="normal" transform="matrix(1,0,0,1,0,-7.199999809265137)"><tspan  dy="0">[dashboard.wattnet.eu]</tspan></text></g><g id="v-98"  label-idx="2" cursor="move" transform="matrix(1,0,0,1,816,541.7999877929688)" style="cursor: default; opacity: 1;"><rect joint-selector="rect" id="v-104" fill="#ffffff" rx="3" ry="3"  width="0" height="0" transform="matrix(1,0,0,1,0,0)" display="none"></rect><text joint-selector="text" id="v-103" fill="#000000" font-size="14" text-anchor="middle" pointer-events="none"></text></g></g><g  display="none"></g><g  id="v-109" display="none"><g  id="v-94"><path  end="source" d="M 26 0 L 0 13 L 26 26 z"></path></g><g  id="v-95"><path  end="target" d="M 26 0 L 0 13 L 26 26 z"></path></g></g><g  id="v-108" display="none"><g  id="v-93" transform="translate(661.3147474474739, 443.40866485595524) "><g  event="remove"><circle r="11"></circle><path transform="scale(.8) translate(-16, -16)" d="M24.778,21.419 19.276,15.917 24.777,10.415 21.949,7.585 16.447,13.087 10.945,7.585 8.117,10.415 13.618,15.917 8.116,21.419 10.946,24.248 16.447,18.746 21.948,24.248z"></path><title>Remove link.</title></g><g  event="link:options"><circle r="11" transform="translate(25)"></circle><path fill="white" transform="scale(.55) translate(29, -16)" d="M31.229,17.736c0.064-0.571,0.104-1.148,0.104-1.736s-0.04-1.166-0.104-1.737l-4.377-1.557c-0.218-0.716-0.504-1.401-0.851-2.05l1.993-4.192c-0.725-0.91-1.549-1.734-2.458-2.459l-4.193,1.994c-0.647-0.347-1.334-0.632-2.049-0.849l-1.558-4.378C17.165,0.708,16.588,0.667,16,0.667s-1.166,0.041-1.737,0.105L12.707,5.15c-0.716,0.217-1.401,0.502-2.05,0.849L6.464,4.005C5.554,4.73,4.73,5.554,4.005,6.464l1.994,4.192c-0.347,0.648-0.632,1.334-0.849,2.05l-4.378,1.557C0.708,14.834,0.667,15.412,0.667,16s0.041,1.165,0.105,1.736l4.378,1.558c0.217,0.715,0.502,1.401,0.849,2.049l-1.994,4.193c0.725,0.909,1.549,1.733,2.459,2.458l4.192-1.993c0.648,0.347,1.334,0.633,2.05,0.851l1.557,4.377c0.571,0.064,1.148,0.104,1.737,0.104c0.588,0,1.165-0.04,1.736-0.104l1.558-4.377c0.715-0.218,1.399-0.504,2.049-0.851l4.193,1.993c0.909-0.725,1.733-1.549,2.458-2.458l-1.993-4.193c0.347-0.647,0.633-1.334,0.851-2.049L31.229,17.736zM16,20.871c-2.69,0-4.872-2.182-4.872-4.871c0-2.69,2.182-4.872,4.872-4.872c2.689,0,4.871,2.182,4.871,4.872C20.871,18.689,18.689,20.871,16,20.871z"></path><title>Link options.</title></g></g></g></g><!--z-index:22--><g   id="j_12" ><path  stroke="#707070" d="M 649 843 L 1028 736" id="v-122" stroke-width="2" stroke-dasharray="30 30" fill="none" style="opacity: 1;"></path><path  fill="black" stroke="black" d="M 0 0 0 0" transform="matrix(0.9620890021324158,-0.2727356255054474,0.2727356255054474,0.9620890021324158,649,843.219970703125)"></path><path  fill="#707070" stroke="#707070" d="M 20 0 L 0 10 L 20 20 z" id="v-124" transform="matrix(-0.9620890021324158,0.2727356255054474,-0.2727356255054474,-0.9620890021324158,1030.727294921875,745.4009399414062)" style="opacity: 1;"></path><path  d="M 649 843 L 1028 736" id="v-123" fill="none" style="cursor: default;"></path><g ><g id="v-113"  label-idx="0" cursor="move" transform="matrix(1,0,0,1,838.5,789.5)" style="cursor: default; opacity: 1;"><rect joint-selector="rect" id="v-117" fill="#ffffff" rx="3" ry="3" pointer-events="none" width="93.73755645751953" height="33.68776893615723" transform="matrix(1,0,0,1,-45.900001525878906,-16.899999618530273)"></rect><text joint-selector="text" id="v-116" font-size="24px" xml:space="preserve" y="0.8em" fill="#707070" text-anchor="middle" pointer-events="none" font-family="Red Hat Display" font-weight="normal" transform="matrix(1,0,0,1,0,-10.399999618530273)"><tspan  dy="0">Request</tspan></text></g><g id="v-114"  label-idx="1" cursor="move" transform="matrix(1,0,0,1,838.5,815.9000244140625)" style="cursor: default; opacity: 1;"><rect joint-selector="rect" id="v-119" fill="#ffffff" rx="3" ry="3" pointer-events="none" width="150.76612854003906" height="25.6668701171875" transform="matrix(1,0,0,1,-75.4000015258789,-12.899999618530273)"></rect><text joint-selector="text" id="v-118" font-size="17px" xml:space="preserve" y="0.8em" fill="#707070" text-anchor="middle" pointer-events="none" font-family="Red Hat Display" font-weight="normal" transform="matrix(1,0,0,1,0,-7.199999809265137)"><tspan  dy="0">[api.wattnet.eu/v1]</tspan></text></g><g id="v-115"  label-idx="2" cursor="move" transform="matrix(1,0,0,1,828.5,824.2999877929688)" style="cursor: default; opacity: 1;"><rect joint-selector="rect" id="v-121" fill="#ffffff" rx="3" ry="3"  width="0" height="0" transform="matrix(1,0,0,1,0,0)" display="none"></rect><text joint-selector="text" id="v-120" fill="#000000" font-size="14" text-anchor="middle" pointer-events="none"></text></g></g><g  display="none"></g><g  id="v-126" display="none"><g  id="v-111"><path  end="source" d="M 26 0 L 0 13 L 26 26 z"></path></g><g  id="v-112"><path  end="target" d="M 26 0 L 0 13 L 26 26 z"></path></g></g><g  id="v-125" display="none"><g  id="v-110" transform="translate(687.4952640839045, 832.1319439129874) "><g  event="remove"><circle r="11"></circle><path transform="scale(.8) translate(-16, -16)" d="M24.778,21.419 19.276,15.917 24.777,10.415 21.949,7.585 16.447,13.087 10.945,7.585 8.117,10.415 13.618,15.917 8.116,21.419 10.946,24.248 16.447,18.746 21.948,24.248z"></path><title>Remove link.</title></g><g  event="link:options"><circle r="11" transform="translate(25)"></circle><path fill="white" transform="scale(.55) translate(29, -16)" d="M31.229,17.736c0.064-0.571,0.104-1.148,0.104-1.736s-0.04-1.166-0.104-1.737l-4.377-1.557c-0.218-0.716-0.504-1.401-0.851-2.05l1.993-4.192c-0.725-0.91-1.549-1.734-2.458-2.459l-4.193,1.994c-0.647-0.347-1.334-0.632-2.049-0.849l-1.558-4.378C17.165,0.708,16.588,0.667,16,0.667s-1.166,0.041-1.737,0.105L12.707,5.15c-0.716,0.217-1.401,0.502-2.05,0.849L6.464,4.005C5.554,4.73,4.73,5.554,4.005,6.464l1.994,4.192c-0.347,0.648-0.632,1.334-0.849,2.05l-4.378,1.557C0.708,14.834,0.667,15.412,0.667,16s0.041,1.165,0.105,1.736l4.378,1.558c0.217,0.715,0.502,1.401,0.849,2.049l-1.994,4.193c0.725,0.909,1.549,1.733,2.459,2.458l4.192-1.993c0.648,0.347,1.334,0.633,2.05,0.851l1.557,4.377c0.571,0.064,1.148,0.104,1.737,0.104c0.588,0,1.165-0.04,1.736-0.104l1.558-4.377c0.715-0.218,1.399-0.504,2.049-0.851l4.193,1.993c0.909-0.725,1.733-1.549,2.458-2.458l-1.993-4.193c0.347-0.647,0.633-1.334,0.851-2.049L31.229,17.736zM16,20.871c-2.69,0-4.872-2.182-4.872-4.871c0-2.69,2.182-4.872,4.872-4.872c2.689,0,4.871,2.182,4.871,4.872C20.871,18.689,18.689,20.871,16,20.871z"></path><title>Link options.</title></g></g></g></g><!--z-index:23--><g   id="j_13" ><path  stroke="#707070" d="M 1478 602 L 1853 487" id="v-142" stroke-width="2" stroke-dasharray="30 30" fill="none" style="opacity: 1;"></path><path  fill="black" stroke="black" d="M 0 0 0 0" transform="matrix(0.9554092288017273,-0.2952848970890045,0.2952848970890045,0.9554092288017273,1478,602.4500122070312)"></path><path  fill="#707070" stroke="#707070" d="M 20 0 L 0 10 L 20 20 z" id="v-144" transform="matrix(-0.9554091691970825,0.2952851355075836,-0.2952851355075836,-0.9554091691970825,1855.952880859375,496.10406494140625)" style="opacity: 1;"></path><path  d="M 1478 602 L 1853 487" id="v-143" fill="none" style="cursor: default;"></path><g ><g id="v-133"  label-idx="0" cursor="move" transform="matrix(1,0,0,1,1665.5,544.5)" style="cursor: default; opacity: 1;"><rect joint-selector="rect" id="v-137" fill="#ffffff" rx="3" ry="3" pointer-events="none" width="151.2206573486328" height="33.68776893615723" transform="matrix(1,0,0,1,-75.5999984741211,-16.899999618530273)"></rect><text joint-selector="text" id="v-136" font-size="24px" xml:space="preserve" y="0.8em" fill="#707070" text-anchor="middle" pointer-events="none" font-family="Red Hat Display" font-weight="normal" transform="matrix(1,0,0,1,0,-10.399999618530273)"><tspan  dy="0">Request Data</tspan></text></g><g id="v-134"  label-idx="1" cursor="move" transform="matrix(1,0,0,1,1665.5,570.9000244140625)" style="cursor: default; opacity: 1;"><rect joint-selector="rect" id="v-139" fill="#ffffff" rx="3" ry="3" pointer-events="none" width="209.61279296875" height="25.6668701171875" transform="matrix(1,0,0,1,-104.80000305175781,-12.899999618530273)"></rect><text joint-selector="text" id="v-138" font-size="17px" xml:space="preserve" y="0.8em" fill="#707070" text-anchor="middle" pointer-events="none" font-family="Red Hat Display" font-weight="normal" transform="matrix(1,0,0,1,0,-7.199999809265137)"><tspan  dy="0">[web-api.tp.entsoe.eu/api]</tspan></text></g><g id="v-135"  label-idx="2" cursor="move" transform="matrix(1,0,0,1,1655.5,579.2999877929688)" style="cursor: default; opacity: 1;"><rect joint-selector="rect" id="v-141" fill="#ffffff" rx="3" ry="3"  width="0" height="0" transform="matrix(1,0,0,1,0,0)" display="none"></rect><text joint-selector="text" id="v-140" fill="#000000" font-size="14" text-anchor="middle" pointer-events="none"></text></g></g><g  display="none"></g><g  id="v-146" display="none"><g  id="v-131"><path  end="source" d="M 26 0 L 0 13 L 26 26 z"></path></g><g  id="v-132"><path  end="target" d="M 26 0 L 0 13 L 26 26 z"></path></g></g><g  id="v-145" display="none"><g  id="v-130" transform="translate(1516.2421683278294, 590.2724017127989) "><g  event="remove"><circle r="11"></circle><path transform="scale(.8) translate(-16, -16)" d="M24.778,21.419 19.276,15.917 24.777,10.415 21.949,7.585 16.447,13.087 10.945,7.585 8.117,10.415 13.618,15.917 8.116,21.419 10.946,24.248 16.447,18.746 21.948,24.248z"></path><title>Remove link.</title></g><g  event="link:options"><circle r="11" transform="translate(25)"></circle><path fill="white" transform="scale(.55) translate(29, -16)" d="M31.229,17.736c0.064-0.571,0.104-1.148,0.104-1.736s-0.04-1.166-0.104-1.737l-4.377-1.557c-0.218-0.716-0.504-1.401-0.851-2.05l1.993-4.192c-0.725-0.91-1.549-1.734-2.458-2.459l-4.193,1.994c-0.647-0.347-1.334-0.632-2.049-0.849l-1.558-4.378C17.165,0.708,16.588,0.667,16,0.667s-1.166,0.041-1.737,0.105L12.707,5.15c-0.716,0.217-1.401,0.502-2.05,0.849L6.464,4.005C5.554,4.73,4.73,5.554,4.005,6.464l1.994,4.192c-0.347,0.648-0.632,1.334-0.849,2.05l-4.378,1.557C0.708,14.834,0.667,15.412,0.667,16s0.041,1.165,0.105,1.736l4.378,1.558c0.217,0.715,0.502,1.401,0.849,2.049l-1.994,4.193c0.725,0.909,1.549,1.733,2.459,2.458l4.192-1.993c0.648,0.347,1.334,0.633,2.05,0.851l1.557,4.377c0.571,0.064,1.148,0.104,1.737,0.104c0.588,0,1.165-0.04,1.736-0.104l1.558-4.377c0.715-0.218,1.399-0.504,2.049-0.851l4.193,1.993c0.909-0.725,1.733-1.549,2.458-2.458l-1.993-4.193c0.347-0.647,0.633-1.334,0.851-2.049L31.229,17.736zM16,20.871c-2.69,0-4.872-2.182-4.872-4.871c0-2.69,2.182-4.872,4.872-4.872c2.689,0,4.871,2.182,4.871,4.872C20.871,18.689,18.689,20.871,16,20.871z"></path><title>Link options.</title></g></g></g></g><!--z-index:24--></g><g ></g><g ></g><g ></g></g></svg>