<svg xmlns="http://www.w3.org/2000/svg" xmlns:xlink="http://www.w3.org/1999/xlink" version="1.1" viewBox="0 0 2525 1801" style="background: #ffffff"><defs><style>@import url(https://fonts.googleapis.com/css2?family=Red+Hat+Display:wght@500..900);</style></defs><defs joint-selector="defs"></defs><g  joint-selector="layers" transform="matrix(1,0,0,1,0,0)"><g ></g><g ><!--z-index:-1--><!--z-index:0--><!--z-index:1--><!--z-index:2--><!--z-index:3--><!--z-index:4--><!--z-index:5--><!--z-index:6--><!--z-index:7--><!--z-index:8--><!--z-index:9--><!--z-index:10--><!--z-index:11--><!--z-index:12--><!--z-index:13--><!--z-index:14--><!--z-index:15--><!--z-index:16--><!--z-index:17--><!--z-index:18--><!--z-index:19--><!--z-index:20--><!--z-index:21--><g   id="j_637"  transform="translate(20,1695)"><g id="v-7578"><image  id="v-7579" xlink:href="https://raw.githubusercontent.com/jaimeib/hosting/refs/heads/main/wattnet-logo-icon-dark-background-rounded.png" pointer-events="none" width="96" height="96"></image></g></g><!--z-index:22--><g   id="j_636"  transform="translate(136,1764.6)"><g id="v-7576"><text  id="v-7577" font-size="22px" xml:space="preserve" y="0.8em" font-weight="normal" text-anchor="start" fill="#aaaaaa" pointer-events="none" display="block" font-family="Red Hat Display"><tspan  dy="0">Wednesday, April 1, 2026 at 3:40 PM Central European Summer Time</tspan></text></g></g><!--z-index:23--><g   id="j_635"  transform="translate(136,1738.1999999999998)"><g id="v-7574"><text  id="v-7575" font-size="22px" xml:space="preserve" y="0.8em" font-weight="normal" text-anchor="start" fill="#aaaaaa" pointer-events="none" display="block" font-family="Red Hat Display"><tspan  dy="0">© Spanish National Research Council (CSIC) | Licensed under CC BY 4.0</tspan></text></g></g><!--z-index:24--><g   id="j_634"  transform="translate(136,1694.9999999999998)"><g id="v-7572"><text  id="v-7573" font-size="36px" xml:space="preserve" y="0.8em" font-weight="normal" text-anchor="start" fill="#000000" pointer-events="none" display="block" font-family="Red Hat Display"><tspan  dy="0">[Component] wattnet - Forecast Engine</tspan></text></g></g><!--z-index:25--><g   id="j_638"  transform="translate(1874,1161)" style=""><g  id="v-7583" style="opacity: 1;"><rect  id="v-7584" rx="20" ry="20" stroke="#4b6896" stroke-width="2" pointer-events="visiblePainted" fill="#5374a7" width="450" height="300" style="fill: rgb(83, 116, 167); stroke: rgb(75, 104, 150);"></rect><text  id="v-7585" font-size="34" xml:space="preserve" y="0.8em" font-weight="bold" text-anchor="middle" pointer-events="visible" font-family="Red Hat Display" fill="#ffffff" transform="matrix(1,0,0,1,225,88.0999984741211)" style="fill: rgb(255, 255, 255);"><tspan  dy="0">Metrics Storage</tspan></text><text  id="v-7586" font-size="17" xml:space="preserve" y="0.8em" text-anchor="middle" font-family="Red Hat Display" fill="#ffffff" transform="matrix(1,0,0,1,225,128.89999389648438)" style="fill: rgb(255, 255, 255);"><tspan  dy="0">[Container: Python + Docker]</tspan></text><text  id="v-7587" font-size="24" xml:space="preserve" y="0.8em" text-anchor="middle" font-family="Red Hat Display" fill="#ffffff" transform="matrix(1,0,0,1,225,159.3000030517578)" style="fill: rgb(255, 255, 255);"><tspan  dy="0">System for storing and retrieving</tspan><tspan dy="1.2em" x="0" >time-series metrics data.</tspan></text><g  id="v-7588" color="#ffffff" transform="matrix(1,0,0,1,210,268)" style="fill: rgb(255, 255, 255);" display="none"><g  transform="translate(5 0)"><svg xmlns="http://www.w3.org/2000/svg" width="20" height="20" fill="currentColor" viewBox="0 0 16 16"><path fill-rule="evenodd" d="M6.5 12a5.5 5.5 0 1 0 0-11 5.5 5.5 0 0 0 0 11zM13 6.5a6.5 6.5 0 1 1-13 0 6.5 6.5 0 0 1 13 0z"></path><path d="M10.344 11.742c.03.04.062.078.098.115l3.85 3.85a1 1 0 0 0 1.415-1.414l-3.85-3.85a1.007 1.007 0 0 0-.115-.1 6.538 6.538 0 0 1-1.398 1.4z"></path><path fill-rule="evenodd" d="M6.5 3a.5.5 0 0 1 .5.5V6h2.5a.5.5 0 0 1 0 1H7v2.5a.5.5 0 0 1-1 0V7H3.5a.5.5 0 0 1 0-1H6V3.5a.5.5 0 0 1 .5-.5z"></path></svg></g><g ></g><g ></g><g ></g></g><image  id="v-7589"></image></g></g><!--z-index:26--><g   id="j_640"  transform="translate(199,151)" style=""><g id="v-7603"><rect  id="v-7604" width="1336" height="1401" rx="0" ry="0" fill="#ffffff" stroke="#4b6896" stroke-width="1" stroke-dasharray="20,20" pointer-events="none"></rect><text  id="v-7605" font-size="24px" xml:space="preserve" y="1362" font-weight="normal" fill="#4b6896" text-anchor="start" pointer-events="visible" font-family="Red Hat Display" transform="matrix(1,0,0,1,15,0)"><tspan  dy="0">Forecast Engine</tspan></text><text  id="v-7606" font-size="17px" xml:space="preserve" y="1386" font-weight="normal" fill="#4b6896" text-anchor="start" pointer-events="visible" font-family="Red Hat Display" transform="matrix(1,0,0,1,15,0)"><tspan  dy="0">[Container]</tspan></text><image  id="v-7607" pointer-events="visible"></image></g></g><!--z-index:27--><g   id="j_639"  transform="translate(1065,171)" style=""><g  id="v-7596" style="opacity: 1;"><rect  id="v-7597" rx="20" ry="20" stroke="#8da0bb" stroke-width="2" pointer-events="visiblePainted" fill="#9db2d0" width="450" height="300" style="fill: rgb(157, 178, 208); stroke: rgb(141, 160, 187);"></rect><text  id="v-7598" font-size="34" xml:space="preserve" y="0.8em" font-weight="bold" text-anchor="middle" pointer-events="visible" font-family="Red Hat Display" fill="#0b1c38" transform="matrix(1,0,0,1,225,88.0999984741211)" style="fill: rgb(11, 28, 56);"><tspan  dy="0">Workflow Manager</tspan></text><text  id="v-7599" font-size="17" xml:space="preserve" y="0.8em" text-anchor="middle" font-family="Red Hat Display" fill="#0b1c38" transform="matrix(1,0,0,1,225,128.89999389648438)" style="fill: rgb(11, 28, 56);"><tspan  dy="0">[Component: Python]</tspan></text><text  id="v-7600" font-size="24" xml:space="preserve" y="0.8em" text-anchor="middle" font-family="Red Hat Display" fill="#0b1c38" transform="matrix(1,0,0,1,225,159.3000030517578)" style="fill: rgb(11, 28, 56);"><tspan  dy="0">Manages the workflow of the</tspan><tspan dy="1.2em" x="0" >forecast engine.</tspan></text><g  id="v-7601" color="#0b1c38" transform="matrix(1,0,0,1,222.5,268)" style="fill: rgb(11, 28, 56);" display="none"><g ></g><g ></g><g ></g><g ></g></g><image  id="v-7602"></image></g></g><!--z-index:28--><g   id="j_641"  transform="translate(1065,1161)" style=""><g  id="v-7611" style="opacity: 1;"><rect  id="v-7612" rx="20" ry="20" stroke="#8da0bb" stroke-width="2" pointer-events="visiblePainted" fill="#9db2d0" width="450" height="300" style="fill: rgb(157, 178, 208); stroke: rgb(141, 160, 187);"></rect><text  id="v-7613" font-size="34" xml:space="preserve" y="0.8em" font-weight="bold" text-anchor="middle" pointer-events="visible" font-family="Red Hat Display" fill="#0b1c38" transform="matrix(1,0,0,1,225,73.69999694824219)" style="fill: rgb(11, 28, 56);"><tspan  dy="0">Storage Manager</tspan></text><text  id="v-7614" font-size="17" xml:space="preserve" y="0.8em" text-anchor="middle" font-family="Red Hat Display" fill="#0b1c38" transform="matrix(1,0,0,1,225,114.5)" style="fill: rgb(11, 28, 56);"><tspan  dy="0">[Component: Python]</tspan></text><text  id="v-7615" font-size="24" xml:space="preserve" y="0.8em" text-anchor="middle" font-family="Red Hat Display" fill="#0b1c38" transform="matrix(1,0,0,1,225,144.89999389648438)" style="fill: rgb(11, 28, 56);"><tspan  dy="0">Reads metrics from storage and</tspan><tspan dy="1.2em" x="0" >writes forecasted values back to the</tspan><tspan dy="1.2em" x="0" >Metrics Repository.</tspan></text><g  id="v-7616" color="#0b1c38" transform="matrix(1,0,0,1,222.5,268)" style="fill: rgb(11, 28, 56);" display="none"><g ></g><g ></g><g ></g><g ></g></g><image  id="v-7617"></image></g></g><!--z-index:29--><g   id="j_642"  transform="translate(1065,671)" style=""><g  id="v-7624" style="opacity: 1;"><rect  id="v-7625" rx="20" ry="20" stroke="#8da0bb" stroke-width="2" pointer-events="visiblePainted" fill="#9db2d0" width="450" height="300" style="fill: rgb(157, 178, 208); stroke: rgb(141, 160, 187);"></rect><text  id="v-7626" font-size="34" xml:space="preserve" y="0.8em" font-weight="bold" text-anchor="middle" pointer-events="visible" font-family="Red Hat Display" fill="#0b1c38" transform="matrix(1,0,0,1,225,73.69999694824219)" style="fill: rgb(11, 28, 56);"><tspan  dy="0">Forecast Manager</tspan></text><text  id="v-7627" font-size="17" xml:space="preserve" y="0.8em" text-anchor="middle" font-family="Red Hat Display" fill="#0b1c38" transform="matrix(1,0,0,1,225,114.5)" style="fill: rgb(11, 28, 56);"><tspan  dy="0">[Component: Python]</tspan></text><text  id="v-7628" font-size="24" xml:space="preserve" y="0.8em" text-anchor="middle" font-family="Red Hat Display" fill="#0b1c38" transform="matrix(1,0,0,1,225,144.89999389648438)" style="fill: rgb(11, 28, 56);"><tspan  dy="0">Orchestrates the forecasting</tspan><tspan dy="1.2em" x="0" >process, including data retrieval,</tspan><tspan dy="1.2em" x="0" >and model execution.</tspan></text><g  id="v-7629" color="#0b1c38" transform="matrix(1,0,0,1,222.5,268)" style="fill: rgb(11, 28, 56);" display="none"><g ></g><g ></g><g ></g><g ></g></g><image  id="v-7630"></image></g></g><!--z-index:30--><g   id="j_643"  transform="translate(219,1161)" style=""><g  id="v-7634" style="opacity: 1;"><rect  id="v-7635" rx="20" ry="20" stroke="#8da0bb" stroke-width="2" pointer-events="visiblePainted" fill="#9db2d0" width="450" height="300" style="fill: rgb(157, 178, 208); stroke: rgb(141, 160, 187);"></rect><text  id="v-7636" font-size="34" xml:space="preserve" y="0.8em" font-weight="bold" text-anchor="middle" pointer-events="visible" font-family="Red Hat Display" fill="#0b1c38" transform="matrix(1,0,0,1,225,73.69999694824219)" style="fill: rgb(11, 28, 56);"><tspan  dy="0">Lag Collector</tspan></text><text  id="v-7637" font-size="17" xml:space="preserve" y="0.8em" text-anchor="middle" font-family="Red Hat Display" fill="#0b1c38" transform="matrix(1,0,0,1,225,114.5)" style="fill: rgb(11, 28, 56);"><tspan  dy="0">[Component: Python]</tspan></text><text  id="v-7638" font-size="24" xml:space="preserve" y="0.8em" text-anchor="middle" font-family="Red Hat Display" fill="#0b1c38" transform="matrix(1,0,0,1,225,144.89999389648438)" style="fill: rgb(11, 28, 56);"><tspan  dy="0">Collects and manages lag data for</tspan><tspan dy="1.2em" x="0" >predictive modeling in time-series</tspan><tspan dy="1.2em" x="0" >data.</tspan></text><g  id="v-7639" color="#0b1c38" transform="matrix(1,0,0,1,222.5,268)" style="fill: rgb(11, 28, 56);" display="none"><g ></g><g ></g><g ></g><g ></g></g><image  id="v-7640"></image></g></g><!--z-index:31--><g   id="j_644"  transform="translate(219,671)" style=""><g  id="v-7647" style="opacity: 1;"><rect  id="v-7648" rx="20" ry="20" stroke="#8da0bb" stroke-width="2" pointer-events="visiblePainted" fill="#9db2d0" width="450" height="300" style="fill: rgb(157, 178, 208); stroke: rgb(141, 160, 187);"></rect><text  id="v-7649" font-size="34" xml:space="preserve" y="0.8em" font-weight="bold" text-anchor="middle" pointer-events="visible" font-family="Red Hat Display" fill="#0b1c38" transform="matrix(1,0,0,1,225,88.0999984741211)" style="fill: rgb(11, 28, 56);"><tspan  dy="0">Predictor Interface</tspan></text><text  id="v-7650" font-size="17" xml:space="preserve" y="0.8em" text-anchor="middle" font-family="Red Hat Display" fill="#0b1c38" transform="matrix(1,0,0,1,225,128.89999389648438)" style="fill: rgb(11, 28, 56);"><tspan  dy="0">[Component: Python]</tspan></text><text  id="v-7651" font-size="24" xml:space="preserve" y="0.8em" text-anchor="middle" font-family="Red Hat Display" fill="#0b1c38" transform="matrix(1,0,0,1,225,159.3000030517578)" style="fill: rgb(11, 28, 56);"><tspan  dy="0">Abstract contract implemented by</tspan><tspan dy="1.2em" x="0" >all predictive models.</tspan></text><g  id="v-7652" color="#0b1c38" transform="matrix(1,0,0,1,222.5,268)" style="fill: rgb(11, 28, 56);" display="none"><g ></g><g ></g><g ></g><g ></g></g><image  id="v-7653"></image></g></g><!--z-index:32--><g   id="j_645"  transform="translate(219,171)" style=""><g  id="v-7660" style="opacity: 1;"><rect  id="v-7661" rx="20" ry="20" stroke="#8da0bb" stroke-width="2" pointer-events="visiblePainted" fill="#9db2d0" width="450" height="300" style="fill: rgb(157, 178, 208); stroke: rgb(141, 160, 187);"></rect><text  id="v-7662" font-size="34" xml:space="preserve" y="0.8em" font-weight="bold" text-anchor="middle" pointer-events="visible" font-family="Red Hat Display" fill="#0b1c38" transform="matrix(1,0,0,1,225,38.900001525878906)" style="fill: rgb(11, 28, 56);"><tspan  dy="0">Auto-Regressive</tspan><tspan dy="1.2em" x="0" >Predictor</tspan></text><text  id="v-7663" font-size="17" xml:space="preserve" y="0.8em" text-anchor="middle" font-family="Red Hat Display" fill="#0b1c38" transform="matrix(1,0,0,1,225,120.5)" style="fill: rgb(11, 28, 56);"><tspan  dy="0">[Component: Python]</tspan></text><text  id="v-7664" font-size="24" xml:space="preserve" y="0.8em" text-anchor="middle" font-family="Red Hat Display" fill="#0b1c38" transform="matrix(1,0,0,1,225,150.89999389648438)" style="fill: rgb(11, 28, 56);"><tspan  dy="0">Predictive model that uses</tspan><tspan dy="1.2em" x="0" >auto-regressive techniques to</tspan><tspan dy="1.2em" x="0" >forecast future metrics based on</tspan><tspan dy="1.2em" x="0" >historical data.</tspan></text><g  id="v-7665" color="#0b1c38" transform="matrix(1,0,0,1,222.5,268)" style="fill: rgb(11, 28, 56);" display="none"><g ></g><g ></g><g ></g><g ></g></g><image  id="v-7666"></image></g></g><!--z-index:33--><g   id="j_646"  transform="translate(1874,671)" style=""><g  id="v-7673" style="opacity: 1;"><rect  id="v-7674" rx="10" ry="10" stroke="#85b920" stroke-width="2" pointer-events="visiblePainted" fill="#94ce24" x="10" y="0" width="150" height="75" style="fill: rgb(148, 206, 36); stroke: rgb(133, 185, 32);"></rect><rect  id="v-7675" rx="5" ry="5" stroke="#85b920" stroke-width="2" pointer-events="visiblePainted" fill="#94ce24" x="0" y="37.5" width="450" height="262.5" style="fill: rgb(148, 206, 36); stroke: rgb(133, 185, 32);"></rect><text  id="v-7676" font-size="34" xml:space="preserve" y="0.8em" font-weight="bold" text-anchor="middle" pointer-events="visible" font-family="Red Hat Display" fill="#143262" transform="matrix(1,0,0,1,225,92.5)" style="fill: rgb(20, 50, 98);"><tspan  dy="0">Zone Database</tspan></text><text  id="v-7677" font-size="17" xml:space="preserve" y="0.8em" text-anchor="middle" font-family="Red Hat Display" fill="#143262" transform="matrix(1,0,0,1,225,133.3000030517578)" style="fill: rgb(20, 50, 98);"><tspan  dy="0">[Container: YAML and GEOJSON Files]</tspan></text><text  id="v-7678" font-size="24" xml:space="preserve" y="0.8em" text-anchor="middle" font-family="Red Hat Display" fill="#143262" transform="matrix(1,0,0,1,225,163.6999969482422)" style="fill: rgb(20, 50, 98);"><tspan  dy="0">Contains metadata about zones,</tspan><tspan dy="1.2em" x="0" >such as their names, EIC codes, and</tspan><tspan dy="1.2em" x="0" >geographical information.</tspan></text><g  id="v-7679" font-weight="normal" text-anchor="middle" color="#143262" transform="matrix(1,0,0,1,210,268)" style="fill: rgb(20, 50, 98);" display="none"><g  transform="translate(5 0)"><svg xmlns="http://www.w3.org/2000/svg" width="20" height="20" fill="currentColor" viewBox="0 0 16 16"><path fill-rule="evenodd" d="M6.5 12a5.5 5.5 0 1 0 0-11 5.5 5.5 0 0 0 0 11zM13 6.5a6.5 6.5 0 1 1-13 0 6.5 6.5 0 0 1 13 0z"></path><path d="M10.344 11.742c.03.04.062.078.098.115l3.85 3.85a1 1 0 0 0 1.415-1.414l-3.85-3.85a1.007 1.007 0 0 0-.115-.1 6.538 6.538 0 0 1-1.398 1.4z"></path><path fill-rule="evenodd" d="M6.5 3a.5.5 0 0 1 .5.5V6h2.5a.5.5 0 0 1 0 1H7v2.5a.5.5 0 0 1-1 0V7H3.5a.5.5 0 0 1 0-1H6V3.5a.5.5 0 0 1 .5-.5z"></path></svg></g><g ></g><g ></g><g ></g></g><image  id="v-7680"></image></g></g><!--z-index:34--><g   id="j_647" ><path  stroke="#707070" d="M 1290 471 L 1290 671" id="v-7690" stroke-width="2" stroke-dasharray="30 30" fill="none" style="opacity: 1;"></path><path  fill="black" stroke="black" d="M 0 0 0 0" transform="matrix(6.123234262925839e-17,1,-1,6.123234262925839e-17,1290,471)"></path><path  fill="#707070" stroke="#707070" d="M 20 0 L 0 10 L 20 20 z" id="v-7692" transform="matrix(-1.8369701465288538e-16,-1,1,-1.8369701465288538e-16,1280,671)" style="opacity: 1;"></path><path  d="M 1290 471 L 1290 671" id="v-7691" fill="none" style="cursor: default;"></path><g ><g id="v-7684"  label-idx="0" cursor="move" transform="matrix(1,0,0,1,1290,571)" style="cursor: default; opacity: 1;"><rect joint-selector="rect" id="v-7687" fill="#ffffff" rx="3" ry="3" pointer-events="none" width="53.05957794189453" height="30.994468688964844" transform="matrix(1,0,0,1,-26.399999618530273,-15.5)"></rect><text joint-selector="text" id="v-7686" font-size="24px" xml:space="preserve" y="0.8em" fill="#707070" text-anchor="middle" pointer-events="none" font-family="Red Hat Display" font-weight="normal" transform="matrix(1,0,0,1,0,-10.300000190734863)"><tspan  dy="0">Uses</tspan></text></g><g id="v-7685"  label-idx="1" cursor="move" transform="matrix(1,0,0,1,1280,597.4000244140625)" style="cursor: default; opacity: 1;"><rect joint-selector="rect" id="v-7689" fill="#ffffff" rx="3" ry="3"  width="0" height="0" transform="matrix(1,0,0,1,0,0)" display="none"></rect><text joint-selector="text" id="v-7688" fill="#000000" font-size="14" text-anchor="middle" pointer-events="none"></text></g></g><g  display="none"></g><g  id="v-7694" display="none"><g  id="v-7682"><path  end="source" d="M 26 0 L 0 13 L 26 26 z"></path></g><g  id="v-7683"><path  end="target" d="M 26 0 L 0 13 L 26 26 z"></path></g></g><g  id="v-7693" display="none"><g  id="v-7681" transform="translate(1290, 511) "><g  event="remove"><circle r="11"></circle><path transform="scale(.8) translate(-16, -16)" d="M24.778,21.419 19.276,15.917 24.777,10.415 21.949,7.585 16.447,13.087 10.945,7.585 8.117,10.415 13.618,15.917 8.116,21.419 10.946,24.248 16.447,18.746 21.948,24.248z"></path><title>Remove link.</title></g><g  event="link:options"><circle r="11" transform="translate(25)"></circle><path fill="white" transform="scale(.55) translate(29, -16)" d="M31.229,17.736c0.064-0.571,0.104-1.148,0.104-1.736s-0.04-1.166-0.104-1.737l-4.377-1.557c-0.218-0.716-0.504-1.401-0.851-2.05l1.993-4.192c-0.725-0.91-1.549-1.734-2.458-2.459l-4.193,1.994c-0.647-0.347-1.334-0.632-2.049-0.849l-1.558-4.378C17.165,0.708,16.588,0.667,16,0.667s-1.166,0.041-1.737,0.105L12.707,5.15c-0.716,0.217-1.401,0.502-2.05,0.849L6.464,4.005C5.554,4.73,4.73,5.554,4.005,6.464l1.994,4.192c-0.347,0.648-0.632,1.334-0.849,2.05l-4.378,1.557C0.708,14.834,0.667,15.412,0.667,16s0.041,1.165,0.105,1.736l4.378,1.558c0.217,0.715,0.502,1.401,0.849,2.049l-1.994,4.193c0.725,0.909,1.549,1.733,2.459,2.458l4.192-1.993c0.648,0.347,1.334,0.633,2.05,0.851l1.557,4.377c0.571,0.064,1.148,0.104,1.737,0.104c0.588,0,1.165-0.04,1.736-0.104l1.558-4.377c0.715-0.218,1.399-0.504,2.049-0.851l4.193,1.993c0.909-0.725,1.733-1.549,2.458-2.458l-1.993-4.193c0.347-0.647,0.633-1.334,0.851-2.049L31.229,17.736zM16,20.871c-2.69,0-4.872-2.182-4.872-4.871c0-2.69,2.182-4.872,4.872-4.872c2.689,0,4.871,2.182,4.871,4.872C20.871,18.689,18.689,20.871,16,20.871z"></path><title>Link options.</title></g></g></g></g><!--z-index:35--><g   id="j_648" ><path  stroke="#707070" d="M 1515 1311 L 1874 1311" id="v-7707" stroke-width="2" stroke-dasharray="30 30" fill="none" style="opacity: 1;"></path><path  fill="black" stroke="black" d="M 0 0 0 0" transform="matrix(1,0,0,1,1515,1311)"></path><path  fill="#707070" stroke="#707070" d="M 20 0 L 0 10 L 20 20 z" id="v-7709" transform="matrix(-1,1.2246468525851679e-16,-1.2246468525851679e-16,-1,1874,1321)" style="opacity: 1;"></path><path  d="M 1515 1311 L 1874 1311" id="v-7708" fill="none" style="cursor: default;"></path><g ><g id="v-7701"  label-idx="0" cursor="move" transform="matrix(1,0,0,1,1694.5,1311)" style="cursor: default; opacity: 1;"><rect joint-selector="rect" id="v-7704" fill="#ffffff" rx="3" ry="3" pointer-events="none" width="155.85789489746094" height="30.994468688964844" transform="matrix(1,0,0,1,-77.80000305175781,-15.5)"></rect><text joint-selector="text" id="v-7703" font-size="24px" xml:space="preserve" y="0.8em" fill="#707070" text-anchor="middle" pointer-events="none" font-family="Red Hat Display" font-weight="normal" transform="matrix(1,0,0,1,0,-10.300000190734863)"><tspan  dy="0">Reads / Writes</tspan></text></g><g id="v-7702"  label-idx="1" cursor="move" transform="matrix(1,0,0,1,1684.5,1337.4000244140625)" style="cursor: default; opacity: 1;"><rect joint-selector="rect" id="v-7706" fill="#ffffff" rx="3" ry="3"  width="0" height="0" transform="matrix(1,0,0,1,0,0)" display="none"></rect><text joint-selector="text" id="v-7705" fill="#000000" font-size="14" text-anchor="middle" pointer-events="none"></text></g></g><g  display="none"></g><g  id="v-7711" display="none"><g  id="v-7699"><path  end="source" d="M 26 0 L 0 13 L 26 26 z"></path></g><g  id="v-7700"><path  end="target" d="M 26 0 L 0 13 L 26 26 z"></path></g></g><g  id="v-7710" display="none"><g  id="v-7698" transform="translate(1555, 1311) "><g  event="remove"><circle r="11"></circle><path transform="scale(.8) translate(-16, -16)" d="M24.778,21.419 19.276,15.917 24.777,10.415 21.949,7.585 16.447,13.087 10.945,7.585 8.117,10.415 13.618,15.917 8.116,21.419 10.946,24.248 16.447,18.746 21.948,24.248z"></path><title>Remove link.</title></g><g  event="link:options"><circle r="11" transform="translate(25)"></circle><path fill="white" transform="scale(.55) translate(29, -16)" d="M31.229,17.736c0.064-0.571,0.104-1.148,0.104-1.736s-0.04-1.166-0.104-1.737l-4.377-1.557c-0.218-0.716-0.504-1.401-0.851-2.05l1.993-4.192c-0.725-0.91-1.549-1.734-2.458-2.459l-4.193,1.994c-0.647-0.347-1.334-0.632-2.049-0.849l-1.558-4.378C17.165,0.708,16.588,0.667,16,0.667s-1.166,0.041-1.737,0.105L12.707,5.15c-0.716,0.217-1.401,0.502-2.05,0.849L6.464,4.005C5.554,4.73,4.73,5.554,4.005,6.464l1.994,4.192c-0.347,0.648-0.632,1.334-0.849,2.05l-4.378,1.557C0.708,14.834,0.667,15.412,0.667,16s0.041,1.165,0.105,1.736l4.378,1.558c0.217,0.715,0.502,1.401,0.849,2.049l-1.994,4.193c0.725,0.909,1.549,1.733,2.459,2.458l4.192-1.993c0.648,0.347,1.334,0.633,2.05,0.851l1.557,4.377c0.571,0.064,1.148,0.104,1.737,0.104c0.588,0,1.165-0.04,1.736-0.104l1.558-4.377c0.715-0.218,1.399-0.504,2.049-0.851l4.193,1.993c0.909-0.725,1.733-1.549,2.458-2.458l-1.993-4.193c0.347-0.647,0.633-1.334,0.851-2.049L31.229,17.736zM16,20.871c-2.69,0-4.872-2.182-4.872-4.871c0-2.69,2.182-4.872,4.872-4.872c2.689,0,4.871,2.182,4.871,4.872C20.871,18.689,18.689,20.871,16,20.871z"></path><title>Link options.</title></g></g></g></g><!--z-index:36--><g   id="j_649" ><path  stroke="#707070" d="M 1515 821 L 1874 821" id="v-7724" stroke-width="2" stroke-dasharray="30 30" fill="none" style="opacity: 1;"></path><path  fill="black" stroke="black" d="M 0 0 0 0" transform="matrix(1,0,0,1,1515,821)"></path><path  fill="#707070" stroke="#707070" d="M 20 0 L 0 10 L 20 20 z" id="v-7726" transform="matrix(-1,1.2246468525851679e-16,-1.2246468525851679e-16,-1,1874,831)" style="opacity: 1;"></path><path  d="M 1515 821 L 1874 821" id="v-7725" fill="none" style="cursor: default;"></path><g ><g id="v-7715"  label-idx="0" cursor="move" transform="matrix(1,0,0,1,1694.5,821)" style="cursor: default; opacity: 1;"><rect joint-selector="rect" id="v-7719" fill="#ffffff" rx="3" ry="3" pointer-events="none" width="66.41671752929688" height="30.994468688964844" transform="matrix(1,0,0,1,-33.099998474121094,-15.5)"></rect><text joint-selector="text" id="v-7718" font-size="24px" xml:space="preserve" y="0.8em" fill="#707070" text-anchor="middle" pointer-events="none" font-family="Red Hat Display" font-weight="normal" transform="matrix(1,0,0,1,0,-10.300000190734863)"><tspan  dy="0">Reads</tspan></text></g><g id="v-7716"  label-idx="1" cursor="move" transform="matrix(1,0,0,1,1694.5,847.4000244140625)" style="cursor: default; opacity: 1;"><rect joint-selector="rect" id="v-7721" fill="#ffffff" rx="3" ry="3" pointer-events="none" width="96.61666870117188" height="21.25" transform="matrix(1,0,0,1,-48,-10.600000381469727)"></rect><text joint-selector="text" id="v-7720" font-size="17px" xml:space="preserve" y="0.8em" fill="#707070" text-anchor="middle" pointer-events="none" font-family="Red Hat Display" font-weight="normal" transform="matrix(1,0,0,1,0,-7.199999809265137)"><tspan  dy="0">[YAML Files]</tspan></text></g><g id="v-7717"  label-idx="2" cursor="move" transform="matrix(1,0,0,1,1684.5,855.7999877929688)" style="cursor: default; opacity: 1;"><rect joint-selector="rect" id="v-7723" fill="#ffffff" rx="3" ry="3"  width="0" height="0" transform="matrix(1,0,0,1,0,0)" display="none"></rect><text joint-selector="text" id="v-7722" fill="#000000" font-size="14" text-anchor="middle" pointer-events="none"></text></g></g><g  display="none"></g><g  id="v-7728" display="none"><g  id="v-7713"><path  end="source" d="M 26 0 L 0 13 L 26 26 z"></path></g><g  id="v-7714"><path  end="target" d="M 26 0 L 0 13 L 26 26 z"></path></g></g><g  id="v-7727" display="none"><g  id="v-7712" transform="translate(1555, 821) "><g  event="remove"><circle r="11"></circle><path transform="scale(.8) translate(-16, -16)" d="M24.778,21.419 19.276,15.917 24.777,10.415 21.949,7.585 16.447,13.087 10.945,7.585 8.117,10.415 13.618,15.917 8.116,21.419 10.946,24.248 16.447,18.746 21.948,24.248z"></path><title>Remove link.</title></g><g  event="link:options"><circle r="11" transform="translate(25)"></circle><path fill="white" transform="scale(.55) translate(29, -16)" d="M31.229,17.736c0.064-0.571,0.104-1.148,0.104-1.736s-0.04-1.166-0.104-1.737l-4.377-1.557c-0.218-0.716-0.504-1.401-0.851-2.05l1.993-4.192c-0.725-0.91-1.549-1.734-2.458-2.459l-4.193,1.994c-0.647-0.347-1.334-0.632-2.049-0.849l-1.558-4.378C17.165,0.708,16.588,0.667,16,0.667s-1.166,0.041-1.737,0.105L12.707,5.15c-0.716,0.217-1.401,0.502-2.05,0.849L6.464,4.005C5.554,4.73,4.73,5.554,4.005,6.464l1.994,4.192c-0.347,0.648-0.632,1.334-0.849,2.05l-4.378,1.557C0.708,14.834,0.667,15.412,0.667,16s0.041,1.165,0.105,1.736l4.378,1.558c0.217,0.715,0.502,1.401,0.849,2.049l-1.994,4.193c0.725,0.909,1.549,1.733,2.459,2.458l4.192-1.993c0.648,0.347,1.334,0.633,2.05,0.851l1.557,4.377c0.571,0.064,1.148,0.104,1.737,0.104c0.588,0,1.165-0.04,1.736-0.104l1.558-4.377c0.715-0.218,1.399-0.504,2.049-0.851l4.193,1.993c0.909-0.725,1.733-1.549,2.458-2.458l-1.993-4.193c0.347-0.647,0.633-1.334,0.851-2.049L31.229,17.736zM16,20.871c-2.69,0-4.872-2.182-4.872-4.871c0-2.69,2.182-4.872,4.872-4.872c2.689,0,4.871,2.182,4.871,4.872C20.871,18.689,18.689,20.871,16,20.871z"></path><title>Link options.</title></g></g></g></g><!--z-index:37--><g   id="j_650" ><path  stroke="#707070" d="M 1290 971 L 1290 1161" id="v-7738" stroke-width="2" stroke-dasharray="30 30" fill="none" style="opacity: 1;"></path><path  fill="black" stroke="black" d="M 0 0 0 0" transform="matrix(6.123234262925839e-17,1,-1,6.123234262925839e-17,1290,971)"></path><path  fill="#707070" stroke="#707070" d="M 20 0 L 0 10 L 20 20 z" id="v-7740" transform="matrix(-1.8369701465288538e-16,-1,1,-1.8369701465288538e-16,1280,1161)" style="opacity: 1;"></path><path  d="M 1290 971 L 1290 1161" id="v-7739" fill="none" style="cursor: default;"></path><g ><g id="v-7732"  label-idx="0" cursor="move" transform="matrix(1,0,0,1,1290,1066)" style="cursor: default; opacity: 1;"><rect joint-selector="rect" id="v-7735" fill="#ffffff" rx="3" ry="3" pointer-events="none" width="53.05957794189453" height="30.994468688964844" transform="matrix(1,0,0,1,-26.399999618530273,-15.5)"></rect><text joint-selector="text" id="v-7734" font-size="24px" xml:space="preserve" y="0.8em" fill="#707070" text-anchor="middle" pointer-events="none" font-family="Red Hat Display" font-weight="normal" transform="matrix(1,0,0,1,0,-10.300000190734863)"><tspan  dy="0">Uses</tspan></text></g><g id="v-7733"  label-idx="1" cursor="move" transform="matrix(1,0,0,1,1280,1092.4000244140625)" style="cursor: default; opacity: 1;"><rect joint-selector="rect" id="v-7737" fill="#ffffff" rx="3" ry="3"  width="0" height="0" transform="matrix(1,0,0,1,0,0)" display="none"></rect><text joint-selector="text" id="v-7736" fill="#000000" font-size="14" text-anchor="middle" pointer-events="none"></text></g></g><g  display="none"></g><g  id="v-7742" display="none"><g  id="v-7730"><path  end="source" d="M 26 0 L 0 13 L 26 26 z"></path></g><g  id="v-7731"><path  end="target" d="M 26 0 L 0 13 L 26 26 z"></path></g></g><g  id="v-7741" display="none"><g  id="v-7729" transform="translate(1290, 1011) "><g  event="remove"><circle r="11"></circle><path transform="scale(.8) translate(-16, -16)" d="M24.778,21.419 19.276,15.917 24.777,10.415 21.949,7.585 16.447,13.087 10.945,7.585 8.117,10.415 13.618,15.917 8.116,21.419 10.946,24.248 16.447,18.746 21.948,24.248z"></path><title>Remove link.</title></g><g  event="link:options"><circle r="11" transform="translate(25)"></circle><path fill="white" transform="scale(.55) translate(29, -16)" d="M31.229,17.736c0.064-0.571,0.104-1.148,0.104-1.736s-0.04-1.166-0.104-1.737l-4.377-1.557c-0.218-0.716-0.504-1.401-0.851-2.05l1.993-4.192c-0.725-0.91-1.549-1.734-2.458-2.459l-4.193,1.994c-0.647-0.347-1.334-0.632-2.049-0.849l-1.558-4.378C17.165,0.708,16.588,0.667,16,0.667s-1.166,0.041-1.737,0.105L12.707,5.15c-0.716,0.217-1.401,0.502-2.05,0.849L6.464,4.005C5.554,4.73,4.73,5.554,4.005,6.464l1.994,4.192c-0.347,0.648-0.632,1.334-0.849,2.05l-4.378,1.557C0.708,14.834,0.667,15.412,0.667,16s0.041,1.165,0.105,1.736l4.378,1.558c0.217,0.715,0.502,1.401,0.849,2.049l-1.994,4.193c0.725,0.909,1.549,1.733,2.459,2.458l4.192-1.993c0.648,0.347,1.334,0.633,2.05,0.851l1.557,4.377c0.571,0.064,1.148,0.104,1.737,0.104c0.588,0,1.165-0.04,1.736-0.104l1.558-4.377c0.715-0.218,1.399-0.504,2.049-0.851l4.193,1.993c0.909-0.725,1.733-1.549,2.458-2.458l-1.993-4.193c0.347-0.647,0.633-1.334,0.851-2.049L31.229,17.736zM16,20.871c-2.69,0-4.872-2.182-4.872-4.871c0-2.69,2.182-4.872,4.872-4.872c2.689,0,4.871,2.182,4.871,4.872C20.871,18.689,18.689,20.871,16,20.871z"></path><title>Link options.</title></g></g></g></g><!--z-index:38--><g   id="j_651" ><path  stroke="#707070" d="M 1065 951 L 669 1181" id="v-7752" stroke-width="2" stroke-dasharray="30 30" fill="none" style="opacity: 1;"></path><path  fill="black" stroke="black" d="M 0 0 0 0" transform="matrix(-0.8653345704078674,0.5011946558952332,-0.5011946558952332,-0.8653345704078674,1065,951.3200073242188)"></path><path  fill="#707070" stroke="#707070" d="M 20 0 L 0 10 L 20 20 z" id="v-7754" transform="matrix(0.8653345704078674,-0.5011946558952332,0.5011946558952332,0.8653345704078674,663.988037109375,1172.0267333984375)" style="opacity: 1;"></path><path  d="M 1065 951 L 669 1181" id="v-7753" fill="none" style="cursor: default;"></path><g ><g id="v-7746"  label-idx="0" cursor="move" transform="matrix(1,0,0,1,867,1066)" style="cursor: default; opacity: 1;"><rect joint-selector="rect" id="v-7749" fill="#ffffff" rx="3" ry="3" pointer-events="none" width="53.05957794189453" height="30.994468688964844" transform="matrix(1,0,0,1,-26.399999618530273,-15.5)"></rect><text joint-selector="text" id="v-7748" font-size="24px" xml:space="preserve" y="0.8em" fill="#707070" text-anchor="middle" pointer-events="none" font-family="Red Hat Display" font-weight="normal" transform="matrix(1,0,0,1,0,-10.300000190734863)"><tspan  dy="0">Uses</tspan></text></g><g id="v-7747"  label-idx="1" cursor="move" transform="matrix(1,0,0,1,857,1092.4000244140625)" style="cursor: default; opacity: 1;"><rect joint-selector="rect" id="v-7751" fill="#ffffff" rx="3" ry="3"  width="0" height="0" transform="matrix(1,0,0,1,0,0)" display="none"></rect><text joint-selector="text" id="v-7750" fill="#000000" font-size="14" text-anchor="middle" pointer-events="none"></text></g></g><g  display="none"></g><g  id="v-7756" display="none"><g  id="v-7744"><path  end="source" d="M 26 0 L 0 13 L 26 26 z"></path></g><g  id="v-7745"><path  end="target" d="M 26 0 L 0 13 L 26 26 z"></path></g></g><g  id="v-7755" display="none"><g  id="v-7743" transform="translate(1030.4108894464798, 971.0896349174485) "><g  event="remove"><circle r="11"></circle><path transform="scale(.8) translate(-16, -16)" d="M24.778,21.419 19.276,15.917 24.777,10.415 21.949,7.585 16.447,13.087 10.945,7.585 8.117,10.415 13.618,15.917 8.116,21.419 10.946,24.248 16.447,18.746 21.948,24.248z"></path><title>Remove link.</title></g><g  event="link:options"><circle r="11" transform="translate(25)"></circle><path fill="white" transform="scale(.55) translate(29, -16)" d="M31.229,17.736c0.064-0.571,0.104-1.148,0.104-1.736s-0.04-1.166-0.104-1.737l-4.377-1.557c-0.218-0.716-0.504-1.401-0.851-2.05l1.993-4.192c-0.725-0.91-1.549-1.734-2.458-2.459l-4.193,1.994c-0.647-0.347-1.334-0.632-2.049-0.849l-1.558-4.378C17.165,0.708,16.588,0.667,16,0.667s-1.166,0.041-1.737,0.105L12.707,5.15c-0.716,0.217-1.401,0.502-2.05,0.849L6.464,4.005C5.554,4.73,4.73,5.554,4.005,6.464l1.994,4.192c-0.347,0.648-0.632,1.334-0.849,2.05l-4.378,1.557C0.708,14.834,0.667,15.412,0.667,16s0.041,1.165,0.105,1.736l4.378,1.558c0.217,0.715,0.502,1.401,0.849,2.049l-1.994,4.193c0.725,0.909,1.549,1.733,2.459,2.458l4.192-1.993c0.648,0.347,1.334,0.633,2.05,0.851l1.557,4.377c0.571,0.064,1.148,0.104,1.737,0.104c0.588,0,1.165-0.04,1.736-0.104l1.558-4.377c0.715-0.218,1.399-0.504,2.049-0.851l4.193,1.993c0.909-0.725,1.733-1.549,2.458-2.458l-1.993-4.193c0.347-0.647,0.633-1.334,0.851-2.049L31.229,17.736zM16,20.871c-2.69,0-4.872-2.182-4.872-4.871c0-2.69,2.182-4.872,4.872-4.872c2.689,0,4.871,2.182,4.871,4.872C20.871,18.689,18.689,20.871,16,20.871z"></path><title>Link options.</title></g></g></g></g><!--z-index:39--><g   id="j_652" ><path  stroke="#707070" d="M 669 1311 L 1065 1311" id="v-7766" stroke-width="2" stroke-dasharray="30 30" fill="none" style="opacity: 1;"></path><path  fill="black" stroke="black" d="M 0 0 0 0" transform="matrix(1,0,0,1,669,1311)"></path><path  fill="#707070" stroke="#707070" d="M 20 0 L 0 10 L 20 20 z" id="v-7768" transform="matrix(-1,1.2246468525851679e-16,-1.2246468525851679e-16,-1,1065,1321)" style="opacity: 1;"></path><path  d="M 669 1311 L 1065 1311" id="v-7767" fill="none" style="cursor: default;"></path><g ><g id="v-7760"  label-idx="0" cursor="move" transform="matrix(1,0,0,1,867,1311)" style="cursor: default; opacity: 1;"><rect joint-selector="rect" id="v-7763" fill="#ffffff" rx="3" ry="3" pointer-events="none" width="53.05957794189453" height="30.994468688964844" transform="matrix(1,0,0,1,-26.399999618530273,-15.5)"></rect><text joint-selector="text" id="v-7762" font-size="24px" xml:space="preserve" y="0.8em" fill="#707070" text-anchor="middle" pointer-events="none" font-family="Red Hat Display" font-weight="normal" transform="matrix(1,0,0,1,0,-10.300000190734863)"><tspan  dy="0">Uses</tspan></text></g><g id="v-7761"  label-idx="1" cursor="move" transform="matrix(1,0,0,1,857,1337.4000244140625)" style="cursor: default; opacity: 1;"><rect joint-selector="rect" id="v-7765" fill="#ffffff" rx="3" ry="3"  width="0" height="0" transform="matrix(1,0,0,1,0,0)" display="none"></rect><text joint-selector="text" id="v-7764" fill="#000000" font-size="14" text-anchor="middle" pointer-events="none"></text></g></g><g  display="none"></g><g  id="v-7770" display="none"><g  id="v-7758"><path  end="source" d="M 26 0 L 0 13 L 26 26 z"></path></g><g  id="v-7759"><path  end="target" d="M 26 0 L 0 13 L 26 26 z"></path></g></g><g  id="v-7769" display="none"><g  id="v-7757" transform="translate(709, 1311) "><g  event="remove"><circle r="11"></circle><path transform="scale(.8) translate(-16, -16)" d="M24.778,21.419 19.276,15.917 24.777,10.415 21.949,7.585 16.447,13.087 10.945,7.585 8.117,10.415 13.618,15.917 8.116,21.419 10.946,24.248 16.447,18.746 21.948,24.248z"></path><title>Remove link.</title></g><g  event="link:options"><circle r="11" transform="translate(25)"></circle><path fill="white" transform="scale(.55) translate(29, -16)" d="M31.229,17.736c0.064-0.571,0.104-1.148,0.104-1.736s-0.04-1.166-0.104-1.737l-4.377-1.557c-0.218-0.716-0.504-1.401-0.851-2.05l1.993-4.192c-0.725-0.91-1.549-1.734-2.458-2.459l-4.193,1.994c-0.647-0.347-1.334-0.632-2.049-0.849l-1.558-4.378C17.165,0.708,16.588,0.667,16,0.667s-1.166,0.041-1.737,0.105L12.707,5.15c-0.716,0.217-1.401,0.502-2.05,0.849L6.464,4.005C5.554,4.73,4.73,5.554,4.005,6.464l1.994,4.192c-0.347,0.648-0.632,1.334-0.849,2.05l-4.378,1.557C0.708,14.834,0.667,15.412,0.667,16s0.041,1.165,0.105,1.736l4.378,1.558c0.217,0.715,0.502,1.401,0.849,2.049l-1.994,4.193c0.725,0.909,1.549,1.733,2.459,2.458l4.192-1.993c0.648,0.347,1.334,0.633,2.05,0.851l1.557,4.377c0.571,0.064,1.148,0.104,1.737,0.104c0.588,0,1.165-0.04,1.736-0.104l1.558-4.377c0.715-0.218,1.399-0.504,2.049-0.851l4.193,1.993c0.909-0.725,1.733-1.549,2.458-2.458l-1.993-4.193c0.347-0.647,0.633-1.334,0.851-2.049L31.229,17.736zM16,20.871c-2.69,0-4.872-2.182-4.872-4.871c0-2.69,2.182-4.872,4.872-4.872c2.689,0,4.871,2.182,4.871,4.872C20.871,18.689,18.689,20.871,16,20.871z"></path><title>Link options.</title></g></g></g></g><!--z-index:40--><g   id="j_653" ><path  stroke="#707070" d="M 1065 821 L 669 821" id="v-7780" stroke-width="2" stroke-dasharray="30 30" fill="none" style="opacity: 1;"></path><path  fill="black" stroke="black" d="M 0 0 0 0" transform="matrix(-1,1.2246468525851679e-16,-1.2246468525851679e-16,-1,1065,821)"></path><path  fill="#707070" stroke="#707070" d="M 20 0 L 0 10 L 20 20 z" id="v-7782" transform="matrix(1,0,0,1,669,811)" style="opacity: 1;"></path><path  d="M 1065 821 L 669 821" id="v-7781" fill="none" style="cursor: default;"></path><g ><g id="v-7774"  label-idx="0" cursor="move" transform="matrix(1,0,0,1,867,821)" style="cursor: default; opacity: 1;"><rect joint-selector="rect" id="v-7777" fill="#ffffff" rx="3" ry="3" pointer-events="none" width="53.05957794189453" height="30.994468688964844" transform="matrix(1,0,0,1,-26.399999618530273,-15.5)"></rect><text joint-selector="text" id="v-7776" font-size="24px" xml:space="preserve" y="0.8em" fill="#707070" text-anchor="middle" pointer-events="none" font-family="Red Hat Display" font-weight="normal" transform="matrix(1,0,0,1,0,-10.300000190734863)"><tspan  dy="0">Uses</tspan></text></g><g id="v-7775"  label-idx="1" cursor="move" transform="matrix(1,0,0,1,857,847.4000244140625)" style="cursor: default; opacity: 1;"><rect joint-selector="rect" id="v-7779" fill="#ffffff" rx="3" ry="3"  width="0" height="0" transform="matrix(1,0,0,1,0,0)" display="none"></rect><text joint-selector="text" id="v-7778" fill="#000000" font-size="14" text-anchor="middle" pointer-events="none"></text></g></g><g  display="none"></g><g  id="v-7784" display="none"><g  id="v-7772"><path  end="source" d="M 26 0 L 0 13 L 26 26 z"></path></g><g  id="v-7773"><path  end="target" d="M 26 0 L 0 13 L 26 26 z"></path></g></g><g  id="v-7783" display="none"><g  id="v-7771" transform="translate(1025, 821) "><g  event="remove"><circle r="11"></circle><path transform="scale(.8) translate(-16, -16)" d="M24.778,21.419 19.276,15.917 24.777,10.415 21.949,7.585 16.447,13.087 10.945,7.585 8.117,10.415 13.618,15.917 8.116,21.419 10.946,24.248 16.447,18.746 21.948,24.248z"></path><title>Remove link.</title></g><g  event="link:options"><circle r="11" transform="translate(25)"></circle><path fill="white" transform="scale(.55) translate(29, -16)" d="M31.229,17.736c0.064-0.571,0.104-1.148,0.104-1.736s-0.04-1.166-0.104-1.737l-4.377-1.557c-0.218-0.716-0.504-1.401-0.851-2.05l1.993-4.192c-0.725-0.91-1.549-1.734-2.458-2.459l-4.193,1.994c-0.647-0.347-1.334-0.632-2.049-0.849l-1.558-4.378C17.165,0.708,16.588,0.667,16,0.667s-1.166,0.041-1.737,0.105L12.707,5.15c-0.716,0.217-1.401,0.502-2.05,0.849L6.464,4.005C5.554,4.73,4.73,5.554,4.005,6.464l1.994,4.192c-0.347,0.648-0.632,1.334-0.849,2.05l-4.378,1.557C0.708,14.834,0.667,15.412,0.667,16s0.041,1.165,0.105,1.736l4.378,1.558c0.217,0.715,0.502,1.401,0.849,2.049l-1.994,4.193c0.725,0.909,1.549,1.733,2.459,2.458l4.192-1.993c0.648,0.347,1.334,0.633,2.05,0.851l1.557,4.377c0.571,0.064,1.148,0.104,1.737,0.104c0.588,0,1.165-0.04,1.736-0.104l1.558-4.377c0.715-0.218,1.399-0.504,2.049-0.851l4.193,1.993c0.909-0.725,1.733-1.549,2.458-2.458l-1.993-4.193c0.347-0.647,0.633-1.334,0.851-2.049L31.229,17.736zM16,20.871c-2.69,0-4.872-2.182-4.872-4.871c0-2.69,2.182-4.872,4.872-4.872c2.689,0,4.871,2.182,4.871,4.872C20.871,18.689,18.689,20.871,16,20.871z"></path><title>Link options.</title></g></g></g></g><!--z-index:41--><g   id="j_654" ><path  stroke="#707070" d="M 444 471 L 444 671" id="v-7794" stroke-width="2" stroke-dasharray="30 30" fill="none" style="opacity: 1;"></path><path  fill="black" stroke="black" d="M 0 0 0 0" transform="matrix(6.123234262925839e-17,1,-1,6.123234262925839e-17,444,471)"></path><path  fill="#707070" stroke="#707070" d="M 20 0 L 0 10 L 20 20 z" id="v-7796" transform="matrix(-1.8369701465288538e-16,-1,1,-1.8369701465288538e-16,434,671)" style="opacity: 1;"></path><path  d="M 444 471 L 444 671" id="v-7795" fill="none" style="cursor: default;"></path><g ><g id="v-7788"  label-idx="0" cursor="move" transform="matrix(1,0,0,1,444,571)" style="cursor: default; opacity: 1;"><rect joint-selector="rect" id="v-7791" fill="#ffffff" rx="3" ry="3" pointer-events="none" width="127.37250518798828" height="30.994468688964844" transform="matrix(1,0,0,1,-63.5,-15.5)"></rect><text joint-selector="text" id="v-7790" font-size="24px" xml:space="preserve" y="0.8em" fill="#707070" text-anchor="middle" pointer-events="none" font-family="Red Hat Display" font-weight="normal" transform="matrix(1,0,0,1,0,-10.300000190734863)"><tspan  dy="0">Implements</tspan></text></g><g id="v-7789"  label-idx="1" cursor="move" transform="matrix(1,0,0,1,434,597.4000244140625)" style="cursor: default; opacity: 1;"><rect joint-selector="rect" id="v-7793" fill="#ffffff" rx="3" ry="3"  width="0" height="0" transform="matrix(1,0,0,1,0,0)" display="none"></rect><text joint-selector="text" id="v-7792" fill="#000000" font-size="14" text-anchor="middle" pointer-events="none"></text></g></g><g  display="none"></g><g  id="v-7798" display="none"><g  id="v-7786"><path  end="source" d="M 26 0 L 0 13 L 26 26 z"></path></g><g  id="v-7787"><path  end="target" d="M 26 0 L 0 13 L 26 26 z"></path></g></g><g  id="v-7797" display="none"><g  id="v-7785" transform="translate(444.00000000000006, 511) "><g  event="remove"><circle r="11"></circle><path transform="scale(.8) translate(-16, -16)" d="M24.778,21.419 19.276,15.917 24.777,10.415 21.949,7.585 16.447,13.087 10.945,7.585 8.117,10.415 13.618,15.917 8.116,21.419 10.946,24.248 16.447,18.746 21.948,24.248z"></path><title>Remove link.</title></g><g  event="link:options"><circle r="11" transform="translate(25)"></circle><path fill="white" transform="scale(.55) translate(29, -16)" d="M31.229,17.736c0.064-0.571,0.104-1.148,0.104-1.736s-0.04-1.166-0.104-1.737l-4.377-1.557c-0.218-0.716-0.504-1.401-0.851-2.05l1.993-4.192c-0.725-0.91-1.549-1.734-2.458-2.459l-4.193,1.994c-0.647-0.347-1.334-0.632-2.049-0.849l-1.558-4.378C17.165,0.708,16.588,0.667,16,0.667s-1.166,0.041-1.737,0.105L12.707,5.15c-0.716,0.217-1.401,0.502-2.05,0.849L6.464,4.005C5.554,4.73,4.73,5.554,4.005,6.464l1.994,4.192c-0.347,0.648-0.632,1.334-0.849,2.05l-4.378,1.557C0.708,14.834,0.667,15.412,0.667,16s0.041,1.165,0.105,1.736l4.378,1.558c0.217,0.715,0.502,1.401,0.849,2.049l-1.994,4.193c0.725,0.909,1.549,1.733,2.459,2.458l4.192-1.993c0.648,0.347,1.334,0.633,2.05,0.851l1.557,4.377c0.571,0.064,1.148,0.104,1.737,0.104c0.588,0,1.165-0.04,1.736-0.104l1.558-4.377c0.715-0.218,1.399-0.504,2.049-0.851l4.193,1.993c0.909-0.725,1.733-1.549,2.458-2.458l-1.993-4.193c0.347-0.647,0.633-1.334,0.851-2.049L31.229,17.736zM16,20.871c-2.69,0-4.872-2.182-4.872-4.871c0-2.69,2.182-4.872,4.872-4.872c2.689,0,4.871,2.182,4.871,4.872C20.871,18.689,18.689,20.871,16,20.871z"></path><title>Link options.</title></g></g></g></g><!--z-index:42--><!--z-index:43--><!--z-index:44--><!--z-index:45--><!--z-index:46--><!--z-index:47--><!--z-index:48--><!--z-index:49--><!--z-index:50--><!--z-index:51--><!--z-index:52--><!--z-index:53--><!--z-index:54--><!--z-index:55--><!--z-index:56--><!--z-index:57--><!--z-index:58--><!--z-index:59--><!--z-index:60--><!--z-index:61--><!--z-index:62--><!--z-index:63--><!--z-index:64--><!--z-index:65--><!--z-index:66--><!--z-index:67--><!--z-index:68--><!--z-index:69--><!--z-index:70--><!--z-index:71--><!--z-index:72--><!--z-index:73--><!--z-index:74--><!--z-index:75--><!--z-index:76--><!--z-index:77--><!--z-index:78--><!--z-index:79--><!--z-index:80--><!--z-index:81--><!--z-index:82--><!--z-index:83--><!--z-index:84--><!--z-index:85--><!--z-index:86--><!--z-index:87--><!--z-index:88--><!--z-index:89--><!--z-index:90--><!--z-index:91--><!--z-index:92--><!--z-index:93--><!--z-index:94--><!--z-index:95--><!--z-index:96--><!--z-index:97--><!--z-index:98--><!--z-index:99--><!--z-index:100--><!--z-index:101--><!--z-index:102--><!--z-index:103--><!--z-index:104--><!--z-index:105--><!--z-index:106--><!--z-index:107--><!--z-index:108--><!--z-index:109--><!--z-index:110--><!--z-index:111--><!--z-index:112--><!--z-index:113--><!--z-index:114--><!--z-index:115--><!--z-index:116--><!--z-index:117--><!--z-index:118--><!--z-index:119--><!--z-index:120--><!--z-index:121--><!--z-index:122--><!--z-index:123--><!--z-index:124--><!--z-index:125--><!--z-index:126--><!--z-index:127--><!--z-index:128--><!--z-index:129--><!--z-index:130--><!--z-index:131--><!--z-index:132--><!--z-index:133--><!--z-index:134--><!--z-index:135--><!--z-index:136--><!--z-index:137--><!--z-index:138--><!--z-index:139--><!--z-index:140--><!--z-index:141--><!--z-index:142--><!--z-index:143--><!--z-index:144--><!--z-index:145--><!--z-index:146--><!--z-index:147--><!--z-index:148--><!--z-index:149--><!--z-index:150--><!--z-index:151--><!--z-index:152--><!--z-index:153--><!--z-index:154--><!--z-index:155--><!--z-index:156--><!--z-index:157--><!--z-index:158--><!--z-index:159--><!--z-index:160--><!--z-index:161--><!--z-index:162--><!--z-index:163--><!--z-index:164--><!--z-index:165--><!--z-index:166--><!--z-index:167--><!--z-index:168--><!--z-index:169--><!--z-index:170--><!--z-index:171--><!--z-index:172--><!--z-index:173--><!--z-index:174--><!--z-index:175--><!--z-index:176--><!--z-index:177--><!--z-index:178--><!--z-index:179--><!--z-index:180--><!--z-index:181--><!--z-index:182--><!--z-index:183--><!--z-index:184--><!--z-index:185--><!--z-index:186--><!--z-index:187--><!--z-index:188--><!--z-index:189--><!--z-index:190--><!--z-index:191--><!--z-index:192--></g><g ></g><g ></g><g ></g></g></svg>