<svg xmlns="http://www.w3.org/2000/svg" xmlns:xlink="http://www.w3.org/1999/xlink" version="1.1" viewBox="0 0 2504 1305" style="background: #ffffff"><defs><style>@import url(https://fonts.googleapis.com/css2?family=Red+Hat+Display:wght@500..900);</style></defs><defs joint-selector="defs"></defs><g  joint-selector="layers" transform="matrix(1,0,0,1,0,0)"><g ></g><g ><!--z-index:-1--><!--z-index:0--><!--z-index:1--><!--z-index:2--><!--z-index:3--><!--z-index:4--><!--z-index:5--><!--z-index:6--><!--z-index:7--><!--z-index:8--><!--z-index:9--><!--z-index:10--><!--z-index:11--><g   id="j_369"  transform="translate(20,1199)"><g id="v-4284"><image  id="v-4285" xlink:href="https://raw.githubusercontent.com/jaimeib/hosting/refs/heads/main/wattnet-logo-icon-dark-background-rounded.png" pointer-events="none" width="96" height="96"></image></g></g><!--z-index:12--><g   id="j_368"  transform="translate(136,1268.6)"><g id="v-4282"><text  id="v-4283" font-size="22px" xml:space="preserve" y="0.8em" font-weight="normal" text-anchor="start" fill="#aaaaaa" pointer-events="none" display="block" font-family="Red Hat Display"><tspan  dy="0">Monday, April 6, 2026 at 10:01 AM Central European Summer Time</tspan></text></g></g><!--z-index:13--><g   id="j_367"  transform="translate(136,1242.1999999999998)"><g id="v-4280"><text  id="v-4281" font-size="22px" xml:space="preserve" y="0.8em" font-weight="normal" text-anchor="start" fill="#aaaaaa" pointer-events="none" display="block" font-family="Red Hat Display"><tspan  dy="0">© Spanish National Research Council (CSIC) | Licensed under CC BY 4.0</tspan></text></g></g><!--z-index:14--><g   id="j_366"  transform="translate(136,1198.9999999999998)"><g id="v-4278"><text  id="v-4279" font-size="36px" xml:space="preserve" y="0.8em" font-weight="normal" text-anchor="start" fill="#000000" pointer-events="none" display="block" font-family="Red Hat Display"><tspan  dy="0">[System Context] wattnet</tspan></text></g></g><!--z-index:15--><g   id="j_370"  transform="translate(225,151)" style=""><g  id="v-4289" style="opacity: 1;"><rect  x="0" y="160" width="400" height="240" rx="70" id="v-4291" stroke="#122d58" stroke-width="2" pointer-events="visiblePainted" fill="#143262" style="fill: rgb(20, 50, 98); stroke: rgb(18, 45, 88);"></rect><circle  cx="200" cy="88.88888888888889" r="88.88888888888889" id="v-4290" stroke="#122d58" stroke-width="2" pointer-events="visiblePainted" fill="#143262" style="fill: rgb(20, 50, 98); stroke: rgb(18, 45, 88);"></circle><line  x1="80" y1="266.6666666666667" x2="80" y2="400" id="v-4297" stroke="#122d58" stroke-width="2" style="stroke: rgb(18, 45, 88);"></line><line  x1="320" y1="266.6666666666667" x2="320" y2="400" id="v-4298" stroke="#122d58" stroke-width="2" style="stroke: rgb(18, 45, 88);"></line><text  id="v-4292" font-size="34" xml:space="preserve" y="0.8em" font-weight="bold" text-anchor="middle" pointer-events="visible" font-family="Red Hat Display" fill="#ffffff" transform="matrix(1,0,0,1,200,203.6999969482422)" style="fill: rgb(255, 255, 255);"><tspan  dy="0">User</tspan></text><text  id="v-4293" font-size="17" xml:space="preserve" y="0.8em" text-anchor="middle" font-family="Red Hat Display" fill="#ffffff" transform="matrix(1,0,0,1,200,244.5)" style="fill: rgb(255, 255, 255);"><tspan  dy="0">[Person]</tspan></text><text  id="v-4294" font-size="24" xml:space="preserve" y="0.8em" text-anchor="middle" font-family="Red Hat Display" fill="#ffffff" transform="matrix(1,0,0,1,200,274.8999938964844)" style="fill: rgb(255, 255, 255);"><tspan  dy="0">An individual who accesses and</tspan><tspan dy="1.2em" x="0" >analyzes environmental impact</tspan><tspan dy="1.2em" x="0" >data through wattnet.</tspan></text><g  id="v-4295" font-weight="normal" text-anchor="middle" color="#ffffff" transform="matrix(1,0,0,1,197.5,368)" style="fill: rgb(255, 255, 255);" display="none"><g ></g><g ></g><g ></g><g ></g></g><image  id="v-4296"></image></g></g><!--z-index:16--><g   id="j_371"  transform="translate(200,756)" style=""><g  id="v-4305" style="opacity: 1;"><rect  id="v-4306" rx="20" ry="20" stroke="#0a1932" stroke-width="2" pointer-events="visiblePainted" fill="#0b1c38" width="450" height="300" style="fill: rgb(11, 28, 56); stroke: rgb(10, 25, 50);"></rect><text  id="v-4307" font-size="34" xml:space="preserve" y="0.8em" font-weight="bold" text-anchor="middle" pointer-events="visible" font-family="Red Hat Display" fill="#e6e6e6" transform="matrix(1,0,0,1,225,73.69999694824219)" style="fill: rgb(230, 230, 230);"><tspan  dy="0">External Consumer</tspan></text><text  id="v-4308" font-size="17" xml:space="preserve" y="0.8em" text-anchor="middle" font-family="Red Hat Display" fill="#e6e6e6" transform="matrix(1,0,0,1,225,114.5)" style="fill: rgb(230, 230, 230);"><tspan  dy="0">[Software System]</tspan></text><text  id="v-4309" font-size="24" xml:space="preserve" y="0.8em" text-anchor="middle" font-family="Red Hat Display" fill="#e6e6e6" transform="matrix(1,0,0,1,225,144.89999389648438)" style="fill: rgb(230, 230, 230);"><tspan  dy="0">A third-party system or service that</tspan><tspan dy="1.2em" x="0" >connects to wattnet to retrieve and</tspan><tspan dy="1.2em" x="0" >use environmental impact data.</tspan></text><g  id="v-4310" color="#e6e6e6" transform="matrix(1,0,0,1,222.5,268)" style="fill: rgb(230, 230, 230);" display="none"><g ></g><g ></g><g ></g><g ></g></g><image  id="v-4311"></image></g></g><!--z-index:17--><g   id="j_372"  transform="translate(1854,266)" style=""><g  id="v-4318" style="opacity: 1;"><rect  id="v-4319" rx="20" ry="20" stroke="#0a1932" stroke-width="2" pointer-events="visiblePainted" fill="#0b1c38" width="450" height="300" style="fill: rgb(11, 28, 56); stroke: rgb(10, 25, 50);"></rect><text  id="v-4320" font-size="34" xml:space="preserve" y="0.8em" font-weight="bold" text-anchor="middle" pointer-events="visible" font-family="Red Hat Display" fill="#e6e6e6" transform="matrix(1,0,0,1,225,73.69999694824219)" style="fill: rgb(230, 230, 230);"><tspan  dy="0">ENTSO-E Public API</tspan></text><text  id="v-4321" font-size="17" xml:space="preserve" y="0.8em" text-anchor="middle" font-family="Red Hat Display" fill="#e6e6e6" transform="matrix(1,0,0,1,225,114.5)" style="fill: rgb(230, 230, 230);"><tspan  dy="0">[Software System]</tspan></text><text  id="v-4322" font-size="24" xml:space="preserve" y="0.8em" text-anchor="middle" font-family="Red Hat Display" fill="#e6e6e6" transform="matrix(1,0,0,1,225,144.89999389648438)" style="fill: rgb(230, 230, 230);"><tspan  dy="0">European Network of Transmission</tspan><tspan dy="1.2em" x="0" >System Operators for Electricity</tspan><tspan dy="1.2em" x="0" >RESTful API.</tspan></text><g  id="v-4323" color="#e6e6e6" transform="matrix(1,0,0,1,222.5,268)" style="fill: rgb(230, 230, 230);" display="none"><g ></g><g ></g><g ></g><g ></g></g><image  id="v-4324"></image></g></g><!--z-index:18--><g   id="j_373"  transform="translate(1854,756)" style=""><g  id="v-4331" style="opacity: 1;"><rect  id="v-4332" rx="20" ry="20" stroke="#0a1932" stroke-width="2" pointer-events="visiblePainted" fill="#0b1c38" width="450" height="300" style="fill: rgb(11, 28, 56); stroke: rgb(10, 25, 50);"></rect><text  id="v-4333" font-size="34" xml:space="preserve" y="0.8em" font-weight="bold" text-anchor="middle" pointer-events="visible" font-family="Red Hat Display" fill="#e6e6e6" transform="matrix(1,0,0,1,225,73.69999694824219)" style="fill: rgb(230, 230, 230);"><tspan  dy="0">Elexon Insights API</tspan></text><text  id="v-4334" font-size="17" xml:space="preserve" y="0.8em" text-anchor="middle" font-family="Red Hat Display" fill="#e6e6e6" transform="matrix(1,0,0,1,225,114.5)" style="fill: rgb(230, 230, 230);"><tspan  dy="0">[Software System]</tspan></text><text  id="v-4335" font-size="24" xml:space="preserve" y="0.8em" text-anchor="middle" font-family="Red Hat Display" fill="#e6e6e6" transform="matrix(1,0,0,1,225,144.89999389648438)" style="fill: rgb(230, 230, 230);"><tspan  dy="0">Elexon Insights RESTful API for</tspan><tspan dy="1.2em" x="0" >operational data about the</tspan><tspan dy="1.2em" x="0" >electricity system in Great Britain.</tspan></text><g  id="v-4336" color="#e6e6e6" transform="matrix(1,0,0,1,222.5,268)" style="fill: rgb(230, 230, 230);" display="none"><g ></g><g ></g><g ></g><g ></g></g><image  id="v-4337"></image></g></g><!--z-index:19--><g   id="j_374"  transform="translate(1029,521)" style=""><g  id="v-4341" style="opacity: 1;"><rect  id="v-4342" rx="20" ry="20" stroke="#1a417e" stroke-width="2" pointer-events="visiblePainted" fill="#1d488c" width="450" height="300" style="fill: rgb(29, 72, 140); stroke: rgb(26, 65, 126);"></rect><text  id="v-4343" font-size="34" xml:space="preserve" y="0.8em" font-weight="bold" text-anchor="middle" pointer-events="visible" font-family="Red Hat Display" fill="#ffffff" transform="matrix(1,0,0,1,225,73.69999694824219)" style="fill: rgb(255, 255, 255);"><tspan  dy="0">wattnet</tspan></text><text  id="v-4344" font-size="17" xml:space="preserve" y="0.8em" text-anchor="middle" font-family="Red Hat Display" fill="#ffffff" transform="matrix(1,0,0,1,225,114.5)" style="fill: rgb(255, 255, 255);"><tspan  dy="0">[Software System]</tspan></text><text  id="v-4345" font-size="24" xml:space="preserve" y="0.8em" text-anchor="middle" font-family="Red Hat Display" fill="#ffffff" transform="matrix(1,0,0,1,225,144.89999389648438)" style="fill: rgb(255, 255, 255);"><tspan  dy="0">An open-source service for tracking</tspan><tspan dy="1.2em" x="0" >the environmental footprint of</tspan><tspan dy="1.2em" x="0" >electricity across Europe.</tspan></text><g  id="v-4346" color="#ffffff" transform="matrix(1,0,0,1,210,268)" style="fill: rgb(255, 255, 255);" display="none"><g  transform="translate(5 0)"><svg xmlns="http://www.w3.org/2000/svg" width="20" height="20" fill="currentColor" viewBox="0 0 16 16"><path fill-rule="evenodd" d="M6.5 12a5.5 5.5 0 1 0 0-11 5.5 5.5 0 0 0 0 11zM13 6.5a6.5 6.5 0 1 1-13 0 6.5 6.5 0 0 1 13 0z"></path><path d="M10.344 11.742c.03.04.062.078.098.115l3.85 3.85a1 1 0 0 0 1.415-1.414l-3.85-3.85a1.007 1.007 0 0 0-.115-.1 6.538 6.538 0 0 1-1.398 1.4z"></path><path fill-rule="evenodd" d="M6.5 3a.5.5 0 0 1 .5.5V6h2.5a.5.5 0 0 1 0 1H7v2.5a.5.5 0 0 1-1 0V7H3.5a.5.5 0 0 1 0-1H6V3.5a.5.5 0 0 1 .5-.5z"></path></svg></g><g ></g><g ></g><g ></g></g><image  id="v-4347"></image></g></g><!--z-index:20--><g   id="j_375" ><path  stroke="#707070" d="M 1479 601 L 1854 486" id="v-4363" stroke-width="2" stroke-dasharray="30 30" fill="none" style="opacity: 1;"></path><path  fill="black" stroke="black" d="M 0 0 0 0" transform="matrix(0.9554092288017273,-0.2952848970890045,0.2952848970890045,0.9554092288017273,1479,601.4500122070312)"></path><path  fill="#707070" stroke="#707070" d="M 20 0 L 0 10 L 20 20 z" id="v-4365" transform="matrix(-0.9554091691970825,0.2952851355075836,-0.2952851355075836,-0.9554091691970825,1856.952880859375,495.10406494140625)" style="opacity: 1;"></path><path  d="M 1479 601 L 1854 486" id="v-4364" fill="none" style="cursor: default;"></path><g ><g id="v-4354"  label-idx="0" cursor="move" transform="matrix(1,0,0,1,1666.5,543.5)" style="cursor: default; opacity: 1;"><rect joint-selector="rect" id="v-4358" fill="#ffffff" rx="3" ry="3" pointer-events="none" width="145.81991577148438" height="32.083587646484375" transform="matrix(1,0,0,1,-72.9000015258789,-16.100000381469727)"></rect><text joint-selector="text" id="v-4357" font-size="24px" xml:space="preserve" y="0.8em" fill="#707070" text-anchor="middle" pointer-events="none" font-family="Red Hat Display" font-weight="normal" transform="matrix(1,0,0,1,0,-11.199999809265137)"><tspan  dy="0">Request Data</tspan></text></g><g id="v-4355"  label-idx="1" cursor="move" transform="matrix(1,0,0,1,1666.5,569.9000244140625)" style="cursor: default; opacity: 1;"><rect joint-selector="rect" id="v-4360" fill="#ffffff" rx="3" ry="3" pointer-events="none" width="202.66134643554688" height="22.458511352539062" transform="matrix(1,0,0,1,-101,-11.199999809265137)"></rect><text joint-selector="text" id="v-4359" font-size="17px" xml:space="preserve" y="0.8em" fill="#707070" text-anchor="middle" pointer-events="none" font-family="Red Hat Display" font-weight="normal" transform="matrix(1,0,0,1,0,-7.199999809265137)"><tspan  dy="0">[web-api.tp.entsoe.eu/api]</tspan></text></g><g id="v-4356"  label-idx="2" cursor="move" transform="matrix(1,0,0,1,1656.5,578.2999877929688)" style="cursor: default; opacity: 1;"><rect joint-selector="rect" id="v-4362" fill="#ffffff" rx="3" ry="3"  width="0" height="0" transform="matrix(1,0,0,1,0,0)" display="none"></rect><text joint-selector="text" id="v-4361" fill="#000000" font-size="14" text-anchor="middle" pointer-events="none"></text></g></g><g  display="none"></g><g  id="v-4367" display="none"><g  id="v-4352"><path  end="source" d="M 26 0 L 0 13 L 26 26 z"></path></g><g  id="v-4353"><path  end="target" d="M 26 0 L 0 13 L 26 26 z"></path></g></g><g  id="v-4366" display="none"><g  id="v-4351" transform="translate(1517.2421683278294, 589.2724017127989) "><g  event="remove"><circle r="11"></circle><path transform="scale(.8) translate(-16, -16)" d="M24.778,21.419 19.276,15.917 24.777,10.415 21.949,7.585 16.447,13.087 10.945,7.585 8.117,10.415 13.618,15.917 8.116,21.419 10.946,24.248 16.447,18.746 21.948,24.248z"></path><title>Remove link.</title></g><g  event="link:options"><circle r="11" transform="translate(25)"></circle><path fill="white" transform="scale(.55) translate(29, -16)" d="M31.229,17.736c0.064-0.571,0.104-1.148,0.104-1.736s-0.04-1.166-0.104-1.737l-4.377-1.557c-0.218-0.716-0.504-1.401-0.851-2.05l1.993-4.192c-0.725-0.91-1.549-1.734-2.458-2.459l-4.193,1.994c-0.647-0.347-1.334-0.632-2.049-0.849l-1.558-4.378C17.165,0.708,16.588,0.667,16,0.667s-1.166,0.041-1.737,0.105L12.707,5.15c-0.716,0.217-1.401,0.502-2.05,0.849L6.464,4.005C5.554,4.73,4.73,5.554,4.005,6.464l1.994,4.192c-0.347,0.648-0.632,1.334-0.849,2.05l-4.378,1.557C0.708,14.834,0.667,15.412,0.667,16s0.041,1.165,0.105,1.736l4.378,1.558c0.217,0.715,0.502,1.401,0.849,2.049l-1.994,4.193c0.725,0.909,1.549,1.733,2.459,2.458l4.192-1.993c0.648,0.347,1.334,0.633,2.05,0.851l1.557,4.377c0.571,0.064,1.148,0.104,1.737,0.104c0.588,0,1.165-0.04,1.736-0.104l1.558-4.377c0.715-0.218,1.399-0.504,2.049-0.851l4.193,1.993c0.909-0.725,1.733-1.549,2.458-2.458l-1.993-4.193c0.347-0.647,0.633-1.334,0.851-2.049L31.229,17.736zM16,20.871c-2.69,0-4.872-2.182-4.872-4.871c0-2.69,2.182-4.872,4.872-4.872c2.689,0,4.871,2.182,4.871,4.872C20.871,18.689,18.689,20.871,16,20.871z"></path><title>Link options.</title></g></g></g></g><!--z-index:21--><g   id="j_376" ><path  stroke="#707070" d="M 1479 735 L 1854 842" id="v-4383" stroke-width="2" stroke-dasharray="30 30" fill="none" style="opacity: 1;"></path><path  fill="black" stroke="black" d="M 0 0 0 0" transform="matrix(0.9617423415184021,0.2739555239677429,-0.2739555239677429,0.9617423415184021,1479,735.0900268554688)"></path><path  fill="#707070" stroke="#707070" d="M 20 0 L 0 10 L 20 20 z" id="v-4385" transform="matrix(-0.9617423415184021,-0.2739555239677429,0.2739555239677429,-0.9617423415184021,1851.2603759765625,851.5274658203125)" style="opacity: 1;"></path><path  d="M 1479 735 L 1854 842" id="v-4384" fill="none" style="cursor: default;"></path><g ><g id="v-4374"  label-idx="0" cursor="move" transform="matrix(1,0,0,1,1666.5,788.5)" style="cursor: default; opacity: 1;"><rect joint-selector="rect" id="v-4378" fill="#ffffff" rx="3" ry="3" pointer-events="none" width="145.81991577148438" height="32.083587646484375" transform="matrix(1,0,0,1,-72.9000015258789,-16.100000381469727)"></rect><text joint-selector="text" id="v-4377" font-size="24px" xml:space="preserve" y="0.8em" fill="#707070" text-anchor="middle" pointer-events="none" font-family="Red Hat Display" font-weight="normal" transform="matrix(1,0,0,1,0,-11.199999809265137)"><tspan  dy="0">Request Data</tspan></text></g><g id="v-4375"  label-idx="1" cursor="move" transform="matrix(1,0,0,1,1666.5,814.9000244140625)" style="cursor: default; opacity: 1;"><rect joint-selector="rect" id="v-4380" fill="#ffffff" rx="3" ry="3" pointer-events="none" width="240.9210205078125" height="22.458511352539062" transform="matrix(1,0,0,1,-120.0999984741211,-11.199999809265137)"></rect><text joint-selector="text" id="v-4379" font-size="17px" xml:space="preserve" y="0.8em" fill="#707070" text-anchor="middle" pointer-events="none" font-family="Red Hat Display" font-weight="normal" transform="matrix(1,0,0,1,0,-7.199999809265137)"><tspan  dy="0">[data.elexon.co.uk/bmrs/api/v1]</tspan></text></g><g id="v-4376"  label-idx="2" cursor="move" transform="matrix(1,0,0,1,1656.5,823.2999877929688)" style="cursor: default; opacity: 1;"><rect joint-selector="rect" id="v-4382" fill="#ffffff" rx="3" ry="3"  width="0" height="0" transform="matrix(1,0,0,1,0,0)" display="none"></rect><text joint-selector="text" id="v-4381" fill="#000000" font-size="14" text-anchor="middle" pointer-events="none"></text></g></g><g  display="none"></g><g  id="v-4387" display="none"><g  id="v-4372"><path  end="source" d="M 26 0 L 0 13 L 26 26 z"></path></g><g  id="v-4373"><path  end="target" d="M 26 0 L 0 13 L 26 26 z"></path></g></g><g  id="v-4386" display="none"><g  id="v-4371" transform="translate(1517.4648261940283, 745.9752970740294) "><g  event="remove"><circle r="11"></circle><path transform="scale(.8) translate(-16, -16)" d="M24.778,21.419 19.276,15.917 24.777,10.415 21.949,7.585 16.447,13.087 10.945,7.585 8.117,10.415 13.618,15.917 8.116,21.419 10.946,24.248 16.447,18.746 21.948,24.248z"></path><title>Remove link.</title></g><g  event="link:options"><circle r="11" transform="translate(25)"></circle><path fill="white" transform="scale(.55) translate(29, -16)" d="M31.229,17.736c0.064-0.571,0.104-1.148,0.104-1.736s-0.04-1.166-0.104-1.737l-4.377-1.557c-0.218-0.716-0.504-1.401-0.851-2.05l1.993-4.192c-0.725-0.91-1.549-1.734-2.458-2.459l-4.193,1.994c-0.647-0.347-1.334-0.632-2.049-0.849l-1.558-4.378C17.165,0.708,16.588,0.667,16,0.667s-1.166,0.041-1.737,0.105L12.707,5.15c-0.716,0.217-1.401,0.502-2.05,0.849L6.464,4.005C5.554,4.73,4.73,5.554,4.005,6.464l1.994,4.192c-0.347,0.648-0.632,1.334-0.849,2.05l-4.378,1.557C0.708,14.834,0.667,15.412,0.667,16s0.041,1.165,0.105,1.736l4.378,1.558c0.217,0.715,0.502,1.401,0.849,2.049l-1.994,4.193c0.725,0.909,1.549,1.733,2.459,2.458l4.192-1.993c0.648,0.347,1.334,0.633,2.05,0.851l1.557,4.377c0.571,0.064,1.148,0.104,1.737,0.104c0.588,0,1.165-0.04,1.736-0.104l1.558-4.377c0.715-0.218,1.399-0.504,2.049-0.851l4.193,1.993c0.909-0.725,1.733-1.549,2.458-2.458l-1.993-4.193c0.347-0.647,0.633-1.334,0.851-2.049L31.229,17.736zM16,20.871c-2.69,0-4.872-2.182-4.872-4.871c0-2.69,2.182-4.872,4.872-4.872c2.689,0,4.871,2.182,4.871,4.872C20.871,18.689,18.689,20.871,16,20.871z"></path><title>Link options.</title></g></g></g></g><!--z-index:22--><g   id="j_377" ><path  stroke="#707070" d="M 625 428 L 1029 584" id="v-4400" stroke-width="2" stroke-dasharray="30 30" fill="none" style="opacity: 1;"></path><path  fill="black" stroke="black" d="M 0 0 0 0" transform="matrix(0.9329074621200562,0.3601161241531372,-0.3601161241531372,0.9329074621200562,625,428.20001220703125)"></path><path  fill="#707070" stroke="#707070" d="M 20 0 L 0 10 L 20 20 z" id="v-4402" transform="matrix(-0.9329074621200562,-0.3601161539554596,0.3601161539554596,-0.9329074621200562,1025.3988037109375,593.4790649414062)" style="opacity: 1;"></path><path  d="M 625 428 L 1029 584" id="v-4401" fill="none" style="cursor: default;"></path><g ><g id="v-4391"  label-idx="0" cursor="move" transform="matrix(1,0,0,1,827,506)" style="cursor: default; opacity: 1;"><rect joint-selector="rect" id="v-4395" fill="#ffffff" rx="3" ry="3" pointer-events="none" width="53.4459114074707" height="32.083587646484375" transform="matrix(1,0,0,1,-26.399999618530273,-16.100000381469727)"></rect><text joint-selector="text" id="v-4394" font-size="24px" xml:space="preserve" y="0.8em" fill="#707070" text-anchor="middle" pointer-events="none" font-family="Red Hat Display" font-weight="normal" transform="matrix(1,0,0,1,0,-11.199999809265137)"><tspan  dy="0">Uses</tspan></text></g><g id="v-4392"  label-idx="1" cursor="move" transform="matrix(1,0,0,1,827,532.4000244140625)" style="cursor: default; opacity: 1;"><rect joint-selector="rect" id="v-4397" fill="#ffffff" rx="3" ry="3" pointer-events="none" width="179.32052612304688" height="22.458511352539062" transform="matrix(1,0,0,1,-89.30000305175781,-11.199999809265137)"></rect><text joint-selector="text" id="v-4396" font-size="17px" xml:space="preserve" y="0.8em" fill="#707070" text-anchor="middle" pointer-events="none" font-family="Red Hat Display" font-weight="normal" transform="matrix(1,0,0,1,0,-7.199999809265137)"><tspan  dy="0">[dashboard.wattnet.eu]</tspan></text></g><g id="v-4393"  label-idx="2" cursor="move" transform="matrix(1,0,0,1,817,540.7999877929688)" style="cursor: default; opacity: 1;"><rect joint-selector="rect" id="v-4399" fill="#ffffff" rx="3" ry="3"  width="0" height="0" transform="matrix(1,0,0,1,0,0)" display="none"></rect><text joint-selector="text" id="v-4398" fill="#000000" font-size="14" text-anchor="middle" pointer-events="none"></text></g></g><g  display="none"></g><g  id="v-4404" display="none"><g  id="v-4389"><path  end="source" d="M 26 0 L 0 13 L 26 26 z"></path></g><g  id="v-4390"><path  end="target" d="M 26 0 L 0 13 L 26 26 z"></path></g></g><g  id="v-4403" display="none"><g  id="v-4388" transform="translate(662.3147474474739, 442.40866485595524) "><g  event="remove"><circle r="11"></circle><path transform="scale(.8) translate(-16, -16)" d="M24.778,21.419 19.276,15.917 24.777,10.415 21.949,7.585 16.447,13.087 10.945,7.585 8.117,10.415 13.618,15.917 8.116,21.419 10.946,24.248 16.447,18.746 21.948,24.248z"></path><title>Remove link.</title></g><g  event="link:options"><circle r="11" transform="translate(25)"></circle><path fill="white" transform="scale(.55) translate(29, -16)" d="M31.229,17.736c0.064-0.571,0.104-1.148,0.104-1.736s-0.04-1.166-0.104-1.737l-4.377-1.557c-0.218-0.716-0.504-1.401-0.851-2.05l1.993-4.192c-0.725-0.91-1.549-1.734-2.458-2.459l-4.193,1.994c-0.647-0.347-1.334-0.632-2.049-0.849l-1.558-4.378C17.165,0.708,16.588,0.667,16,0.667s-1.166,0.041-1.737,0.105L12.707,5.15c-0.716,0.217-1.401,0.502-2.05,0.849L6.464,4.005C5.554,4.73,4.73,5.554,4.005,6.464l1.994,4.192c-0.347,0.648-0.632,1.334-0.849,2.05l-4.378,1.557C0.708,14.834,0.667,15.412,0.667,16s0.041,1.165,0.105,1.736l4.378,1.558c0.217,0.715,0.502,1.401,0.849,2.049l-1.994,4.193c0.725,0.909,1.549,1.733,2.459,2.458l4.192-1.993c0.648,0.347,1.334,0.633,2.05,0.851l1.557,4.377c0.571,0.064,1.148,0.104,1.737,0.104c0.588,0,1.165-0.04,1.736-0.104l1.558-4.377c0.715-0.218,1.399-0.504,2.049-0.851l4.193,1.993c0.909-0.725,1.733-1.549,2.458-2.458l-1.993-4.193c0.347-0.647,0.633-1.334,0.851-2.049L31.229,17.736zM16,20.871c-2.69,0-4.872-2.182-4.872-4.871c0-2.69,2.182-4.872,4.872-4.872c2.689,0,4.871,2.182,4.871,4.872C20.871,18.689,18.689,20.871,16,20.871z"></path><title>Link options.</title></g></g></g></g><!--z-index:23--><g   id="j_378" ><path  stroke="#707070" d="M 650 842 L 1029 735" id="v-4417" stroke-width="2" stroke-dasharray="30 30" fill="none" style="opacity: 1;"></path><path  fill="black" stroke="black" d="M 0 0 0 0" transform="matrix(0.9620890021324158,-0.2727356255054474,0.2727356255054474,0.9620890021324158,650,842.219970703125)"></path><path  fill="#707070" stroke="#707070" d="M 20 0 L 0 10 L 20 20 z" id="v-4419" transform="matrix(-0.9620890021324158,0.2727356255054474,-0.2727356255054474,-0.9620890021324158,1031.727294921875,744.4009399414062)" style="opacity: 1;"></path><path  d="M 650 842 L 1029 735" id="v-4418" fill="none" style="cursor: default;"></path><g ><g id="v-4408"  label-idx="0" cursor="move" transform="matrix(1,0,0,1,839.5,788.5)" style="cursor: default; opacity: 1;"><rect joint-selector="rect" id="v-4412" fill="#ffffff" rx="3" ry="3" pointer-events="none" width="91.01044464111328" height="32.083587646484375" transform="matrix(1,0,0,1,-44.900001525878906,-16.100000381469727)"></rect><text joint-selector="text" id="v-4411" font-size="24px" xml:space="preserve" y="0.8em" fill="#707070" text-anchor="middle" pointer-events="none" font-family="Red Hat Display" font-weight="normal" transform="matrix(1,0,0,1,0,-11.199999809265137)"><tspan  dy="0">Request</tspan></text></g><g id="v-4409"  label-idx="1" cursor="move" transform="matrix(1,0,0,1,839.5,814.9000244140625)" style="cursor: default; opacity: 1;"><rect joint-selector="rect" id="v-4414" fill="#ffffff" rx="3" ry="3" pointer-events="none" width="142.3174591064453" height="22.458511352539062" transform="matrix(1,0,0,1,-70.80000305175781,-11.199999809265137)"></rect><text joint-selector="text" id="v-4413" font-size="17px" xml:space="preserve" y="0.8em" fill="#707070" text-anchor="middle" pointer-events="none" font-family="Red Hat Display" font-weight="normal" transform="matrix(1,0,0,1,0,-7.199999809265137)"><tspan  dy="0">[api.wattnet.eu/v1]</tspan></text></g><g id="v-4410"  label-idx="2" cursor="move" transform="matrix(1,0,0,1,829.5,823.2999877929688)" style="cursor: default; opacity: 1;"><rect joint-selector="rect" id="v-4416" fill="#ffffff" rx="3" ry="3"  width="0" height="0" transform="matrix(1,0,0,1,0,0)" display="none"></rect><text joint-selector="text" id="v-4415" fill="#000000" font-size="14" text-anchor="middle" pointer-events="none"></text></g></g><g  display="none"></g><g  id="v-4421" display="none"><g  id="v-4406"><path  end="source" d="M 26 0 L 0 13 L 26 26 z"></path></g><g  id="v-4407"><path  end="target" d="M 26 0 L 0 13 L 26 26 z"></path></g></g><g  id="v-4420" display="none"><g  id="v-4405" transform="translate(688.4952640839045, 831.1319439129874) "><g  event="remove"><circle r="11"></circle><path transform="scale(.8) translate(-16, -16)" d="M24.778,21.419 19.276,15.917 24.777,10.415 21.949,7.585 16.447,13.087 10.945,7.585 8.117,10.415 13.618,15.917 8.116,21.419 10.946,24.248 16.447,18.746 21.948,24.248z"></path><title>Remove link.</title></g><g  event="link:options"><circle r="11" transform="translate(25)"></circle><path fill="white" transform="scale(.55) translate(29, -16)" d="M31.229,17.736c0.064-0.571,0.104-1.148,0.104-1.736s-0.04-1.166-0.104-1.737l-4.377-1.557c-0.218-0.716-0.504-1.401-0.851-2.05l1.993-4.192c-0.725-0.91-1.549-1.734-2.458-2.459l-4.193,1.994c-0.647-0.347-1.334-0.632-2.049-0.849l-1.558-4.378C17.165,0.708,16.588,0.667,16,0.667s-1.166,0.041-1.737,0.105L12.707,5.15c-0.716,0.217-1.401,0.502-2.05,0.849L6.464,4.005C5.554,4.73,4.73,5.554,4.005,6.464l1.994,4.192c-0.347,0.648-0.632,1.334-0.849,2.05l-4.378,1.557C0.708,14.834,0.667,15.412,0.667,16s0.041,1.165,0.105,1.736l4.378,1.558c0.217,0.715,0.502,1.401,0.849,2.049l-1.994,4.193c0.725,0.909,1.549,1.733,2.459,2.458l4.192-1.993c0.648,0.347,1.334,0.633,2.05,0.851l1.557,4.377c0.571,0.064,1.148,0.104,1.737,0.104c0.588,0,1.165-0.04,1.736-0.104l1.558-4.377c0.715-0.218,1.399-0.504,2.049-0.851l4.193,1.993c0.909-0.725,1.733-1.549,2.458-2.458l-1.993-4.193c0.347-0.647,0.633-1.334,0.851-2.049L31.229,17.736zM16,20.871c-2.69,0-4.872-2.182-4.872-4.871c0-2.69,2.182-4.872,4.872-4.872c2.689,0,4.871,2.182,4.871,4.872C20.871,18.689,18.689,20.871,16,20.871z"></path><title>Link options.</title></g></g></g></g><!--z-index:24--><!--z-index:25--><!--z-index:26--><!--z-index:27--><!--z-index:28--><!--z-index:29--><!--z-index:30--><!--z-index:31--><!--z-index:32--><!--z-index:33--><!--z-index:34--><!--z-index:35--><!--z-index:36--><!--z-index:37--><!--z-index:38--><!--z-index:39--><!--z-index:40--><!--z-index:41--><!--z-index:42--><!--z-index:43--><!--z-index:44--><!--z-index:45--><!--z-index:46--><!--z-index:47--><!--z-index:48--><!--z-index:49--><!--z-index:50--><!--z-index:51--><!--z-index:52--><!--z-index:53--><!--z-index:54--><!--z-index:55--><!--z-index:56--><!--z-index:57--><!--z-index:58--><!--z-index:59--><!--z-index:60--><!--z-index:61--><!--z-index:62--><!--z-index:63--><!--z-index:64--><!--z-index:65--><!--z-index:66--><!--z-index:67--><!--z-index:68--><!--z-index:69--><!--z-index:70--><!--z-index:71--><!--z-index:72--><!--z-index:73--><!--z-index:74--><!--z-index:75--><!--z-index:76--><!--z-index:77--><!--z-index:78--><!--z-index:79--><!--z-index:80--><!--z-index:81--><!--z-index:82--><!--z-index:83--><!--z-index:84--><!--z-index:85--><!--z-index:86--><!--z-index:87--><!--z-index:88--><!--z-index:89--><!--z-index:90--><!--z-index:91--><!--z-index:92--><!--z-index:93--><!--z-index:94--><!--z-index:95--><!--z-index:96--><!--z-index:97--><!--z-index:98--><!--z-index:99--><!--z-index:100--><!--z-index:101--><!--z-index:102--><!--z-index:103--><!--z-index:104--><!--z-index:105--><!--z-index:106--><!--z-index:107--><!--z-index:108--><!--z-index:109--><!--z-index:110--><!--z-index:111--><!--z-index:112--><!--z-index:113--><!--z-index:114--><!--z-index:115--><!--z-index:116--><!--z-index:117--><!--z-index:118--><!--z-index:119--><!--z-index:120--><!--z-index:121--><!--z-index:122--><!--z-index:123--><!--z-index:124--><!--z-index:125--><!--z-index:126--><!--z-index:127--><!--z-index:128--><!--z-index:129--><!--z-index:130--><!--z-index:131--><!--z-index:132--><!--z-index:133--><!--z-index:134--><!--z-index:135--><!--z-index:136--><!--z-index:137--><!--z-index:138--><!--z-index:139--><!--z-index:140--><!--z-index:141--><!--z-index:142--><!--z-index:143--><!--z-index:144--><!--z-index:145--><!--z-index:146--><!--z-index:147--><!--z-index:148--><!--z-index:149--><!--z-index:150--><!--z-index:151--><!--z-index:152--><!--z-index:153--><!--z-index:154--><!--z-index:155--><!--z-index:156--><!--z-index:157--><!--z-index:158--><!--z-index:159--><!--z-index:160--><!--z-index:161--><!--z-index:162--><!--z-index:163--><!--z-index:164--><!--z-index:165--><!--z-index:166--><!--z-index:167--><!--z-index:168--><!--z-index:169--><!--z-index:170--><!--z-index:171--><!--z-index:172--><!--z-index:173--><!--z-index:174--><!--z-index:175--><!--z-index:176--><!--z-index:177--><!--z-index:178--><!--z-index:179--><!--z-index:180--><!--z-index:181--><!--z-index:182--><!--z-index:183--><!--z-index:184--><!--z-index:185--><!--z-index:186--><!--z-index:187--><!--z-index:188--><!--z-index:189--><!--z-index:190--><!--z-index:191--><!--z-index:192--></g><g ></g><g ></g><g ></g></g></svg>