<svg xmlns="http://www.w3.org/2000/svg" xmlns:xlink="http://www.w3.org/1999/xlink" version="1.1" viewBox="0 0 2525 1801" style="background: #ffffff"><defs><style>@import url(https://fonts.googleapis.com/css2?family=Red+Hat+Display:wght@500..900);</style></defs><defs joint-selector="defs"></defs><g  joint-selector="layers" transform="matrix(1,0,0,1,0,0)"><g ></g><g ><!--z-index:-1--><!--z-index:0--><!--z-index:1--><!--z-index:2--><!--z-index:3--><!--z-index:4--><!--z-index:5--><!--z-index:6--><!--z-index:7--><!--z-index:8--><!--z-index:9--><!--z-index:10--><!--z-index:11--><!--z-index:12--><!--z-index:13--><!--z-index:14--><!--z-index:15--><!--z-index:16--><!--z-index:17--><!--z-index:18--><!--z-index:19--><!--z-index:20--><!--z-index:21--><g   id="j_1173"  transform="translate(20,1695)"><g id="v-14863"><image  id="v-14864" xlink:href="https://raw.githubusercontent.com/jaimeib/hosting/refs/heads/main/wattnet-logo-icon-dark-background-rounded.png" pointer-events="none" width="96" height="96"></image></g></g><!--z-index:22--><g   id="j_1172"  transform="translate(136,1764.6)"><g id="v-14861"><text  id="v-14862" font-size="22px" xml:space="preserve" y="0.8em" font-weight="normal" text-anchor="start" fill="#aaaaaa" pointer-events="none" display="block" font-family="Red Hat Display"><tspan  dy="0">Sunday, March 22, 2026 at 11:15 PM Central European Standard Time</tspan></text></g></g><!--z-index:23--><g   id="j_1171"  transform="translate(136,1738.1999999999998)"><g id="v-14859"><text  id="v-14860" font-size="22px" xml:space="preserve" y="0.8em" font-weight="normal" text-anchor="start" fill="#aaaaaa" pointer-events="none" display="block" font-family="Red Hat Display"><tspan  dy="0">© Spanish National Research Council (CSIC) | Licensed under CC BY 4.0</tspan></text></g></g><!--z-index:24--><g   id="j_1170"  transform="translate(136,1694.9999999999998)"><g id="v-14857"><text  id="v-14858" font-size="36px" xml:space="preserve" y="0.8em" font-weight="normal" text-anchor="start" fill="#000000" pointer-events="none" display="block" font-family="Red Hat Display"><tspan  dy="0">[Component] wattnet - Forecast Engine</tspan></text></g></g><!--z-index:25--><g   id="j_1174"  transform="translate(1874,1161)" style=""><g  id="v-14868" style="opacity: 1;"><rect  id="v-14869" rx="20" ry="20" stroke="#4b6896" stroke-width="2" pointer-events="visiblePainted" fill="#5374a7" width="450" height="300" style="fill: rgb(83, 116, 167); stroke: rgb(75, 104, 150);"></rect><text  id="v-14870" font-size="34" xml:space="preserve" y="0.8em" font-weight="bold" text-anchor="middle" pointer-events="visible" font-family="Red Hat Display" fill="#ffffff" transform="matrix(1,0,0,1,225,88.0999984741211)" style="fill: rgb(255, 255, 255);"><tspan  dy="0">Metrics Storage</tspan></text><text  id="v-14871" font-size="17" xml:space="preserve" y="0.8em" text-anchor="middle" font-family="Red Hat Display" fill="#ffffff" transform="matrix(1,0,0,1,225,128.89999389648438)" style="fill: rgb(255, 255, 255);"><tspan  dy="0">[Container: Python + Docker]</tspan></text><text  id="v-14872" font-size="24" xml:space="preserve" y="0.8em" text-anchor="middle" font-family="Red Hat Display" fill="#ffffff" transform="matrix(1,0,0,1,225,159.3000030517578)" style="fill: rgb(255, 255, 255);"><tspan  dy="0">System for storing and retrieving</tspan><tspan dy="1.2em" x="0" >time-series metrics data.</tspan></text><g  id="v-14873" color="#ffffff" transform="matrix(1,0,0,1,210,268)" style="fill: rgb(255, 255, 255);" display="none"><g  transform="translate(5 0)"><svg xmlns="http://www.w3.org/2000/svg" width="20" height="20" fill="currentColor" viewBox="0 0 16 16"><path fill-rule="evenodd" d="M6.5 12a5.5 5.5 0 1 0 0-11 5.5 5.5 0 0 0 0 11zM13 6.5a6.5 6.5 0 1 1-13 0 6.5 6.5 0 0 1 13 0z"></path><path d="M10.344 11.742c.03.04.062.078.098.115l3.85 3.85a1 1 0 0 0 1.415-1.414l-3.85-3.85a1.007 1.007 0 0 0-.115-.1 6.538 6.538 0 0 1-1.398 1.4z"></path><path fill-rule="evenodd" d="M6.5 3a.5.5 0 0 1 .5.5V6h2.5a.5.5 0 0 1 0 1H7v2.5a.5.5 0 0 1-1 0V7H3.5a.5.5 0 0 1 0-1H6V3.5a.5.5 0 0 1 .5-.5z"></path></svg></g><g ></g><g ></g><g ></g></g><image  id="v-14874"></image></g></g><!--z-index:26--><g   id="j_1176"  transform="translate(199,151)" style=""><g id="v-14888"><rect  id="v-14889" width="1336" height="1401" rx="0" ry="0" fill="#ffffff" stroke="#4b6896" stroke-width="1" stroke-dasharray="20,20" pointer-events="none"></rect><text  id="v-14890" font-size="24px" xml:space="preserve" y="1362" font-weight="normal" fill="#4b6896" text-anchor="start" pointer-events="visible" font-family="Red Hat Display" transform="matrix(1,0,0,1,15,0)"><tspan  dy="0">Forecast Engine</tspan></text><text  id="v-14891" font-size="17px" xml:space="preserve" y="1386" font-weight="normal" fill="#4b6896" text-anchor="start" pointer-events="visible" font-family="Red Hat Display" transform="matrix(1,0,0,1,15,0)"><tspan  dy="0">[Container]</tspan></text><image  id="v-14892" pointer-events="visible"></image></g></g><!--z-index:27--><g   id="j_1175"  transform="translate(1065,171)" style=""><g  id="v-14881" style="opacity: 1;"><rect  id="v-14882" rx="20" ry="20" stroke="#8da0bb" stroke-width="2" pointer-events="visiblePainted" fill="#9db2d0" width="450" height="300" style="fill: rgb(157, 178, 208); stroke: rgb(141, 160, 187);"></rect><text  id="v-14883" font-size="34" xml:space="preserve" y="0.8em" font-weight="bold" text-anchor="middle" pointer-events="visible" font-family="Red Hat Display" fill="#0b1c38" transform="matrix(1,0,0,1,225,88.0999984741211)" style="fill: rgb(11, 28, 56);"><tspan  dy="0">Workflow Manager</tspan></text><text  id="v-14884" font-size="17" xml:space="preserve" y="0.8em" text-anchor="middle" font-family="Red Hat Display" fill="#0b1c38" transform="matrix(1,0,0,1,225,128.89999389648438)" style="fill: rgb(11, 28, 56);"><tspan  dy="0">[Component: Python]</tspan></text><text  id="v-14885" font-size="24" xml:space="preserve" y="0.8em" text-anchor="middle" font-family="Red Hat Display" fill="#0b1c38" transform="matrix(1,0,0,1,225,159.3000030517578)" style="fill: rgb(11, 28, 56);"><tspan  dy="0">Manages the workflow of the</tspan><tspan dy="1.2em" x="0" >forecast engine.</tspan></text><g  id="v-14886" color="#0b1c38" transform="matrix(1,0,0,1,222.5,268)" style="fill: rgb(11, 28, 56);" display="none"><g ></g><g ></g><g ></g><g ></g></g><image  id="v-14887"></image></g></g><!--z-index:28--><g   id="j_1177"  transform="translate(1065,1161)" style=""><g  id="v-14896" style="opacity: 1;"><rect  id="v-14897" rx="20" ry="20" stroke="#8da0bb" stroke-width="2" pointer-events="visiblePainted" fill="#9db2d0" width="450" height="300" style="fill: rgb(157, 178, 208); stroke: rgb(141, 160, 187);"></rect><text  id="v-14898" font-size="34" xml:space="preserve" y="0.8em" font-weight="bold" text-anchor="middle" pointer-events="visible" font-family="Red Hat Display" fill="#0b1c38" transform="matrix(1,0,0,1,225,73.69999694824219)" style="fill: rgb(11, 28, 56);"><tspan  dy="0">Storage Manager</tspan></text><text  id="v-14899" font-size="17" xml:space="preserve" y="0.8em" text-anchor="middle" font-family="Red Hat Display" fill="#0b1c38" transform="matrix(1,0,0,1,225,114.5)" style="fill: rgb(11, 28, 56);"><tspan  dy="0">[Component: Python]</tspan></text><text  id="v-14900" font-size="24" xml:space="preserve" y="0.8em" text-anchor="middle" font-family="Red Hat Display" fill="#0b1c38" transform="matrix(1,0,0,1,225,144.89999389648438)" style="fill: rgb(11, 28, 56);"><tspan  dy="0">Reads metrics from storage and</tspan><tspan dy="1.2em" x="0" >writes forecasted values back to the</tspan><tspan dy="1.2em" x="0" >Metrics Repository.</tspan></text><g  id="v-14901" color="#0b1c38" transform="matrix(1,0,0,1,222.5,268)" style="fill: rgb(11, 28, 56);" display="none"><g ></g><g ></g><g ></g><g ></g></g><image  id="v-14902"></image></g></g><!--z-index:29--><g   id="j_1178"  transform="translate(1065,671)" style=""><g  id="v-14909" style="opacity: 1;"><rect  id="v-14910" rx="20" ry="20" stroke="#8da0bb" stroke-width="2" pointer-events="visiblePainted" fill="#9db2d0" width="450" height="300" style="fill: rgb(157, 178, 208); stroke: rgb(141, 160, 187);"></rect><text  id="v-14911" font-size="34" xml:space="preserve" y="0.8em" font-weight="bold" text-anchor="middle" pointer-events="visible" font-family="Red Hat Display" fill="#0b1c38" transform="matrix(1,0,0,1,225,73.69999694824219)" style="fill: rgb(11, 28, 56);"><tspan  dy="0">Forecast Manager</tspan></text><text  id="v-14912" font-size="17" xml:space="preserve" y="0.8em" text-anchor="middle" font-family="Red Hat Display" fill="#0b1c38" transform="matrix(1,0,0,1,225,114.5)" style="fill: rgb(11, 28, 56);"><tspan  dy="0">[Component: Python]</tspan></text><text  id="v-14913" font-size="24" xml:space="preserve" y="0.8em" text-anchor="middle" font-family="Red Hat Display" fill="#0b1c38" transform="matrix(1,0,0,1,225,144.89999389648438)" style="fill: rgb(11, 28, 56);"><tspan  dy="0">Orchestrates the forecasting</tspan><tspan dy="1.2em" x="0" >process, including data retrieval,</tspan><tspan dy="1.2em" x="0" >and model execution.</tspan></text><g  id="v-14914" color="#0b1c38" transform="matrix(1,0,0,1,222.5,268)" style="fill: rgb(11, 28, 56);" display="none"><g ></g><g ></g><g ></g><g ></g></g><image  id="v-14915"></image></g></g><!--z-index:30--><g   id="j_1179"  transform="translate(219,1161)" style=""><g  id="v-14919" style="opacity: 1;"><rect  id="v-14920" rx="20" ry="20" stroke="#8da0bb" stroke-width="2" pointer-events="visiblePainted" fill="#9db2d0" width="450" height="300" style="fill: rgb(157, 178, 208); stroke: rgb(141, 160, 187);"></rect><text  id="v-14921" font-size="34" xml:space="preserve" y="0.8em" font-weight="bold" text-anchor="middle" pointer-events="visible" font-family="Red Hat Display" fill="#0b1c38" transform="matrix(1,0,0,1,225,73.69999694824219)" style="fill: rgb(11, 28, 56);"><tspan  dy="0">Lag Collector</tspan></text><text  id="v-14922" font-size="17" xml:space="preserve" y="0.8em" text-anchor="middle" font-family="Red Hat Display" fill="#0b1c38" transform="matrix(1,0,0,1,225,114.5)" style="fill: rgb(11, 28, 56);"><tspan  dy="0">[Component: Python]</tspan></text><text  id="v-14923" font-size="24" xml:space="preserve" y="0.8em" text-anchor="middle" font-family="Red Hat Display" fill="#0b1c38" transform="matrix(1,0,0,1,225,144.89999389648438)" style="fill: rgb(11, 28, 56);"><tspan  dy="0">Collects and manages lag data for</tspan><tspan dy="1.2em" x="0" >predictive modeling in time-series</tspan><tspan dy="1.2em" x="0" >data.</tspan></text><g  id="v-14924" color="#0b1c38" transform="matrix(1,0,0,1,222.5,268)" style="fill: rgb(11, 28, 56);" display="none"><g ></g><g ></g><g ></g><g ></g></g><image  id="v-14925"></image></g></g><!--z-index:31--><g   id="j_1180"  transform="translate(219,671)" style=""><g  id="v-14932" style="opacity: 1;"><rect  id="v-14933" rx="20" ry="20" stroke="#8da0bb" stroke-width="2" pointer-events="visiblePainted" fill="#9db2d0" width="450" height="300" style="fill: rgb(157, 178, 208); stroke: rgb(141, 160, 187);"></rect><text  id="v-14934" font-size="34" xml:space="preserve" y="0.8em" font-weight="bold" text-anchor="middle" pointer-events="visible" font-family="Red Hat Display" fill="#0b1c38" transform="matrix(1,0,0,1,225,88.0999984741211)" style="fill: rgb(11, 28, 56);"><tspan  dy="0">Predictor Interface</tspan></text><text  id="v-14935" font-size="17" xml:space="preserve" y="0.8em" text-anchor="middle" font-family="Red Hat Display" fill="#0b1c38" transform="matrix(1,0,0,1,225,128.89999389648438)" style="fill: rgb(11, 28, 56);"><tspan  dy="0">[Component: Python]</tspan></text><text  id="v-14936" font-size="24" xml:space="preserve" y="0.8em" text-anchor="middle" font-family="Red Hat Display" fill="#0b1c38" transform="matrix(1,0,0,1,225,159.3000030517578)" style="fill: rgb(11, 28, 56);"><tspan  dy="0">Abstract contract implemented by</tspan><tspan dy="1.2em" x="0" >all predictive models.</tspan></text><g  id="v-14937" color="#0b1c38" transform="matrix(1,0,0,1,222.5,268)" style="fill: rgb(11, 28, 56);" display="none"><g ></g><g ></g><g ></g><g ></g></g><image  id="v-14938"></image></g></g><!--z-index:32--><g   id="j_1181"  transform="translate(219,171)" style=""><g  id="v-14945" style="opacity: 1;"><rect  id="v-14946" rx="20" ry="20" stroke="#8da0bb" stroke-width="2" pointer-events="visiblePainted" fill="#9db2d0" width="450" height="300" style="fill: rgb(157, 178, 208); stroke: rgb(141, 160, 187);"></rect><text  id="v-14947" font-size="34" xml:space="preserve" y="0.8em" font-weight="bold" text-anchor="middle" pointer-events="visible" font-family="Red Hat Display" fill="#0b1c38" transform="matrix(1,0,0,1,225,38.900001525878906)" style="fill: rgb(11, 28, 56);"><tspan  dy="0">Auto-Regressive</tspan><tspan dy="1.2em" x="0" >Predictor</tspan></text><text  id="v-14948" font-size="17" xml:space="preserve" y="0.8em" text-anchor="middle" font-family="Red Hat Display" fill="#0b1c38" transform="matrix(1,0,0,1,225,120.5)" style="fill: rgb(11, 28, 56);"><tspan  dy="0">[Component: Python]</tspan></text><text  id="v-14949" font-size="24" xml:space="preserve" y="0.8em" text-anchor="middle" font-family="Red Hat Display" fill="#0b1c38" transform="matrix(1,0,0,1,225,150.89999389648438)" style="fill: rgb(11, 28, 56);"><tspan  dy="0">Predictive model that uses</tspan><tspan dy="1.2em" x="0" >auto-regressive techniques to</tspan><tspan dy="1.2em" x="0" >forecast future metrics based on</tspan><tspan dy="1.2em" x="0" >historical data.</tspan></text><g  id="v-14950" color="#0b1c38" transform="matrix(1,0,0,1,222.5,268)" style="fill: rgb(11, 28, 56);" display="none"><g ></g><g ></g><g ></g><g ></g></g><image  id="v-14951"></image></g></g><!--z-index:33--><g   id="j_1182"  transform="translate(1874,671)" style=""><g  id="v-14958" style="opacity: 1;"><rect  id="v-14959" rx="10" ry="10" stroke="#85b920" stroke-width="2" pointer-events="visiblePainted" fill="#94ce24" x="10" y="0" width="150" height="75" style="fill: rgb(148, 206, 36); stroke: rgb(133, 185, 32);"></rect><rect  id="v-14960" rx="5" ry="5" stroke="#85b920" stroke-width="2" pointer-events="visiblePainted" fill="#94ce24" x="0" y="37.5" width="450" height="262.5" style="fill: rgb(148, 206, 36); stroke: rgb(133, 185, 32);"></rect><text  id="v-14961" font-size="34" xml:space="preserve" y="0.8em" font-weight="bold" text-anchor="middle" pointer-events="visible" font-family="Red Hat Display" fill="#143262" transform="matrix(1,0,0,1,225,92.5)" style="fill: rgb(20, 50, 98);"><tspan  dy="0">Zone Database</tspan></text><text  id="v-14962" font-size="17" xml:space="preserve" y="0.8em" text-anchor="middle" font-family="Red Hat Display" fill="#143262" transform="matrix(1,0,0,1,225,133.3000030517578)" style="fill: rgb(20, 50, 98);"><tspan  dy="0">[Container: YAML and GEOJSON Files]</tspan></text><text  id="v-14963" font-size="24" xml:space="preserve" y="0.8em" text-anchor="middle" font-family="Red Hat Display" fill="#143262" transform="matrix(1,0,0,1,225,163.6999969482422)" style="fill: rgb(20, 50, 98);"><tspan  dy="0">Contains metadata about zones,</tspan><tspan dy="1.2em" x="0" >such as their names, EIC codes, and</tspan><tspan dy="1.2em" x="0" >geographical information.</tspan></text><g  id="v-14964" font-weight="normal" text-anchor="middle" color="#143262" transform="matrix(1,0,0,1,210,268)" style="fill: rgb(20, 50, 98);" display="none"><g  transform="translate(5 0)"><svg xmlns="http://www.w3.org/2000/svg" width="20" height="20" fill="currentColor" viewBox="0 0 16 16"><path fill-rule="evenodd" d="M6.5 12a5.5 5.5 0 1 0 0-11 5.5 5.5 0 0 0 0 11zM13 6.5a6.5 6.5 0 1 1-13 0 6.5 6.5 0 0 1 13 0z"></path><path d="M10.344 11.742c.03.04.062.078.098.115l3.85 3.85a1 1 0 0 0 1.415-1.414l-3.85-3.85a1.007 1.007 0 0 0-.115-.1 6.538 6.538 0 0 1-1.398 1.4z"></path><path fill-rule="evenodd" d="M6.5 3a.5.5 0 0 1 .5.5V6h2.5a.5.5 0 0 1 0 1H7v2.5a.5.5 0 0 1-1 0V7H3.5a.5.5 0 0 1 0-1H6V3.5a.5.5 0 0 1 .5-.5z"></path></svg></g><g ></g><g ></g><g ></g></g><image  id="v-14965"></image></g></g><!--z-index:34--><g   id="j_1183" ><path  stroke="#707070" d="M 1290 471 L 1290 671" id="v-14975" stroke-width="2" stroke-dasharray="30 30" fill="none" style="opacity: 1;"></path><path  fill="black" stroke="black" d="M 0 0 0 0" transform="matrix(6.123234262925839e-17,1,-1,6.123234262925839e-17,1290,471)"></path><path  fill="#707070" stroke="#707070" d="M 20 0 L 0 10 L 20 20 z" id="v-14977" transform="matrix(-1.8369701465288538e-16,-1,1,-1.8369701465288538e-16,1280,671)" style="opacity: 1;"></path><path  d="M 1290 471 L 1290 671" id="v-14976" fill="none" style="cursor: default;"></path><g ><g id="v-14969"  label-idx="0" cursor="move" transform="matrix(1,0,0,1,1290,571)" style="cursor: default; opacity: 1;"><rect joint-selector="rect" id="v-14972" fill="#ffffff" rx="3" ry="3" pointer-events="none" width="53.05957794189453" height="30.994468688964844" transform="matrix(1,0,0,1,-26.399999618530273,-15.5)"></rect><text joint-selector="text" id="v-14971" font-size="24px" xml:space="preserve" y="0.8em" fill="#707070" text-anchor="middle" pointer-events="none" font-family="Red Hat Display" font-weight="normal" transform="matrix(1,0,0,1,0,-10.300000190734863)"><tspan  dy="0">Uses</tspan></text></g><g id="v-14970"  label-idx="1" cursor="move" transform="matrix(1,0,0,1,1280,597.4000244140625)" style="cursor: default; opacity: 1;"><rect joint-selector="rect" id="v-14974" fill="#ffffff" rx="3" ry="3"  width="0" height="0" transform="matrix(1,0,0,1,0,0)" display="none"></rect><text joint-selector="text" id="v-14973" fill="#000000" font-size="14" text-anchor="middle" pointer-events="none"></text></g></g><g  display="none"></g><g  id="v-14979" display="none"><g  id="v-14967"><path  end="source" d="M 26 0 L 0 13 L 26 26 z"></path></g><g  id="v-14968"><path  end="target" d="M 26 0 L 0 13 L 26 26 z"></path></g></g><g  id="v-14978" display="none"><g  id="v-14966" transform="translate(1290, 511) "><g  event="remove"><circle r="11"></circle><path transform="scale(.8) translate(-16, -16)" d="M24.778,21.419 19.276,15.917 24.777,10.415 21.949,7.585 16.447,13.087 10.945,7.585 8.117,10.415 13.618,15.917 8.116,21.419 10.946,24.248 16.447,18.746 21.948,24.248z"></path><title>Remove link.</title></g><g  event="link:options"><circle r="11" transform="translate(25)"></circle><path fill="white" transform="scale(.55) translate(29, -16)" d="M31.229,17.736c0.064-0.571,0.104-1.148,0.104-1.736s-0.04-1.166-0.104-1.737l-4.377-1.557c-0.218-0.716-0.504-1.401-0.851-2.05l1.993-4.192c-0.725-0.91-1.549-1.734-2.458-2.459l-4.193,1.994c-0.647-0.347-1.334-0.632-2.049-0.849l-1.558-4.378C17.165,0.708,16.588,0.667,16,0.667s-1.166,0.041-1.737,0.105L12.707,5.15c-0.716,0.217-1.401,0.502-2.05,0.849L6.464,4.005C5.554,4.73,4.73,5.554,4.005,6.464l1.994,4.192c-0.347,0.648-0.632,1.334-0.849,2.05l-4.378,1.557C0.708,14.834,0.667,15.412,0.667,16s0.041,1.165,0.105,1.736l4.378,1.558c0.217,0.715,0.502,1.401,0.849,2.049l-1.994,4.193c0.725,0.909,1.549,1.733,2.459,2.458l4.192-1.993c0.648,0.347,1.334,0.633,2.05,0.851l1.557,4.377c0.571,0.064,1.148,0.104,1.737,0.104c0.588,0,1.165-0.04,1.736-0.104l1.558-4.377c0.715-0.218,1.399-0.504,2.049-0.851l4.193,1.993c0.909-0.725,1.733-1.549,2.458-2.458l-1.993-4.193c0.347-0.647,0.633-1.334,0.851-2.049L31.229,17.736zM16,20.871c-2.69,0-4.872-2.182-4.872-4.871c0-2.69,2.182-4.872,4.872-4.872c2.689,0,4.871,2.182,4.871,4.872C20.871,18.689,18.689,20.871,16,20.871z"></path><title>Link options.</title></g></g></g></g><!--z-index:35--><g   id="j_1184" ><path  stroke="#707070" d="M 1515 1311 L 1874 1311" id="v-14992" stroke-width="2" stroke-dasharray="30 30" fill="none" style="opacity: 1;"></path><path  fill="black" stroke="black" d="M 0 0 0 0" transform="matrix(1,0,0,1,1515,1311)"></path><path  fill="#707070" stroke="#707070" d="M 20 0 L 0 10 L 20 20 z" id="v-14994" transform="matrix(-1,1.2246468525851679e-16,-1.2246468525851679e-16,-1,1874,1321)" style="opacity: 1;"></path><path  d="M 1515 1311 L 1874 1311" id="v-14993" fill="none" style="cursor: default;"></path><g ><g id="v-14986"  label-idx="0" cursor="move" transform="matrix(1,0,0,1,1694.5,1311)" style="cursor: default; opacity: 1;"><rect joint-selector="rect" id="v-14989" fill="#ffffff" rx="3" ry="3" pointer-events="none" width="155.85789489746094" height="30.994468688964844" transform="matrix(1,0,0,1,-77.80000305175781,-15.5)"></rect><text joint-selector="text" id="v-14988" font-size="24px" xml:space="preserve" y="0.8em" fill="#707070" text-anchor="middle" pointer-events="none" font-family="Red Hat Display" font-weight="normal" transform="matrix(1,0,0,1,0,-10.300000190734863)"><tspan  dy="0">Reads / Writes</tspan></text></g><g id="v-14987"  label-idx="1" cursor="move" transform="matrix(1,0,0,1,1684.5,1337.4000244140625)" style="cursor: default; opacity: 1;"><rect joint-selector="rect" id="v-14991" fill="#ffffff" rx="3" ry="3"  width="0" height="0" transform="matrix(1,0,0,1,0,0)" display="none"></rect><text joint-selector="text" id="v-14990" fill="#000000" font-size="14" text-anchor="middle" pointer-events="none"></text></g></g><g  display="none"></g><g  id="v-14996" display="none"><g  id="v-14984"><path  end="source" d="M 26 0 L 0 13 L 26 26 z"></path></g><g  id="v-14985"><path  end="target" d="M 26 0 L 0 13 L 26 26 z"></path></g></g><g  id="v-14995" display="none"><g  id="v-14983" transform="translate(1555, 1311) "><g  event="remove"><circle r="11"></circle><path transform="scale(.8) translate(-16, -16)" d="M24.778,21.419 19.276,15.917 24.777,10.415 21.949,7.585 16.447,13.087 10.945,7.585 8.117,10.415 13.618,15.917 8.116,21.419 10.946,24.248 16.447,18.746 21.948,24.248z"></path><title>Remove link.</title></g><g  event="link:options"><circle r="11" transform="translate(25)"></circle><path fill="white" transform="scale(.55) translate(29, -16)" d="M31.229,17.736c0.064-0.571,0.104-1.148,0.104-1.736s-0.04-1.166-0.104-1.737l-4.377-1.557c-0.218-0.716-0.504-1.401-0.851-2.05l1.993-4.192c-0.725-0.91-1.549-1.734-2.458-2.459l-4.193,1.994c-0.647-0.347-1.334-0.632-2.049-0.849l-1.558-4.378C17.165,0.708,16.588,0.667,16,0.667s-1.166,0.041-1.737,0.105L12.707,5.15c-0.716,0.217-1.401,0.502-2.05,0.849L6.464,4.005C5.554,4.73,4.73,5.554,4.005,6.464l1.994,4.192c-0.347,0.648-0.632,1.334-0.849,2.05l-4.378,1.557C0.708,14.834,0.667,15.412,0.667,16s0.041,1.165,0.105,1.736l4.378,1.558c0.217,0.715,0.502,1.401,0.849,2.049l-1.994,4.193c0.725,0.909,1.549,1.733,2.459,2.458l4.192-1.993c0.648,0.347,1.334,0.633,2.05,0.851l1.557,4.377c0.571,0.064,1.148,0.104,1.737,0.104c0.588,0,1.165-0.04,1.736-0.104l1.558-4.377c0.715-0.218,1.399-0.504,2.049-0.851l4.193,1.993c0.909-0.725,1.733-1.549,2.458-2.458l-1.993-4.193c0.347-0.647,0.633-1.334,0.851-2.049L31.229,17.736zM16,20.871c-2.69,0-4.872-2.182-4.872-4.871c0-2.69,2.182-4.872,4.872-4.872c2.689,0,4.871,2.182,4.871,4.872C20.871,18.689,18.689,20.871,16,20.871z"></path><title>Link options.</title></g></g></g></g><!--z-index:36--><g   id="j_1185" ><path  stroke="#707070" d="M 1515 821 L 1874 821" id="v-15009" stroke-width="2" stroke-dasharray="30 30" fill="none" style="opacity: 1;"></path><path  fill="black" stroke="black" d="M 0 0 0 0" transform="matrix(1,0,0,1,1515,821)"></path><path  fill="#707070" stroke="#707070" d="M 20 0 L 0 10 L 20 20 z" id="v-15011" transform="matrix(-1,1.2246468525851679e-16,-1.2246468525851679e-16,-1,1874,831)" style="opacity: 1;"></path><path  d="M 1515 821 L 1874 821" id="v-15010" fill="none" style="cursor: default;"></path><g ><g id="v-15000"  label-idx="0" cursor="move" transform="matrix(1,0,0,1,1694.5,821)" style="cursor: default; opacity: 1;"><rect joint-selector="rect" id="v-15004" fill="#ffffff" rx="3" ry="3" pointer-events="none" width="66.41671752929688" height="30.994468688964844" transform="matrix(1,0,0,1,-33.099998474121094,-15.5)"></rect><text joint-selector="text" id="v-15003" font-size="24px" xml:space="preserve" y="0.8em" fill="#707070" text-anchor="middle" pointer-events="none" font-family="Red Hat Display" font-weight="normal" transform="matrix(1,0,0,1,0,-10.300000190734863)"><tspan  dy="0">Reads</tspan></text></g><g id="v-15001"  label-idx="1" cursor="move" transform="matrix(1,0,0,1,1694.5,847.4000244140625)" style="cursor: default; opacity: 1;"><rect joint-selector="rect" id="v-15006" fill="#ffffff" rx="3" ry="3" pointer-events="none" width="96.61666870117188" height="21.25" transform="matrix(1,0,0,1,-48,-10.600000381469727)"></rect><text joint-selector="text" id="v-15005" font-size="17px" xml:space="preserve" y="0.8em" fill="#707070" text-anchor="middle" pointer-events="none" font-family="Red Hat Display" font-weight="normal" transform="matrix(1,0,0,1,0,-7.199999809265137)"><tspan  dy="0">[YAML Files]</tspan></text></g><g id="v-15002"  label-idx="2" cursor="move" transform="matrix(1,0,0,1,1684.5,855.7999877929688)" style="cursor: default; opacity: 1;"><rect joint-selector="rect" id="v-15008" fill="#ffffff" rx="3" ry="3"  width="0" height="0" transform="matrix(1,0,0,1,0,0)" display="none"></rect><text joint-selector="text" id="v-15007" fill="#000000" font-size="14" text-anchor="middle" pointer-events="none"></text></g></g><g  display="none"></g><g  id="v-15013" display="none"><g  id="v-14998"><path  end="source" d="M 26 0 L 0 13 L 26 26 z"></path></g><g  id="v-14999"><path  end="target" d="M 26 0 L 0 13 L 26 26 z"></path></g></g><g  id="v-15012" display="none"><g  id="v-14997" transform="translate(1555, 821) "><g  event="remove"><circle r="11"></circle><path transform="scale(.8) translate(-16, -16)" d="M24.778,21.419 19.276,15.917 24.777,10.415 21.949,7.585 16.447,13.087 10.945,7.585 8.117,10.415 13.618,15.917 8.116,21.419 10.946,24.248 16.447,18.746 21.948,24.248z"></path><title>Remove link.</title></g><g  event="link:options"><circle r="11" transform="translate(25)"></circle><path fill="white" transform="scale(.55) translate(29, -16)" d="M31.229,17.736c0.064-0.571,0.104-1.148,0.104-1.736s-0.04-1.166-0.104-1.737l-4.377-1.557c-0.218-0.716-0.504-1.401-0.851-2.05l1.993-4.192c-0.725-0.91-1.549-1.734-2.458-2.459l-4.193,1.994c-0.647-0.347-1.334-0.632-2.049-0.849l-1.558-4.378C17.165,0.708,16.588,0.667,16,0.667s-1.166,0.041-1.737,0.105L12.707,5.15c-0.716,0.217-1.401,0.502-2.05,0.849L6.464,4.005C5.554,4.73,4.73,5.554,4.005,6.464l1.994,4.192c-0.347,0.648-0.632,1.334-0.849,2.05l-4.378,1.557C0.708,14.834,0.667,15.412,0.667,16s0.041,1.165,0.105,1.736l4.378,1.558c0.217,0.715,0.502,1.401,0.849,2.049l-1.994,4.193c0.725,0.909,1.549,1.733,2.459,2.458l4.192-1.993c0.648,0.347,1.334,0.633,2.05,0.851l1.557,4.377c0.571,0.064,1.148,0.104,1.737,0.104c0.588,0,1.165-0.04,1.736-0.104l1.558-4.377c0.715-0.218,1.399-0.504,2.049-0.851l4.193,1.993c0.909-0.725,1.733-1.549,2.458-2.458l-1.993-4.193c0.347-0.647,0.633-1.334,0.851-2.049L31.229,17.736zM16,20.871c-2.69,0-4.872-2.182-4.872-4.871c0-2.69,2.182-4.872,4.872-4.872c2.689,0,4.871,2.182,4.871,4.872C20.871,18.689,18.689,20.871,16,20.871z"></path><title>Link options.</title></g></g></g></g><!--z-index:37--><g   id="j_1186" ><path  stroke="#707070" d="M 1290 971 L 1290 1161" id="v-15023" stroke-width="2" stroke-dasharray="30 30" fill="none" style="opacity: 1;"></path><path  fill="black" stroke="black" d="M 0 0 0 0" transform="matrix(6.123234262925839e-17,1,-1,6.123234262925839e-17,1290,971)"></path><path  fill="#707070" stroke="#707070" d="M 20 0 L 0 10 L 20 20 z" id="v-15025" transform="matrix(-1.8369701465288538e-16,-1,1,-1.8369701465288538e-16,1280,1161)" style="opacity: 1;"></path><path  d="M 1290 971 L 1290 1161" id="v-15024" fill="none" style="cursor: default;"></path><g ><g id="v-15017"  label-idx="0" cursor="move" transform="matrix(1,0,0,1,1290,1066)" style="cursor: default; opacity: 1;"><rect joint-selector="rect" id="v-15020" fill="#ffffff" rx="3" ry="3" pointer-events="none" width="53.05957794189453" height="30.994468688964844" transform="matrix(1,0,0,1,-26.399999618530273,-15.5)"></rect><text joint-selector="text" id="v-15019" font-size="24px" xml:space="preserve" y="0.8em" fill="#707070" text-anchor="middle" pointer-events="none" font-family="Red Hat Display" font-weight="normal" transform="matrix(1,0,0,1,0,-10.300000190734863)"><tspan  dy="0">Uses</tspan></text></g><g id="v-15018"  label-idx="1" cursor="move" transform="matrix(1,0,0,1,1280,1092.4000244140625)" style="cursor: default; opacity: 1;"><rect joint-selector="rect" id="v-15022" fill="#ffffff" rx="3" ry="3"  width="0" height="0" transform="matrix(1,0,0,1,0,0)" display="none"></rect><text joint-selector="text" id="v-15021" fill="#000000" font-size="14" text-anchor="middle" pointer-events="none"></text></g></g><g  display="none"></g><g  id="v-15027" display="none"><g  id="v-15015"><path  end="source" d="M 26 0 L 0 13 L 26 26 z"></path></g><g  id="v-15016"><path  end="target" d="M 26 0 L 0 13 L 26 26 z"></path></g></g><g  id="v-15026" display="none"><g  id="v-15014" transform="translate(1290, 1011) "><g  event="remove"><circle r="11"></circle><path transform="scale(.8) translate(-16, -16)" d="M24.778,21.419 19.276,15.917 24.777,10.415 21.949,7.585 16.447,13.087 10.945,7.585 8.117,10.415 13.618,15.917 8.116,21.419 10.946,24.248 16.447,18.746 21.948,24.248z"></path><title>Remove link.</title></g><g  event="link:options"><circle r="11" transform="translate(25)"></circle><path fill="white" transform="scale(.55) translate(29, -16)" d="M31.229,17.736c0.064-0.571,0.104-1.148,0.104-1.736s-0.04-1.166-0.104-1.737l-4.377-1.557c-0.218-0.716-0.504-1.401-0.851-2.05l1.993-4.192c-0.725-0.91-1.549-1.734-2.458-2.459l-4.193,1.994c-0.647-0.347-1.334-0.632-2.049-0.849l-1.558-4.378C17.165,0.708,16.588,0.667,16,0.667s-1.166,0.041-1.737,0.105L12.707,5.15c-0.716,0.217-1.401,0.502-2.05,0.849L6.464,4.005C5.554,4.73,4.73,5.554,4.005,6.464l1.994,4.192c-0.347,0.648-0.632,1.334-0.849,2.05l-4.378,1.557C0.708,14.834,0.667,15.412,0.667,16s0.041,1.165,0.105,1.736l4.378,1.558c0.217,0.715,0.502,1.401,0.849,2.049l-1.994,4.193c0.725,0.909,1.549,1.733,2.459,2.458l4.192-1.993c0.648,0.347,1.334,0.633,2.05,0.851l1.557,4.377c0.571,0.064,1.148,0.104,1.737,0.104c0.588,0,1.165-0.04,1.736-0.104l1.558-4.377c0.715-0.218,1.399-0.504,2.049-0.851l4.193,1.993c0.909-0.725,1.733-1.549,2.458-2.458l-1.993-4.193c0.347-0.647,0.633-1.334,0.851-2.049L31.229,17.736zM16,20.871c-2.69,0-4.872-2.182-4.872-4.871c0-2.69,2.182-4.872,4.872-4.872c2.689,0,4.871,2.182,4.871,4.872C20.871,18.689,18.689,20.871,16,20.871z"></path><title>Link options.</title></g></g></g></g><!--z-index:38--><g   id="j_1187" ><path  stroke="#707070" d="M 1065 951 L 669 1181" id="v-15037" stroke-width="2" stroke-dasharray="30 30" fill="none" style="opacity: 1;"></path><path  fill="black" stroke="black" d="M 0 0 0 0" transform="matrix(-0.8653345704078674,0.5011946558952332,-0.5011946558952332,-0.8653345704078674,1065,951.3200073242188)"></path><path  fill="#707070" stroke="#707070" d="M 20 0 L 0 10 L 20 20 z" id="v-15039" transform="matrix(0.8653345704078674,-0.5011946558952332,0.5011946558952332,0.8653345704078674,663.988037109375,1172.0267333984375)" style="opacity: 1;"></path><path  d="M 1065 951 L 669 1181" id="v-15038" fill="none" style="cursor: default;"></path><g ><g id="v-15031"  label-idx="0" cursor="move" transform="matrix(1,0,0,1,867,1066)" style="cursor: default; opacity: 1;"><rect joint-selector="rect" id="v-15034" fill="#ffffff" rx="3" ry="3" pointer-events="none" width="53.05957794189453" height="30.994468688964844" transform="matrix(1,0,0,1,-26.399999618530273,-15.5)"></rect><text joint-selector="text" id="v-15033" font-size="24px" xml:space="preserve" y="0.8em" fill="#707070" text-anchor="middle" pointer-events="none" font-family="Red Hat Display" font-weight="normal" transform="matrix(1,0,0,1,0,-10.300000190734863)"><tspan  dy="0">Uses</tspan></text></g><g id="v-15032"  label-idx="1" cursor="move" transform="matrix(1,0,0,1,857,1092.4000244140625)" style="cursor: default; opacity: 1;"><rect joint-selector="rect" id="v-15036" fill="#ffffff" rx="3" ry="3"  width="0" height="0" transform="matrix(1,0,0,1,0,0)" display="none"></rect><text joint-selector="text" id="v-15035" fill="#000000" font-size="14" text-anchor="middle" pointer-events="none"></text></g></g><g  display="none"></g><g  id="v-15041" display="none"><g  id="v-15029"><path  end="source" d="M 26 0 L 0 13 L 26 26 z"></path></g><g  id="v-15030"><path  end="target" d="M 26 0 L 0 13 L 26 26 z"></path></g></g><g  id="v-15040" display="none"><g  id="v-15028" transform="translate(1030.4108894464798, 971.0896349174485) "><g  event="remove"><circle r="11"></circle><path transform="scale(.8) translate(-16, -16)" d="M24.778,21.419 19.276,15.917 24.777,10.415 21.949,7.585 16.447,13.087 10.945,7.585 8.117,10.415 13.618,15.917 8.116,21.419 10.946,24.248 16.447,18.746 21.948,24.248z"></path><title>Remove link.</title></g><g  event="link:options"><circle r="11" transform="translate(25)"></circle><path fill="white" transform="scale(.55) translate(29, -16)" d="M31.229,17.736c0.064-0.571,0.104-1.148,0.104-1.736s-0.04-1.166-0.104-1.737l-4.377-1.557c-0.218-0.716-0.504-1.401-0.851-2.05l1.993-4.192c-0.725-0.91-1.549-1.734-2.458-2.459l-4.193,1.994c-0.647-0.347-1.334-0.632-2.049-0.849l-1.558-4.378C17.165,0.708,16.588,0.667,16,0.667s-1.166,0.041-1.737,0.105L12.707,5.15c-0.716,0.217-1.401,0.502-2.05,0.849L6.464,4.005C5.554,4.73,4.73,5.554,4.005,6.464l1.994,4.192c-0.347,0.648-0.632,1.334-0.849,2.05l-4.378,1.557C0.708,14.834,0.667,15.412,0.667,16s0.041,1.165,0.105,1.736l4.378,1.558c0.217,0.715,0.502,1.401,0.849,2.049l-1.994,4.193c0.725,0.909,1.549,1.733,2.459,2.458l4.192-1.993c0.648,0.347,1.334,0.633,2.05,0.851l1.557,4.377c0.571,0.064,1.148,0.104,1.737,0.104c0.588,0,1.165-0.04,1.736-0.104l1.558-4.377c0.715-0.218,1.399-0.504,2.049-0.851l4.193,1.993c0.909-0.725,1.733-1.549,2.458-2.458l-1.993-4.193c0.347-0.647,0.633-1.334,0.851-2.049L31.229,17.736zM16,20.871c-2.69,0-4.872-2.182-4.872-4.871c0-2.69,2.182-4.872,4.872-4.872c2.689,0,4.871,2.182,4.871,4.872C20.871,18.689,18.689,20.871,16,20.871z"></path><title>Link options.</title></g></g></g></g><!--z-index:39--><g   id="j_1188" ><path  stroke="#707070" d="M 669 1311 L 1065 1311" id="v-15051" stroke-width="2" stroke-dasharray="30 30" fill="none" style="opacity: 1;"></path><path  fill="black" stroke="black" d="M 0 0 0 0" transform="matrix(1,0,0,1,669,1311)"></path><path  fill="#707070" stroke="#707070" d="M 20 0 L 0 10 L 20 20 z" id="v-15053" transform="matrix(-1,1.2246468525851679e-16,-1.2246468525851679e-16,-1,1065,1321)" style="opacity: 1;"></path><path  d="M 669 1311 L 1065 1311" id="v-15052" fill="none" style="cursor: default;"></path><g ><g id="v-15045"  label-idx="0" cursor="move" transform="matrix(1,0,0,1,867,1311)" style="cursor: default; opacity: 1;"><rect joint-selector="rect" id="v-15048" fill="#ffffff" rx="3" ry="3" pointer-events="none" width="53.05957794189453" height="30.994468688964844" transform="matrix(1,0,0,1,-26.399999618530273,-15.5)"></rect><text joint-selector="text" id="v-15047" font-size="24px" xml:space="preserve" y="0.8em" fill="#707070" text-anchor="middle" pointer-events="none" font-family="Red Hat Display" font-weight="normal" transform="matrix(1,0,0,1,0,-10.300000190734863)"><tspan  dy="0">Uses</tspan></text></g><g id="v-15046"  label-idx="1" cursor="move" transform="matrix(1,0,0,1,857,1337.4000244140625)" style="cursor: default; opacity: 1;"><rect joint-selector="rect" id="v-15050" fill="#ffffff" rx="3" ry="3"  width="0" height="0" transform="matrix(1,0,0,1,0,0)" display="none"></rect><text joint-selector="text" id="v-15049" fill="#000000" font-size="14" text-anchor="middle" pointer-events="none"></text></g></g><g  display="none"></g><g  id="v-15055" display="none"><g  id="v-15043"><path  end="source" d="M 26 0 L 0 13 L 26 26 z"></path></g><g  id="v-15044"><path  end="target" d="M 26 0 L 0 13 L 26 26 z"></path></g></g><g  id="v-15054" display="none"><g  id="v-15042" transform="translate(709, 1311) "><g  event="remove"><circle r="11"></circle><path transform="scale(.8) translate(-16, -16)" d="M24.778,21.419 19.276,15.917 24.777,10.415 21.949,7.585 16.447,13.087 10.945,7.585 8.117,10.415 13.618,15.917 8.116,21.419 10.946,24.248 16.447,18.746 21.948,24.248z"></path><title>Remove link.</title></g><g  event="link:options"><circle r="11" transform="translate(25)"></circle><path fill="white" transform="scale(.55) translate(29, -16)" d="M31.229,17.736c0.064-0.571,0.104-1.148,0.104-1.736s-0.04-1.166-0.104-1.737l-4.377-1.557c-0.218-0.716-0.504-1.401-0.851-2.05l1.993-4.192c-0.725-0.91-1.549-1.734-2.458-2.459l-4.193,1.994c-0.647-0.347-1.334-0.632-2.049-0.849l-1.558-4.378C17.165,0.708,16.588,0.667,16,0.667s-1.166,0.041-1.737,0.105L12.707,5.15c-0.716,0.217-1.401,0.502-2.05,0.849L6.464,4.005C5.554,4.73,4.73,5.554,4.005,6.464l1.994,4.192c-0.347,0.648-0.632,1.334-0.849,2.05l-4.378,1.557C0.708,14.834,0.667,15.412,0.667,16s0.041,1.165,0.105,1.736l4.378,1.558c0.217,0.715,0.502,1.401,0.849,2.049l-1.994,4.193c0.725,0.909,1.549,1.733,2.459,2.458l4.192-1.993c0.648,0.347,1.334,0.633,2.05,0.851l1.557,4.377c0.571,0.064,1.148,0.104,1.737,0.104c0.588,0,1.165-0.04,1.736-0.104l1.558-4.377c0.715-0.218,1.399-0.504,2.049-0.851l4.193,1.993c0.909-0.725,1.733-1.549,2.458-2.458l-1.993-4.193c0.347-0.647,0.633-1.334,0.851-2.049L31.229,17.736zM16,20.871c-2.69,0-4.872-2.182-4.872-4.871c0-2.69,2.182-4.872,4.872-4.872c2.689,0,4.871,2.182,4.871,4.872C20.871,18.689,18.689,20.871,16,20.871z"></path><title>Link options.</title></g></g></g></g><!--z-index:40--><g   id="j_1189" ><path  stroke="#707070" d="M 1065 821 L 669 821" id="v-15065" stroke-width="2" stroke-dasharray="30 30" fill="none" style="opacity: 1;"></path><path  fill="black" stroke="black" d="M 0 0 0 0" transform="matrix(-1,1.2246468525851679e-16,-1.2246468525851679e-16,-1,1065,821)"></path><path  fill="#707070" stroke="#707070" d="M 20 0 L 0 10 L 20 20 z" id="v-15067" transform="matrix(1,0,0,1,669,811)" style="opacity: 1;"></path><path  d="M 1065 821 L 669 821" id="v-15066" fill="none" style="cursor: default;"></path><g ><g id="v-15059"  label-idx="0" cursor="move" transform="matrix(1,0,0,1,867,821)" style="cursor: default; opacity: 1;"><rect joint-selector="rect" id="v-15062" fill="#ffffff" rx="3" ry="3" pointer-events="none" width="53.05957794189453" height="30.994468688964844" transform="matrix(1,0,0,1,-26.399999618530273,-15.5)"></rect><text joint-selector="text" id="v-15061" font-size="24px" xml:space="preserve" y="0.8em" fill="#707070" text-anchor="middle" pointer-events="none" font-family="Red Hat Display" font-weight="normal" transform="matrix(1,0,0,1,0,-10.300000190734863)"><tspan  dy="0">Uses</tspan></text></g><g id="v-15060"  label-idx="1" cursor="move" transform="matrix(1,0,0,1,857,847.4000244140625)" style="cursor: default; opacity: 1;"><rect joint-selector="rect" id="v-15064" fill="#ffffff" rx="3" ry="3"  width="0" height="0" transform="matrix(1,0,0,1,0,0)" display="none"></rect><text joint-selector="text" id="v-15063" fill="#000000" font-size="14" text-anchor="middle" pointer-events="none"></text></g></g><g  display="none"></g><g  id="v-15069" display="none"><g  id="v-15057"><path  end="source" d="M 26 0 L 0 13 L 26 26 z"></path></g><g  id="v-15058"><path  end="target" d="M 26 0 L 0 13 L 26 26 z"></path></g></g><g  id="v-15068" display="none"><g  id="v-15056" transform="translate(1025, 821) "><g  event="remove"><circle r="11"></circle><path transform="scale(.8) translate(-16, -16)" d="M24.778,21.419 19.276,15.917 24.777,10.415 21.949,7.585 16.447,13.087 10.945,7.585 8.117,10.415 13.618,15.917 8.116,21.419 10.946,24.248 16.447,18.746 21.948,24.248z"></path><title>Remove link.</title></g><g  event="link:options"><circle r="11" transform="translate(25)"></circle><path fill="white" transform="scale(.55) translate(29, -16)" d="M31.229,17.736c0.064-0.571,0.104-1.148,0.104-1.736s-0.04-1.166-0.104-1.737l-4.377-1.557c-0.218-0.716-0.504-1.401-0.851-2.05l1.993-4.192c-0.725-0.91-1.549-1.734-2.458-2.459l-4.193,1.994c-0.647-0.347-1.334-0.632-2.049-0.849l-1.558-4.378C17.165,0.708,16.588,0.667,16,0.667s-1.166,0.041-1.737,0.105L12.707,5.15c-0.716,0.217-1.401,0.502-2.05,0.849L6.464,4.005C5.554,4.73,4.73,5.554,4.005,6.464l1.994,4.192c-0.347,0.648-0.632,1.334-0.849,2.05l-4.378,1.557C0.708,14.834,0.667,15.412,0.667,16s0.041,1.165,0.105,1.736l4.378,1.558c0.217,0.715,0.502,1.401,0.849,2.049l-1.994,4.193c0.725,0.909,1.549,1.733,2.459,2.458l4.192-1.993c0.648,0.347,1.334,0.633,2.05,0.851l1.557,4.377c0.571,0.064,1.148,0.104,1.737,0.104c0.588,0,1.165-0.04,1.736-0.104l1.558-4.377c0.715-0.218,1.399-0.504,2.049-0.851l4.193,1.993c0.909-0.725,1.733-1.549,2.458-2.458l-1.993-4.193c0.347-0.647,0.633-1.334,0.851-2.049L31.229,17.736zM16,20.871c-2.69,0-4.872-2.182-4.872-4.871c0-2.69,2.182-4.872,4.872-4.872c2.689,0,4.871,2.182,4.871,4.872C20.871,18.689,18.689,20.871,16,20.871z"></path><title>Link options.</title></g></g></g></g><!--z-index:41--><g   id="j_1190" ><path  stroke="#707070" d="M 444 471 L 444 671" id="v-15079" stroke-width="2" stroke-dasharray="30 30" fill="none" style="opacity: 1;"></path><path  fill="black" stroke="black" d="M 0 0 0 0" transform="matrix(6.123234262925839e-17,1,-1,6.123234262925839e-17,444,471)"></path><path  fill="#707070" stroke="#707070" d="M 20 0 L 0 10 L 20 20 z" id="v-15081" transform="matrix(-1.8369701465288538e-16,-1,1,-1.8369701465288538e-16,434,671)" style="opacity: 1;"></path><path  d="M 444 471 L 444 671" id="v-15080" fill="none" style="cursor: default;"></path><g ><g id="v-15073"  label-idx="0" cursor="move" transform="matrix(1,0,0,1,444,571)" style="cursor: default; opacity: 1;"><rect joint-selector="rect" id="v-15076" fill="#ffffff" rx="3" ry="3" pointer-events="none" width="127.37250518798828" height="30.994468688964844" transform="matrix(1,0,0,1,-63.5,-15.5)"></rect><text joint-selector="text" id="v-15075" font-size="24px" xml:space="preserve" y="0.8em" fill="#707070" text-anchor="middle" pointer-events="none" font-family="Red Hat Display" font-weight="normal" transform="matrix(1,0,0,1,0,-10.300000190734863)"><tspan  dy="0">Implements</tspan></text></g><g id="v-15074"  label-idx="1" cursor="move" transform="matrix(1,0,0,1,434,597.4000244140625)" style="cursor: default; opacity: 1;"><rect joint-selector="rect" id="v-15078" fill="#ffffff" rx="3" ry="3"  width="0" height="0" transform="matrix(1,0,0,1,0,0)" display="none"></rect><text joint-selector="text" id="v-15077" fill="#000000" font-size="14" text-anchor="middle" pointer-events="none"></text></g></g><g  display="none"></g><g  id="v-15083" display="none"><g  id="v-15071"><path  end="source" d="M 26 0 L 0 13 L 26 26 z"></path></g><g  id="v-15072"><path  end="target" d="M 26 0 L 0 13 L 26 26 z"></path></g></g><g  id="v-15082" display="none"><g  id="v-15070" transform="translate(444.00000000000006, 511) "><g  event="remove"><circle r="11"></circle><path transform="scale(.8) translate(-16, -16)" d="M24.778,21.419 19.276,15.917 24.777,10.415 21.949,7.585 16.447,13.087 10.945,7.585 8.117,10.415 13.618,15.917 8.116,21.419 10.946,24.248 16.447,18.746 21.948,24.248z"></path><title>Remove link.</title></g><g  event="link:options"><circle r="11" transform="translate(25)"></circle><path fill="white" transform="scale(.55) translate(29, -16)" d="M31.229,17.736c0.064-0.571,0.104-1.148,0.104-1.736s-0.04-1.166-0.104-1.737l-4.377-1.557c-0.218-0.716-0.504-1.401-0.851-2.05l1.993-4.192c-0.725-0.91-1.549-1.734-2.458-2.459l-4.193,1.994c-0.647-0.347-1.334-0.632-2.049-0.849l-1.558-4.378C17.165,0.708,16.588,0.667,16,0.667s-1.166,0.041-1.737,0.105L12.707,5.15c-0.716,0.217-1.401,0.502-2.05,0.849L6.464,4.005C5.554,4.73,4.73,5.554,4.005,6.464l1.994,4.192c-0.347,0.648-0.632,1.334-0.849,2.05l-4.378,1.557C0.708,14.834,0.667,15.412,0.667,16s0.041,1.165,0.105,1.736l4.378,1.558c0.217,0.715,0.502,1.401,0.849,2.049l-1.994,4.193c0.725,0.909,1.549,1.733,2.459,2.458l4.192-1.993c0.648,0.347,1.334,0.633,2.05,0.851l1.557,4.377c0.571,0.064,1.148,0.104,1.737,0.104c0.588,0,1.165-0.04,1.736-0.104l1.558-4.377c0.715-0.218,1.399-0.504,2.049-0.851l4.193,1.993c0.909-0.725,1.733-1.549,2.458-2.458l-1.993-4.193c0.347-0.647,0.633-1.334,0.851-2.049L31.229,17.736zM16,20.871c-2.69,0-4.872-2.182-4.872-4.871c0-2.69,2.182-4.872,4.872-4.872c2.689,0,4.871,2.182,4.871,4.872C20.871,18.689,18.689,20.871,16,20.871z"></path><title>Link options.</title></g></g></g></g><!--z-index:42--><!--z-index:43--><!--z-index:44--><!--z-index:45--><!--z-index:46--><!--z-index:47--><!--z-index:48--><!--z-index:49--><!--z-index:50--><!--z-index:51--><!--z-index:52--><!--z-index:53--><!--z-index:54--><!--z-index:55--><!--z-index:56--><!--z-index:57--><!--z-index:58--><!--z-index:59--><!--z-index:60--><!--z-index:61--><!--z-index:62--><!--z-index:63--><!--z-index:64--><!--z-index:65--><!--z-index:66--><!--z-index:67--><!--z-index:68--><!--z-index:69--><!--z-index:70--><!--z-index:71--><!--z-index:72--><!--z-index:73--><!--z-index:74--><!--z-index:75--><!--z-index:76--><!--z-index:77--><!--z-index:78--><!--z-index:79--><!--z-index:80--><!--z-index:81--><!--z-index:82--><!--z-index:83--><!--z-index:84--><!--z-index:85--><!--z-index:86--><!--z-index:87--><!--z-index:88--><!--z-index:89--><!--z-index:90--><!--z-index:91--><!--z-index:92--><!--z-index:93--><!--z-index:94--><!--z-index:95--><!--z-index:96--><!--z-index:97--><!--z-index:98--><!--z-index:99--><!--z-index:100--><!--z-index:101--><!--z-index:102--><!--z-index:103--><!--z-index:104--><!--z-index:105--><!--z-index:106--><!--z-index:107--><!--z-index:108--><!--z-index:109--><!--z-index:110--><!--z-index:111--><!--z-index:112--><!--z-index:113--><!--z-index:114--><!--z-index:115--><!--z-index:116--><!--z-index:117--><!--z-index:118--><!--z-index:119--><!--z-index:120--><!--z-index:121--><!--z-index:122--><!--z-index:123--><!--z-index:124--><!--z-index:125--><!--z-index:126--><!--z-index:127--><!--z-index:128--><!--z-index:129--><!--z-index:130--><!--z-index:131--><!--z-index:132--><!--z-index:133--><!--z-index:134--><!--z-index:135--><!--z-index:136--><!--z-index:137--><!--z-index:138--><!--z-index:139--><!--z-index:140--><!--z-index:141--><!--z-index:142--><!--z-index:143--><!--z-index:144--><!--z-index:145--><!--z-index:146--><!--z-index:147--><!--z-index:148--><!--z-index:149--><!--z-index:150--><!--z-index:151--><!--z-index:152--><!--z-index:153--><!--z-index:154--><!--z-index:155--><!--z-index:156--><!--z-index:157--><!--z-index:158--><!--z-index:159--><!--z-index:160--><!--z-index:161--><!--z-index:162--><!--z-index:163--><!--z-index:164--><!--z-index:165--><!--z-index:166--><!--z-index:167--><!--z-index:168--><!--z-index:169--><!--z-index:170--><!--z-index:171--><!--z-index:172--><!--z-index:173--><!--z-index:174--><!--z-index:175--><!--z-index:176--><!--z-index:177--><!--z-index:178--><!--z-index:179--><!--z-index:180--><!--z-index:181--><!--z-index:182--><!--z-index:183--><!--z-index:184--><!--z-index:185--><!--z-index:186--><!--z-index:187--><!--z-index:188--><!--z-index:189--><!--z-index:190--><!--z-index:191--><!--z-index:192--></g><g ></g><g ></g><g ></g></g></svg>