<svg xmlns="http://www.w3.org/2000/svg" xmlns:xlink="http://www.w3.org/1999/xlink" version="1.1" viewBox="0 0 1925 1396" style="background: #ffffff"><defs><style>@import url(https://fonts.googleapis.com/css2?family=Red+Hat+Display:wght@500..900);</style></defs><defs joint-selector="defs"></defs><g  joint-selector="layers" transform="matrix(1,0,0,1,0,0)"><g ></g><g ><!--z-index:-1--><!--z-index:0--><!--z-index:1--><!--z-index:2--><!--z-index:3--><!--z-index:4--><!--z-index:5--><!--z-index:6--><!--z-index:7--><!--z-index:8--><!--z-index:9--><!--z-index:10--><!--z-index:11--><!--z-index:12--><!--z-index:13--><!--z-index:14--><g   id="j_521"  transform="translate(20,1290)"><g id="v-6146"><image  id="v-6147" xlink:href="https://raw.githubusercontent.com/jaimeib/hosting/refs/heads/main/wattnet-logo-icon-dark-background-rounded.png" pointer-events="none" width="96" height="96"></image></g></g><!--z-index:15--><g   id="j_520"  transform="translate(136,1359.6)"><g id="v-6144"><text  id="v-6145" font-size="22px" xml:space="preserve" y="0.8em" font-weight="normal" text-anchor="start" fill="#aaaaaa" pointer-events="none" display="block" font-family="Red Hat Display"><tspan  dy="0">Monday, April 6, 2026 at 10:01 AM Central European Summer Time</tspan></text></g></g><!--z-index:16--><g   id="j_519"  transform="translate(136,1333.1999999999998)"><g id="v-6142"><text  id="v-6143" font-size="22px" xml:space="preserve" y="0.8em" font-weight="normal" text-anchor="start" fill="#aaaaaa" pointer-events="none" display="block" font-family="Red Hat Display"><tspan  dy="0">© Spanish National Research Council (CSIC) | Licensed under CC BY 4.0</tspan></text></g></g><!--z-index:17--><g   id="j_518"  transform="translate(136,1289.9999999999998)"><g id="v-6140"><text  id="v-6141" font-size="36px" xml:space="preserve" y="0.8em" font-weight="normal" text-anchor="start" fill="#000000" pointer-events="none" display="block" font-family="Red Hat Display"><tspan  dy="0">[Component] wattnet - Environmental Database</tspan></text></g></g><!--z-index:18--><g   id="j_522"  transform="translate(735,152)" style=""><g  id="v-6151" style="opacity: 1;"><rect  id="v-6152" rx="20" ry="20" stroke="#4b6896" stroke-width="2" pointer-events="visiblePainted" fill="#5374a7" width="450" height="300" style="fill: rgb(83, 116, 167); stroke: rgb(75, 104, 150);"></rect><text  id="v-6153" font-size="34" xml:space="preserve" y="0.8em" font-weight="bold" text-anchor="middle" pointer-events="visible" font-family="Red Hat Display" fill="#ffffff" transform="matrix(1,0,0,1,225,73.69999694824219)" style="fill: rgb(255, 255, 255);"><tspan  dy="0">Core Engine</tspan></text><text  id="v-6154" font-size="17" xml:space="preserve" y="0.8em" text-anchor="middle" font-family="Red Hat Display" fill="#ffffff" transform="matrix(1,0,0,1,225,114.5)" style="fill: rgb(255, 255, 255);"><tspan  dy="0">[Container: Python]</tspan></text><text  id="v-6155" font-size="24" xml:space="preserve" y="0.8em" text-anchor="middle" font-family="Red Hat Display" fill="#ffffff" transform="matrix(1,0,0,1,225,144.89999389648438)" style="fill: rgb(255, 255, 255);"><tspan  dy="0">Fetch and processes electricity</tspan><tspan dy="1.2em" x="0" >generation data to compute</tspan><tspan dy="1.2em" x="0" >environmental impact metrics.</tspan></text><g  id="v-6156" color="#ffffff" transform="matrix(1,0,0,1,210,268)" style="fill: rgb(255, 255, 255);" display="none"><g  transform="translate(5 0)"><svg xmlns="http://www.w3.org/2000/svg" width="20" height="20" fill="currentColor" viewBox="0 0 16 16"><path fill-rule="evenodd" d="M6.5 12a5.5 5.5 0 1 0 0-11 5.5 5.5 0 0 0 0 11zM13 6.5a6.5 6.5 0 1 1-13 0 6.5 6.5 0 0 1 13 0z"></path><path d="M10.344 11.742c.03.04.062.078.098.115l3.85 3.85a1 1 0 0 0 1.415-1.414l-3.85-3.85a1.007 1.007 0 0 0-.115-.1 6.538 6.538 0 0 1-1.398 1.4z"></path><path fill-rule="evenodd" d="M6.5 3a.5.5 0 0 1 .5.5V6h2.5a.5.5 0 0 1 0 1H7v2.5a.5.5 0 0 1-1 0V7H3.5a.5.5 0 0 1 0-1H6V3.5a.5.5 0 0 1 .5-.5z"></path></svg></g><g ></g><g ></g><g ></g></g><image  id="v-6157"></image></g></g><!--z-index:19--><g   id="j_523"  transform="translate(1255,157)" style=""><g  id="v-6161" style="opacity: 1;"><rect  id="v-6162" rx="20" ry="20" stroke="#4b6896" stroke-width="2" pointer-events="visiblePainted" fill="#5374a7" width="450" height="300" style="fill: rgb(83, 116, 167); stroke: rgb(75, 104, 150);"></rect><text  id="v-6163" font-size="34" xml:space="preserve" y="0.8em" font-weight="bold" text-anchor="middle" pointer-events="visible" font-family="Red Hat Display" fill="#ffffff" transform="matrix(1,0,0,1,225,73.69999694824219)" style="fill: rgb(255, 255, 255);"><tspan  dy="0">Forecast Engine</tspan></text><text  id="v-6164" font-size="17" xml:space="preserve" y="0.8em" text-anchor="middle" font-family="Red Hat Display" fill="#ffffff" transform="matrix(1,0,0,1,225,114.5)" style="fill: rgb(255, 255, 255);"><tspan  dy="0">[Container: Python]</tspan></text><text  id="v-6165" font-size="24" xml:space="preserve" y="0.8em" text-anchor="middle" font-family="Red Hat Display" fill="#ffffff" transform="matrix(1,0,0,1,225,144.89999389648438)" style="fill: rgb(255, 255, 255);"><tspan  dy="0">Forecasts short-term future</tspan><tspan dy="1.2em" x="0" >environmental impact metrics</tspan><tspan dy="1.2em" x="0" >based on historical data.</tspan></text><g  id="v-6166" color="#ffffff" transform="matrix(1,0,0,1,210,268)" style="fill: rgb(255, 255, 255);" display="none"><g  transform="translate(5 0)"><svg xmlns="http://www.w3.org/2000/svg" width="20" height="20" fill="currentColor" viewBox="0 0 16 16"><path fill-rule="evenodd" d="M6.5 12a5.5 5.5 0 1 0 0-11 5.5 5.5 0 0 0 0 11zM13 6.5a6.5 6.5 0 1 1-13 0 6.5 6.5 0 0 1 13 0z"></path><path d="M10.344 11.742c.03.04.062.078.098.115l3.85 3.85a1 1 0 0 0 1.415-1.414l-3.85-3.85a1.007 1.007 0 0 0-.115-.1 6.538 6.538 0 0 1-1.398 1.4z"></path><path fill-rule="evenodd" d="M6.5 3a.5.5 0 0 1 .5.5V6h2.5a.5.5 0 0 1 0 1H7v2.5a.5.5 0 0 1-1 0V7H3.5a.5.5 0 0 1 0-1H6V3.5a.5.5 0 0 1 .5-.5z"></path></svg></g><g ></g><g ></g><g ></g></g><image  id="v-6167"></image></g></g><!--z-index:20--><g   id="j_525"  transform="translate(200,737)" style=""><g id="v-6182"><rect  id="v-6183" width="1525" height="411" rx="0" ry="0" fill="#ffffff" stroke="#85b920" stroke-width="1" stroke-dasharray="20,20" pointer-events="none"></rect><text  id="v-6184" font-size="24px" xml:space="preserve" y="372" font-weight="normal" fill="#85b920" text-anchor="start" pointer-events="visible" font-family="Red Hat Display" transform="matrix(1,0,0,1,15,0)"><tspan  dy="0">Environmental Database</tspan></text><text  id="v-6185" font-size="17px" xml:space="preserve" y="396" font-weight="normal" fill="#85b920" text-anchor="start" pointer-events="visible" font-family="Red Hat Display" transform="matrix(1,0,0,1,15,0)"><tspan  dy="0">[Container]</tspan></text><image  id="v-6186" pointer-events="visible"></image></g></g><!--z-index:21--><g   id="j_524"  transform="translate(220,757)" style=""><g  id="v-6174" style="opacity: 1;"><rect  id="v-6175" rx="10" ry="10" stroke="#aed150" stroke-width="2" pointer-events="visiblePainted" fill="#c1e859" x="10" y="0" width="150" height="75" style="fill: rgb(193, 232, 89); stroke: rgb(174, 209, 80);"></rect><rect  id="v-6176" rx="5" ry="5" stroke="#aed150" stroke-width="2" pointer-events="visiblePainted" fill="#c1e859" x="0" y="37.5" width="450" height="262.5" style="fill: rgb(193, 232, 89); stroke: rgb(174, 209, 80);"></rect><text  id="v-6177" font-size="34" xml:space="preserve" y="0.8em" font-weight="bold" text-anchor="middle" pointer-events="visible" font-family="Red Hat Display" fill="#143262" transform="matrix(1,0,0,1,225,92.5)" style="fill: rgb(20, 50, 98);"><tspan  dy="0">Carbon Intensity Factors</tspan></text><text  id="v-6178" font-size="17" xml:space="preserve" y="0.8em" text-anchor="middle" font-family="Red Hat Display" fill="#143262" transform="matrix(1,0,0,1,225,133.3000030517578)" style="fill: rgb(20, 50, 98);"><tspan  dy="0">[Component: YAML File]</tspan></text><text  id="v-6179" font-size="24" xml:space="preserve" y="0.8em" text-anchor="middle" font-family="Red Hat Display" fill="#143262" transform="matrix(1,0,0,1,225,163.6999969482422)" style="fill: rgb(20, 50, 98);"><tspan  dy="0">Life-cycle and operational carbon</tspan><tspan dy="1.2em" x="0" >intensity factors per unit of</tspan><tspan dy="1.2em" x="0" >electricity generated.</tspan></text><g  id="v-6180" font-weight="normal" text-anchor="middle" color="#143262" transform="matrix(1,0,0,1,222.5,268)" style="fill: rgb(20, 50, 98);" display="none"><g ></g><g ></g><g ></g><g ></g></g><image  id="v-6181"></image></g></g><!--z-index:22--><g   id="j_526"  transform="translate(737,757)" style=""><g  id="v-6193" style="opacity: 1;"><rect  id="v-6194" rx="10" ry="10" stroke="#aed150" stroke-width="2" pointer-events="visiblePainted" fill="#c1e859" x="10" y="0" width="150" height="75" style="fill: rgb(193, 232, 89); stroke: rgb(174, 209, 80);"></rect><rect  id="v-6195" rx="5" ry="5" stroke="#aed150" stroke-width="2" pointer-events="visiblePainted" fill="#c1e859" x="0" y="37.5" width="450" height="262.5" style="fill: rgb(193, 232, 89); stroke: rgb(174, 209, 80);"></rect><text  id="v-6196" font-size="34" xml:space="preserve" y="0.8em" font-weight="bold" text-anchor="middle" pointer-events="visible" font-family="Red Hat Display" fill="#143262" transform="matrix(1,0,0,1,225,92.5)" style="fill: rgb(20, 50, 98);"><tspan  dy="0">Water Footprint Factors</tspan></text><text  id="v-6197" font-size="17" xml:space="preserve" y="0.8em" text-anchor="middle" font-family="Red Hat Display" fill="#143262" transform="matrix(1,0,0,1,225,133.3000030517578)" style="fill: rgb(20, 50, 98);"><tspan  dy="0">[Component: YAML File]</tspan></text><text  id="v-6198" font-size="24" xml:space="preserve" y="0.8em" text-anchor="middle" font-family="Red Hat Display" fill="#143262" transform="matrix(1,0,0,1,225,163.6999969482422)" style="fill: rgb(20, 50, 98);"><tspan  dy="0">Life-cycle and operational water</tspan><tspan dy="1.2em" x="0" >consumption factors per unit of</tspan><tspan dy="1.2em" x="0" >electricity generated.</tspan></text><g  id="v-6199" font-weight="normal" text-anchor="middle" color="#143262" transform="matrix(1,0,0,1,222.5,268)" style="fill: rgb(20, 50, 98);" display="none"><g ></g><g ></g><g ></g><g ></g></g><image  id="v-6200"></image></g></g><!--z-index:23--><g   id="j_527"  transform="translate(1255,757)" style=""><g  id="v-6207" style="opacity: 1;"><rect  id="v-6208" rx="10" ry="10" stroke="#aed150" stroke-width="2" pointer-events="visiblePainted" fill="#c1e859" x="10" y="0" width="150" height="75" style="fill: rgb(193, 232, 89); stroke: rgb(174, 209, 80);"></rect><rect  id="v-6209" rx="5" ry="5" stroke="#aed150" stroke-width="2" pointer-events="visiblePainted" fill="#c1e859" x="0" y="37.5" width="450" height="262.5" style="fill: rgb(193, 232, 89); stroke: rgb(174, 209, 80);"></rect><text  id="v-6210" font-size="34" xml:space="preserve" y="0.8em" font-weight="bold" text-anchor="middle" pointer-events="visible" font-family="Red Hat Display" fill="#143262" transform="matrix(1,0,0,1,225,92.5)" style="fill: rgb(20, 50, 98);"><tspan  dy="0">Water Stress Factors</tspan></text><text  id="v-6211" font-size="17" xml:space="preserve" y="0.8em" text-anchor="middle" font-family="Red Hat Display" fill="#143262" transform="matrix(1,0,0,1,225,133.3000030517578)" style="fill: rgb(20, 50, 98);"><tspan  dy="0">[Component: YAML File]</tspan></text><text  id="v-6212" font-size="24" xml:space="preserve" y="0.8em" text-anchor="middle" font-family="Red Hat Display" fill="#143262" transform="matrix(1,0,0,1,225,163.6999969482422)" style="fill: rgb(20, 50, 98);"><tspan  dy="0">AWARE-based regional water</tspan><tspan dy="1.2em" x="0" >scarcity characterization factors for</tspan><tspan dy="1.2em" x="0" >weighting water impact.</tspan></text><g  id="v-6213" font-weight="normal" text-anchor="middle" color="#143262" transform="matrix(1,0,0,1,222.5,268)" style="fill: rgb(20, 50, 98);" display="none"><g ></g><g ></g><g ></g><g ></g></g><image  id="v-6214"></image></g></g><!--z-index:24--><g   id="j_528" ><path  stroke="#707070" d="M 832 452 L 573 757" id="v-6227" stroke-width="2" stroke-dasharray="30 30" fill="none" style="opacity: 1;"></path><path  fill="black" stroke="black" d="M 0 0 0 0" transform="matrix(-0.6481845378875732,0.7614833116531372,-0.7614833116531372,-0.6481845378875732,832.3099975585938,452)"></path><path  fill="#707070" stroke="#707070" d="M 20 0 L 0 10 L 20 20 z" id="v-6229" transform="matrix(0.6481847167015076,-0.7614831328392029,0.7614831328392029,0.6481847167015076,565.0751953125,750.5181884765625)" style="opacity: 1;"></path><path  d="M 832 452 L 573 757" id="v-6228" fill="none" style="cursor: default;"></path><g ><g id="v-6218"  label-idx="0" cursor="move" transform="matrix(1,0,0,1,702.5,604.5)" style="cursor: default; opacity: 1;"><rect joint-selector="rect" id="v-6222" fill="#ffffff" rx="3" ry="3" pointer-events="none" width="68.35566711425781" height="30.88875389099121" transform="matrix(1,0,0,1,-33.099998474121094,-15.399999618530273)"></rect><text joint-selector="text" id="v-6221" font-size="24px" xml:space="preserve" y="0.8em" fill="#707070" text-anchor="middle" pointer-events="none" font-family="Red Hat Display" font-weight="normal" transform="matrix(1,0,0,1,0,-10.600000381469727)"><tspan  dy="0">Reads</tspan></text></g><g id="v-6219"  label-idx="1" cursor="move" transform="matrix(1,0,0,1,702.5,630.9000244140625)" style="cursor: default; opacity: 1;"><rect joint-selector="rect" id="v-6224" fill="#ffffff" rx="3" ry="3" pointer-events="none" width="95.98394012451172" height="22.308545112609863" transform="matrix(1,0,0,1,-48,-11.199999809265137)"></rect><text joint-selector="text" id="v-6223" font-size="17px" xml:space="preserve" y="0.8em" fill="#707070" text-anchor="middle" pointer-events="none" font-family="Red Hat Display" font-weight="normal" transform="matrix(1,0,0,1,0,-7.599999904632568)"><tspan  dy="0">[YAML Files]</tspan></text></g><g id="v-6220"  label-idx="2" cursor="move" transform="matrix(1,0,0,1,692.5,639.2999877929688)" style="cursor: default; opacity: 1;"><rect joint-selector="rect" id="v-6226" fill="#ffffff" rx="3" ry="3"  width="0" height="0" transform="matrix(1,0,0,1,0,0)" display="none"></rect><text joint-selector="text" id="v-6225" fill="#000000" font-size="14" text-anchor="middle" pointer-events="none"></text></g></g><g  display="none"></g><g  id="v-6231" display="none"><g  id="v-6216"><path  end="source" d="M 26 0 L 0 13 L 26 26 z"></path></g><g  id="v-6217"><path  end="target" d="M 26 0 L 0 13 L 26 26 z"></path></g></g><g  id="v-6230" display="none"><g  id="v-6215" transform="translate(806.1085751144752, 482.4899018922204) "><g  event="remove"><circle r="11"></circle><path transform="scale(.8) translate(-16, -16)" d="M24.778,21.419 19.276,15.917 24.777,10.415 21.949,7.585 16.447,13.087 10.945,7.585 8.117,10.415 13.618,15.917 8.116,21.419 10.946,24.248 16.447,18.746 21.948,24.248z"></path><title>Remove link.</title></g><g  event="link:options"><circle r="11" transform="translate(25)"></circle><path fill="white" transform="scale(.55) translate(29, -16)" d="M31.229,17.736c0.064-0.571,0.104-1.148,0.104-1.736s-0.04-1.166-0.104-1.737l-4.377-1.557c-0.218-0.716-0.504-1.401-0.851-2.05l1.993-4.192c-0.725-0.91-1.549-1.734-2.458-2.459l-4.193,1.994c-0.647-0.347-1.334-0.632-2.049-0.849l-1.558-4.378C17.165,0.708,16.588,0.667,16,0.667s-1.166,0.041-1.737,0.105L12.707,5.15c-0.716,0.217-1.401,0.502-2.05,0.849L6.464,4.005C5.554,4.73,4.73,5.554,4.005,6.464l1.994,4.192c-0.347,0.648-0.632,1.334-0.849,2.05l-4.378,1.557C0.708,14.834,0.667,15.412,0.667,16s0.041,1.165,0.105,1.736l4.378,1.558c0.217,0.715,0.502,1.401,0.849,2.049l-1.994,4.193c0.725,0.909,1.549,1.733,2.459,2.458l4.192-1.993c0.648,0.347,1.334,0.633,2.05,0.851l1.557,4.377c0.571,0.064,1.148,0.104,1.737,0.104c0.588,0,1.165-0.04,1.736-0.104l1.558-4.377c0.715-0.218,1.399-0.504,2.049-0.851l4.193,1.993c0.909-0.725,1.733-1.549,2.458-2.458l-1.993-4.193c0.347-0.647,0.633-1.334,0.851-2.049L31.229,17.736zM16,20.871c-2.69,0-4.872-2.182-4.872-4.871c0-2.69,2.182-4.872,4.872-4.872c2.689,0,4.871,2.182,4.871,4.872C20.871,18.689,18.689,20.871,16,20.871z"></path><title>Link options.</title></g></g></g></g><!--z-index:25--><g   id="j_529" ><path  stroke="#707070" d="M 961 452 L 962 757" id="v-6244" stroke-width="2" stroke-dasharray="30 30" fill="none" style="opacity: 1;"></path><path  fill="black" stroke="black" d="M 0 0 0 0" transform="matrix(0.003278611693531275,0.9999946355819702,-0.9999946355819702,0.003278611693531275,960.5,452)"></path><path  fill="#707070" stroke="#707070" d="M 20 0 L 0 10 L 20 20 z" id="v-6246" transform="matrix(-0.003278878051787615,-0.9999946355819702,0.9999946355819702,-0.003278878051787615,951.5000610351562,757.0327758789062)" style="opacity: 1;"></path><path  d="M 961 452 L 962 757" id="v-6245" fill="none" style="cursor: default;"></path><g ><g id="v-6235"  label-idx="0" cursor="move" transform="matrix(1,0,0,1,961.5,604.5)" style="cursor: default; opacity: 1;"><rect joint-selector="rect" id="v-6239" fill="#ffffff" rx="3" ry="3" pointer-events="none" width="68.35566711425781" height="30.88875389099121" transform="matrix(1,0,0,1,-33.099998474121094,-15.399999618530273)"></rect><text joint-selector="text" id="v-6238" font-size="24px" xml:space="preserve" y="0.8em" fill="#707070" text-anchor="middle" pointer-events="none" font-family="Red Hat Display" font-weight="normal" transform="matrix(1,0,0,1,0,-10.600000381469727)"><tspan  dy="0">Reads</tspan></text></g><g id="v-6236"  label-idx="1" cursor="move" transform="matrix(1,0,0,1,961.5,630.9000244140625)" style="cursor: default; opacity: 1;"><rect joint-selector="rect" id="v-6241" fill="#ffffff" rx="3" ry="3" pointer-events="none" width="95.98394012451172" height="22.308545112609863" transform="matrix(1,0,0,1,-48,-11.199999809265137)"></rect><text joint-selector="text" id="v-6240" font-size="17px" xml:space="preserve" y="0.8em" fill="#707070" text-anchor="middle" pointer-events="none" font-family="Red Hat Display" font-weight="normal" transform="matrix(1,0,0,1,0,-7.599999904632568)"><tspan  dy="0">[YAML Files]</tspan></text></g><g id="v-6237"  label-idx="2" cursor="move" transform="matrix(1,0,0,1,951.5,639.2999877929688)" style="cursor: default; opacity: 1;"><rect joint-selector="rect" id="v-6243" fill="#ffffff" rx="3" ry="3"  width="0" height="0" transform="matrix(1,0,0,1,0,0)" display="none"></rect><text joint-selector="text" id="v-6242" fill="#000000" font-size="14" text-anchor="middle" pointer-events="none"></text></g></g><g  display="none"></g><g  id="v-6248" display="none"><g  id="v-6233"><path  end="source" d="M 26 0 L 0 13 L 26 26 z"></path></g><g  id="v-6234"><path  end="target" d="M 26 0 L 0 13 L 26 26 z"></path></g></g><g  id="v-6247" display="none"><g  id="v-6232" transform="translate(961.1311468360846, 491.9997850057646) "><g  event="remove"><circle r="11"></circle><path transform="scale(.8) translate(-16, -16)" d="M24.778,21.419 19.276,15.917 24.777,10.415 21.949,7.585 16.447,13.087 10.945,7.585 8.117,10.415 13.618,15.917 8.116,21.419 10.946,24.248 16.447,18.746 21.948,24.248z"></path><title>Remove link.</title></g><g  event="link:options"><circle r="11" transform="translate(25)"></circle><path fill="white" transform="scale(.55) translate(29, -16)" d="M31.229,17.736c0.064-0.571,0.104-1.148,0.104-1.736s-0.04-1.166-0.104-1.737l-4.377-1.557c-0.218-0.716-0.504-1.401-0.851-2.05l1.993-4.192c-0.725-0.91-1.549-1.734-2.458-2.459l-4.193,1.994c-0.647-0.347-1.334-0.632-2.049-0.849l-1.558-4.378C17.165,0.708,16.588,0.667,16,0.667s-1.166,0.041-1.737,0.105L12.707,5.15c-0.716,0.217-1.401,0.502-2.05,0.849L6.464,4.005C5.554,4.73,4.73,5.554,4.005,6.464l1.994,4.192c-0.347,0.648-0.632,1.334-0.849,2.05l-4.378,1.557C0.708,14.834,0.667,15.412,0.667,16s0.041,1.165,0.105,1.736l4.378,1.558c0.217,0.715,0.502,1.401,0.849,2.049l-1.994,4.193c0.725,0.909,1.549,1.733,2.459,2.458l4.192-1.993c0.648,0.347,1.334,0.633,2.05,0.851l1.557,4.377c0.571,0.064,1.148,0.104,1.737,0.104c0.588,0,1.165-0.04,1.736-0.104l1.558-4.377c0.715-0.218,1.399-0.504,2.049-0.851l4.193,1.993c0.909-0.725,1.733-1.549,2.458-2.458l-1.993-4.193c0.347-0.647,0.633-1.334,0.851-2.049L31.229,17.736zM16,20.871c-2.69,0-4.872-2.182-4.872-4.871c0-2.69,2.182-4.872,4.872-4.872c2.689,0,4.871,2.182,4.871,4.872C20.871,18.689,18.689,20.871,16,20.871z"></path><title>Link options.</title></g></g></g></g><!--z-index:26--><g   id="j_530" ><path  stroke="#707070" d="M 1089 452 L 1351 757" id="v-6261" stroke-width="2" stroke-dasharray="30 30" fill="none" style="opacity: 1;"></path><path  fill="black" stroke="black" d="M 0 0 0 0" transform="matrix(0.6518105268478394,0.7583818435668945,-0.7583818435668945,0.6518105268478394,1088.9300537109375,452)"></path><path  fill="#707070" stroke="#707070" d="M 20 0 L 0 10 L 20 20 z" id="v-6263" transform="matrix(-0.6518105864524841,-0.7583817839622498,0.7583817839622498,-0.6518105864524841,1343.4862060546875,763.5181274414062)" style="opacity: 1;"></path><path  d="M 1089 452 L 1351 757" id="v-6262" fill="none" style="cursor: default;"></path><g ><g id="v-6252"  label-idx="0" cursor="move" transform="matrix(1,0,0,1,1220,604.5)" style="cursor: default; opacity: 1;"><rect joint-selector="rect" id="v-6256" fill="#ffffff" rx="3" ry="3" pointer-events="none" width="68.35566711425781" height="30.88875389099121" transform="matrix(1,0,0,1,-33.099998474121094,-15.399999618530273)"></rect><text joint-selector="text" id="v-6255" font-size="24px" xml:space="preserve" y="0.8em" fill="#707070" text-anchor="middle" pointer-events="none" font-family="Red Hat Display" font-weight="normal" transform="matrix(1,0,0,1,0,-10.600000381469727)"><tspan  dy="0">Reads</tspan></text></g><g id="v-6253"  label-idx="1" cursor="move" transform="matrix(1,0,0,1,1220,630.9000244140625)" style="cursor: default; opacity: 1;"><rect joint-selector="rect" id="v-6258" fill="#ffffff" rx="3" ry="3" pointer-events="none" width="95.98394012451172" height="22.308545112609863" transform="matrix(1,0,0,1,-48,-11.199999809265137)"></rect><text joint-selector="text" id="v-6257" font-size="17px" xml:space="preserve" y="0.8em" fill="#707070" text-anchor="middle" pointer-events="none" font-family="Red Hat Display" font-weight="normal" transform="matrix(1,0,0,1,0,-7.599999904632568)"><tspan  dy="0">[YAML Files]</tspan></text></g><g id="v-6254"  label-idx="2" cursor="move" transform="matrix(1,0,0,1,1210,639.2999877929688)" style="cursor: default; opacity: 1;"><rect joint-selector="rect" id="v-6260" fill="#ffffff" rx="3" ry="3"  width="0" height="0" transform="matrix(1,0,0,1,0,0)" display="none"></rect><text joint-selector="text" id="v-6259" fill="#000000" font-size="14" text-anchor="middle" pointer-events="none"></text></g></g><g  display="none"></g><g  id="v-6265" display="none"><g  id="v-6250"><path  end="source" d="M 26 0 L 0 13 L 26 26 z"></path></g><g  id="v-6251"><path  end="target" d="M 26 0 L 0 13 L 26 26 z"></path></g></g><g  id="v-6264" display="none"><g  id="v-6249" transform="translate(1115.0644104837822, 482.342157242571) "><g  event="remove"><circle r="11"></circle><path transform="scale(.8) translate(-16, -16)" d="M24.778,21.419 19.276,15.917 24.777,10.415 21.949,7.585 16.447,13.087 10.945,7.585 8.117,10.415 13.618,15.917 8.116,21.419 10.946,24.248 16.447,18.746 21.948,24.248z"></path><title>Remove link.</title></g><g  event="link:options"><circle r="11" transform="translate(25)"></circle><path fill="white" transform="scale(.55) translate(29, -16)" d="M31.229,17.736c0.064-0.571,0.104-1.148,0.104-1.736s-0.04-1.166-0.104-1.737l-4.377-1.557c-0.218-0.716-0.504-1.401-0.851-2.05l1.993-4.192c-0.725-0.91-1.549-1.734-2.458-2.459l-4.193,1.994c-0.647-0.347-1.334-0.632-2.049-0.849l-1.558-4.378C17.165,0.708,16.588,0.667,16,0.667s-1.166,0.041-1.737,0.105L12.707,5.15c-0.716,0.217-1.401,0.502-2.05,0.849L6.464,4.005C5.554,4.73,4.73,5.554,4.005,6.464l1.994,4.192c-0.347,0.648-0.632,1.334-0.849,2.05l-4.378,1.557C0.708,14.834,0.667,15.412,0.667,16s0.041,1.165,0.105,1.736l4.378,1.558c0.217,0.715,0.502,1.401,0.849,2.049l-1.994,4.193c0.725,0.909,1.549,1.733,2.459,2.458l4.192-1.993c0.648,0.347,1.334,0.633,2.05,0.851l1.557,4.377c0.571,0.064,1.148,0.104,1.737,0.104c0.588,0,1.165-0.04,1.736-0.104l1.558-4.377c0.715-0.218,1.399-0.504,2.049-0.851l4.193,1.993c0.909-0.725,1.733-1.549,2.458-2.458l-1.993-4.193c0.347-0.647,0.633-1.334,0.851-2.049L31.229,17.736zM16,20.871c-2.69,0-4.872-2.182-4.872-4.871c0-2.69,2.182-4.872,4.872-4.872c2.689,0,4.871,2.182,4.871,4.872C20.871,18.689,18.689,20.871,16,20.871z"></path><title>Link options.</title></g></g></g></g><!--z-index:27--><g   id="j_531" ><path  stroke="#707070" d="M 1480 457 L 1480 757" id="v-6278" stroke-width="2" stroke-dasharray="30 30" fill="none" style="opacity: 1;"></path><path  fill="black" stroke="black" d="M 0 0 0 0" transform="matrix(6.123234262925839e-17,1,-1,6.123234262925839e-17,1480,457)"></path><path  fill="#707070" stroke="#707070" d="M 20 0 L 0 10 L 20 20 z" id="v-6280" transform="matrix(-1.8369701465288538e-16,-1,1,-1.8369701465288538e-16,1470,757)" style="opacity: 1;"></path><path  d="M 1480 457 L 1480 757" id="v-6279" fill="none" style="cursor: default;"></path><g ><g id="v-6269"  label-idx="0" cursor="move" transform="matrix(1,0,0,1,1480,607)" style="cursor: default; opacity: 1;"><rect joint-selector="rect" id="v-6273" fill="#ffffff" rx="3" ry="3" pointer-events="none" width="68.35566711425781" height="30.88875389099121" transform="matrix(1,0,0,1,-33.099998474121094,-15.399999618530273)"></rect><text joint-selector="text" id="v-6272" font-size="24px" xml:space="preserve" y="0.8em" fill="#707070" text-anchor="middle" pointer-events="none" font-family="Red Hat Display" font-weight="normal" transform="matrix(1,0,0,1,0,-10.600000381469727)"><tspan  dy="0">Reads</tspan></text></g><g id="v-6270"  label-idx="1" cursor="move" transform="matrix(1,0,0,1,1480,633.4000244140625)" style="cursor: default; opacity: 1;"><rect joint-selector="rect" id="v-6275" fill="#ffffff" rx="3" ry="3" pointer-events="none" width="95.98394012451172" height="22.308545112609863" transform="matrix(1,0,0,1,-48,-11.199999809265137)"></rect><text joint-selector="text" id="v-6274" font-size="17px" xml:space="preserve" y="0.8em" fill="#707070" text-anchor="middle" pointer-events="none" font-family="Red Hat Display" font-weight="normal" transform="matrix(1,0,0,1,0,-7.599999904632568)"><tspan  dy="0">[YAML Files]</tspan></text></g><g id="v-6271"  label-idx="2" cursor="move" transform="matrix(1,0,0,1,1470,641.7999877929688)" style="cursor: default; opacity: 1;"><rect joint-selector="rect" id="v-6277" fill="#ffffff" rx="3" ry="3"  width="0" height="0" transform="matrix(1,0,0,1,0,0)" display="none"></rect><text joint-selector="text" id="v-6276" fill="#000000" font-size="14" text-anchor="middle" pointer-events="none"></text></g></g><g  display="none"></g><g  id="v-6282" display="none"><g  id="v-6267"><path  end="source" d="M 26 0 L 0 13 L 26 26 z"></path></g><g  id="v-6268"><path  end="target" d="M 26 0 L 0 13 L 26 26 z"></path></g></g><g  id="v-6281" display="none"><g  id="v-6266" transform="translate(1480, 497) "><g  event="remove"><circle r="11"></circle><path transform="scale(.8) translate(-16, -16)" d="M24.778,21.419 19.276,15.917 24.777,10.415 21.949,7.585 16.447,13.087 10.945,7.585 8.117,10.415 13.618,15.917 8.116,21.419 10.946,24.248 16.447,18.746 21.948,24.248z"></path><title>Remove link.</title></g><g  event="link:options"><circle r="11" transform="translate(25)"></circle><path fill="white" transform="scale(.55) translate(29, -16)" d="M31.229,17.736c0.064-0.571,0.104-1.148,0.104-1.736s-0.04-1.166-0.104-1.737l-4.377-1.557c-0.218-0.716-0.504-1.401-0.851-2.05l1.993-4.192c-0.725-0.91-1.549-1.734-2.458-2.459l-4.193,1.994c-0.647-0.347-1.334-0.632-2.049-0.849l-1.558-4.378C17.165,0.708,16.588,0.667,16,0.667s-1.166,0.041-1.737,0.105L12.707,5.15c-0.716,0.217-1.401,0.502-2.05,0.849L6.464,4.005C5.554,4.73,4.73,5.554,4.005,6.464l1.994,4.192c-0.347,0.648-0.632,1.334-0.849,2.05l-4.378,1.557C0.708,14.834,0.667,15.412,0.667,16s0.041,1.165,0.105,1.736l4.378,1.558c0.217,0.715,0.502,1.401,0.849,2.049l-1.994,4.193c0.725,0.909,1.549,1.733,2.459,2.458l4.192-1.993c0.648,0.347,1.334,0.633,2.05,0.851l1.557,4.377c0.571,0.064,1.148,0.104,1.737,0.104c0.588,0,1.165-0.04,1.736-0.104l1.558-4.377c0.715-0.218,1.399-0.504,2.049-0.851l4.193,1.993c0.909-0.725,1.733-1.549,2.458-2.458l-1.993-4.193c0.347-0.647,0.633-1.334,0.851-2.049L31.229,17.736zM16,20.871c-2.69,0-4.872-2.182-4.872-4.871c0-2.69,2.182-4.872,4.872-4.872c2.689,0,4.871,2.182,4.871,4.872C20.871,18.689,18.689,20.871,16,20.871z"></path><title>Link options.</title></g></g></g></g><!--z-index:28--><!--z-index:29--><!--z-index:30--><!--z-index:31--><!--z-index:32--><!--z-index:33--><!--z-index:34--><!--z-index:35--><!--z-index:36--><!--z-index:37--><!--z-index:38--><!--z-index:39--><!--z-index:40--><!--z-index:41--><!--z-index:42--><!--z-index:43--><!--z-index:44--><!--z-index:45--><!--z-index:46--><!--z-index:47--><!--z-index:48--><!--z-index:49--><!--z-index:50--><!--z-index:51--><!--z-index:52--><!--z-index:53--><!--z-index:54--><!--z-index:55--><!--z-index:56--><!--z-index:57--><!--z-index:58--><!--z-index:59--><!--z-index:60--><!--z-index:61--><!--z-index:62--><!--z-index:63--><!--z-index:64--><!--z-index:65--><!--z-index:66--><!--z-index:67--><!--z-index:68--><!--z-index:69--><!--z-index:70--><!--z-index:71--><!--z-index:72--><!--z-index:73--><!--z-index:74--><!--z-index:75--><!--z-index:76--><!--z-index:77--><!--z-index:78--><!--z-index:79--><!--z-index:80--><!--z-index:81--><!--z-index:82--><!--z-index:83--><!--z-index:84--><!--z-index:85--><!--z-index:86--><!--z-index:87--><!--z-index:88--><!--z-index:89--><!--z-index:90--><!--z-index:91--><!--z-index:92--><!--z-index:93--><!--z-index:94--><!--z-index:95--><!--z-index:96--><!--z-index:97--><!--z-index:98--><!--z-index:99--><!--z-index:100--><!--z-index:101--><!--z-index:102--><!--z-index:103--><!--z-index:104--><!--z-index:105--><!--z-index:106--><!--z-index:107--><!--z-index:108--><!--z-index:109--><!--z-index:110--><!--z-index:111--><!--z-index:112--><!--z-index:113--><!--z-index:114--><!--z-index:115--><!--z-index:116--><!--z-index:117--><!--z-index:118--><!--z-index:119--><!--z-index:120--><!--z-index:121--><!--z-index:122--><!--z-index:123--><!--z-index:124--><!--z-index:125--><!--z-index:126--><!--z-index:127--><!--z-index:128--><!--z-index:129--><!--z-index:130--><!--z-index:131--><!--z-index:132--><!--z-index:133--><!--z-index:134--><!--z-index:135--><!--z-index:136--><!--z-index:137--><!--z-index:138--><!--z-index:139--><!--z-index:140--><!--z-index:141--><!--z-index:142--><!--z-index:143--><!--z-index:144--><!--z-index:145--><!--z-index:146--><!--z-index:147--><!--z-index:148--><!--z-index:149--><!--z-index:150--><!--z-index:151--><!--z-index:152--><!--z-index:153--><!--z-index:154--><!--z-index:155--><!--z-index:156--><!--z-index:157--><!--z-index:158--><!--z-index:159--><!--z-index:160--><!--z-index:161--><!--z-index:162--><!--z-index:163--><!--z-index:164--><!--z-index:165--><!--z-index:166--><!--z-index:167--><!--z-index:168--><!--z-index:169--><!--z-index:170--><!--z-index:171--><!--z-index:172--><!--z-index:173--><!--z-index:174--><!--z-index:175--><!--z-index:176--><!--z-index:177--><!--z-index:178--><!--z-index:179--><!--z-index:180--><!--z-index:181--><!--z-index:182--><!--z-index:183--><!--z-index:184--><!--z-index:185--><!--z-index:186--><!--z-index:187--><!--z-index:188--><!--z-index:189--><!--z-index:190--><!--z-index:191--><!--z-index:192--></g><g ></g><g ></g><g ></g></g></svg>