<svg xmlns="http://www.w3.org/2000/svg" xmlns:xlink="http://www.w3.org/1999/xlink" version="1.1" viewBox="0 0 2500 500" style="background: #ffffff"><defs><style>@import url(https://fonts.googleapis.com/css2?family=Red+Hat+Display:wght@500..900);</style></defs><g transform="translate(25,100)"><rect width="450" height="300" rx="20" ry="20" x="0" y="0" fill="#9db2d0" stroke-width="2" stroke="#8da0bb"/><text x="225" y="132" text-anchor="middle" fill="#0b1c38" font-size="30px" font-family="Red Hat Display"><tspan x="225" dy="40px">Component</tspan></text></g><g transform="translate(525,100)"><rect width="450" height="300" rx="20" ry="20" x="0" y="0" fill="#5374a7" stroke-width="2" stroke="#4b6896"/><text x="225" y="132" text-anchor="middle" fill="#ffffff" font-size="30px" font-family="Red Hat Display"><tspan x="225" dy="40px">Container</tspan></text></g><g transform="translate(1025,100)"><rect width="450" height="300" rx="10" ry="10" x="0" y="0" fill="#4d7acf" stroke-width="5" stroke="#4d7acf"/><rect width="430" height="250" rx="10" ry="10" x="10" y="40" fill="#5588e6" stroke-width="0"/><rect width="340" height="20" rx="10" ry="10" x="100" y="10" fill="#5588e6" stroke-width="0"/><ellipse cx="20" cy="20" rx="10" ry="10" fill="#5588e6" stroke-width="0"/><ellipse cx="50" cy="20" rx="10" ry="10" fill="#5588e6" stroke-width="0"/><ellipse cx="80" cy="20" rx="10" ry="10" fill="#5588e6" stroke-width="0"/><text x="225" y="124" text-anchor="middle" fill="#ffffff" font-size="30px" font-family="Red Hat Display"><tspan x="225" dy="40px">Container,</tspan><tspan x="225" dy="40px">Dashboard/Monitor</tspan></text></g><g transform="translate(1525,170)"><path d="M390,0 L390,60 L450,30 L 390,0" style="fill:#707070" stroke-dasharray="" /><path d="M0,30 L390,30" style="stroke:#707070; stroke-width: 6; fill: none; stroke-dasharray: 30 30;" /><text x="225" y="77" text-anchor="middle" fill="#707070" font-size="30px" font-family="Red Hat Display"><tspan x="225" dy="40px">Relationship</tspan></text></g></svg>