<svg xmlns="http://www.w3.org/2000/svg" xmlns:xlink="http://www.w3.org/1999/xlink" version="1.1" viewBox="0 0 1945 1840" style="background: #ffffff"><defs><style>@import url(https://fonts.googleapis.com/css2?family=Red+Hat+Display:wght@500..900);</style></defs><defs joint-selector="defs"></defs><g  joint-selector="layers" transform="matrix(1,0,0,1,0,0)"><g ></g><g ><!--z-index:-1--><!--z-index:0--><!--z-index:1--><!--z-index:2--><!--z-index:3--><!--z-index:4--><!--z-index:5--><!--z-index:6--><!--z-index:7--><!--z-index:8--><!--z-index:9--><!--z-index:10--><!--z-index:11--><!--z-index:12--><!--z-index:13--><!--z-index:14--><!--z-index:15--><!--z-index:16--><!--z-index:17--><!--z-index:18--><!--z-index:19--><g   id="j_1227"  transform="translate(20,1734)"><g id="v-15446"><image  id="v-15447" xlink:href="https://raw.githubusercontent.com/jaimeib/hosting/refs/heads/main/wattnet-logo-icon-dark-background-rounded.png" pointer-events="none" width="96" height="96"></image></g></g><!--z-index:20--><g   id="j_1226"  transform="translate(136,1803.6)"><g id="v-15444"><text  id="v-15445" font-size="22px" xml:space="preserve" y="0.8em" font-weight="normal" text-anchor="start" fill="#aaaaaa" pointer-events="none" display="block" font-family="Red Hat Display"><tspan  dy="0">Sunday, March 22, 2026 at 11:15 PM Central European Standard Time</tspan></text></g></g><!--z-index:21--><g   id="j_1225"  transform="translate(136,1777.1999999999998)"><g id="v-15442"><text  id="v-15443" font-size="22px" xml:space="preserve" y="0.8em" font-weight="normal" text-anchor="start" fill="#aaaaaa" pointer-events="none" display="block" font-family="Red Hat Display"><tspan  dy="0">© Spanish National Research Council (CSIC) | Licensed under CC BY 4.0</tspan></text></g></g><!--z-index:22--><g   id="j_1224"  transform="translate(136,1733.9999999999998)"><g id="v-15440"><text  id="v-15441" font-size="36px" xml:space="preserve" y="0.8em" font-weight="normal" text-anchor="start" fill="#000000" pointer-events="none" display="block" font-family="Red Hat Display"><tspan  dy="0">[Component] wattnet - Zone Database</tspan></text></g></g><!--z-index:23--><g   id="j_1228"  transform="translate(220,151)" style=""><g  id="v-15451" style="opacity: 1;"><rect  id="v-15452" rx="10" ry="10" stroke="#4b6896" stroke-width="2" pointer-events="visiblePainted" fill="#4b6896" width="450" height="300" style="fill: rgb(75, 104, 150); stroke: rgb(75, 104, 150);"></rect><rect  id="v-15453" rx="10" ry="10" stroke="#4b6896" stroke-width="0" pointer-events="visiblePainted" fill="#5374a7" width="430" height="250" x="10" y="40" style="fill: rgb(83, 116, 167);"></rect><ellipse  id="v-15460" fill="#5374a7" cx="20" cy="20" rx="10" ry="10" style="fill: rgb(83, 116, 167);"></ellipse><ellipse  id="v-15461" fill="#5374a7" cx="50" cy="20" rx="10" ry="10" style="fill: rgb(83, 116, 167);"></ellipse><ellipse  id="v-15462" fill="#5374a7" cx="80" cy="20" rx="10" ry="10" style="fill: rgb(83, 116, 167);"></ellipse><rect  id="v-15454" rx="10" ry="10" stroke="#444444" stroke-width="0" pointer-events="visiblePainted" fill="#5374a7" width="340" height="20" x="100" y="10" style="fill: rgb(83, 116, 167);"></rect><text  id="v-15455" font-size="34" xml:space="preserve" y="0.8em" font-weight="bold" text-anchor="middle" pointer-events="visible" font-family="Red Hat Display" fill="#ffffff" transform="matrix(1,0,0,1,225,88.69999694824219)" style="fill: rgb(255, 255, 255);"><tspan  dy="0">Dashboard</tspan></text><text  id="v-15456" font-size="17" xml:space="preserve" y="0.8em" text-anchor="middle" font-family="Red Hat Display" fill="#ffffff" transform="matrix(1,0,0,1,225,129.5)" style="fill: rgb(255, 255, 255);"><tspan  dy="0">[Container: React]</tspan></text><text  id="v-15457" font-size="24" xml:space="preserve" y="0.8em" text-anchor="middle" font-family="Red Hat Display" fill="#ffffff" transform="matrix(1,0,0,1,225,159.89999389648438)" style="fill: rgb(255, 255, 255);"><tspan  dy="0">The dashboard lets you explore all</tspan><tspan dy="1.2em" x="0" >metrics in a clear, interactive, and</tspan><tspan dy="1.2em" x="0" >visually engaging interface.</tspan></text><g  id="v-15458" font-weight="normal" text-anchor="middle" color="#ffffff" transform="matrix(1,0,0,1,210,258)" style="fill: rgb(255, 255, 255);" display="none"><g  transform="translate(5 0)"><svg xmlns="http://www.w3.org/2000/svg" width="20" height="20" fill="currentColor" viewBox="0 0 16 16"><path fill-rule="evenodd" d="M6.5 12a5.5 5.5 0 1 0 0-11 5.5 5.5 0 0 0 0 11zM13 6.5a6.5 6.5 0 1 1-13 0 6.5 6.5 0 0 1 13 0z"></path><path d="M10.344 11.742c.03.04.062.078.098.115l3.85 3.85a1 1 0 0 0 1.415-1.414l-3.85-3.85a1.007 1.007 0 0 0-.115-.1 6.538 6.538 0 0 1-1.398 1.4z"></path><path fill-rule="evenodd" d="M6.5 3a.5.5 0 0 1 .5.5V6h2.5a.5.5 0 0 1 0 1H7v2.5a.5.5 0 0 1-1 0V7H3.5a.5.5 0 0 1 0-1H6V3.5a.5.5 0 0 1 .5-.5z"></path></svg></g><g ></g><g ></g><g ></g></g><image  id="v-15459"></image></g></g><!--z-index:24--><g   id="j_1229"  transform="translate(1275,1291)" style=""><g  id="v-15466" style="opacity: 1;"><rect  id="v-15467" rx="10" ry="10" stroke="#4d7acf" stroke-width="2" pointer-events="visiblePainted" fill="#4d7acf" width="450" height="300" style="fill: rgb(77, 122, 207); stroke: rgb(77, 122, 207);"></rect><rect  id="v-15468" rx="10" ry="10" stroke="#4d7acf" stroke-width="0" pointer-events="visiblePainted" fill="#5588e6" width="430" height="250" x="10" y="40" style="fill: rgb(85, 136, 230);"></rect><ellipse  id="v-15475" fill="#5588e6" cx="20" cy="20" rx="10" ry="10" style="fill: rgb(85, 136, 230);"></ellipse><ellipse  id="v-15476" fill="#5588e6" cx="50" cy="20" rx="10" ry="10" style="fill: rgb(85, 136, 230);"></ellipse><ellipse  id="v-15477" fill="#5588e6" cx="80" cy="20" rx="10" ry="10" style="fill: rgb(85, 136, 230);"></ellipse><rect  id="v-15469" rx="10" ry="10" stroke="#444444" stroke-width="0" pointer-events="visiblePainted" fill="#5588e6" width="340" height="20" x="100" y="10" style="fill: rgb(85, 136, 230);"></rect><text  id="v-15470" font-size="34" xml:space="preserve" y="0.8em" font-weight="bold" text-anchor="middle" pointer-events="visible" font-family="Red Hat Display" fill="#ffffff" transform="matrix(1,0,0,1,225,103.0999984741211)" style="fill: rgb(255, 255, 255);"><tspan  dy="0">Data Tools</tspan></text><text  id="v-15471" font-size="17" xml:space="preserve" y="0.8em" text-anchor="middle" font-family="Red Hat Display" fill="#ffffff" transform="matrix(1,0,0,1,225,143.89999389648438)" style="fill: rgb(255, 255, 255);"><tspan  dy="0">[Container: Python]</tspan></text><text  id="v-15472" font-size="24" xml:space="preserve" y="0.8em" text-anchor="middle" font-family="Red Hat Display" fill="#ffffff" transform="matrix(1,0,0,1,225,174.3000030517578)" style="fill: rgb(255, 255, 255);"><tspan  dy="0">Command-line tools for dataset</tspan><tspan dy="1.2em" x="0" >extractor, analyzer, and visualizer.</tspan></text><g  id="v-15473" font-weight="normal" text-anchor="middle" color="#ffffff" transform="matrix(1,0,0,1,222.5,258)" style="fill: rgb(255, 255, 255);" display="none"><g ></g><g ></g><g ></g><g ></g></g><image  id="v-15474"></image></g></g><!--z-index:25--><g   id="j_1230"  transform="translate(1275,151)" style=""><g  id="v-15481" style="opacity: 1;"><rect  id="v-15482" rx="20" ry="20" stroke="#4b6896" stroke-width="2" pointer-events="visiblePainted" fill="#5374a7" width="450" height="300" style="fill: rgb(83, 116, 167); stroke: rgb(75, 104, 150);"></rect><text  id="v-15483" font-size="34" xml:space="preserve" y="0.8em" font-weight="bold" text-anchor="middle" pointer-events="visible" font-family="Red Hat Display" fill="#ffffff" transform="matrix(1,0,0,1,225,73.69999694824219)" style="fill: rgb(255, 255, 255);"><tspan  dy="0">RESTful API</tspan></text><text  id="v-15484" font-size="17" xml:space="preserve" y="0.8em" text-anchor="middle" font-family="Red Hat Display" fill="#ffffff" transform="matrix(1,0,0,1,225,114.5)" style="fill: rgb(255, 255, 255);"><tspan  dy="0">[Container: FastAPI]</tspan></text><text  id="v-15485" font-size="24" xml:space="preserve" y="0.8em" text-anchor="middle" font-family="Red Hat Display" fill="#ffffff" transform="matrix(1,0,0,1,225,144.89999389648438)" style="fill: rgb(255, 255, 255);"><tspan  dy="0">Provides a stateless standard</tspan><tspan dy="1.2em" x="0" >interface for accessing</tspan><tspan dy="1.2em" x="0" >environmental impact metrics.</tspan></text><g  id="v-15486" color="#ffffff" transform="matrix(1,0,0,1,210,268)" style="fill: rgb(255, 255, 255);" display="none"><g  transform="translate(5 0)"><svg xmlns="http://www.w3.org/2000/svg" width="20" height="20" fill="currentColor" viewBox="0 0 16 16"><path fill-rule="evenodd" d="M6.5 12a5.5 5.5 0 1 0 0-11 5.5 5.5 0 0 0 0 11zM13 6.5a6.5 6.5 0 1 1-13 0 6.5 6.5 0 0 1 13 0z"></path><path d="M10.344 11.742c.03.04.062.078.098.115l3.85 3.85a1 1 0 0 0 1.415-1.414l-3.85-3.85a1.007 1.007 0 0 0-.115-.1 6.538 6.538 0 0 1-1.398 1.4z"></path><path fill-rule="evenodd" d="M6.5 3a.5.5 0 0 1 .5.5V6h2.5a.5.5 0 0 1 0 1H7v2.5a.5.5 0 0 1-1 0V7H3.5a.5.5 0 0 1 0-1H6V3.5a.5.5 0 0 1 .5-.5z"></path></svg></g><g ></g><g ></g><g ></g></g><image  id="v-15487"></image></g></g><!--z-index:26--><g   id="j_1231"  transform="translate(220,1291)" style=""><g  id="v-15491" style="opacity: 1;"><rect  id="v-15492" rx="20" ry="20" stroke="#4b6896" stroke-width="2" pointer-events="visiblePainted" fill="#5374a7" width="450" height="300" style="fill: rgb(83, 116, 167); stroke: rgb(75, 104, 150);"></rect><text  id="v-15493" font-size="34" xml:space="preserve" y="0.8em" font-weight="bold" text-anchor="middle" pointer-events="visible" font-family="Red Hat Display" fill="#ffffff" transform="matrix(1,0,0,1,225,73.69999694824219)" style="fill: rgb(255, 255, 255);"><tspan  dy="0">Core Engine</tspan></text><text  id="v-15494" font-size="17" xml:space="preserve" y="0.8em" text-anchor="middle" font-family="Red Hat Display" fill="#ffffff" transform="matrix(1,0,0,1,225,114.5)" style="fill: rgb(255, 255, 255);"><tspan  dy="0">[Container: Python]</tspan></text><text  id="v-15495" font-size="24" xml:space="preserve" y="0.8em" text-anchor="middle" font-family="Red Hat Display" fill="#ffffff" transform="matrix(1,0,0,1,225,144.89999389648438)" style="fill: rgb(255, 255, 255);"><tspan  dy="0">Fetch and processes electricity</tspan><tspan dy="1.2em" x="0" >generation data to compute</tspan><tspan dy="1.2em" x="0" >environmental impact metrics.</tspan></text><g  id="v-15496" color="#ffffff" transform="matrix(1,0,0,1,210,268)" style="fill: rgb(255, 255, 255);" display="none"><g  transform="translate(5 0)"><svg xmlns="http://www.w3.org/2000/svg" width="20" height="20" fill="currentColor" viewBox="0 0 16 16"><path fill-rule="evenodd" d="M6.5 12a5.5 5.5 0 1 0 0-11 5.5 5.5 0 0 0 0 11zM13 6.5a6.5 6.5 0 1 1-13 0 6.5 6.5 0 0 1 13 0z"></path><path d="M10.344 11.742c.03.04.062.078.098.115l3.85 3.85a1 1 0 0 0 1.415-1.414l-3.85-3.85a1.007 1.007 0 0 0-.115-.1 6.538 6.538 0 0 1-1.398 1.4z"></path><path fill-rule="evenodd" d="M6.5 3a.5.5 0 0 1 .5.5V6h2.5a.5.5 0 0 1 0 1H7v2.5a.5.5 0 0 1-1 0V7H3.5a.5.5 0 0 1 0-1H6V3.5a.5.5 0 0 1 .5-.5z"></path></svg></g><g ></g><g ></g><g ></g></g><image  id="v-15497"></image></g></g><!--z-index:27--><g   id="j_1232"  transform="translate(747,1291)" style=""><g  id="v-15501" style="opacity: 1;"><rect  id="v-15502" rx="20" ry="20" stroke="#4b6896" stroke-width="2" pointer-events="visiblePainted" fill="#5374a7" width="450" height="300" style="fill: rgb(83, 116, 167); stroke: rgb(75, 104, 150);"></rect><text  id="v-15503" font-size="34" xml:space="preserve" y="0.8em" font-weight="bold" text-anchor="middle" pointer-events="visible" font-family="Red Hat Display" fill="#ffffff" transform="matrix(1,0,0,1,225,73.69999694824219)" style="fill: rgb(255, 255, 255);"><tspan  dy="0">Forecast Engine</tspan></text><text  id="v-15504" font-size="17" xml:space="preserve" y="0.8em" text-anchor="middle" font-family="Red Hat Display" fill="#ffffff" transform="matrix(1,0,0,1,225,114.5)" style="fill: rgb(255, 255, 255);"><tspan  dy="0">[Container: Python]</tspan></text><text  id="v-15505" font-size="24" xml:space="preserve" y="0.8em" text-anchor="middle" font-family="Red Hat Display" fill="#ffffff" transform="matrix(1,0,0,1,225,144.89999389648438)" style="fill: rgb(255, 255, 255);"><tspan  dy="0">Forecasts short-term future</tspan><tspan dy="1.2em" x="0" >environmental impact metrics</tspan><tspan dy="1.2em" x="0" >based on historical data.</tspan></text><g  id="v-15506" color="#ffffff" transform="matrix(1,0,0,1,210,268)" style="fill: rgb(255, 255, 255);" display="none"><g  transform="translate(5 0)"><svg xmlns="http://www.w3.org/2000/svg" width="20" height="20" fill="currentColor" viewBox="0 0 16 16"><path fill-rule="evenodd" d="M6.5 12a5.5 5.5 0 1 0 0-11 5.5 5.5 0 0 0 0 11zM13 6.5a6.5 6.5 0 1 1-13 0 6.5 6.5 0 0 1 13 0z"></path><path d="M10.344 11.742c.03.04.062.078.098.115l3.85 3.85a1 1 0 0 0 1.415-1.414l-3.85-3.85a1.007 1.007 0 0 0-.115-.1 6.538 6.538 0 0 1-1.398 1.4z"></path><path fill-rule="evenodd" d="M6.5 3a.5.5 0 0 1 .5.5V6h2.5a.5.5 0 0 1 0 1H7v2.5a.5.5 0 0 1-1 0V7H3.5a.5.5 0 0 1 0-1H6V3.5a.5.5 0 0 1 .5-.5z"></path></svg></g><g ></g><g ></g><g ></g></g><image  id="v-15507"></image></g></g><!--z-index:28--><g   id="j_1234"  transform="translate(200,701)" style=""><g id="v-15525"><rect  id="v-15526" width="1545" height="411" rx="0" ry="0" fill="#ffffff" stroke="#85b920" stroke-width="1" stroke-dasharray="20,20" pointer-events="none"></rect><text  id="v-15527" font-size="24px" xml:space="preserve" y="372" font-weight="normal" fill="#85b920" text-anchor="start" pointer-events="visible" font-family="Red Hat Display" transform="matrix(1,0,0,1,15,0)"><tspan  dy="0">Zone Database</tspan></text><text  id="v-15528" font-size="17px" xml:space="preserve" y="396" font-weight="normal" fill="#85b920" text-anchor="start" pointer-events="visible" font-family="Red Hat Display" transform="matrix(1,0,0,1,15,0)"><tspan  dy="0">[Container]</tspan></text><image  id="v-15529" pointer-events="visible"></image></g></g><!--z-index:29--><g   id="j_1233"  transform="translate(220,721)" style=""><g  id="v-15517" style="opacity: 1;"><rect  id="v-15518" rx="10" ry="10" stroke="#aed150" stroke-width="2" pointer-events="visiblePainted" fill="#c1e859" x="10" y="0" width="150" height="75" style="fill: rgb(193, 232, 89); stroke: rgb(174, 209, 80);"></rect><rect  id="v-15519" rx="5" ry="5" stroke="#aed150" stroke-width="2" pointer-events="visiblePainted" fill="#c1e859" x="0" y="37.5" width="450" height="262.5" style="fill: rgb(193, 232, 89); stroke: rgb(174, 209, 80);"></rect><text  id="v-15520" font-size="34" xml:space="preserve" y="0.8em" font-weight="bold" text-anchor="middle" pointer-events="visible" font-family="Red Hat Display" fill="#143262" transform="matrix(1,0,0,1,225,78.0999984741211)" style="fill: rgb(20, 50, 98);"><tspan  dy="0">Zones Definition</tspan></text><text  id="v-15521" font-size="17" xml:space="preserve" y="0.8em" text-anchor="middle" font-family="Red Hat Display" fill="#143262" transform="matrix(1,0,0,1,225,118.9000015258789)" style="fill: rgb(20, 50, 98);"><tspan  dy="0">[Component: Directory with YAML Files]</tspan></text><text  id="v-15522" font-size="24" xml:space="preserve" y="0.8em" text-anchor="middle" font-family="Red Hat Display" fill="#143262" transform="matrix(1,0,0,1,225,149.3000030517578)" style="fill: rgb(20, 50, 98);"><tspan  dy="0">Defines zones together with their</tspan><tspan dy="1.2em" x="0" >identifiers, full names, EIC codes,</tspan><tspan dy="1.2em" x="0" >data providers, and cross-border</tspan><tspan dy="1.2em" x="0" >interconnections.</tspan></text><g  id="v-15523" font-weight="normal" text-anchor="middle" color="#143262" transform="matrix(1,0,0,1,222.5,268)" style="fill: rgb(20, 50, 98);" display="none"><g ></g><g ></g><g ></g><g ></g></g><image  id="v-15524"></image></g></g><!--z-index:30--><g   id="j_1235"  transform="translate(1275,721)" style=""><g  id="v-15536" style="opacity: 1;"><rect  id="v-15537" rx="10" ry="10" stroke="#aed150" stroke-width="2" pointer-events="visiblePainted" fill="#c1e859" x="10" y="0" width="150" height="75" style="fill: rgb(193, 232, 89); stroke: rgb(174, 209, 80);"></rect><rect  id="v-15538" rx="5" ry="5" stroke="#aed150" stroke-width="2" pointer-events="visiblePainted" fill="#c1e859" x="0" y="37.5" width="450" height="262.5" style="fill: rgb(193, 232, 89); stroke: rgb(174, 209, 80);"></rect><text  id="v-15539" font-size="34" xml:space="preserve" y="0.8em" font-weight="bold" text-anchor="middle" pointer-events="visible" font-family="Red Hat Display" fill="#143262" transform="matrix(1,0,0,1,225,78.0999984741211)" style="fill: rgb(20, 50, 98);"><tspan  dy="0">Zone Geometries</tspan></text><text  id="v-15540" font-size="17" xml:space="preserve" y="0.8em" text-anchor="middle" font-family="Red Hat Display" fill="#143262" transform="matrix(1,0,0,1,225,118.9000015258789)" style="fill: rgb(20, 50, 98);"><tspan  dy="0">[Component: Directory with GEOJSON Files]</tspan></text><text  id="v-15541" font-size="24" xml:space="preserve" y="0.8em" text-anchor="middle" font-family="Red Hat Display" fill="#143262" transform="matrix(1,0,0,1,225,149.3000030517578)" style="fill: rgb(20, 50, 98);"><tspan  dy="0">Contains high-resolution</tspan><tspan dy="1.2em" x="0" >geographical boundaries of zones</tspan><tspan dy="1.2em" x="0" >for precise geospatial mapping</tspan><tspan dy="1.2em" x="0" >based on latitude and longitude.</tspan></text><g  id="v-15542" font-weight="normal" text-anchor="middle" color="#143262" transform="matrix(1,0,0,1,222.5,268)" style="fill: rgb(20, 50, 98);" display="none"><g ></g><g ></g><g ></g><g ></g></g><image  id="v-15543"></image></g></g><!--z-index:31--><g   id="j_1236"  transform="translate(747,721)" style=""><g  id="v-15547" style="opacity: 1;"><rect  id="v-15548" rx="10" ry="10" stroke="#aed150" stroke-width="2" pointer-events="visiblePainted" fill="#c1e859" x="10" y="0" width="150" height="75" style="fill: rgb(193, 232, 89); stroke: rgb(174, 209, 80);"></rect><rect  id="v-15549" rx="5" ry="5" stroke="#aed150" stroke-width="2" pointer-events="visiblePainted" fill="#c1e859" x="0" y="37.5" width="450" height="262.5" style="fill: rgb(193, 232, 89); stroke: rgb(174, 209, 80);"></rect><text  id="v-15550" font-size="34" xml:space="preserve" y="0.8em" font-weight="bold" text-anchor="middle" pointer-events="visible" font-family="Red Hat Display" fill="#143262" transform="matrix(1,0,0,1,225,78.0999984741211)" style="fill: rgb(20, 50, 98);"><tspan  dy="0">Map Geometries</tspan></text><text  id="v-15551" font-size="17" xml:space="preserve" y="0.8em" text-anchor="middle" font-family="Red Hat Display" fill="#143262" transform="matrix(1,0,0,1,225,118.9000015258789)" style="fill: rgb(20, 50, 98);"><tspan  dy="0">[Component: GEOJSON File]</tspan></text><text  id="v-15552" font-size="24" xml:space="preserve" y="0.8em" text-anchor="middle" font-family="Red Hat Display" fill="#143262" transform="matrix(1,0,0,1,225,149.3000030517578)" style="fill: rgb(20, 50, 98);"><tspan  dy="0">Contains a single file with</tspan><tspan dy="1.2em" x="0" >low-resolution geographical</tspan><tspan dy="1.2em" x="0" >boundaries of all zones optimized</tspan><tspan dy="1.2em" x="0" >for map visualization.</tspan></text><g  id="v-15553" font-weight="normal" text-anchor="middle" color="#143262" transform="matrix(1,0,0,1,222.5,268)" style="fill: rgb(20, 50, 98);" display="none"><g ></g><g ></g><g ></g><g ></g></g><image  id="v-15554"></image></g></g><!--z-index:32--><g   id="j_1237" ><path  stroke="#707070" d="M 1361 1291 L 1111 1021" id="v-15567" stroke-width="2" stroke-dasharray="30 30" fill="none" style="opacity: 1;"></path><path  fill="black" stroke="black" d="M 0 0 0 0" transform="matrix(-0.679554283618927,-0.7336252331733704,0.7336252331733704,-0.679554283618927,1361.050048828125,1291)"></path><path  fill="#707070" stroke="#707070" d="M 20 0 L 0 10 L 20 20 z" id="v-15569" transform="matrix(0.6795543432235718,0.7336251735687256,-0.7336251735687256,0.6795543432235718,1118.2861328125,1014.2045288085938)" style="opacity: 1;"></path><path  d="M 1361 1291 L 1111 1021" id="v-15568" fill="none" style="cursor: default;"></path><g ><g id="v-15558"  label-idx="0" cursor="move" transform="matrix(1,0,0,1,1236,1156)" style="cursor: default; opacity: 1;"><rect joint-selector="rect" id="v-15562" fill="#ffffff" rx="3" ry="3" pointer-events="none" width="66.9502182006836" height="31.66564178466797" transform="matrix(1,0,0,1,-33.099998474121094,-15.899999618530273)"></rect><text joint-selector="text" id="v-15561" font-size="24px" xml:space="preserve" y="0.8em" fill="#707070" text-anchor="middle" pointer-events="none" font-family="Red Hat Display" font-weight="normal" transform="matrix(1,0,0,1,0,-10.199999809265137)"><tspan  dy="0">Reads</tspan></text></g><g id="v-15559"  label-idx="1" cursor="move" transform="matrix(1,0,0,1,1236,1182.4000244140625)" style="cursor: default; opacity: 1;"><rect joint-selector="rect" id="v-15564" fill="#ffffff" rx="3" ry="3" pointer-events="none" width="134.33541870117188" height="21.25" transform="matrix(1,0,0,1,-66.80000305175781,-10.600000381469727)"></rect><text joint-selector="text" id="v-15563" font-size="17px" xml:space="preserve" y="0.8em" fill="#707070" text-anchor="middle" pointer-events="none" font-family="Red Hat Display" font-weight="normal" transform="matrix(1,0,0,1,0,-7.199999809265137)"><tspan  dy="0">[GEOJSON Files]</tspan></text></g><g id="v-15560"  label-idx="2" cursor="move" transform="matrix(1,0,0,1,1226,1190.800048828125)" style="cursor: default; opacity: 1;"><rect joint-selector="rect" id="v-15566" fill="#ffffff" rx="3" ry="3"  width="0" height="0" transform="matrix(1,0,0,1,0,0)" display="none"></rect><text joint-selector="text" id="v-15565" fill="#000000" font-size="14" text-anchor="middle" pointer-events="none"></text></g></g><g  display="none"></g><g  id="v-15571" display="none"><g  id="v-15556"><path  end="source" d="M 26 0 L 0 13 L 26 26 z"></path></g><g  id="v-15557"><path  end="target" d="M 26 0 L 0 13 L 26 26 z"></path></g></g><g  id="v-15570" display="none"><g  id="v-15555" transform="translate(1333.8236787400679, 1261.6495730392735) "><g  event="remove"><circle r="11"></circle><path transform="scale(.8) translate(-16, -16)" d="M24.778,21.419 19.276,15.917 24.777,10.415 21.949,7.585 16.447,13.087 10.945,7.585 8.117,10.415 13.618,15.917 8.116,21.419 10.946,24.248 16.447,18.746 21.948,24.248z"></path><title>Remove link.</title></g><g  event="link:options"><circle r="11" transform="translate(25)"></circle><path fill="white" transform="scale(.55) translate(29, -16)" d="M31.229,17.736c0.064-0.571,0.104-1.148,0.104-1.736s-0.04-1.166-0.104-1.737l-4.377-1.557c-0.218-0.716-0.504-1.401-0.851-2.05l1.993-4.192c-0.725-0.91-1.549-1.734-2.458-2.459l-4.193,1.994c-0.647-0.347-1.334-0.632-2.049-0.849l-1.558-4.378C17.165,0.708,16.588,0.667,16,0.667s-1.166,0.041-1.737,0.105L12.707,5.15c-0.716,0.217-1.401,0.502-2.05,0.849L6.464,4.005C5.554,4.73,4.73,5.554,4.005,6.464l1.994,4.192c-0.347,0.648-0.632,1.334-0.849,2.05l-4.378,1.557C0.708,14.834,0.667,15.412,0.667,16s0.041,1.165,0.105,1.736l4.378,1.558c0.217,0.715,0.502,1.401,0.849,2.049l-1.994,4.193c0.725,0.909,1.549,1.733,2.459,2.458l4.192-1.993c0.648,0.347,1.334,0.633,2.05,0.851l1.557,4.377c0.571,0.064,1.148,0.104,1.737,0.104c0.588,0,1.165-0.04,1.736-0.104l1.558-4.377c0.715-0.218,1.399-0.504,2.049-0.851l4.193,1.993c0.909-0.725,1.733-1.549,2.458-2.458l-1.993-4.193c0.347-0.647,0.633-1.334,0.851-2.049L31.229,17.736zM16,20.871c-2.69,0-4.872-2.182-4.872-4.871c0-2.69,2.182-4.872,4.872-4.872c2.689,0,4.871,2.182,4.871,4.872C20.871,18.689,18.689,20.871,16,20.871z"></path><title>Link options.</title></g></g></g></g><!--z-index:33--><g   id="j_1238" ><path  stroke="#707070" d="M 833 1291 L 584 1021" id="v-15584" stroke-width="2" stroke-dasharray="30 30" fill="none" style="opacity: 1;"></path><path  fill="black" stroke="black" d="M 0 0 0 0" transform="matrix(-0.6788807511329651,-0.7342485785484314,0.7342485785484314,-0.6788807511329651,833.3200073242188,1291)"></path><path  fill="#707070" stroke="#707070" d="M 20 0 L 0 10 L 20 20 z" id="v-15586" transform="matrix(0.6788807511329651,0.7342485189437866,-0.7342485189437866,0.6788807511329651,591.0224609375,1014.2112426757812)" style="opacity: 1;"></path><path  d="M 833 1291 L 584 1021" id="v-15585" fill="none" style="cursor: default;"></path><g ><g id="v-15575"  label-idx="0" cursor="move" transform="matrix(1,0,0,1,708.5,1156)" style="cursor: default; opacity: 1;"><rect joint-selector="rect" id="v-15579" fill="#ffffff" rx="3" ry="3" pointer-events="none" width="66.9502182006836" height="31.66564178466797" transform="matrix(1,0,0,1,-33.099998474121094,-15.899999618530273)"></rect><text joint-selector="text" id="v-15578" font-size="24px" xml:space="preserve" y="0.8em" fill="#707070" text-anchor="middle" pointer-events="none" font-family="Red Hat Display" font-weight="normal" transform="matrix(1,0,0,1,0,-10.199999809265137)"><tspan  dy="0">Reads</tspan></text></g><g id="v-15576"  label-idx="1" cursor="move" transform="matrix(1,0,0,1,708.5,1182.4000244140625)" style="cursor: default; opacity: 1;"><rect joint-selector="rect" id="v-15581" fill="#ffffff" rx="3" ry="3" pointer-events="none" width="96.61666870117188" height="21.25" transform="matrix(1,0,0,1,-48,-10.600000381469727)"></rect><text joint-selector="text" id="v-15580" font-size="17px" xml:space="preserve" y="0.8em" fill="#707070" text-anchor="middle" pointer-events="none" font-family="Red Hat Display" font-weight="normal" transform="matrix(1,0,0,1,0,-7.199999809265137)"><tspan  dy="0">[YAML Files]</tspan></text></g><g id="v-15577"  label-idx="2" cursor="move" transform="matrix(1,0,0,1,698.5,1190.800048828125)" style="cursor: default; opacity: 1;"><rect joint-selector="rect" id="v-15583" fill="#ffffff" rx="3" ry="3"  width="0" height="0" transform="matrix(1,0,0,1,0,0)" display="none"></rect><text joint-selector="text" id="v-15582" fill="#000000" font-size="14" text-anchor="middle" pointer-events="none"></text></g></g><g  display="none"></g><g  id="v-15588" display="none"><g  id="v-15573"><path  end="source" d="M 26 0 L 0 13 L 26 26 z"></path></g><g  id="v-15574"><path  end="target" d="M 26 0 L 0 13 L 26 26 z"></path></g></g><g  id="v-15587" display="none"><g  id="v-15572" transform="translate(805.8823685580946, 1261.5953394003436) "><g  event="remove"><circle r="11"></circle><path transform="scale(.8) translate(-16, -16)" d="M24.778,21.419 19.276,15.917 24.777,10.415 21.949,7.585 16.447,13.087 10.945,7.585 8.117,10.415 13.618,15.917 8.116,21.419 10.946,24.248 16.447,18.746 21.948,24.248z"></path><title>Remove link.</title></g><g  event="link:options"><circle r="11" transform="translate(25)"></circle><path fill="white" transform="scale(.55) translate(29, -16)" d="M31.229,17.736c0.064-0.571,0.104-1.148,0.104-1.736s-0.04-1.166-0.104-1.737l-4.377-1.557c-0.218-0.716-0.504-1.401-0.851-2.05l1.993-4.192c-0.725-0.91-1.549-1.734-2.458-2.459l-4.193,1.994c-0.647-0.347-1.334-0.632-2.049-0.849l-1.558-4.378C17.165,0.708,16.588,0.667,16,0.667s-1.166,0.041-1.737,0.105L12.707,5.15c-0.716,0.217-1.401,0.502-2.05,0.849L6.464,4.005C5.554,4.73,4.73,5.554,4.005,6.464l1.994,4.192c-0.347,0.648-0.632,1.334-0.849,2.05l-4.378,1.557C0.708,14.834,0.667,15.412,0.667,16s0.041,1.165,0.105,1.736l4.378,1.558c0.217,0.715,0.502,1.401,0.849,2.049l-1.994,4.193c0.725,0.909,1.549,1.733,2.459,2.458l4.192-1.993c0.648,0.347,1.334,0.633,2.05,0.851l1.557,4.377c0.571,0.064,1.148,0.104,1.737,0.104c0.588,0,1.165-0.04,1.736-0.104l1.558-4.377c0.715-0.218,1.399-0.504,2.049-0.851l4.193,1.993c0.909-0.725,1.733-1.549,2.458-2.458l-1.993-4.193c0.347-0.647,0.633-1.334,0.851-2.049L31.229,17.736zM16,20.871c-2.69,0-4.872-2.182-4.872-4.871c0-2.69,2.182-4.872,4.872-4.872c2.689,0,4.871,2.182,4.871,4.872C20.871,18.689,18.689,20.871,16,20.871z"></path><title>Link options.</title></g></g></g></g><!--z-index:34--><g   id="j_1239" ><path  stroke="#707070" d="M 584 451 L 833 721" id="v-15601" stroke-width="2" stroke-dasharray="30 30" fill="none" style="opacity: 1;"></path><path  fill="black" stroke="black" d="M 0 0 0 0" transform="matrix(0.6788807511329651,0.7342485189437866,-0.7342485189437866,0.6788807511329651,583.6799926757812,451)"></path><path  fill="#707070" stroke="#707070" d="M 20 0 L 0 10 L 20 20 z" id="v-15603" transform="matrix(-0.6788807511329651,-0.7342485785484314,0.7342485785484314,-0.6788807511329651,825.9775390625,727.788818359375)" style="opacity: 1;"></path><path  d="M 584 451 L 833 721" id="v-15602" fill="none" style="cursor: default;"></path><g ><g id="v-15592"  label-idx="0" cursor="move" transform="matrix(1,0,0,1,708.5,586)" style="cursor: default; opacity: 1;"><rect joint-selector="rect" id="v-15596" fill="#ffffff" rx="3" ry="3" pointer-events="none" width="66.9502182006836" height="31.66564178466797" transform="matrix(1,0,0,1,-33.099998474121094,-15.899999618530273)"></rect><text joint-selector="text" id="v-15595" font-size="24px" xml:space="preserve" y="0.8em" fill="#707070" text-anchor="middle" pointer-events="none" font-family="Red Hat Display" font-weight="normal" transform="matrix(1,0,0,1,0,-10.199999809265137)"><tspan  dy="0">Reads</tspan></text></g><g id="v-15593"  label-idx="1" cursor="move" transform="matrix(1,0,0,1,708.5,612.4000244140625)" style="cursor: default; opacity: 1;"><rect joint-selector="rect" id="v-15598" fill="#ffffff" rx="3" ry="3" pointer-events="none" width="134.33541870117188" height="21.25" transform="matrix(1,0,0,1,-66.80000305175781,-10.600000381469727)"></rect><text joint-selector="text" id="v-15597" font-size="17px" xml:space="preserve" y="0.8em" fill="#707070" text-anchor="middle" pointer-events="none" font-family="Red Hat Display" font-weight="normal" transform="matrix(1,0,0,1,0,-7.199999809265137)"><tspan  dy="0">[GEOJSON Files]</tspan></text></g><g id="v-15594"  label-idx="2" cursor="move" transform="matrix(1,0,0,1,698.5,620.7999877929688)" style="cursor: default; opacity: 1;"><rect joint-selector="rect" id="v-15600" fill="#ffffff" rx="3" ry="3"  width="0" height="0" transform="matrix(1,0,0,1,0,0)" display="none"></rect><text joint-selector="text" id="v-15599" fill="#000000" font-size="14" text-anchor="middle" pointer-events="none"></text></g></g><g  display="none"></g><g  id="v-15605" display="none"><g  id="v-15590"><path  end="source" d="M 26 0 L 0 13 L 26 26 z"></path></g><g  id="v-15591"><path  end="target" d="M 26 0 L 0 13 L 26 26 z"></path></g></g><g  id="v-15604" display="none"><g  id="v-15589" transform="translate(611.1176314419054, 480.40466059965644) "><g  event="remove"><circle r="11"></circle><path transform="scale(.8) translate(-16, -16)" d="M24.778,21.419 19.276,15.917 24.777,10.415 21.949,7.585 16.447,13.087 10.945,7.585 8.117,10.415 13.618,15.917 8.116,21.419 10.946,24.248 16.447,18.746 21.948,24.248z"></path><title>Remove link.</title></g><g  event="link:options"><circle r="11" transform="translate(25)"></circle><path fill="white" transform="scale(.55) translate(29, -16)" d="M31.229,17.736c0.064-0.571,0.104-1.148,0.104-1.736s-0.04-1.166-0.104-1.737l-4.377-1.557c-0.218-0.716-0.504-1.401-0.851-2.05l1.993-4.192c-0.725-0.91-1.549-1.734-2.458-2.459l-4.193,1.994c-0.647-0.347-1.334-0.632-2.049-0.849l-1.558-4.378C17.165,0.708,16.588,0.667,16,0.667s-1.166,0.041-1.737,0.105L12.707,5.15c-0.716,0.217-1.401,0.502-2.05,0.849L6.464,4.005C5.554,4.73,4.73,5.554,4.005,6.464l1.994,4.192c-0.347,0.648-0.632,1.334-0.849,2.05l-4.378,1.557C0.708,14.834,0.667,15.412,0.667,16s0.041,1.165,0.105,1.736l4.378,1.558c0.217,0.715,0.502,1.401,0.849,2.049l-1.994,4.193c0.725,0.909,1.549,1.733,2.459,2.458l4.192-1.993c0.648,0.347,1.334,0.633,2.05,0.851l1.557,4.377c0.571,0.064,1.148,0.104,1.737,0.104c0.588,0,1.165-0.04,1.736-0.104l1.558-4.377c0.715-0.218,1.399-0.504,2.049-0.851l4.193,1.993c0.909-0.725,1.733-1.549,2.458-2.458l-1.993-4.193c0.347-0.647,0.633-1.334,0.851-2.049L31.229,17.736zM16,20.871c-2.69,0-4.872-2.182-4.872-4.871c0-2.69,2.182-4.872,4.872-4.872c2.689,0,4.871,2.182,4.871,4.872C20.871,18.689,18.689,20.871,16,20.871z"></path><title>Link options.</title></g></g></g></g><!--z-index:35--><g   id="j_1240" ><path  stroke="#707070" d="M 670 301 L 1275 301" id="v-15618" stroke-width="2" stroke-dasharray="30 30" fill="none" style="opacity: 1;"></path><path  fill="black" stroke="black" d="M 0 0 0 0" transform="matrix(1,0,0,1,670,301)"></path><path  fill="#707070" stroke="#707070" d="M 20 0 L 0 10 L 20 20 z" id="v-15620" transform="matrix(-1,1.2246468525851679e-16,-1.2246468525851679e-16,-1,1275,311)" style="opacity: 1;"></path><path  d="M 670 301 L 1275 301" id="v-15619" fill="none" style="cursor: default;"></path><g ><g id="v-15609"  label-idx="0" cursor="move" transform="matrix(1,0,0,1,972.5,301)" style="cursor: default; opacity: 1;"><rect joint-selector="rect" id="v-15613" fill="#ffffff" rx="3" ry="3" pointer-events="none" width="89.83241271972656" height="31.66564178466797" transform="matrix(1,0,0,1,-44.900001525878906,-15.899999618530273)"></rect><text joint-selector="text" id="v-15612" font-size="24px" xml:space="preserve" y="0.8em" fill="#707070" text-anchor="middle" pointer-events="none" font-family="Red Hat Display" font-weight="normal" transform="matrix(1,0,0,1,0,-10.199999809265137)"><tspan  dy="0">Request</tspan></text></g><g id="v-15610"  label-idx="1" cursor="move" transform="matrix(1,0,0,1,972.5,327.3999938964844)" style="cursor: default; opacity: 1;"><rect joint-selector="rect" id="v-15615" fill="#ffffff" rx="3" ry="3" pointer-events="none" width="142.30416870117188" height="21.25" transform="matrix(1,0,0,1,-70.80000305175781,-10.600000381469727)"></rect><text joint-selector="text" id="v-15614" font-size="17px" xml:space="preserve" y="0.8em" fill="#707070" text-anchor="middle" pointer-events="none" font-family="Red Hat Display" font-weight="normal" transform="matrix(1,0,0,1,0,-7.199999809265137)"><tspan  dy="0">[api.wattnet.eu/v1]</tspan></text></g><g id="v-15611"  label-idx="2" cursor="move" transform="matrix(1,0,0,1,962.5,335.79998779296875)" style="cursor: default; opacity: 1;"><rect joint-selector="rect" id="v-15617" fill="#ffffff" rx="3" ry="3"  width="0" height="0" transform="matrix(1,0,0,1,0,0)" display="none"></rect><text joint-selector="text" id="v-15616" fill="#000000" font-size="14" text-anchor="middle" pointer-events="none"></text></g></g><g  display="none"></g><g  id="v-15622" display="none"><g  id="v-15607"><path  end="source" d="M 26 0 L 0 13 L 26 26 z"></path></g><g  id="v-15608"><path  end="target" d="M 26 0 L 0 13 L 26 26 z"></path></g></g><g  id="v-15621" display="none"><g  id="v-15606" transform="translate(710, 301) "><g  event="remove"><circle r="11"></circle><path transform="scale(.8) translate(-16, -16)" d="M24.778,21.419 19.276,15.917 24.777,10.415 21.949,7.585 16.447,13.087 10.945,7.585 8.117,10.415 13.618,15.917 8.116,21.419 10.946,24.248 16.447,18.746 21.948,24.248z"></path><title>Remove link.</title></g><g  event="link:options"><circle r="11" transform="translate(25)"></circle><path fill="white" transform="scale(.55) translate(29, -16)" d="M31.229,17.736c0.064-0.571,0.104-1.148,0.104-1.736s-0.04-1.166-0.104-1.737l-4.377-1.557c-0.218-0.716-0.504-1.401-0.851-2.05l1.993-4.192c-0.725-0.91-1.549-1.734-2.458-2.459l-4.193,1.994c-0.647-0.347-1.334-0.632-2.049-0.849l-1.558-4.378C17.165,0.708,16.588,0.667,16,0.667s-1.166,0.041-1.737,0.105L12.707,5.15c-0.716,0.217-1.401,0.502-2.05,0.849L6.464,4.005C5.554,4.73,4.73,5.554,4.005,6.464l1.994,4.192c-0.347,0.648-0.632,1.334-0.849,2.05l-4.378,1.557C0.708,14.834,0.667,15.412,0.667,16s0.041,1.165,0.105,1.736l4.378,1.558c0.217,0.715,0.502,1.401,0.849,2.049l-1.994,4.193c0.725,0.909,1.549,1.733,2.459,2.458l4.192-1.993c0.648,0.347,1.334,0.633,2.05,0.851l1.557,4.377c0.571,0.064,1.148,0.104,1.737,0.104c0.588,0,1.165-0.04,1.736-0.104l1.558-4.377c0.715-0.218,1.399-0.504,2.049-0.851l4.193,1.993c0.909-0.725,1.733-1.549,2.458-2.458l-1.993-4.193c0.347-0.647,0.633-1.334,0.851-2.049L31.229,17.736zM16,20.871c-2.69,0-4.872-2.182-4.872-4.871c0-2.69,2.182-4.872,4.872-4.872c2.689,0,4.871,2.182,4.871,4.872C20.871,18.689,18.689,20.871,16,20.871z"></path><title>Link options.</title></g></g></g></g><!--z-index:36--><g   id="j_1241" ><path  stroke="#707070" d="M 1500 451 L 1500 721" id="v-15635" stroke-width="2" stroke-dasharray="30 30" fill="none" style="opacity: 1;"></path><path  fill="black" stroke="black" d="M 0 0 0 0" transform="matrix(6.123234262925839e-17,1,-1,6.123234262925839e-17,1500,451)"></path><path  fill="#707070" stroke="#707070" d="M 20 0 L 0 10 L 20 20 z" id="v-15637" transform="matrix(-1.8369701465288538e-16,-1,1,-1.8369701465288538e-16,1490,721)" style="opacity: 1;"></path><path  d="M 1500 451 L 1500 721" id="v-15636" fill="none" style="cursor: default;"></path><g ><g id="v-15626"  label-idx="0" cursor="move" transform="matrix(1,0,0,1,1500,586)" style="cursor: default; opacity: 1;"><rect joint-selector="rect" id="v-15630" fill="#ffffff" rx="3" ry="3" pointer-events="none" width="66.9502182006836" height="31.66564178466797" transform="matrix(1,0,0,1,-33.099998474121094,-15.899999618530273)"></rect><text joint-selector="text" id="v-15629" font-size="24px" xml:space="preserve" y="0.8em" fill="#707070" text-anchor="middle" pointer-events="none" font-family="Red Hat Display" font-weight="normal" transform="matrix(1,0,0,1,0,-10.199999809265137)"><tspan  dy="0">Reads</tspan></text></g><g id="v-15627"  label-idx="1" cursor="move" transform="matrix(1,0,0,1,1500,612.4000244140625)" style="cursor: default; opacity: 1;"><rect joint-selector="rect" id="v-15632" fill="#ffffff" rx="3" ry="3" pointer-events="none" width="96.61666870117188" height="21.25" transform="matrix(1,0,0,1,-48,-10.600000381469727)"></rect><text joint-selector="text" id="v-15631" font-size="17px" xml:space="preserve" y="0.8em" fill="#707070" text-anchor="middle" pointer-events="none" font-family="Red Hat Display" font-weight="normal" transform="matrix(1,0,0,1,0,-7.199999809265137)"><tspan  dy="0">[YAML Files]</tspan></text></g><g id="v-15628"  label-idx="2" cursor="move" transform="matrix(1,0,0,1,1490,620.7999877929688)" style="cursor: default; opacity: 1;"><rect joint-selector="rect" id="v-15634" fill="#ffffff" rx="3" ry="3"  width="0" height="0" transform="matrix(1,0,0,1,0,0)" display="none"></rect><text joint-selector="text" id="v-15633" fill="#000000" font-size="14" text-anchor="middle" pointer-events="none"></text></g></g><g  display="none"></g><g  id="v-15639" display="none"><g  id="v-15624"><path  end="source" d="M 26 0 L 0 13 L 26 26 z"></path></g><g  id="v-15625"><path  end="target" d="M 26 0 L 0 13 L 26 26 z"></path></g></g><g  id="v-15638" display="none"><g  id="v-15623" transform="translate(1500, 491) "><g  event="remove"><circle r="11"></circle><path transform="scale(.8) translate(-16, -16)" d="M24.778,21.419 19.276,15.917 24.777,10.415 21.949,7.585 16.447,13.087 10.945,7.585 8.117,10.415 13.618,15.917 8.116,21.419 10.946,24.248 16.447,18.746 21.948,24.248z"></path><title>Remove link.</title></g><g  event="link:options"><circle r="11" transform="translate(25)"></circle><path fill="white" transform="scale(.55) translate(29, -16)" d="M31.229,17.736c0.064-0.571,0.104-1.148,0.104-1.736s-0.04-1.166-0.104-1.737l-4.377-1.557c-0.218-0.716-0.504-1.401-0.851-2.05l1.993-4.192c-0.725-0.91-1.549-1.734-2.458-2.459l-4.193,1.994c-0.647-0.347-1.334-0.632-2.049-0.849l-1.558-4.378C17.165,0.708,16.588,0.667,16,0.667s-1.166,0.041-1.737,0.105L12.707,5.15c-0.716,0.217-1.401,0.502-2.05,0.849L6.464,4.005C5.554,4.73,4.73,5.554,4.005,6.464l1.994,4.192c-0.347,0.648-0.632,1.334-0.849,2.05l-4.378,1.557C0.708,14.834,0.667,15.412,0.667,16s0.041,1.165,0.105,1.736l4.378,1.558c0.217,0.715,0.502,1.401,0.849,2.049l-1.994,4.193c0.725,0.909,1.549,1.733,2.459,2.458l4.192-1.993c0.648,0.347,1.334,0.633,2.05,0.851l1.557,4.377c0.571,0.064,1.148,0.104,1.737,0.104c0.588,0,1.165-0.04,1.736-0.104l1.558-4.377c0.715-0.218,1.399-0.504,2.049-0.851l4.193,1.993c0.909-0.725,1.733-1.549,2.458-2.458l-1.993-4.193c0.347-0.647,0.633-1.334,0.851-2.049L31.229,17.736zM16,20.871c-2.69,0-4.872-2.182-4.872-4.871c0-2.69,2.182-4.872,4.872-4.872c2.689,0,4.871,2.182,4.871,4.872C20.871,18.689,18.689,20.871,16,20.871z"></path><title>Link options.</title></g></g></g></g><!--z-index:37--><g   id="j_1242" ><path  stroke="#707070" d="M 445 1291 L 445 1021" id="v-15652" stroke-width="2" stroke-dasharray="30 30" fill="none" style="opacity: 1;"></path><path  fill="black" stroke="black" d="M 0 0 0 0" transform="matrix(-1.8369701465288538e-16,-1,1,-1.8369701465288538e-16,445,1291)"></path><path  fill="#707070" stroke="#707070" d="M 20 0 L 0 10 L 20 20 z" id="v-15654" transform="matrix(6.123234262925839e-17,1,-1,6.123234262925839e-17,455,1021)" style="opacity: 1;"></path><path  d="M 445 1291 L 445 1021" id="v-15653" fill="none" style="cursor: default;"></path><g ><g id="v-15643"  label-idx="0" cursor="move" transform="matrix(1,0,0,1,445,1156)" style="cursor: default; opacity: 1;"><rect joint-selector="rect" id="v-15647" fill="#ffffff" rx="3" ry="3" pointer-events="none" width="66.9502182006836" height="31.66564178466797" transform="matrix(1,0,0,1,-33.099998474121094,-15.899999618530273)"></rect><text joint-selector="text" id="v-15646" font-size="24px" xml:space="preserve" y="0.8em" fill="#707070" text-anchor="middle" pointer-events="none" font-family="Red Hat Display" font-weight="normal" transform="matrix(1,0,0,1,0,-10.199999809265137)"><tspan  dy="0">Reads</tspan></text></g><g id="v-15644"  label-idx="1" cursor="move" transform="matrix(1,0,0,1,445,1182.4000244140625)" style="cursor: default; opacity: 1;"><rect joint-selector="rect" id="v-15649" fill="#ffffff" rx="3" ry="3" pointer-events="none" width="96.61666870117188" height="21.25" transform="matrix(1,0,0,1,-48,-10.600000381469727)"></rect><text joint-selector="text" id="v-15648" font-size="17px" xml:space="preserve" y="0.8em" fill="#707070" text-anchor="middle" pointer-events="none" font-family="Red Hat Display" font-weight="normal" transform="matrix(1,0,0,1,0,-7.199999809265137)"><tspan  dy="0">[YAML Files]</tspan></text></g><g id="v-15645"  label-idx="2" cursor="move" transform="matrix(1,0,0,1,435,1190.800048828125)" style="cursor: default; opacity: 1;"><rect joint-selector="rect" id="v-15651" fill="#ffffff" rx="3" ry="3"  width="0" height="0" transform="matrix(1,0,0,1,0,0)" display="none"></rect><text joint-selector="text" id="v-15650" fill="#000000" font-size="14" text-anchor="middle" pointer-events="none"></text></g></g><g  display="none"></g><g  id="v-15656" display="none"><g  id="v-15641"><path  end="source" d="M 26 0 L 0 13 L 26 26 z"></path></g><g  id="v-15642"><path  end="target" d="M 26 0 L 0 13 L 26 26 z"></path></g></g><g  id="v-15655" display="none"><g  id="v-15640" transform="translate(445, 1251) "><g  event="remove"><circle r="11"></circle><path transform="scale(.8) translate(-16, -16)" d="M24.778,21.419 19.276,15.917 24.777,10.415 21.949,7.585 16.447,13.087 10.945,7.585 8.117,10.415 13.618,15.917 8.116,21.419 10.946,24.248 16.447,18.746 21.948,24.248z"></path><title>Remove link.</title></g><g  event="link:options"><circle r="11" transform="translate(25)"></circle><path fill="white" transform="scale(.55) translate(29, -16)" d="M31.229,17.736c0.064-0.571,0.104-1.148,0.104-1.736s-0.04-1.166-0.104-1.737l-4.377-1.557c-0.218-0.716-0.504-1.401-0.851-2.05l1.993-4.192c-0.725-0.91-1.549-1.734-2.458-2.459l-4.193,1.994c-0.647-0.347-1.334-0.632-2.049-0.849l-1.558-4.378C17.165,0.708,16.588,0.667,16,0.667s-1.166,0.041-1.737,0.105L12.707,5.15c-0.716,0.217-1.401,0.502-2.05,0.849L6.464,4.005C5.554,4.73,4.73,5.554,4.005,6.464l1.994,4.192c-0.347,0.648-0.632,1.334-0.849,2.05l-4.378,1.557C0.708,14.834,0.667,15.412,0.667,16s0.041,1.165,0.105,1.736l4.378,1.558c0.217,0.715,0.502,1.401,0.849,2.049l-1.994,4.193c0.725,0.909,1.549,1.733,2.459,2.458l4.192-1.993c0.648,0.347,1.334,0.633,2.05,0.851l1.557,4.377c0.571,0.064,1.148,0.104,1.737,0.104c0.588,0,1.165-0.04,1.736-0.104l1.558-4.377c0.715-0.218,1.399-0.504,2.049-0.851l4.193,1.993c0.909-0.725,1.733-1.549,2.458-2.458l-1.993-4.193c0.347-0.647,0.633-1.334,0.851-2.049L31.229,17.736zM16,20.871c-2.69,0-4.872-2.182-4.872-4.871c0-2.69,2.182-4.872,4.872-4.872c2.689,0,4.871,2.182,4.871,4.872C20.871,18.689,18.689,20.871,16,20.871z"></path><title>Link options.</title></g></g></g></g><!--z-index:38--><!--z-index:39--><!--z-index:40--><!--z-index:41--><!--z-index:42--><!--z-index:43--><!--z-index:44--><!--z-index:45--><!--z-index:46--><!--z-index:47--><!--z-index:48--><!--z-index:49--><!--z-index:50--><!--z-index:51--><!--z-index:52--><!--z-index:53--><!--z-index:54--><!--z-index:55--><!--z-index:56--><!--z-index:57--><!--z-index:58--><!--z-index:59--><!--z-index:60--><!--z-index:61--><!--z-index:62--><!--z-index:63--><!--z-index:64--><!--z-index:65--><!--z-index:66--><!--z-index:67--><!--z-index:68--><!--z-index:69--><!--z-index:70--><!--z-index:71--><!--z-index:72--><!--z-index:73--><!--z-index:74--><!--z-index:75--><!--z-index:76--><!--z-index:77--><!--z-index:78--><!--z-index:79--><!--z-index:80--><!--z-index:81--><!--z-index:82--><!--z-index:83--><!--z-index:84--><!--z-index:85--><!--z-index:86--><!--z-index:87--><!--z-index:88--><!--z-index:89--><!--z-index:90--><!--z-index:91--><!--z-index:92--><!--z-index:93--><!--z-index:94--><!--z-index:95--><!--z-index:96--><!--z-index:97--><!--z-index:98--><!--z-index:99--><!--z-index:100--><!--z-index:101--><!--z-index:102--><!--z-index:103--><!--z-index:104--><!--z-index:105--><!--z-index:106--><!--z-index:107--><!--z-index:108--><!--z-index:109--><!--z-index:110--><!--z-index:111--><!--z-index:112--><!--z-index:113--><!--z-index:114--><!--z-index:115--><!--z-index:116--><!--z-index:117--><!--z-index:118--><!--z-index:119--><!--z-index:120--><!--z-index:121--><!--z-index:122--><!--z-index:123--><!--z-index:124--><!--z-index:125--><!--z-index:126--><!--z-index:127--><!--z-index:128--><!--z-index:129--><!--z-index:130--><!--z-index:131--><!--z-index:132--><!--z-index:133--><!--z-index:134--><!--z-index:135--><!--z-index:136--><!--z-index:137--><!--z-index:138--><!--z-index:139--><!--z-index:140--><!--z-index:141--><!--z-index:142--><!--z-index:143--><!--z-index:144--><!--z-index:145--><!--z-index:146--><!--z-index:147--><!--z-index:148--><!--z-index:149--><!--z-index:150--><!--z-index:151--><!--z-index:152--><!--z-index:153--><!--z-index:154--><!--z-index:155--><!--z-index:156--><!--z-index:157--><!--z-index:158--><!--z-index:159--><!--z-index:160--><!--z-index:161--><!--z-index:162--><!--z-index:163--><!--z-index:164--><!--z-index:165--><!--z-index:166--><!--z-index:167--><!--z-index:168--><!--z-index:169--><!--z-index:170--><!--z-index:171--><!--z-index:172--><!--z-index:173--><!--z-index:174--><!--z-index:175--><!--z-index:176--><!--z-index:177--><!--z-index:178--><!--z-index:179--><!--z-index:180--><!--z-index:181--><!--z-index:182--><!--z-index:183--><!--z-index:184--><!--z-index:185--><!--z-index:186--><!--z-index:187--><!--z-index:188--><!--z-index:189--><!--z-index:190--><!--z-index:191--><!--z-index:192--></g><g ></g><g ></g><g ></g></g></svg>