<svg xmlns="http://www.w3.org/2000/svg" xmlns:xlink="http://www.w3.org/1999/xlink" version="1.1" viewBox="0 0 1945 1840" style="background: #ffffff"><defs><style>@import url(https://fonts.googleapis.com/css2?family=Red+Hat+Display:wght@500..900);</style></defs><defs joint-selector="defs"></defs><g  joint-selector="layers" transform="matrix(1,0,0,1,0,0)"><g ></g><g ><!--z-index:-1--><!--z-index:0--><!--z-index:1--><!--z-index:2--><!--z-index:3--><!--z-index:4--><!--z-index:5--><!--z-index:6--><!--z-index:7--><!--z-index:8--><!--z-index:9--><!--z-index:10--><!--z-index:11--><!--z-index:12--><!--z-index:13--><!--z-index:14--><!--z-index:15--><!--z-index:16--><!--z-index:17--><!--z-index:18--><!--z-index:19--><g   id="j_696"  transform="translate(20,1734)"><g id="v-8236"><image  id="v-8237" xlink:href="https://raw.githubusercontent.com/jaimeib/hosting/refs/heads/main/wattnet-logo-icon-dark-background-rounded.png" pointer-events="none" width="96" height="96"></image></g></g><!--z-index:20--><g   id="j_695"  transform="translate(136,1803.6)"><g id="v-8234"><text  id="v-8235" font-size="22px" xml:space="preserve" y="0.8em" font-weight="normal" text-anchor="start" fill="#aaaaaa" pointer-events="none" display="block" font-family="Red Hat Display"><tspan  dy="0">Wednesday, April 1, 2026 at 3:40 PM Central European Summer Time</tspan></text></g></g><!--z-index:21--><g   id="j_694"  transform="translate(136,1777.1999999999998)"><g id="v-8232"><text  id="v-8233" font-size="22px" xml:space="preserve" y="0.8em" font-weight="normal" text-anchor="start" fill="#aaaaaa" pointer-events="none" display="block" font-family="Red Hat Display"><tspan  dy="0">© Spanish National Research Council (CSIC) | Licensed under CC BY 4.0</tspan></text></g></g><!--z-index:22--><g   id="j_693"  transform="translate(136,1733.9999999999998)"><g id="v-8230"><text  id="v-8231" font-size="36px" xml:space="preserve" y="0.8em" font-weight="normal" text-anchor="start" fill="#000000" pointer-events="none" display="block" font-family="Red Hat Display"><tspan  dy="0">[Component] wattnet - Zone Database</tspan></text></g></g><!--z-index:23--><g   id="j_697"  transform="translate(219,151)" style=""><g  id="v-8241" style="opacity: 1;"><rect  id="v-8242" rx="10" ry="10" stroke="#4b6896" stroke-width="2" pointer-events="visiblePainted" fill="#4b6896" width="450" height="300" style="fill: rgb(75, 104, 150); stroke: rgb(75, 104, 150);"></rect><rect  id="v-8243" rx="10" ry="10" stroke="#4b6896" stroke-width="0" pointer-events="visiblePainted" fill="#5374a7" width="430" height="250" x="10" y="40" style="fill: rgb(83, 116, 167);"></rect><ellipse  id="v-8250" fill="#5374a7" cx="20" cy="20" rx="10" ry="10" style="fill: rgb(83, 116, 167);"></ellipse><ellipse  id="v-8251" fill="#5374a7" cx="50" cy="20" rx="10" ry="10" style="fill: rgb(83, 116, 167);"></ellipse><ellipse  id="v-8252" fill="#5374a7" cx="80" cy="20" rx="10" ry="10" style="fill: rgb(83, 116, 167);"></ellipse><rect  id="v-8244" rx="10" ry="10" stroke="#444444" stroke-width="0" pointer-events="visiblePainted" fill="#5374a7" width="340" height="20" x="100" y="10" style="fill: rgb(83, 116, 167);"></rect><text  id="v-8245" font-size="34" xml:space="preserve" y="0.8em" font-weight="bold" text-anchor="middle" pointer-events="visible" font-family="Red Hat Display" fill="#ffffff" transform="matrix(1,0,0,1,225,88.69999694824219)" style="fill: rgb(255, 255, 255);"><tspan  dy="0">Dashboard</tspan></text><text  id="v-8246" font-size="17" xml:space="preserve" y="0.8em" text-anchor="middle" font-family="Red Hat Display" fill="#ffffff" transform="matrix(1,0,0,1,225,129.5)" style="fill: rgb(255, 255, 255);"><tspan  dy="0">[Container: React]</tspan></text><text  id="v-8247" font-size="24" xml:space="preserve" y="0.8em" text-anchor="middle" font-family="Red Hat Display" fill="#ffffff" transform="matrix(1,0,0,1,225,159.89999389648438)" style="fill: rgb(255, 255, 255);"><tspan  dy="0">The dashboard lets you explore all</tspan><tspan dy="1.2em" x="0" >metrics in a clear, interactive, and</tspan><tspan dy="1.2em" x="0" >visually engaging interface.</tspan></text><g  id="v-8248" font-weight="normal" text-anchor="middle" color="#ffffff" transform="matrix(1,0,0,1,210,258)" style="fill: rgb(255, 255, 255);" display="none"><g  transform="translate(5 0)"><svg xmlns="http://www.w3.org/2000/svg" width="20" height="20" fill="currentColor" viewBox="0 0 16 16"><path fill-rule="evenodd" d="M6.5 12a5.5 5.5 0 1 0 0-11 5.5 5.5 0 0 0 0 11zM13 6.5a6.5 6.5 0 1 1-13 0 6.5 6.5 0 0 1 13 0z"></path><path d="M10.344 11.742c.03.04.062.078.098.115l3.85 3.85a1 1 0 0 0 1.415-1.414l-3.85-3.85a1.007 1.007 0 0 0-.115-.1 6.538 6.538 0 0 1-1.398 1.4z"></path><path fill-rule="evenodd" d="M6.5 3a.5.5 0 0 1 .5.5V6h2.5a.5.5 0 0 1 0 1H7v2.5a.5.5 0 0 1-1 0V7H3.5a.5.5 0 0 1 0-1H6V3.5a.5.5 0 0 1 .5-.5z"></path></svg></g><g ></g><g ></g><g ></g></g><image  id="v-8249"></image></g></g><!--z-index:24--><g   id="j_698"  transform="translate(1274,1291)" style=""><g  id="v-8256" style="opacity: 1;"><rect  id="v-8257" rx="10" ry="10" stroke="#4d7acf" stroke-width="2" pointer-events="visiblePainted" fill="#4d7acf" width="450" height="300" style="fill: rgb(77, 122, 207); stroke: rgb(77, 122, 207);"></rect><rect  id="v-8258" rx="10" ry="10" stroke="#4d7acf" stroke-width="0" pointer-events="visiblePainted" fill="#5588e6" width="430" height="250" x="10" y="40" style="fill: rgb(85, 136, 230);"></rect><ellipse  id="v-8265" fill="#5588e6" cx="20" cy="20" rx="10" ry="10" style="fill: rgb(85, 136, 230);"></ellipse><ellipse  id="v-8266" fill="#5588e6" cx="50" cy="20" rx="10" ry="10" style="fill: rgb(85, 136, 230);"></ellipse><ellipse  id="v-8267" fill="#5588e6" cx="80" cy="20" rx="10" ry="10" style="fill: rgb(85, 136, 230);"></ellipse><rect  id="v-8259" rx="10" ry="10" stroke="#444444" stroke-width="0" pointer-events="visiblePainted" fill="#5588e6" width="340" height="20" x="100" y="10" style="fill: rgb(85, 136, 230);"></rect><text  id="v-8260" font-size="34" xml:space="preserve" y="0.8em" font-weight="bold" text-anchor="middle" pointer-events="visible" font-family="Red Hat Display" fill="#ffffff" transform="matrix(1,0,0,1,225,103.0999984741211)" style="fill: rgb(255, 255, 255);"><tspan  dy="0">Data Tools</tspan></text><text  id="v-8261" font-size="17" xml:space="preserve" y="0.8em" text-anchor="middle" font-family="Red Hat Display" fill="#ffffff" transform="matrix(1,0,0,1,225,143.89999389648438)" style="fill: rgb(255, 255, 255);"><tspan  dy="0">[Container: Python]</tspan></text><text  id="v-8262" font-size="24" xml:space="preserve" y="0.8em" text-anchor="middle" font-family="Red Hat Display" fill="#ffffff" transform="matrix(1,0,0,1,225,174.3000030517578)" style="fill: rgb(255, 255, 255);"><tspan  dy="0">Command-line tools for dataset</tspan><tspan dy="1.2em" x="0" >extractor, analyzer, and visualizer.</tspan></text><g  id="v-8263" font-weight="normal" text-anchor="middle" color="#ffffff" transform="matrix(1,0,0,1,222.5,258)" style="fill: rgb(255, 255, 255);" display="none"><g ></g><g ></g><g ></g><g ></g></g><image  id="v-8264"></image></g></g><!--z-index:25--><g   id="j_699"  transform="translate(1274,151)" style=""><g  id="v-8271" style="opacity: 1;"><rect  id="v-8272" rx="20" ry="20" stroke="#4b6896" stroke-width="2" pointer-events="visiblePainted" fill="#5374a7" width="450" height="300" style="fill: rgb(83, 116, 167); stroke: rgb(75, 104, 150);"></rect><text  id="v-8273" font-size="34" xml:space="preserve" y="0.8em" font-weight="bold" text-anchor="middle" pointer-events="visible" font-family="Red Hat Display" fill="#ffffff" transform="matrix(1,0,0,1,225,73.69999694824219)" style="fill: rgb(255, 255, 255);"><tspan  dy="0">RESTful API</tspan></text><text  id="v-8274" font-size="17" xml:space="preserve" y="0.8em" text-anchor="middle" font-family="Red Hat Display" fill="#ffffff" transform="matrix(1,0,0,1,225,114.5)" style="fill: rgb(255, 255, 255);"><tspan  dy="0">[Container: FastAPI]</tspan></text><text  id="v-8275" font-size="24" xml:space="preserve" y="0.8em" text-anchor="middle" font-family="Red Hat Display" fill="#ffffff" transform="matrix(1,0,0,1,225,144.89999389648438)" style="fill: rgb(255, 255, 255);"><tspan  dy="0">Provides a stateless standard</tspan><tspan dy="1.2em" x="0" >interface for accessing</tspan><tspan dy="1.2em" x="0" >environmental impact metrics.</tspan></text><g  id="v-8276" color="#ffffff" transform="matrix(1,0,0,1,210,268)" style="fill: rgb(255, 255, 255);" display="none"><g  transform="translate(5 0)"><svg xmlns="http://www.w3.org/2000/svg" width="20" height="20" fill="currentColor" viewBox="0 0 16 16"><path fill-rule="evenodd" d="M6.5 12a5.5 5.5 0 1 0 0-11 5.5 5.5 0 0 0 0 11zM13 6.5a6.5 6.5 0 1 1-13 0 6.5 6.5 0 0 1 13 0z"></path><path d="M10.344 11.742c.03.04.062.078.098.115l3.85 3.85a1 1 0 0 0 1.415-1.414l-3.85-3.85a1.007 1.007 0 0 0-.115-.1 6.538 6.538 0 0 1-1.398 1.4z"></path><path fill-rule="evenodd" d="M6.5 3a.5.5 0 0 1 .5.5V6h2.5a.5.5 0 0 1 0 1H7v2.5a.5.5 0 0 1-1 0V7H3.5a.5.5 0 0 1 0-1H6V3.5a.5.5 0 0 1 .5-.5z"></path></svg></g><g ></g><g ></g><g ></g></g><image  id="v-8277"></image></g></g><!--z-index:26--><g   id="j_700"  transform="translate(219,1291)" style=""><g  id="v-8281" style="opacity: 1;"><rect  id="v-8282" rx="20" ry="20" stroke="#4b6896" stroke-width="2" pointer-events="visiblePainted" fill="#5374a7" width="450" height="300" style="fill: rgb(83, 116, 167); stroke: rgb(75, 104, 150);"></rect><text  id="v-8283" font-size="34" xml:space="preserve" y="0.8em" font-weight="bold" text-anchor="middle" pointer-events="visible" font-family="Red Hat Display" fill="#ffffff" transform="matrix(1,0,0,1,225,73.69999694824219)" style="fill: rgb(255, 255, 255);"><tspan  dy="0">Core Engine</tspan></text><text  id="v-8284" font-size="17" xml:space="preserve" y="0.8em" text-anchor="middle" font-family="Red Hat Display" fill="#ffffff" transform="matrix(1,0,0,1,225,114.5)" style="fill: rgb(255, 255, 255);"><tspan  dy="0">[Container: Python]</tspan></text><text  id="v-8285" font-size="24" xml:space="preserve" y="0.8em" text-anchor="middle" font-family="Red Hat Display" fill="#ffffff" transform="matrix(1,0,0,1,225,144.89999389648438)" style="fill: rgb(255, 255, 255);"><tspan  dy="0">Fetch and processes electricity</tspan><tspan dy="1.2em" x="0" >generation data to compute</tspan><tspan dy="1.2em" x="0" >environmental impact metrics.</tspan></text><g  id="v-8286" color="#ffffff" transform="matrix(1,0,0,1,210,268)" style="fill: rgb(255, 255, 255);" display="none"><g  transform="translate(5 0)"><svg xmlns="http://www.w3.org/2000/svg" width="20" height="20" fill="currentColor" viewBox="0 0 16 16"><path fill-rule="evenodd" d="M6.5 12a5.5 5.5 0 1 0 0-11 5.5 5.5 0 0 0 0 11zM13 6.5a6.5 6.5 0 1 1-13 0 6.5 6.5 0 0 1 13 0z"></path><path d="M10.344 11.742c.03.04.062.078.098.115l3.85 3.85a1 1 0 0 0 1.415-1.414l-3.85-3.85a1.007 1.007 0 0 0-.115-.1 6.538 6.538 0 0 1-1.398 1.4z"></path><path fill-rule="evenodd" d="M6.5 3a.5.5 0 0 1 .5.5V6h2.5a.5.5 0 0 1 0 1H7v2.5a.5.5 0 0 1-1 0V7H3.5a.5.5 0 0 1 0-1H6V3.5a.5.5 0 0 1 .5-.5z"></path></svg></g><g ></g><g ></g><g ></g></g><image  id="v-8287"></image></g></g><!--z-index:27--><g   id="j_701"  transform="translate(746,1291)" style=""><g  id="v-8291" style="opacity: 1;"><rect  id="v-8292" rx="20" ry="20" stroke="#4b6896" stroke-width="2" pointer-events="visiblePainted" fill="#5374a7" width="450" height="300" style="fill: rgb(83, 116, 167); stroke: rgb(75, 104, 150);"></rect><text  id="v-8293" font-size="34" xml:space="preserve" y="0.8em" font-weight="bold" text-anchor="middle" pointer-events="visible" font-family="Red Hat Display" fill="#ffffff" transform="matrix(1,0,0,1,225,73.69999694824219)" style="fill: rgb(255, 255, 255);"><tspan  dy="0">Forecast Engine</tspan></text><text  id="v-8294" font-size="17" xml:space="preserve" y="0.8em" text-anchor="middle" font-family="Red Hat Display" fill="#ffffff" transform="matrix(1,0,0,1,225,114.5)" style="fill: rgb(255, 255, 255);"><tspan  dy="0">[Container: Python]</tspan></text><text  id="v-8295" font-size="24" xml:space="preserve" y="0.8em" text-anchor="middle" font-family="Red Hat Display" fill="#ffffff" transform="matrix(1,0,0,1,225,144.89999389648438)" style="fill: rgb(255, 255, 255);"><tspan  dy="0">Forecasts short-term future</tspan><tspan dy="1.2em" x="0" >environmental impact metrics</tspan><tspan dy="1.2em" x="0" >based on historical data.</tspan></text><g  id="v-8296" color="#ffffff" transform="matrix(1,0,0,1,210,268)" style="fill: rgb(255, 255, 255);" display="none"><g  transform="translate(5 0)"><svg xmlns="http://www.w3.org/2000/svg" width="20" height="20" fill="currentColor" viewBox="0 0 16 16"><path fill-rule="evenodd" d="M6.5 12a5.5 5.5 0 1 0 0-11 5.5 5.5 0 0 0 0 11zM13 6.5a6.5 6.5 0 1 1-13 0 6.5 6.5 0 0 1 13 0z"></path><path d="M10.344 11.742c.03.04.062.078.098.115l3.85 3.85a1 1 0 0 0 1.415-1.414l-3.85-3.85a1.007 1.007 0 0 0-.115-.1 6.538 6.538 0 0 1-1.398 1.4z"></path><path fill-rule="evenodd" d="M6.5 3a.5.5 0 0 1 .5.5V6h2.5a.5.5 0 0 1 0 1H7v2.5a.5.5 0 0 1-1 0V7H3.5a.5.5 0 0 1 0-1H6V3.5a.5.5 0 0 1 .5-.5z"></path></svg></g><g ></g><g ></g><g ></g></g><image  id="v-8297"></image></g></g><!--z-index:28--><g   id="j_703"  transform="translate(199,701)" style=""><g id="v-8315"><rect  id="v-8316" width="1545" height="411" rx="0" ry="0" fill="#ffffff" stroke="#85b920" stroke-width="1" stroke-dasharray="20,20" pointer-events="none"></rect><text  id="v-8317" font-size="24px" xml:space="preserve" y="372" font-weight="normal" fill="#85b920" text-anchor="start" pointer-events="visible" font-family="Red Hat Display" transform="matrix(1,0,0,1,15,0)"><tspan  dy="0">Zone Database</tspan></text><text  id="v-8318" font-size="17px" xml:space="preserve" y="396" font-weight="normal" fill="#85b920" text-anchor="start" pointer-events="visible" font-family="Red Hat Display" transform="matrix(1,0,0,1,15,0)"><tspan  dy="0">[Container]</tspan></text><image  id="v-8319" pointer-events="visible"></image></g></g><!--z-index:29--><g   id="j_702"  transform="translate(219,721)" style=""><g  id="v-8307" style="opacity: 1;"><rect  id="v-8308" rx="10" ry="10" stroke="#aed150" stroke-width="2" pointer-events="visiblePainted" fill="#c1e859" x="10" y="0" width="150" height="75" style="fill: rgb(193, 232, 89); stroke: rgb(174, 209, 80);"></rect><rect  id="v-8309" rx="5" ry="5" stroke="#aed150" stroke-width="2" pointer-events="visiblePainted" fill="#c1e859" x="0" y="37.5" width="450" height="262.5" style="fill: rgb(193, 232, 89); stroke: rgb(174, 209, 80);"></rect><text  id="v-8310" font-size="34" xml:space="preserve" y="0.8em" font-weight="bold" text-anchor="middle" pointer-events="visible" font-family="Red Hat Display" fill="#143262" transform="matrix(1,0,0,1,225,78.0999984741211)" style="fill: rgb(20, 50, 98);"><tspan  dy="0">Zones Definition</tspan></text><text  id="v-8311" font-size="17" xml:space="preserve" y="0.8em" text-anchor="middle" font-family="Red Hat Display" fill="#143262" transform="matrix(1,0,0,1,225,118.9000015258789)" style="fill: rgb(20, 50, 98);"><tspan  dy="0">[Component: Directory with YAML Files]</tspan></text><text  id="v-8312" font-size="24" xml:space="preserve" y="0.8em" text-anchor="middle" font-family="Red Hat Display" fill="#143262" transform="matrix(1,0,0,1,225,149.3000030517578)" style="fill: rgb(20, 50, 98);"><tspan  dy="0">Defines zones together with their</tspan><tspan dy="1.2em" x="0" >identifiers, full names, EIC codes,</tspan><tspan dy="1.2em" x="0" >data providers, and cross-border</tspan><tspan dy="1.2em" x="0" >interconnections.</tspan></text><g  id="v-8313" font-weight="normal" text-anchor="middle" color="#143262" transform="matrix(1,0,0,1,222.5,268)" style="fill: rgb(20, 50, 98);" display="none"><g ></g><g ></g><g ></g><g ></g></g><image  id="v-8314"></image></g></g><!--z-index:30--><g   id="j_704"  transform="translate(1274,721)" style=""><g  id="v-8326" style="opacity: 1;"><rect  id="v-8327" rx="10" ry="10" stroke="#aed150" stroke-width="2" pointer-events="visiblePainted" fill="#c1e859" x="10" y="0" width="150" height="75" style="fill: rgb(193, 232, 89); stroke: rgb(174, 209, 80);"></rect><rect  id="v-8328" rx="5" ry="5" stroke="#aed150" stroke-width="2" pointer-events="visiblePainted" fill="#c1e859" x="0" y="37.5" width="450" height="262.5" style="fill: rgb(193, 232, 89); stroke: rgb(174, 209, 80);"></rect><text  id="v-8329" font-size="34" xml:space="preserve" y="0.8em" font-weight="bold" text-anchor="middle" pointer-events="visible" font-family="Red Hat Display" fill="#143262" transform="matrix(1,0,0,1,225,78.0999984741211)" style="fill: rgb(20, 50, 98);"><tspan  dy="0">Zone Geometries</tspan></text><text  id="v-8330" font-size="17" xml:space="preserve" y="0.8em" text-anchor="middle" font-family="Red Hat Display" fill="#143262" transform="matrix(1,0,0,1,225,118.9000015258789)" style="fill: rgb(20, 50, 98);"><tspan  dy="0">[Component: Directory with GEOJSON Files]</tspan></text><text  id="v-8331" font-size="24" xml:space="preserve" y="0.8em" text-anchor="middle" font-family="Red Hat Display" fill="#143262" transform="matrix(1,0,0,1,225,149.3000030517578)" style="fill: rgb(20, 50, 98);"><tspan  dy="0">Contains high-resolution</tspan><tspan dy="1.2em" x="0" >geographical boundaries of zones</tspan><tspan dy="1.2em" x="0" >for precise geospatial mapping</tspan><tspan dy="1.2em" x="0" >based on latitude and longitude.</tspan></text><g  id="v-8332" font-weight="normal" text-anchor="middle" color="#143262" transform="matrix(1,0,0,1,222.5,268)" style="fill: rgb(20, 50, 98);" display="none"><g ></g><g ></g><g ></g><g ></g></g><image  id="v-8333"></image></g></g><!--z-index:31--><g   id="j_705"  transform="translate(746,721)" style=""><g  id="v-8337" style="opacity: 1;"><rect  id="v-8338" rx="10" ry="10" stroke="#aed150" stroke-width="2" pointer-events="visiblePainted" fill="#c1e859" x="10" y="0" width="150" height="75" style="fill: rgb(193, 232, 89); stroke: rgb(174, 209, 80);"></rect><rect  id="v-8339" rx="5" ry="5" stroke="#aed150" stroke-width="2" pointer-events="visiblePainted" fill="#c1e859" x="0" y="37.5" width="450" height="262.5" style="fill: rgb(193, 232, 89); stroke: rgb(174, 209, 80);"></rect><text  id="v-8340" font-size="34" xml:space="preserve" y="0.8em" font-weight="bold" text-anchor="middle" pointer-events="visible" font-family="Red Hat Display" fill="#143262" transform="matrix(1,0,0,1,225,78.0999984741211)" style="fill: rgb(20, 50, 98);"><tspan  dy="0">Map Geometries</tspan></text><text  id="v-8341" font-size="17" xml:space="preserve" y="0.8em" text-anchor="middle" font-family="Red Hat Display" fill="#143262" transform="matrix(1,0,0,1,225,118.9000015258789)" style="fill: rgb(20, 50, 98);"><tspan  dy="0">[Component: GEOJSON File]</tspan></text><text  id="v-8342" font-size="24" xml:space="preserve" y="0.8em" text-anchor="middle" font-family="Red Hat Display" fill="#143262" transform="matrix(1,0,0,1,225,149.3000030517578)" style="fill: rgb(20, 50, 98);"><tspan  dy="0">Contains a single file with</tspan><tspan dy="1.2em" x="0" >low-resolution geographical</tspan><tspan dy="1.2em" x="0" >boundaries of all zones optimized</tspan><tspan dy="1.2em" x="0" >for map visualization.</tspan></text><g  id="v-8343" font-weight="normal" text-anchor="middle" color="#143262" transform="matrix(1,0,0,1,222.5,268)" style="fill: rgb(20, 50, 98);" display="none"><g ></g><g ></g><g ></g><g ></g></g><image  id="v-8344"></image></g></g><!--z-index:32--><g   id="j_706" ><path  stroke="#707070" d="M 1360 1291 L 1110 1021" id="v-8357" stroke-width="2" stroke-dasharray="30 30" fill="none" style="opacity: 1;"></path><path  fill="black" stroke="black" d="M 0 0 0 0" transform="matrix(-0.679554283618927,-0.7336252331733704,0.7336252331733704,-0.679554283618927,1360.050048828125,1291)"></path><path  fill="#707070" stroke="#707070" d="M 20 0 L 0 10 L 20 20 z" id="v-8359" transform="matrix(0.6795543432235718,0.7336251735687256,-0.7336251735687256,0.6795543432235718,1117.2861328125,1014.2045288085938)" style="opacity: 1;"></path><path  d="M 1360 1291 L 1110 1021" id="v-8358" fill="none" style="cursor: default;"></path><g ><g id="v-8348"  label-idx="0" cursor="move" transform="matrix(1,0,0,1,1235,1156)" style="cursor: default; opacity: 1;"><rect joint-selector="rect" id="v-8352" fill="#ffffff" rx="3" ry="3" pointer-events="none" width="66.9502182006836" height="31.66564178466797" transform="matrix(1,0,0,1,-33.099998474121094,-15.899999618530273)"></rect><text joint-selector="text" id="v-8351" font-size="24px" xml:space="preserve" y="0.8em" fill="#707070" text-anchor="middle" pointer-events="none" font-family="Red Hat Display" font-weight="normal" transform="matrix(1,0,0,1,0,-10.199999809265137)"><tspan  dy="0">Reads</tspan></text></g><g id="v-8349"  label-idx="1" cursor="move" transform="matrix(1,0,0,1,1235,1182.4000244140625)" style="cursor: default; opacity: 1;"><rect joint-selector="rect" id="v-8354" fill="#ffffff" rx="3" ry="3" pointer-events="none" width="134.33541870117188" height="21.25" transform="matrix(1,0,0,1,-66.80000305175781,-10.600000381469727)"></rect><text joint-selector="text" id="v-8353" font-size="17px" xml:space="preserve" y="0.8em" fill="#707070" text-anchor="middle" pointer-events="none" font-family="Red Hat Display" font-weight="normal" transform="matrix(1,0,0,1,0,-7.199999809265137)"><tspan  dy="0">[GEOJSON Files]</tspan></text></g><g id="v-8350"  label-idx="2" cursor="move" transform="matrix(1,0,0,1,1225,1190.800048828125)" style="cursor: default; opacity: 1;"><rect joint-selector="rect" id="v-8356" fill="#ffffff" rx="3" ry="3"  width="0" height="0" transform="matrix(1,0,0,1,0,0)" display="none"></rect><text joint-selector="text" id="v-8355" fill="#000000" font-size="14" text-anchor="middle" pointer-events="none"></text></g></g><g  display="none"></g><g  id="v-8361" display="none"><g  id="v-8346"><path  end="source" d="M 26 0 L 0 13 L 26 26 z"></path></g><g  id="v-8347"><path  end="target" d="M 26 0 L 0 13 L 26 26 z"></path></g></g><g  id="v-8360" display="none"><g  id="v-8345" transform="translate(1332.8236787400679, 1261.6495730392735) "><g  event="remove"><circle r="11"></circle><path transform="scale(.8) translate(-16, -16)" d="M24.778,21.419 19.276,15.917 24.777,10.415 21.949,7.585 16.447,13.087 10.945,7.585 8.117,10.415 13.618,15.917 8.116,21.419 10.946,24.248 16.447,18.746 21.948,24.248z"></path><title>Remove link.</title></g><g  event="link:options"><circle r="11" transform="translate(25)"></circle><path fill="white" transform="scale(.55) translate(29, -16)" d="M31.229,17.736c0.064-0.571,0.104-1.148,0.104-1.736s-0.04-1.166-0.104-1.737l-4.377-1.557c-0.218-0.716-0.504-1.401-0.851-2.05l1.993-4.192c-0.725-0.91-1.549-1.734-2.458-2.459l-4.193,1.994c-0.647-0.347-1.334-0.632-2.049-0.849l-1.558-4.378C17.165,0.708,16.588,0.667,16,0.667s-1.166,0.041-1.737,0.105L12.707,5.15c-0.716,0.217-1.401,0.502-2.05,0.849L6.464,4.005C5.554,4.73,4.73,5.554,4.005,6.464l1.994,4.192c-0.347,0.648-0.632,1.334-0.849,2.05l-4.378,1.557C0.708,14.834,0.667,15.412,0.667,16s0.041,1.165,0.105,1.736l4.378,1.558c0.217,0.715,0.502,1.401,0.849,2.049l-1.994,4.193c0.725,0.909,1.549,1.733,2.459,2.458l4.192-1.993c0.648,0.347,1.334,0.633,2.05,0.851l1.557,4.377c0.571,0.064,1.148,0.104,1.737,0.104c0.588,0,1.165-0.04,1.736-0.104l1.558-4.377c0.715-0.218,1.399-0.504,2.049-0.851l4.193,1.993c0.909-0.725,1.733-1.549,2.458-2.458l-1.993-4.193c0.347-0.647,0.633-1.334,0.851-2.049L31.229,17.736zM16,20.871c-2.69,0-4.872-2.182-4.872-4.871c0-2.69,2.182-4.872,4.872-4.872c2.689,0,4.871,2.182,4.871,4.872C20.871,18.689,18.689,20.871,16,20.871z"></path><title>Link options.</title></g></g></g></g><!--z-index:33--><g   id="j_707" ><path  stroke="#707070" d="M 832 1291 L 583 1021" id="v-8374" stroke-width="2" stroke-dasharray="30 30" fill="none" style="opacity: 1;"></path><path  fill="black" stroke="black" d="M 0 0 0 0" transform="matrix(-0.6788807511329651,-0.7342485785484314,0.7342485785484314,-0.6788807511329651,832.3200073242188,1291)"></path><path  fill="#707070" stroke="#707070" d="M 20 0 L 0 10 L 20 20 z" id="v-8376" transform="matrix(0.6788807511329651,0.7342485189437866,-0.7342485189437866,0.6788807511329651,590.0224609375,1014.2112426757812)" style="opacity: 1;"></path><path  d="M 832 1291 L 583 1021" id="v-8375" fill="none" style="cursor: default;"></path><g ><g id="v-8365"  label-idx="0" cursor="move" transform="matrix(1,0,0,1,707.5,1156)" style="cursor: default; opacity: 1;"><rect joint-selector="rect" id="v-8369" fill="#ffffff" rx="3" ry="3" pointer-events="none" width="66.9502182006836" height="31.66564178466797" transform="matrix(1,0,0,1,-33.099998474121094,-15.899999618530273)"></rect><text joint-selector="text" id="v-8368" font-size="24px" xml:space="preserve" y="0.8em" fill="#707070" text-anchor="middle" pointer-events="none" font-family="Red Hat Display" font-weight="normal" transform="matrix(1,0,0,1,0,-10.199999809265137)"><tspan  dy="0">Reads</tspan></text></g><g id="v-8366"  label-idx="1" cursor="move" transform="matrix(1,0,0,1,707.5,1182.4000244140625)" style="cursor: default; opacity: 1;"><rect joint-selector="rect" id="v-8371" fill="#ffffff" rx="3" ry="3" pointer-events="none" width="96.61666870117188" height="21.25" transform="matrix(1,0,0,1,-48,-10.600000381469727)"></rect><text joint-selector="text" id="v-8370" font-size="17px" xml:space="preserve" y="0.8em" fill="#707070" text-anchor="middle" pointer-events="none" font-family="Red Hat Display" font-weight="normal" transform="matrix(1,0,0,1,0,-7.199999809265137)"><tspan  dy="0">[YAML Files]</tspan></text></g><g id="v-8367"  label-idx="2" cursor="move" transform="matrix(1,0,0,1,697.5,1190.800048828125)" style="cursor: default; opacity: 1;"><rect joint-selector="rect" id="v-8373" fill="#ffffff" rx="3" ry="3"  width="0" height="0" transform="matrix(1,0,0,1,0,0)" display="none"></rect><text joint-selector="text" id="v-8372" fill="#000000" font-size="14" text-anchor="middle" pointer-events="none"></text></g></g><g  display="none"></g><g  id="v-8378" display="none"><g  id="v-8363"><path  end="source" d="M 26 0 L 0 13 L 26 26 z"></path></g><g  id="v-8364"><path  end="target" d="M 26 0 L 0 13 L 26 26 z"></path></g></g><g  id="v-8377" display="none"><g  id="v-8362" transform="translate(804.8823685580946, 1261.5953394003436) "><g  event="remove"><circle r="11"></circle><path transform="scale(.8) translate(-16, -16)" d="M24.778,21.419 19.276,15.917 24.777,10.415 21.949,7.585 16.447,13.087 10.945,7.585 8.117,10.415 13.618,15.917 8.116,21.419 10.946,24.248 16.447,18.746 21.948,24.248z"></path><title>Remove link.</title></g><g  event="link:options"><circle r="11" transform="translate(25)"></circle><path fill="white" transform="scale(.55) translate(29, -16)" d="M31.229,17.736c0.064-0.571,0.104-1.148,0.104-1.736s-0.04-1.166-0.104-1.737l-4.377-1.557c-0.218-0.716-0.504-1.401-0.851-2.05l1.993-4.192c-0.725-0.91-1.549-1.734-2.458-2.459l-4.193,1.994c-0.647-0.347-1.334-0.632-2.049-0.849l-1.558-4.378C17.165,0.708,16.588,0.667,16,0.667s-1.166,0.041-1.737,0.105L12.707,5.15c-0.716,0.217-1.401,0.502-2.05,0.849L6.464,4.005C5.554,4.73,4.73,5.554,4.005,6.464l1.994,4.192c-0.347,0.648-0.632,1.334-0.849,2.05l-4.378,1.557C0.708,14.834,0.667,15.412,0.667,16s0.041,1.165,0.105,1.736l4.378,1.558c0.217,0.715,0.502,1.401,0.849,2.049l-1.994,4.193c0.725,0.909,1.549,1.733,2.459,2.458l4.192-1.993c0.648,0.347,1.334,0.633,2.05,0.851l1.557,4.377c0.571,0.064,1.148,0.104,1.737,0.104c0.588,0,1.165-0.04,1.736-0.104l1.558-4.377c0.715-0.218,1.399-0.504,2.049-0.851l4.193,1.993c0.909-0.725,1.733-1.549,2.458-2.458l-1.993-4.193c0.347-0.647,0.633-1.334,0.851-2.049L31.229,17.736zM16,20.871c-2.69,0-4.872-2.182-4.872-4.871c0-2.69,2.182-4.872,4.872-4.872c2.689,0,4.871,2.182,4.871,4.872C20.871,18.689,18.689,20.871,16,20.871z"></path><title>Link options.</title></g></g></g></g><!--z-index:34--><g   id="j_708" ><path  stroke="#707070" d="M 583 451 L 832 721" id="v-8391" stroke-width="2" stroke-dasharray="30 30" fill="none" style="opacity: 1;"></path><path  fill="black" stroke="black" d="M 0 0 0 0" transform="matrix(0.6788807511329651,0.7342485189437866,-0.7342485189437866,0.6788807511329651,582.6799926757812,451)"></path><path  fill="#707070" stroke="#707070" d="M 20 0 L 0 10 L 20 20 z" id="v-8393" transform="matrix(-0.6788807511329651,-0.7342485785484314,0.7342485785484314,-0.6788807511329651,824.9775390625,727.788818359375)" style="opacity: 1;"></path><path  d="M 583 451 L 832 721" id="v-8392" fill="none" style="cursor: default;"></path><g ><g id="v-8382"  label-idx="0" cursor="move" transform="matrix(1,0,0,1,707.5,586)" style="cursor: default; opacity: 1;"><rect joint-selector="rect" id="v-8386" fill="#ffffff" rx="3" ry="3" pointer-events="none" width="66.9502182006836" height="31.66564178466797" transform="matrix(1,0,0,1,-33.099998474121094,-15.899999618530273)"></rect><text joint-selector="text" id="v-8385" font-size="24px" xml:space="preserve" y="0.8em" fill="#707070" text-anchor="middle" pointer-events="none" font-family="Red Hat Display" font-weight="normal" transform="matrix(1,0,0,1,0,-10.199999809265137)"><tspan  dy="0">Reads</tspan></text></g><g id="v-8383"  label-idx="1" cursor="move" transform="matrix(1,0,0,1,707.5,612.4000244140625)" style="cursor: default; opacity: 1;"><rect joint-selector="rect" id="v-8388" fill="#ffffff" rx="3" ry="3" pointer-events="none" width="134.33541870117188" height="21.25" transform="matrix(1,0,0,1,-66.80000305175781,-10.600000381469727)"></rect><text joint-selector="text" id="v-8387" font-size="17px" xml:space="preserve" y="0.8em" fill="#707070" text-anchor="middle" pointer-events="none" font-family="Red Hat Display" font-weight="normal" transform="matrix(1,0,0,1,0,-7.199999809265137)"><tspan  dy="0">[GEOJSON Files]</tspan></text></g><g id="v-8384"  label-idx="2" cursor="move" transform="matrix(1,0,0,1,697.5,620.7999877929688)" style="cursor: default; opacity: 1;"><rect joint-selector="rect" id="v-8390" fill="#ffffff" rx="3" ry="3"  width="0" height="0" transform="matrix(1,0,0,1,0,0)" display="none"></rect><text joint-selector="text" id="v-8389" fill="#000000" font-size="14" text-anchor="middle" pointer-events="none"></text></g></g><g  display="none"></g><g  id="v-8395" display="none"><g  id="v-8380"><path  end="source" d="M 26 0 L 0 13 L 26 26 z"></path></g><g  id="v-8381"><path  end="target" d="M 26 0 L 0 13 L 26 26 z"></path></g></g><g  id="v-8394" display="none"><g  id="v-8379" transform="translate(610.1176314419054, 480.40466059965644) "><g  event="remove"><circle r="11"></circle><path transform="scale(.8) translate(-16, -16)" d="M24.778,21.419 19.276,15.917 24.777,10.415 21.949,7.585 16.447,13.087 10.945,7.585 8.117,10.415 13.618,15.917 8.116,21.419 10.946,24.248 16.447,18.746 21.948,24.248z"></path><title>Remove link.</title></g><g  event="link:options"><circle r="11" transform="translate(25)"></circle><path fill="white" transform="scale(.55) translate(29, -16)" d="M31.229,17.736c0.064-0.571,0.104-1.148,0.104-1.736s-0.04-1.166-0.104-1.737l-4.377-1.557c-0.218-0.716-0.504-1.401-0.851-2.05l1.993-4.192c-0.725-0.91-1.549-1.734-2.458-2.459l-4.193,1.994c-0.647-0.347-1.334-0.632-2.049-0.849l-1.558-4.378C17.165,0.708,16.588,0.667,16,0.667s-1.166,0.041-1.737,0.105L12.707,5.15c-0.716,0.217-1.401,0.502-2.05,0.849L6.464,4.005C5.554,4.73,4.73,5.554,4.005,6.464l1.994,4.192c-0.347,0.648-0.632,1.334-0.849,2.05l-4.378,1.557C0.708,14.834,0.667,15.412,0.667,16s0.041,1.165,0.105,1.736l4.378,1.558c0.217,0.715,0.502,1.401,0.849,2.049l-1.994,4.193c0.725,0.909,1.549,1.733,2.459,2.458l4.192-1.993c0.648,0.347,1.334,0.633,2.05,0.851l1.557,4.377c0.571,0.064,1.148,0.104,1.737,0.104c0.588,0,1.165-0.04,1.736-0.104l1.558-4.377c0.715-0.218,1.399-0.504,2.049-0.851l4.193,1.993c0.909-0.725,1.733-1.549,2.458-2.458l-1.993-4.193c0.347-0.647,0.633-1.334,0.851-2.049L31.229,17.736zM16,20.871c-2.69,0-4.872-2.182-4.872-4.871c0-2.69,2.182-4.872,4.872-4.872c2.689,0,4.871,2.182,4.871,4.872C20.871,18.689,18.689,20.871,16,20.871z"></path><title>Link options.</title></g></g></g></g><!--z-index:35--><g   id="j_709" ><path  stroke="#707070" d="M 669 301 L 1274 301" id="v-8408" stroke-width="2" stroke-dasharray="30 30" fill="none" style="opacity: 1;"></path><path  fill="black" stroke="black" d="M 0 0 0 0" transform="matrix(1,0,0,1,669,301)"></path><path  fill="#707070" stroke="#707070" d="M 20 0 L 0 10 L 20 20 z" id="v-8410" transform="matrix(-1,1.2246468525851679e-16,-1.2246468525851679e-16,-1,1274,311)" style="opacity: 1;"></path><path  d="M 669 301 L 1274 301" id="v-8409" fill="none" style="cursor: default;"></path><g ><g id="v-8399"  label-idx="0" cursor="move" transform="matrix(1,0,0,1,971.5,301)" style="cursor: default; opacity: 1;"><rect joint-selector="rect" id="v-8403" fill="#ffffff" rx="3" ry="3" pointer-events="none" width="89.83241271972656" height="31.66564178466797" transform="matrix(1,0,0,1,-44.900001525878906,-15.899999618530273)"></rect><text joint-selector="text" id="v-8402" font-size="24px" xml:space="preserve" y="0.8em" fill="#707070" text-anchor="middle" pointer-events="none" font-family="Red Hat Display" font-weight="normal" transform="matrix(1,0,0,1,0,-10.199999809265137)"><tspan  dy="0">Request</tspan></text></g><g id="v-8400"  label-idx="1" cursor="move" transform="matrix(1,0,0,1,971.5,327.3999938964844)" style="cursor: default; opacity: 1;"><rect joint-selector="rect" id="v-8405" fill="#ffffff" rx="3" ry="3" pointer-events="none" width="142.30416870117188" height="21.25" transform="matrix(1,0,0,1,-70.80000305175781,-10.600000381469727)"></rect><text joint-selector="text" id="v-8404" font-size="17px" xml:space="preserve" y="0.8em" fill="#707070" text-anchor="middle" pointer-events="none" font-family="Red Hat Display" font-weight="normal" transform="matrix(1,0,0,1,0,-7.199999809265137)"><tspan  dy="0">[api.wattnet.eu/v1]</tspan></text></g><g id="v-8401"  label-idx="2" cursor="move" transform="matrix(1,0,0,1,961.5,335.79998779296875)" style="cursor: default; opacity: 1;"><rect joint-selector="rect" id="v-8407" fill="#ffffff" rx="3" ry="3"  width="0" height="0" transform="matrix(1,0,0,1,0,0)" display="none"></rect><text joint-selector="text" id="v-8406" fill="#000000" font-size="14" text-anchor="middle" pointer-events="none"></text></g></g><g  display="none"></g><g  id="v-8412" display="none"><g  id="v-8397"><path  end="source" d="M 26 0 L 0 13 L 26 26 z"></path></g><g  id="v-8398"><path  end="target" d="M 26 0 L 0 13 L 26 26 z"></path></g></g><g  id="v-8411" display="none"><g  id="v-8396" transform="translate(709, 301) "><g  event="remove"><circle r="11"></circle><path transform="scale(.8) translate(-16, -16)" d="M24.778,21.419 19.276,15.917 24.777,10.415 21.949,7.585 16.447,13.087 10.945,7.585 8.117,10.415 13.618,15.917 8.116,21.419 10.946,24.248 16.447,18.746 21.948,24.248z"></path><title>Remove link.</title></g><g  event="link:options"><circle r="11" transform="translate(25)"></circle><path fill="white" transform="scale(.55) translate(29, -16)" d="M31.229,17.736c0.064-0.571,0.104-1.148,0.104-1.736s-0.04-1.166-0.104-1.737l-4.377-1.557c-0.218-0.716-0.504-1.401-0.851-2.05l1.993-4.192c-0.725-0.91-1.549-1.734-2.458-2.459l-4.193,1.994c-0.647-0.347-1.334-0.632-2.049-0.849l-1.558-4.378C17.165,0.708,16.588,0.667,16,0.667s-1.166,0.041-1.737,0.105L12.707,5.15c-0.716,0.217-1.401,0.502-2.05,0.849L6.464,4.005C5.554,4.73,4.73,5.554,4.005,6.464l1.994,4.192c-0.347,0.648-0.632,1.334-0.849,2.05l-4.378,1.557C0.708,14.834,0.667,15.412,0.667,16s0.041,1.165,0.105,1.736l4.378,1.558c0.217,0.715,0.502,1.401,0.849,2.049l-1.994,4.193c0.725,0.909,1.549,1.733,2.459,2.458l4.192-1.993c0.648,0.347,1.334,0.633,2.05,0.851l1.557,4.377c0.571,0.064,1.148,0.104,1.737,0.104c0.588,0,1.165-0.04,1.736-0.104l1.558-4.377c0.715-0.218,1.399-0.504,2.049-0.851l4.193,1.993c0.909-0.725,1.733-1.549,2.458-2.458l-1.993-4.193c0.347-0.647,0.633-1.334,0.851-2.049L31.229,17.736zM16,20.871c-2.69,0-4.872-2.182-4.872-4.871c0-2.69,2.182-4.872,4.872-4.872c2.689,0,4.871,2.182,4.871,4.872C20.871,18.689,18.689,20.871,16,20.871z"></path><title>Link options.</title></g></g></g></g><!--z-index:36--><g   id="j_710" ><path  stroke="#707070" d="M 1499 451 L 1499 721" id="v-8425" stroke-width="2" stroke-dasharray="30 30" fill="none" style="opacity: 1;"></path><path  fill="black" stroke="black" d="M 0 0 0 0" transform="matrix(6.123234262925839e-17,1,-1,6.123234262925839e-17,1499,451)"></path><path  fill="#707070" stroke="#707070" d="M 20 0 L 0 10 L 20 20 z" id="v-8427" transform="matrix(-1.8369701465288538e-16,-1,1,-1.8369701465288538e-16,1489,721)" style="opacity: 1;"></path><path  d="M 1499 451 L 1499 721" id="v-8426" fill="none" style="cursor: default;"></path><g ><g id="v-8416"  label-idx="0" cursor="move" transform="matrix(1,0,0,1,1499,586)" style="cursor: default; opacity: 1;"><rect joint-selector="rect" id="v-8420" fill="#ffffff" rx="3" ry="3" pointer-events="none" width="66.9502182006836" height="31.66564178466797" transform="matrix(1,0,0,1,-33.099998474121094,-15.899999618530273)"></rect><text joint-selector="text" id="v-8419" font-size="24px" xml:space="preserve" y="0.8em" fill="#707070" text-anchor="middle" pointer-events="none" font-family="Red Hat Display" font-weight="normal" transform="matrix(1,0,0,1,0,-10.199999809265137)"><tspan  dy="0">Reads</tspan></text></g><g id="v-8417"  label-idx="1" cursor="move" transform="matrix(1,0,0,1,1499,612.4000244140625)" style="cursor: default; opacity: 1;"><rect joint-selector="rect" id="v-8422" fill="#ffffff" rx="3" ry="3" pointer-events="none" width="96.61666870117188" height="21.25" transform="matrix(1,0,0,1,-48,-10.600000381469727)"></rect><text joint-selector="text" id="v-8421" font-size="17px" xml:space="preserve" y="0.8em" fill="#707070" text-anchor="middle" pointer-events="none" font-family="Red Hat Display" font-weight="normal" transform="matrix(1,0,0,1,0,-7.199999809265137)"><tspan  dy="0">[YAML Files]</tspan></text></g><g id="v-8418"  label-idx="2" cursor="move" transform="matrix(1,0,0,1,1489,620.7999877929688)" style="cursor: default; opacity: 1;"><rect joint-selector="rect" id="v-8424" fill="#ffffff" rx="3" ry="3"  width="0" height="0" transform="matrix(1,0,0,1,0,0)" display="none"></rect><text joint-selector="text" id="v-8423" fill="#000000" font-size="14" text-anchor="middle" pointer-events="none"></text></g></g><g  display="none"></g><g  id="v-8429" display="none"><g  id="v-8414"><path  end="source" d="M 26 0 L 0 13 L 26 26 z"></path></g><g  id="v-8415"><path  end="target" d="M 26 0 L 0 13 L 26 26 z"></path></g></g><g  id="v-8428" display="none"><g  id="v-8413" transform="translate(1499, 491) "><g  event="remove"><circle r="11"></circle><path transform="scale(.8) translate(-16, -16)" d="M24.778,21.419 19.276,15.917 24.777,10.415 21.949,7.585 16.447,13.087 10.945,7.585 8.117,10.415 13.618,15.917 8.116,21.419 10.946,24.248 16.447,18.746 21.948,24.248z"></path><title>Remove link.</title></g><g  event="link:options"><circle r="11" transform="translate(25)"></circle><path fill="white" transform="scale(.55) translate(29, -16)" d="M31.229,17.736c0.064-0.571,0.104-1.148,0.104-1.736s-0.04-1.166-0.104-1.737l-4.377-1.557c-0.218-0.716-0.504-1.401-0.851-2.05l1.993-4.192c-0.725-0.91-1.549-1.734-2.458-2.459l-4.193,1.994c-0.647-0.347-1.334-0.632-2.049-0.849l-1.558-4.378C17.165,0.708,16.588,0.667,16,0.667s-1.166,0.041-1.737,0.105L12.707,5.15c-0.716,0.217-1.401,0.502-2.05,0.849L6.464,4.005C5.554,4.73,4.73,5.554,4.005,6.464l1.994,4.192c-0.347,0.648-0.632,1.334-0.849,2.05l-4.378,1.557C0.708,14.834,0.667,15.412,0.667,16s0.041,1.165,0.105,1.736l4.378,1.558c0.217,0.715,0.502,1.401,0.849,2.049l-1.994,4.193c0.725,0.909,1.549,1.733,2.459,2.458l4.192-1.993c0.648,0.347,1.334,0.633,2.05,0.851l1.557,4.377c0.571,0.064,1.148,0.104,1.737,0.104c0.588,0,1.165-0.04,1.736-0.104l1.558-4.377c0.715-0.218,1.399-0.504,2.049-0.851l4.193,1.993c0.909-0.725,1.733-1.549,2.458-2.458l-1.993-4.193c0.347-0.647,0.633-1.334,0.851-2.049L31.229,17.736zM16,20.871c-2.69,0-4.872-2.182-4.872-4.871c0-2.69,2.182-4.872,4.872-4.872c2.689,0,4.871,2.182,4.871,4.872C20.871,18.689,18.689,20.871,16,20.871z"></path><title>Link options.</title></g></g></g></g><!--z-index:37--><g   id="j_711" ><path  stroke="#707070" d="M 444 1291 L 444 1021" id="v-8442" stroke-width="2" stroke-dasharray="30 30" fill="none" style="opacity: 1;"></path><path  fill="black" stroke="black" d="M 0 0 0 0" transform="matrix(-1.8369701465288538e-16,-1,1,-1.8369701465288538e-16,444,1291)"></path><path  fill="#707070" stroke="#707070" d="M 20 0 L 0 10 L 20 20 z" id="v-8444" transform="matrix(6.123234262925839e-17,1,-1,6.123234262925839e-17,454,1021)" style="opacity: 1;"></path><path  d="M 444 1291 L 444 1021" id="v-8443" fill="none" style="cursor: default;"></path><g ><g id="v-8433"  label-idx="0" cursor="move" transform="matrix(1,0,0,1,444,1156)" style="cursor: default; opacity: 1;"><rect joint-selector="rect" id="v-8437" fill="#ffffff" rx="3" ry="3" pointer-events="none" width="66.9502182006836" height="31.66564178466797" transform="matrix(1,0,0,1,-33.099998474121094,-15.899999618530273)"></rect><text joint-selector="text" id="v-8436" font-size="24px" xml:space="preserve" y="0.8em" fill="#707070" text-anchor="middle" pointer-events="none" font-family="Red Hat Display" font-weight="normal" transform="matrix(1,0,0,1,0,-10.199999809265137)"><tspan  dy="0">Reads</tspan></text></g><g id="v-8434"  label-idx="1" cursor="move" transform="matrix(1,0,0,1,444,1182.4000244140625)" style="cursor: default; opacity: 1;"><rect joint-selector="rect" id="v-8439" fill="#ffffff" rx="3" ry="3" pointer-events="none" width="96.61666870117188" height="21.25" transform="matrix(1,0,0,1,-48,-10.600000381469727)"></rect><text joint-selector="text" id="v-8438" font-size="17px" xml:space="preserve" y="0.8em" fill="#707070" text-anchor="middle" pointer-events="none" font-family="Red Hat Display" font-weight="normal" transform="matrix(1,0,0,1,0,-7.199999809265137)"><tspan  dy="0">[YAML Files]</tspan></text></g><g id="v-8435"  label-idx="2" cursor="move" transform="matrix(1,0,0,1,434,1190.800048828125)" style="cursor: default; opacity: 1;"><rect joint-selector="rect" id="v-8441" fill="#ffffff" rx="3" ry="3"  width="0" height="0" transform="matrix(1,0,0,1,0,0)" display="none"></rect><text joint-selector="text" id="v-8440" fill="#000000" font-size="14" text-anchor="middle" pointer-events="none"></text></g></g><g  display="none"></g><g  id="v-8446" display="none"><g  id="v-8431"><path  end="source" d="M 26 0 L 0 13 L 26 26 z"></path></g><g  id="v-8432"><path  end="target" d="M 26 0 L 0 13 L 26 26 z"></path></g></g><g  id="v-8445" display="none"><g  id="v-8430" transform="translate(444, 1251) "><g  event="remove"><circle r="11"></circle><path transform="scale(.8) translate(-16, -16)" d="M24.778,21.419 19.276,15.917 24.777,10.415 21.949,7.585 16.447,13.087 10.945,7.585 8.117,10.415 13.618,15.917 8.116,21.419 10.946,24.248 16.447,18.746 21.948,24.248z"></path><title>Remove link.</title></g><g  event="link:options"><circle r="11" transform="translate(25)"></circle><path fill="white" transform="scale(.55) translate(29, -16)" d="M31.229,17.736c0.064-0.571,0.104-1.148,0.104-1.736s-0.04-1.166-0.104-1.737l-4.377-1.557c-0.218-0.716-0.504-1.401-0.851-2.05l1.993-4.192c-0.725-0.91-1.549-1.734-2.458-2.459l-4.193,1.994c-0.647-0.347-1.334-0.632-2.049-0.849l-1.558-4.378C17.165,0.708,16.588,0.667,16,0.667s-1.166,0.041-1.737,0.105L12.707,5.15c-0.716,0.217-1.401,0.502-2.05,0.849L6.464,4.005C5.554,4.73,4.73,5.554,4.005,6.464l1.994,4.192c-0.347,0.648-0.632,1.334-0.849,2.05l-4.378,1.557C0.708,14.834,0.667,15.412,0.667,16s0.041,1.165,0.105,1.736l4.378,1.558c0.217,0.715,0.502,1.401,0.849,2.049l-1.994,4.193c0.725,0.909,1.549,1.733,2.459,2.458l4.192-1.993c0.648,0.347,1.334,0.633,2.05,0.851l1.557,4.377c0.571,0.064,1.148,0.104,1.737,0.104c0.588,0,1.165-0.04,1.736-0.104l1.558-4.377c0.715-0.218,1.399-0.504,2.049-0.851l4.193,1.993c0.909-0.725,1.733-1.549,2.458-2.458l-1.993-4.193c0.347-0.647,0.633-1.334,0.851-2.049L31.229,17.736zM16,20.871c-2.69,0-4.872-2.182-4.872-4.871c0-2.69,2.182-4.872,4.872-4.872c2.689,0,4.871,2.182,4.871,4.872C20.871,18.689,18.689,20.871,16,20.871z"></path><title>Link options.</title></g></g></g></g><!--z-index:38--><!--z-index:39--><!--z-index:40--><!--z-index:41--><!--z-index:42--><!--z-index:43--><!--z-index:44--><!--z-index:45--><!--z-index:46--><!--z-index:47--><!--z-index:48--><!--z-index:49--><!--z-index:50--><!--z-index:51--><!--z-index:52--><!--z-index:53--><!--z-index:54--><!--z-index:55--><!--z-index:56--><!--z-index:57--><!--z-index:58--><!--z-index:59--><!--z-index:60--><!--z-index:61--><!--z-index:62--><!--z-index:63--><!--z-index:64--><!--z-index:65--><!--z-index:66--><!--z-index:67--><!--z-index:68--><!--z-index:69--><!--z-index:70--><!--z-index:71--><!--z-index:72--><!--z-index:73--><!--z-index:74--><!--z-index:75--><!--z-index:76--><!--z-index:77--><!--z-index:78--><!--z-index:79--><!--z-index:80--><!--z-index:81--><!--z-index:82--><!--z-index:83--><!--z-index:84--><!--z-index:85--><!--z-index:86--><!--z-index:87--><!--z-index:88--><!--z-index:89--><!--z-index:90--><!--z-index:91--><!--z-index:92--><!--z-index:93--><!--z-index:94--><!--z-index:95--><!--z-index:96--><!--z-index:97--><!--z-index:98--><!--z-index:99--><!--z-index:100--><!--z-index:101--><!--z-index:102--><!--z-index:103--><!--z-index:104--><!--z-index:105--><!--z-index:106--><!--z-index:107--><!--z-index:108--><!--z-index:109--><!--z-index:110--><!--z-index:111--><!--z-index:112--><!--z-index:113--><!--z-index:114--><!--z-index:115--><!--z-index:116--><!--z-index:117--><!--z-index:118--><!--z-index:119--><!--z-index:120--><!--z-index:121--><!--z-index:122--><!--z-index:123--><!--z-index:124--><!--z-index:125--><!--z-index:126--><!--z-index:127--><!--z-index:128--><!--z-index:129--><!--z-index:130--><!--z-index:131--><!--z-index:132--><!--z-index:133--><!--z-index:134--><!--z-index:135--><!--z-index:136--><!--z-index:137--><!--z-index:138--><!--z-index:139--><!--z-index:140--><!--z-index:141--><!--z-index:142--><!--z-index:143--><!--z-index:144--><!--z-index:145--><!--z-index:146--><!--z-index:147--><!--z-index:148--><!--z-index:149--><!--z-index:150--><!--z-index:151--><!--z-index:152--><!--z-index:153--><!--z-index:154--><!--z-index:155--><!--z-index:156--><!--z-index:157--><!--z-index:158--><!--z-index:159--><!--z-index:160--><!--z-index:161--><!--z-index:162--><!--z-index:163--><!--z-index:164--><!--z-index:165--><!--z-index:166--><!--z-index:167--><!--z-index:168--><!--z-index:169--><!--z-index:170--><!--z-index:171--><!--z-index:172--><!--z-index:173--><!--z-index:174--><!--z-index:175--><!--z-index:176--><!--z-index:177--><!--z-index:178--><!--z-index:179--><!--z-index:180--><!--z-index:181--><!--z-index:182--><!--z-index:183--><!--z-index:184--><!--z-index:185--><!--z-index:186--><!--z-index:187--><!--z-index:188--><!--z-index:189--><!--z-index:190--><!--z-index:191--><!--z-index:192--></g><g ></g><g ></g><g ></g></g></svg>