<svg xmlns="http://www.w3.org/2000/svg" xmlns:xlink="http://www.w3.org/1999/xlink" version="1.1" viewBox="0 0 1790 1340" style="background: #ffffff"><defs><style>@import url(https://fonts.googleapis.com/css2?family=Red+Hat+Display:wght@500..900);</style></defs><defs joint-selector="defs"></defs><g  joint-selector="layers" transform="matrix(1,0,0,1,0,0)"><g ></g><g ><!--z-index:-1--><!--z-index:0--><!--z-index:1--><!--z-index:2--><!--z-index:3--><!--z-index:4--><!--z-index:5--><!--z-index:6--><!--z-index:7--><!--z-index:8--><!--z-index:9--><!--z-index:10--><!--z-index:11--><g   id="j_1162"  transform="translate(20,1234)"><g id="v-14765"><image  id="v-14766" xlink:href="https://raw.githubusercontent.com/jaimeib/hosting/refs/heads/main/wattnet-logo-icon-dark-background-rounded.png" pointer-events="none" width="96" height="96"></image></g></g><!--z-index:12--><g   id="j_1161"  transform="translate(136,1303.6)"><g id="v-14763"><text  id="v-14764" font-size="22px" xml:space="preserve" y="0.8em" font-weight="normal" text-anchor="start" fill="#aaaaaa" pointer-events="none" display="block" font-family="Red Hat Display"><tspan  dy="0">Sunday, March 22, 2026 at 11:15 PM Central European Standard Time</tspan></text></g></g><!--z-index:13--><g   id="j_1160"  transform="translate(136,1277.1999999999998)"><g id="v-14761"><text  id="v-14762" font-size="22px" xml:space="preserve" y="0.8em" font-weight="normal" text-anchor="start" fill="#aaaaaa" pointer-events="none" display="block" font-family="Red Hat Display"><tspan  dy="0">© Spanish National Research Council (CSIC) | Licensed under CC BY 4.0</tspan></text></g></g><!--z-index:14--><g   id="j_1159"  transform="translate(136,1233.9999999999998)"><g id="v-14759"><text  id="v-14760" font-size="36px" xml:space="preserve" y="0.8em" font-weight="normal" text-anchor="start" fill="#000000" pointer-events="none" display="block" font-family="Red Hat Display"><tspan  dy="0">[Component] wattnet - Dashboard</tspan></text></g></g><!--z-index:15--><g   id="j_1164"  transform="translate(199,151)" style=""><g id="v-14774"><rect  id="v-14775" width="490" height="411" rx="0" ry="0" fill="#ffffff" stroke="#4b6896" stroke-width="1" stroke-dasharray="20,20" pointer-events="none"></rect><text  id="v-14776" font-size="24px" xml:space="preserve" y="372" font-weight="normal" fill="#4b6896" text-anchor="start" pointer-events="visible" font-family="Red Hat Display" transform="matrix(1,0,0,1,15,0)"><tspan  dy="0">Dashboard</tspan></text><text  id="v-14777" font-size="17px" xml:space="preserve" y="396" font-weight="normal" fill="#4b6896" text-anchor="start" pointer-events="visible" font-family="Red Hat Display" transform="matrix(1,0,0,1,15,0)"><tspan  dy="0">[Container]</tspan></text><image  id="v-14778" pointer-events="visible"></image></g></g><!--z-index:16--><g   id="j_1163"  transform="translate(219,171)" style=""><g  id="v-14767" style="opacity: 1;"><rect  id="v-14768" rx="20" ry="20" stroke="#8da0bb" stroke-width="2" pointer-events="visiblePainted" fill="#9db2d0" width="450" height="300" style="fill: rgb(157, 178, 208); stroke: rgb(141, 160, 187);"></rect><text  id="v-14769" font-size="34" xml:space="preserve" y="0.8em" font-weight="bold" text-anchor="middle" pointer-events="visible" font-family="Red Hat Display" fill="#0b1c38" transform="matrix(1,0,0,1,225,102.5)" style="fill: rgb(11, 28, 56);"><tspan  dy="0">Service</tspan></text><text  id="v-14770" font-size="17" xml:space="preserve" y="0.8em" text-anchor="middle" font-family="Red Hat Display" fill="#0b1c38" transform="matrix(1,0,0,1,225,143.3000030517578)" style="fill: rgb(11, 28, 56);"><tspan  dy="0">[Component]</tspan></text><text  id="v-14771" font-size="24" xml:space="preserve" y="0.8em" text-anchor="middle" font-family="Red Hat Display" fill="#0b1c38" transform="matrix(1,0,0,1,225,173.6999969482422)" style="fill: rgb(11, 28, 56);"><tspan  dy="0">Service description.</tspan></text><g  id="v-14772" color="#0b1c38" transform="matrix(1,0,0,1,222.5,268)" style="fill: rgb(11, 28, 56);" display="none"><g ></g><g ></g><g ></g><g ></g></g><image  id="v-14773"></image></g></g><!--z-index:17--><g   id="j_1165"  transform="translate(219,791)" style=""><g  id="v-14782" style="opacity: 1;"><rect  id="v-14783" rx="20" ry="20" stroke="#4b6896" stroke-width="2" pointer-events="visiblePainted" fill="#5374a7" width="450" height="300" style="fill: rgb(83, 116, 167); stroke: rgb(75, 104, 150);"></rect><text  id="v-14784" font-size="34" xml:space="preserve" y="0.8em" font-weight="bold" text-anchor="middle" pointer-events="visible" font-family="Red Hat Display" fill="#ffffff" transform="matrix(1,0,0,1,225,73.69999694824219)" style="fill: rgb(255, 255, 255);"><tspan  dy="0">RESTful API</tspan></text><text  id="v-14785" font-size="17" xml:space="preserve" y="0.8em" text-anchor="middle" font-family="Red Hat Display" fill="#ffffff" transform="matrix(1,0,0,1,225,114.5)" style="fill: rgb(255, 255, 255);"><tspan  dy="0">[Container: FastAPI]</tspan></text><text  id="v-14786" font-size="24" xml:space="preserve" y="0.8em" text-anchor="middle" font-family="Red Hat Display" fill="#ffffff" transform="matrix(1,0,0,1,225,144.89999389648438)" style="fill: rgb(255, 255, 255);"><tspan  dy="0">Provides a stateless standard</tspan><tspan dy="1.2em" x="0" >interface for accessing</tspan><tspan dy="1.2em" x="0" >environmental impact metrics.</tspan></text><g  id="v-14787" color="#ffffff" transform="matrix(1,0,0,1,210,268)" style="fill: rgb(255, 255, 255);" display="none"><g  transform="translate(5 0)"><svg xmlns="http://www.w3.org/2000/svg" width="20" height="20" fill="currentColor" viewBox="0 0 16 16"><path fill-rule="evenodd" d="M6.5 12a5.5 5.5 0 1 0 0-11 5.5 5.5 0 0 0 0 11zM13 6.5a6.5 6.5 0 1 1-13 0 6.5 6.5 0 0 1 13 0z"></path><path d="M10.344 11.742c.03.04.062.078.098.115l3.85 3.85a1 1 0 0 0 1.415-1.414l-3.85-3.85a1.007 1.007 0 0 0-.115-.1 6.538 6.538 0 0 1-1.398 1.4z"></path><path fill-rule="evenodd" d="M6.5 3a.5.5 0 0 1 .5.5V6h2.5a.5.5 0 0 1 0 1H7v2.5a.5.5 0 0 1-1 0V7H3.5a.5.5 0 0 1 0-1H6V3.5a.5.5 0 0 1 .5-.5z"></path></svg></g><g ></g><g ></g><g ></g></g><image  id="v-14788"></image></g></g><!--z-index:18--><g   id="j_1166"  transform="translate(1139,441)" style=""><g  id="v-14795" style="opacity: 1;"><rect  id="v-14796" rx="10" ry="10" stroke="#85b920" stroke-width="2" pointer-events="visiblePainted" fill="#94ce24" x="10" y="0" width="150" height="75" style="fill: rgb(148, 206, 36); stroke: rgb(133, 185, 32);"></rect><rect  id="v-14797" rx="5" ry="5" stroke="#85b920" stroke-width="2" pointer-events="visiblePainted" fill="#94ce24" x="0" y="37.5" width="450" height="262.5" style="fill: rgb(148, 206, 36); stroke: rgb(133, 185, 32);"></rect><text  id="v-14798" font-size="34" xml:space="preserve" y="0.8em" font-weight="bold" text-anchor="middle" pointer-events="visible" font-family="Red Hat Display" fill="#143262" transform="matrix(1,0,0,1,225,92.5)" style="fill: rgb(20, 50, 98);"><tspan  dy="0">Zone Database</tspan></text><text  id="v-14799" font-size="17" xml:space="preserve" y="0.8em" text-anchor="middle" font-family="Red Hat Display" fill="#143262" transform="matrix(1,0,0,1,225,133.3000030517578)" style="fill: rgb(20, 50, 98);"><tspan  dy="0">[Container: YAML and GEOJSON Files]</tspan></text><text  id="v-14800" font-size="24" xml:space="preserve" y="0.8em" text-anchor="middle" font-family="Red Hat Display" fill="#143262" transform="matrix(1,0,0,1,225,163.6999969482422)" style="fill: rgb(20, 50, 98);"><tspan  dy="0">Contains metadata about zones,</tspan><tspan dy="1.2em" x="0" >such as their names, EIC codes, and</tspan><tspan dy="1.2em" x="0" >geographical information.</tspan></text><g  id="v-14801" font-weight="normal" text-anchor="middle" color="#143262" transform="matrix(1,0,0,1,210,268)" style="fill: rgb(20, 50, 98);" display="none"><g  transform="translate(5 0)"><svg xmlns="http://www.w3.org/2000/svg" width="20" height="20" fill="currentColor" viewBox="0 0 16 16"><path fill-rule="evenodd" d="M6.5 12a5.5 5.5 0 1 0 0-11 5.5 5.5 0 0 0 0 11zM13 6.5a6.5 6.5 0 1 1-13 0 6.5 6.5 0 0 1 13 0z"></path><path d="M10.344 11.742c.03.04.062.078.098.115l3.85 3.85a1 1 0 0 0 1.415-1.414l-3.85-3.85a1.007 1.007 0 0 0-.115-.1 6.538 6.538 0 0 1-1.398 1.4z"></path><path fill-rule="evenodd" d="M6.5 3a.5.5 0 0 1 .5.5V6h2.5a.5.5 0 0 1 0 1H7v2.5a.5.5 0 0 1-1 0V7H3.5a.5.5 0 0 1 0-1H6V3.5a.5.5 0 0 1 .5-.5z"></path></svg></g><g ></g><g ></g><g ></g></g><image  id="v-14802"></image></g></g><!--z-index:19--><g   id="j_1167" ><path  stroke="#707070" d="M 669 387 L 1139 525" id="v-14815" stroke-width="2" stroke-dasharray="30 30" fill="none" style="opacity: 1;"></path><path  fill="black" stroke="black" d="M 0 0 0 0" transform="matrix(0.9595285058021545,0.28161144256591797,-0.28161144256591797,0.9595285058021545,669,387.0299987792969)"></path><path  fill="#707070" stroke="#707070" d="M 20 0 L 0 10 L 20 20 z" id="v-14817" transform="matrix(-0.9595285654067993,-0.2816113531589508,0.2816113531589508,-0.9595285654067993,1136.183837890625,534.5652465820312)" style="opacity: 1;"></path><path  d="M 669 387 L 1139 525" id="v-14816" fill="none" style="cursor: default;"></path><g ><g id="v-14806"  label-idx="0" cursor="move" transform="matrix(1,0,0,1,904,456)" style="cursor: default; opacity: 1;"><rect joint-selector="rect" id="v-14810" fill="#ffffff" rx="3" ry="3" pointer-events="none" width="67.37062072753906" height="31.29686450958252" transform="matrix(1,0,0,1,-33.099998474121094,-15.600000381469727)"></rect><text joint-selector="text" id="v-14809" font-size="24px" xml:space="preserve" y="0.8em" fill="#707070" text-anchor="middle" pointer-events="none" font-family="Red Hat Display" font-weight="normal" transform="matrix(1,0,0,1,0,-10.100000381469727)"><tspan  dy="0">Reads</tspan></text></g><g id="v-14807"  label-idx="1" cursor="move" transform="matrix(1,0,0,1,904,482.3999938964844)" style="cursor: default; opacity: 1;"><rect joint-selector="rect" id="v-14812" fill="#ffffff" rx="3" ry="3" pointer-events="none" width="134.65887451171875" height="21.413641929626465" transform="matrix(1,0,0,1,-66.80000305175781,-10.699999809265137)"></rect><text joint-selector="text" id="v-14811" font-size="17px" xml:space="preserve" y="0.8em" fill="#707070" text-anchor="middle" pointer-events="none" font-family="Red Hat Display" font-weight="normal" transform="matrix(1,0,0,1,0,-7.800000190734863)"><tspan  dy="0">[GEOJSON Files]</tspan></text></g><g id="v-14808"  label-idx="2" cursor="move" transform="matrix(1,0,0,1,894,490.79998779296875)" style="cursor: default; opacity: 1;"><rect joint-selector="rect" id="v-14814" fill="#ffffff" rx="3" ry="3"  width="0" height="0" transform="matrix(1,0,0,1,0,0)" display="none"></rect><text joint-selector="text" id="v-14813" fill="#000000" font-size="14" text-anchor="middle" pointer-events="none"></text></g></g><g  display="none"></g><g  id="v-14819" display="none"><g  id="v-14804"><path  end="source" d="M 26 0 L 0 13 L 26 26 z"></path></g><g  id="v-14805"><path  end="target" d="M 26 0 L 0 13 L 26 26 z"></path></g></g><g  id="v-14818" display="none"><g  id="v-14803" transform="translate(707.3798172101708, 398.26896760639056) "><g  event="remove"><circle r="11"></circle><path transform="scale(.8) translate(-16, -16)" d="M24.778,21.419 19.276,15.917 24.777,10.415 21.949,7.585 16.447,13.087 10.945,7.585 8.117,10.415 13.618,15.917 8.116,21.419 10.946,24.248 16.447,18.746 21.948,24.248z"></path><title>Remove link.</title></g><g  event="link:options"><circle r="11" transform="translate(25)"></circle><path fill="white" transform="scale(.55) translate(29, -16)" d="M31.229,17.736c0.064-0.571,0.104-1.148,0.104-1.736s-0.04-1.166-0.104-1.737l-4.377-1.557c-0.218-0.716-0.504-1.401-0.851-2.05l1.993-4.192c-0.725-0.91-1.549-1.734-2.458-2.459l-4.193,1.994c-0.647-0.347-1.334-0.632-2.049-0.849l-1.558-4.378C17.165,0.708,16.588,0.667,16,0.667s-1.166,0.041-1.737,0.105L12.707,5.15c-0.716,0.217-1.401,0.502-2.05,0.849L6.464,4.005C5.554,4.73,4.73,5.554,4.005,6.464l1.994,4.192c-0.347,0.648-0.632,1.334-0.849,2.05l-4.378,1.557C0.708,14.834,0.667,15.412,0.667,16s0.041,1.165,0.105,1.736l4.378,1.558c0.217,0.715,0.502,1.401,0.849,2.049l-1.994,4.193c0.725,0.909,1.549,1.733,2.459,2.458l4.192-1.993c0.648,0.347,1.334,0.633,2.05,0.851l1.557,4.377c0.571,0.064,1.148,0.104,1.737,0.104c0.588,0,1.165-0.04,1.736-0.104l1.558-4.377c0.715-0.218,1.399-0.504,2.049-0.851l4.193,1.993c0.909-0.725,1.733-1.549,2.458-2.458l-1.993-4.193c0.347-0.647,0.633-1.334,0.851-2.049L31.229,17.736zM16,20.871c-2.69,0-4.872-2.182-4.872-4.871c0-2.69,2.182-4.872,4.872-4.872c2.689,0,4.871,2.182,4.871,4.872C20.871,18.689,18.689,20.871,16,20.871z"></path><title>Link options.</title></g></g></g></g><!--z-index:20--><g   id="j_1168" ><path  stroke="#707070" d="M 444 471 L 444 791" id="v-14832" stroke-width="2" stroke-dasharray="30 30" fill="none" style="opacity: 1;"></path><path  fill="black" stroke="black" d="M 0 0 0 0" transform="matrix(6.123234262925839e-17,1,-1,6.123234262925839e-17,444,471)"></path><path  fill="#707070" stroke="#707070" d="M 20 0 L 0 10 L 20 20 z" id="v-14834" transform="matrix(-1.8369701465288538e-16,-1,1,-1.8369701465288538e-16,434,791)" style="opacity: 1;"></path><path  d="M 444 471 L 444 791" id="v-14833" fill="none" style="cursor: default;"></path><g ><g id="v-14823"  label-idx="0" cursor="move" transform="matrix(1,0,0,1,444,631)" style="cursor: default; opacity: 1;"><rect joint-selector="rect" id="v-14827" fill="#ffffff" rx="3" ry="3" pointer-events="none" width="91.4472427368164" height="31.29686450958252" transform="matrix(1,0,0,1,-44.900001525878906,-15.600000381469727)"></rect><text joint-selector="text" id="v-14826" font-size="24px" xml:space="preserve" y="0.8em" fill="#707070" text-anchor="middle" pointer-events="none" font-family="Red Hat Display" font-weight="normal" transform="matrix(1,0,0,1,0,-10.100000381469727)"><tspan  dy="0">Request</tspan></text></g><g id="v-14824"  label-idx="1" cursor="move" transform="matrix(1,0,0,1,444,657.4000244140625)" style="cursor: default; opacity: 1;"><rect joint-selector="rect" id="v-14829" fill="#ffffff" rx="3" ry="3" pointer-events="none" width="142.7027130126953" height="21.413641929626465" transform="matrix(1,0,0,1,-70.80000305175781,-10.699999809265137)"></rect><text joint-selector="text" id="v-14828" font-size="17px" xml:space="preserve" y="0.8em" fill="#707070" text-anchor="middle" pointer-events="none" font-family="Red Hat Display" font-weight="normal" transform="matrix(1,0,0,1,0,-7.800000190734863)"><tspan  dy="0">[api.wattnet.eu/v1]</tspan></text></g><g id="v-14825"  label-idx="2" cursor="move" transform="matrix(1,0,0,1,434,665.7999877929688)" style="cursor: default; opacity: 1;"><rect joint-selector="rect" id="v-14831" fill="#ffffff" rx="3" ry="3"  width="0" height="0" transform="matrix(1,0,0,1,0,0)" display="none"></rect><text joint-selector="text" id="v-14830" fill="#000000" font-size="14" text-anchor="middle" pointer-events="none"></text></g></g><g  display="none"></g><g  id="v-14836" display="none"><g  id="v-14821"><path  end="source" d="M 26 0 L 0 13 L 26 26 z"></path></g><g  id="v-14822"><path  end="target" d="M 26 0 L 0 13 L 26 26 z"></path></g></g><g  id="v-14835" display="none"><g  id="v-14820" transform="translate(444, 511) "><g  event="remove"><circle r="11"></circle><path transform="scale(.8) translate(-16, -16)" d="M24.778,21.419 19.276,15.917 24.777,10.415 21.949,7.585 16.447,13.087 10.945,7.585 8.117,10.415 13.618,15.917 8.116,21.419 10.946,24.248 16.447,18.746 21.948,24.248z"></path><title>Remove link.</title></g><g  event="link:options"><circle r="11" transform="translate(25)"></circle><path fill="white" transform="scale(.55) translate(29, -16)" d="M31.229,17.736c0.064-0.571,0.104-1.148,0.104-1.736s-0.04-1.166-0.104-1.737l-4.377-1.557c-0.218-0.716-0.504-1.401-0.851-2.05l1.993-4.192c-0.725-0.91-1.549-1.734-2.458-2.459l-4.193,1.994c-0.647-0.347-1.334-0.632-2.049-0.849l-1.558-4.378C17.165,0.708,16.588,0.667,16,0.667s-1.166,0.041-1.737,0.105L12.707,5.15c-0.716,0.217-1.401,0.502-2.05,0.849L6.464,4.005C5.554,4.73,4.73,5.554,4.005,6.464l1.994,4.192c-0.347,0.648-0.632,1.334-0.849,2.05l-4.378,1.557C0.708,14.834,0.667,15.412,0.667,16s0.041,1.165,0.105,1.736l4.378,1.558c0.217,0.715,0.502,1.401,0.849,2.049l-1.994,4.193c0.725,0.909,1.549,1.733,2.459,2.458l4.192-1.993c0.648,0.347,1.334,0.633,2.05,0.851l1.557,4.377c0.571,0.064,1.148,0.104,1.737,0.104c0.588,0,1.165-0.04,1.736-0.104l1.558-4.377c0.715-0.218,1.399-0.504,2.049-0.851l4.193,1.993c0.909-0.725,1.733-1.549,2.458-2.458l-1.993-4.193c0.347-0.647,0.633-1.334,0.851-2.049L31.229,17.736zM16,20.871c-2.69,0-4.872-2.182-4.872-4.871c0-2.69,2.182-4.872,4.872-4.872c2.689,0,4.871,2.182,4.871,4.872C20.871,18.689,18.689,20.871,16,20.871z"></path><title>Link options.</title></g></g></g></g><!--z-index:21--><g   id="j_1169" ><path  stroke="#707070" d="M 669 855 L 1139 677" id="v-14849" stroke-width="2" stroke-dasharray="30 30" fill="none" style="opacity: 1;"></path><path  fill="black" stroke="black" d="M 0 0 0 0" transform="matrix(0.9346514344215393,-0.35556530952453613,0.35556530952453613,0.9346514344215393,669,855.4000244140625)"></path><path  fill="#707070" stroke="#707070" d="M 20 0 L 0 10 L 20 20 z" id="v-14851" transform="matrix(-0.9346514344215393,0.35556530952453613,-0.35556530952453613,-0.9346514344215393,1142.5556640625,685.9464721679688)" style="opacity: 1;"></path><path  d="M 669 855 L 1139 677" id="v-14850" fill="none" style="cursor: default;"></path><g ><g id="v-14840"  label-idx="0" cursor="move" transform="matrix(1,0,0,1,904,766)" style="cursor: default; opacity: 1;"><rect joint-selector="rect" id="v-14844" fill="#ffffff" rx="3" ry="3" pointer-events="none" width="67.37062072753906" height="31.29686450958252" transform="matrix(1,0,0,1,-33.099998474121094,-15.600000381469727)"></rect><text joint-selector="text" id="v-14843" font-size="24px" xml:space="preserve" y="0.8em" fill="#707070" text-anchor="middle" pointer-events="none" font-family="Red Hat Display" font-weight="normal" transform="matrix(1,0,0,1,0,-10.100000381469727)"><tspan  dy="0">Reads</tspan></text></g><g id="v-14841"  label-idx="1" cursor="move" transform="matrix(1,0,0,1,904,792.4000244140625)" style="cursor: default; opacity: 1;"><rect joint-selector="rect" id="v-14846" fill="#ffffff" rx="3" ry="3" pointer-events="none" width="96.96537017822266" height="21.413641929626465" transform="matrix(1,0,0,1,-47.900001525878906,-10.699999809265137)"></rect><text joint-selector="text" id="v-14845" font-size="17px" xml:space="preserve" y="0.8em" fill="#707070" text-anchor="middle" pointer-events="none" font-family="Red Hat Display" font-weight="normal" transform="matrix(1,0,0,1,0,-7.800000190734863)"><tspan  dy="0">[YAML Files]</tspan></text></g><g id="v-14842"  label-idx="2" cursor="move" transform="matrix(1,0,0,1,894,800.7999877929688)" style="cursor: default; opacity: 1;"><rect joint-selector="rect" id="v-14848" fill="#ffffff" rx="3" ry="3"  width="0" height="0" transform="matrix(1,0,0,1,0,0)" display="none"></rect><text joint-selector="text" id="v-14847" fill="#000000" font-size="14" text-anchor="middle" pointer-events="none"></text></g></g><g  display="none"></g><g  id="v-14853" display="none"><g  id="v-14838"><path  end="source" d="M 26 0 L 0 13 L 26 26 z"></path></g><g  id="v-14839"><path  end="target" d="M 26 0 L 0 13 L 26 26 z"></path></g></g><g  id="v-14852" display="none"><g  id="v-14837" transform="translate(706.4071766854534, 840.8330267021049) "><g  event="remove"><circle r="11"></circle><path transform="scale(.8) translate(-16, -16)" d="M24.778,21.419 19.276,15.917 24.777,10.415 21.949,7.585 16.447,13.087 10.945,7.585 8.117,10.415 13.618,15.917 8.116,21.419 10.946,24.248 16.447,18.746 21.948,24.248z"></path><title>Remove link.</title></g><g  event="link:options"><circle r="11" transform="translate(25)"></circle><path fill="white" transform="scale(.55) translate(29, -16)" d="M31.229,17.736c0.064-0.571,0.104-1.148,0.104-1.736s-0.04-1.166-0.104-1.737l-4.377-1.557c-0.218-0.716-0.504-1.401-0.851-2.05l1.993-4.192c-0.725-0.91-1.549-1.734-2.458-2.459l-4.193,1.994c-0.647-0.347-1.334-0.632-2.049-0.849l-1.558-4.378C17.165,0.708,16.588,0.667,16,0.667s-1.166,0.041-1.737,0.105L12.707,5.15c-0.716,0.217-1.401,0.502-2.05,0.849L6.464,4.005C5.554,4.73,4.73,5.554,4.005,6.464l1.994,4.192c-0.347,0.648-0.632,1.334-0.849,2.05l-4.378,1.557C0.708,14.834,0.667,15.412,0.667,16s0.041,1.165,0.105,1.736l4.378,1.558c0.217,0.715,0.502,1.401,0.849,2.049l-1.994,4.193c0.725,0.909,1.549,1.733,2.459,2.458l4.192-1.993c0.648,0.347,1.334,0.633,2.05,0.851l1.557,4.377c0.571,0.064,1.148,0.104,1.737,0.104c0.588,0,1.165-0.04,1.736-0.104l1.558-4.377c0.715-0.218,1.399-0.504,2.049-0.851l4.193,1.993c0.909-0.725,1.733-1.549,2.458-2.458l-1.993-4.193c0.347-0.647,0.633-1.334,0.851-2.049L31.229,17.736zM16,20.871c-2.69,0-4.872-2.182-4.872-4.871c0-2.69,2.182-4.872,4.872-4.872c2.689,0,4.871,2.182,4.871,4.872C20.871,18.689,18.689,20.871,16,20.871z"></path><title>Link options.</title></g></g></g></g><!--z-index:22--><!--z-index:23--><!--z-index:24--><!--z-index:25--><!--z-index:26--><!--z-index:27--><!--z-index:28--><!--z-index:29--><!--z-index:30--><!--z-index:31--><!--z-index:32--><!--z-index:33--><!--z-index:34--><!--z-index:35--><!--z-index:36--><!--z-index:37--><!--z-index:38--><!--z-index:39--><!--z-index:40--><!--z-index:41--><!--z-index:42--><!--z-index:43--><!--z-index:44--><!--z-index:45--><!--z-index:46--><!--z-index:47--><!--z-index:48--><!--z-index:49--><!--z-index:50--><!--z-index:51--><!--z-index:52--><!--z-index:53--><!--z-index:54--><!--z-index:55--><!--z-index:56--><!--z-index:57--><!--z-index:58--><!--z-index:59--><!--z-index:60--><!--z-index:61--><!--z-index:62--><!--z-index:63--><!--z-index:64--><!--z-index:65--><!--z-index:66--><!--z-index:67--><!--z-index:68--><!--z-index:69--><!--z-index:70--><!--z-index:71--><!--z-index:72--><!--z-index:73--><!--z-index:74--><!--z-index:75--><!--z-index:76--><!--z-index:77--><!--z-index:78--><!--z-index:79--><!--z-index:80--><!--z-index:81--><!--z-index:82--><!--z-index:83--><!--z-index:84--><!--z-index:85--><!--z-index:86--><!--z-index:87--><!--z-index:88--><!--z-index:89--><!--z-index:90--><!--z-index:91--><!--z-index:92--><!--z-index:93--><!--z-index:94--><!--z-index:95--><!--z-index:96--><!--z-index:97--><!--z-index:98--><!--z-index:99--><!--z-index:100--><!--z-index:101--><!--z-index:102--><!--z-index:103--><!--z-index:104--><!--z-index:105--><!--z-index:106--><!--z-index:107--><!--z-index:108--><!--z-index:109--><!--z-index:110--><!--z-index:111--><!--z-index:112--><!--z-index:113--><!--z-index:114--><!--z-index:115--><!--z-index:116--><!--z-index:117--><!--z-index:118--><!--z-index:119--><!--z-index:120--><!--z-index:121--><!--z-index:122--><!--z-index:123--><!--z-index:124--><!--z-index:125--><!--z-index:126--><!--z-index:127--><!--z-index:128--><!--z-index:129--><!--z-index:130--><!--z-index:131--><!--z-index:132--><!--z-index:133--><!--z-index:134--><!--z-index:135--><!--z-index:136--><!--z-index:137--><!--z-index:138--><!--z-index:139--><!--z-index:140--><!--z-index:141--><!--z-index:142--><!--z-index:143--><!--z-index:144--><!--z-index:145--><!--z-index:146--><!--z-index:147--><!--z-index:148--><!--z-index:149--><!--z-index:150--><!--z-index:151--><!--z-index:152--><!--z-index:153--><!--z-index:154--><!--z-index:155--><!--z-index:156--><!--z-index:157--><!--z-index:158--><!--z-index:159--><!--z-index:160--><!--z-index:161--><!--z-index:162--><!--z-index:163--><!--z-index:164--><!--z-index:165--><!--z-index:166--><!--z-index:167--><!--z-index:168--><!--z-index:169--><!--z-index:170--><!--z-index:171--><!--z-index:172--><!--z-index:173--><!--z-index:174--><!--z-index:175--><!--z-index:176--><!--z-index:177--><!--z-index:178--><!--z-index:179--><!--z-index:180--><!--z-index:181--><!--z-index:182--><!--z-index:183--><!--z-index:184--><!--z-index:185--><!--z-index:186--><!--z-index:187--><!--z-index:188--><!--z-index:189--><!--z-index:190--><!--z-index:191--><!--z-index:192--></g><g ></g><g ></g><g ></g></g></svg>