<svg xmlns="http://www.w3.org/2000/svg" xmlns:xlink="http://www.w3.org/1999/xlink" version="1.1" viewBox="0 0 3494 2757" style="background: #ffffff"><defs><style>@import url(https://fonts.googleapis.com/css2?family=Red+Hat+Display:wght@500..900);</style></defs><defs joint-selector="defs"></defs><g  joint-selector="layers" transform="matrix(1,0,0,1,0,0)"><g ></g><g ><!--z-index:-1--><!--z-index:0--><!--z-index:1--><!--z-index:2--><!--z-index:3--><!--z-index:4--><!--z-index:5--><!--z-index:6--><!--z-index:7--><!--z-index:8--><!--z-index:9--><!--z-index:10--><!--z-index:11--><!--z-index:12--><!--z-index:13--><!--z-index:14--><!--z-index:15--><!--z-index:16--><!--z-index:17--><!--z-index:18--><!--z-index:19--><!--z-index:20--><!--z-index:21--><!--z-index:22--><!--z-index:23--><!--z-index:24--><!--z-index:25--><!--z-index:26--><!--z-index:27--><!--z-index:28--><!--z-index:29--><!--z-index:30--><!--z-index:31--><!--z-index:32--><!--z-index:33--><!--z-index:34--><!--z-index:35--><!--z-index:36--><!--z-index:37--><!--z-index:38--><!--z-index:39--><!--z-index:40--><!--z-index:41--><!--z-index:42--><!--z-index:43--><!--z-index:44--><!--z-index:45--><!--z-index:46--><g   id="j_17"  transform="translate(20,2651)"><g id="v-156"><image  id="v-157" xlink:href="https://raw.githubusercontent.com/jaimeib/hosting/refs/heads/main/wattnet-logo-icon-dark-background-rounded.png" pointer-events="none" width="96" height="96"></image></g></g><!--z-index:47--><g   id="j_16"  transform="translate(136,2720.6)"><g id="v-154"><text  id="v-155" font-size="22px" xml:space="preserve" y="0.8em" font-weight="normal" text-anchor="start" fill="#aaaaaa" pointer-events="none" display="block" font-family="Red Hat Display"><tspan  dy="0">Monday, March 2, 2026 at 4:03 PM Central European Standard Time</tspan></text></g></g><!--z-index:48--><g   id="j_15"  transform="translate(136,2694.2)"><g id="v-152"><text  id="v-153" font-size="22px" xml:space="preserve" y="0.8em" font-weight="normal" text-anchor="start" fill="#aaaaaa" pointer-events="none" display="block" font-family="Red Hat Display"><tspan  dy="0">© Spanish National Research Council (CSIC) | Licensed under CC BY 4.0</tspan></text></g></g><!--z-index:49--><g   id="j_14"  transform="translate(136,2651)"><g id="v-150"><text  id="v-151" font-size="36px" xml:space="preserve" y="0.8em" font-weight="normal" text-anchor="start" fill="#000000" pointer-events="none" display="block" font-family="Red Hat Display"><tspan  dy="0">[Container] wattnet</tspan></text></g></g><!--z-index:50--><g   id="j_18"  transform="translate(388,151)" style=""><g  id="v-161" style="opacity: 1;"><rect  x="0" y="160" width="400" height="240" rx="70" id="v-163" stroke="#122d58" stroke-width="2" pointer-events="visiblePainted" fill="#143262" style="fill: rgb(20, 50, 98); stroke: rgb(18, 45, 88);"></rect><circle  cx="200" cy="88.88888888888889" r="88.88888888888889" id="v-162" stroke="#122d58" stroke-width="2" pointer-events="visiblePainted" fill="#143262" style="fill: rgb(20, 50, 98); stroke: rgb(18, 45, 88);"></circle><line  x1="80" y1="266.6666666666667" x2="80" y2="400" id="v-169" stroke="#122d58" stroke-width="2" style="stroke: rgb(18, 45, 88);"></line><line  x1="320" y1="266.6666666666667" x2="320" y2="400" id="v-170" stroke="#122d58" stroke-width="2" style="stroke: rgb(18, 45, 88);"></line><text  id="v-164" font-size="34" xml:space="preserve" y="0.8em" font-weight="bold" text-anchor="middle" pointer-events="visible" font-family="Red Hat Display" fill="#ffffff" transform="matrix(1,0,0,1,200,203.6999969482422)" style="fill: rgb(255, 255, 255);"><tspan  dy="0">User</tspan></text><text  id="v-165" font-size="17" xml:space="preserve" y="0.8em" text-anchor="middle" font-family="Red Hat Display" fill="#ffffff" transform="matrix(1,0,0,1,200,244.5)" style="fill: rgb(255, 255, 255);"><tspan  dy="0">[Person]</tspan></text><text  id="v-166" font-size="24" xml:space="preserve" y="0.8em" text-anchor="middle" font-family="Red Hat Display" fill="#ffffff" transform="matrix(1,0,0,1,200,274.8999938964844)" style="fill: rgb(255, 255, 255);"><tspan  dy="0">An individual who accesses and</tspan><tspan dy="1.2em" x="0" >analyzes environmental impact</tspan><tspan dy="1.2em" x="0" >data through wattnet.</tspan></text><g  id="v-167" font-weight="normal" text-anchor="middle" color="#ffffff" transform="matrix(1,0,0,1,197.5,368)" style="fill: rgb(255, 255, 255);" display="none"><g ></g><g ></g><g ></g><g ></g></g><image  id="v-168"></image></g></g><!--z-index:51--><g   id="j_19"  transform="translate(1178,246)" style=""><g  id="v-177" style="opacity: 1;"><rect  id="v-178" rx="20" ry="20" stroke="#0a1932" stroke-width="2" pointer-events="visiblePainted" fill="#0b1c38" width="450" height="300" style="fill: rgb(11, 28, 56); stroke: rgb(10, 25, 50);"></rect><text  id="v-179" font-size="34" xml:space="preserve" y="0.8em" font-weight="bold" text-anchor="middle" pointer-events="visible" font-family="Red Hat Display" fill="#e6e6e6" transform="matrix(1,0,0,1,225,73.69999694824219)" style="fill: rgb(230, 230, 230);"><tspan  dy="0">External Consumer</tspan></text><text  id="v-180" font-size="17" xml:space="preserve" y="0.8em" text-anchor="middle" font-family="Red Hat Display" fill="#e6e6e6" transform="matrix(1,0,0,1,225,114.5)" style="fill: rgb(230, 230, 230);"><tspan  dy="0">[Software System]</tspan></text><text  id="v-181" font-size="24" xml:space="preserve" y="0.8em" text-anchor="middle" font-family="Red Hat Display" fill="#e6e6e6" transform="matrix(1,0,0,1,225,144.89999389648438)" style="fill: rgb(230, 230, 230);"><tspan  dy="0">A third-party system or service that</tspan><tspan dy="1.2em" x="0" >connects to wattnet to retrieve and</tspan><tspan dy="1.2em" x="0" >use environmental impact data.</tspan></text><g  id="v-182" color="#e6e6e6" transform="matrix(1,0,0,1,222.5,268)" style="fill: rgb(230, 230, 230);" display="none"><g ></g><g ></g><g ></g><g ></g></g><image  id="v-183"></image></g></g><!--z-index:52--><g   id="j_20"  transform="translate(2843,1081)" style=""><g  id="v-190" style="opacity: 1;"><rect  id="v-191" rx="20" ry="20" stroke="#0a1932" stroke-width="2" pointer-events="visiblePainted" fill="#0b1c38" width="450" height="300" style="fill: rgb(11, 28, 56); stroke: rgb(10, 25, 50);"></rect><text  id="v-192" font-size="34" xml:space="preserve" y="0.8em" font-weight="bold" text-anchor="middle" pointer-events="visible" font-family="Red Hat Display" fill="#e6e6e6" transform="matrix(1,0,0,1,225,73.69999694824219)" style="fill: rgb(230, 230, 230);"><tspan  dy="0">ENTSO-E Public API</tspan></text><text  id="v-193" font-size="17" xml:space="preserve" y="0.8em" text-anchor="middle" font-family="Red Hat Display" fill="#e6e6e6" transform="matrix(1,0,0,1,225,114.5)" style="fill: rgb(230, 230, 230);"><tspan  dy="0">[Software System]</tspan></text><text  id="v-194" font-size="24" xml:space="preserve" y="0.8em" text-anchor="middle" font-family="Red Hat Display" fill="#e6e6e6" transform="matrix(1,0,0,1,225,144.89999389648438)" style="fill: rgb(230, 230, 230);"><tspan  dy="0">European Network of Transmission</tspan><tspan dy="1.2em" x="0" >System Operators for Electricity</tspan><tspan dy="1.2em" x="0" >RESTful API.</tspan></text><g  id="v-195" color="#e6e6e6" transform="matrix(1,0,0,1,222.5,268)" style="fill: rgb(230, 230, 230);" display="none"><g ></g><g ></g><g ></g><g ></g></g><image  id="v-196"></image></g></g><!--z-index:53--><g   id="j_21"  transform="translate(2843,1561)" style=""><g  id="v-203" style="opacity: 1;"><rect  id="v-204" rx="20" ry="20" stroke="#0a1932" stroke-width="2" pointer-events="visiblePainted" fill="#0b1c38" width="450" height="300" style="fill: rgb(11, 28, 56); stroke: rgb(10, 25, 50);"></rect><text  id="v-205" font-size="34" xml:space="preserve" y="0.8em" font-weight="bold" text-anchor="middle" pointer-events="visible" font-family="Red Hat Display" fill="#e6e6e6" transform="matrix(1,0,0,1,225,73.69999694824219)" style="fill: rgb(230, 230, 230);"><tspan  dy="0">Elexon Insights API</tspan></text><text  id="v-206" font-size="17" xml:space="preserve" y="0.8em" text-anchor="middle" font-family="Red Hat Display" fill="#e6e6e6" transform="matrix(1,0,0,1,225,114.5)" style="fill: rgb(230, 230, 230);"><tspan  dy="0">[Software System]</tspan></text><text  id="v-207" font-size="24" xml:space="preserve" y="0.8em" text-anchor="middle" font-family="Red Hat Display" fill="#e6e6e6" transform="matrix(1,0,0,1,225,144.89999389648438)" style="fill: rgb(230, 230, 230);"><tspan  dy="0">Elexon Insights RESTful API for</tspan><tspan dy="1.2em" x="0" >operational data about the</tspan><tspan dy="1.2em" x="0" >electricity system in Great Britain.</tspan></text><g  id="v-208" color="#e6e6e6" transform="matrix(1,0,0,1,222.5,268)" style="fill: rgb(230, 230, 230);" display="none"><g ></g><g ></g><g ></g><g ></g></g><image  id="v-209"></image></g></g><!--z-index:54--><g   id="j_24"  transform="translate(323,822)" style=""><g id="v-230"><rect  id="v-231" width="2119" height="1479" rx="0" ry="0" fill="#ffffff" stroke="#1a417e" stroke-width="1" stroke-dasharray="20,20" pointer-events="none"></rect><text  id="v-232" font-size="24px" xml:space="preserve" y="1440" font-weight="normal" fill="#1a417e" text-anchor="start" pointer-events="visible" font-family="Red Hat Display" transform="matrix(1,0,0,1,15,0)"><tspan  dy="0">wattnet</tspan></text><text  id="v-233" font-size="17px" xml:space="preserve" y="1464" font-weight="normal" fill="#1a417e" text-anchor="start" pointer-events="visible" font-family="Red Hat Display" transform="matrix(1,0,0,1,15,0)"><tspan  dy="0">[Software System]</tspan></text><image  id="v-234" pointer-events="visible"></image></g></g><!--z-index:55--><g   id="j_23"  transform="translate(343,842)" style=""><g id="v-225"><rect  id="v-226" width="490" height="1368" rx="0" ry="0" fill="#ffffff" stroke="#85b920" stroke-width="1" stroke-dasharray="5,5" pointer-events="none"></rect><text  id="v-227" font-size="24px" xml:space="preserve" y="1353" font-weight="normal" fill="#94ce24" text-anchor="start" pointer-events="visible" font-family="Red Hat Display" transform="matrix(1,0,0,1,15,0)"><tspan  dy="0">Frontend</tspan></text><text  id="v-228" font-size="17px" xml:space="preserve" display="none" y="1353" font-weight="normal" fill="#94ce24" text-anchor="start" pointer-events="visible" font-family="Red Hat Display" transform="matrix(1,0,0,1,15,0)"><tspan style="fill-opacity: 0; stroke-opacity: 0;"  dy="0">-</tspan></text><image  id="v-229" pointer-events="visible"></image></g></g><!--z-index:56--><g   id="j_28"  transform="translate(1158,842)" style=""><g id="v-278"><rect  id="v-279" width="1264" height="1368" rx="0" ry="0" fill="#ffffff" stroke="#85b920" stroke-width="1" stroke-dasharray="5,5" pointer-events="none"></rect><text  id="v-280" font-size="24px" xml:space="preserve" y="1353" font-weight="normal" fill="#94ce24" text-anchor="start" pointer-events="visible" font-family="Red Hat Display" transform="matrix(1,0,0,1,15,0)"><tspan  dy="0">Backend</tspan></text><text  id="v-281" font-size="17px" xml:space="preserve" display="none" y="1353" font-weight="normal" fill="#94ce24" text-anchor="start" pointer-events="visible" font-family="Red Hat Display" transform="matrix(1,0,0,1,15,0)"><tspan style="fill-opacity: 0; stroke-opacity: 0;"  dy="0">-</tspan></text><image  id="v-282" pointer-events="visible"></image></g></g><!--z-index:57--><g   id="j_22"  transform="translate(363,862)" style=""><g  id="v-213" style="opacity: 1;"><rect  id="v-214" rx="10" ry="10" stroke="#4b6896" stroke-width="2" pointer-events="visiblePainted" fill="#4b6896" width="450" height="300" style="fill: rgb(75, 104, 150); stroke: rgb(75, 104, 150);"></rect><rect  id="v-215" rx="10" ry="10" stroke="#4b6896" stroke-width="0" pointer-events="visiblePainted" fill="#5374a7" width="430" height="250" x="10" y="40" style="fill: rgb(83, 116, 167);"></rect><ellipse  id="v-222" fill="#5374a7" cx="20" cy="20" rx="10" ry="10" style="fill: rgb(83, 116, 167);"></ellipse><ellipse  id="v-223" fill="#5374a7" cx="50" cy="20" rx="10" ry="10" style="fill: rgb(83, 116, 167);"></ellipse><ellipse  id="v-224" fill="#5374a7" cx="80" cy="20" rx="10" ry="10" style="fill: rgb(83, 116, 167);"></ellipse><rect  id="v-216" rx="10" ry="10" stroke="#444444" stroke-width="0" pointer-events="visiblePainted" fill="#5374a7" width="340" height="20" x="100" y="10" style="fill: rgb(83, 116, 167);"></rect><text  id="v-217" font-size="34" xml:space="preserve" y="0.8em" font-weight="bold" text-anchor="middle" pointer-events="visible" font-family="Red Hat Display" fill="#ffffff" transform="matrix(1,0,0,1,225,88.69999694824219)" style="fill: rgb(255, 255, 255);"><tspan  dy="0">Dashboard</tspan></text><text  id="v-218" font-size="17" xml:space="preserve" y="0.8em" text-anchor="middle" font-family="Red Hat Display" fill="#ffffff" transform="matrix(1,0,0,1,225,129.5)" style="fill: rgb(255, 255, 255);"><tspan  dy="0">[Container: Angular]</tspan></text><text  id="v-219" font-size="24" xml:space="preserve" y="0.8em" text-anchor="middle" font-family="Red Hat Display" fill="#ffffff" transform="matrix(1,0,0,1,225,159.89999389648438)" style="fill: rgb(255, 255, 255);"><tspan  dy="0">The dashboard lets you explore all</tspan><tspan dy="1.2em" x="0" >metrics in a clear, interactive, and</tspan><tspan dy="1.2em" x="0" >visually engaging interface.</tspan></text><g  id="v-220" font-weight="normal" text-anchor="middle" color="#ffffff" transform="matrix(1,0,0,1,210,258)" style="fill: rgb(255, 255, 255);" display="none"><g  transform="translate(5 0)"><svg xmlns="http://www.w3.org/2000/svg" width="20" height="20" fill="currentColor" viewBox="0 0 16 16"><path fill-rule="evenodd" d="M6.5 12a5.5 5.5 0 1 0 0-11 5.5 5.5 0 0 0 0 11zM13 6.5a6.5 6.5 0 1 1-13 0 6.5 6.5 0 0 1 13 0z"></path><path d="M10.344 11.742c.03.04.062.078.098.115l3.85 3.85a1 1 0 0 0 1.415-1.414l-3.85-3.85a1.007 1.007 0 0 0-.115-.1 6.538 6.538 0 0 1-1.398 1.4z"></path><path fill-rule="evenodd" d="M6.5 3a.5.5 0 0 1 .5.5V6h2.5a.5.5 0 0 1 0 1H7v2.5a.5.5 0 0 1-1 0V7H3.5a.5.5 0 0 1 0-1H6V3.5a.5.5 0 0 1 .5-.5z"></path></svg></g><g ></g><g ></g><g ></g></g><image  id="v-221"></image></g></g><!--z-index:58--><g   id="j_25"  transform="translate(363,1348)" style=""><g  id="v-241" style="opacity: 1;"><rect  id="v-242" rx="10" ry="10" stroke="#4d7acf" stroke-width="2" pointer-events="visiblePainted" fill="#4d7acf" width="450" height="300" style="fill: rgb(77, 122, 207); stroke: rgb(77, 122, 207);"></rect><rect  id="v-243" rx="10" ry="10" stroke="#4d7acf" stroke-width="0" pointer-events="visiblePainted" fill="#5588e6" width="430" height="250" x="10" y="40" style="fill: rgb(85, 136, 230);"></rect><ellipse  id="v-250" fill="#5588e6" cx="20" cy="20" rx="10" ry="10" style="fill: rgb(85, 136, 230);"></ellipse><ellipse  id="v-251" fill="#5588e6" cx="50" cy="20" rx="10" ry="10" style="fill: rgb(85, 136, 230);"></ellipse><ellipse  id="v-252" fill="#5588e6" cx="80" cy="20" rx="10" ry="10" style="fill: rgb(85, 136, 230);"></ellipse><rect  id="v-244" rx="10" ry="10" stroke="#444444" stroke-width="0" pointer-events="visiblePainted" fill="#5588e6" width="340" height="20" x="100" y="10" style="fill: rgb(85, 136, 230);"></rect><text  id="v-245" font-size="34" xml:space="preserve" y="0.8em" font-weight="bold" text-anchor="middle" pointer-events="visible" font-family="Red Hat Display" fill="#ffffff" transform="matrix(1,0,0,1,225,88.69999694824219)" style="fill: rgb(255, 255, 255);"><tspan  dy="0">Grafana</tspan></text><text  id="v-246" font-size="17" xml:space="preserve" y="0.8em" text-anchor="middle" font-family="Red Hat Display" fill="#ffffff" transform="matrix(1,0,0,1,225,129.5)" style="fill: rgb(255, 255, 255);"><tspan  dy="0">[Container: Docker: grafana/grafana]</tspan></text><text  id="v-247" font-size="24" xml:space="preserve" y="0.8em" text-anchor="middle" font-family="Red Hat Display" fill="#ffffff" transform="matrix(1,0,0,1,225,159.89999389648438)" style="fill: rgb(255, 255, 255);"><tspan  dy="0">Metrics visualization and</tspan><tspan dy="1.2em" x="0" >monitoring dashboards.</tspan><tspan dy="1.2em" x="0" >Only for monitoring.</tspan></text><g  id="v-248" font-weight="normal" text-anchor="middle" color="#ffffff" transform="matrix(1,0,0,1,222.5,258)" style="fill: rgb(255, 255, 255);" display="none"><g ></g><g ></g><g ></g><g ></g></g><image  id="v-249"></image></g></g><!--z-index:59--><g   id="j_26"  transform="translate(363,1836)" style=""><g  id="v-256" style="opacity: 1;"><rect  id="v-257" rx="10" ry="10" stroke="#4d7acf" stroke-width="2" pointer-events="visiblePainted" fill="#4d7acf" width="450" height="300" style="fill: rgb(77, 122, 207); stroke: rgb(77, 122, 207);"></rect><rect  id="v-258" rx="10" ry="10" stroke="#4d7acf" stroke-width="0" pointer-events="visiblePainted" fill="#5588e6" width="430" height="250" x="10" y="40" style="fill: rgb(85, 136, 230);"></rect><ellipse  id="v-265" fill="#5588e6" cx="20" cy="20" rx="10" ry="10" style="fill: rgb(85, 136, 230);"></ellipse><ellipse  id="v-266" fill="#5588e6" cx="50" cy="20" rx="10" ry="10" style="fill: rgb(85, 136, 230);"></ellipse><ellipse  id="v-267" fill="#5588e6" cx="80" cy="20" rx="10" ry="10" style="fill: rgb(85, 136, 230);"></ellipse><rect  id="v-259" rx="10" ry="10" stroke="#444444" stroke-width="0" pointer-events="visiblePainted" fill="#5588e6" width="340" height="20" x="100" y="10" style="fill: rgb(85, 136, 230);"></rect><text  id="v-260" font-size="34" xml:space="preserve" y="0.8em" font-weight="bold" text-anchor="middle" pointer-events="visible" font-family="Red Hat Display" fill="#ffffff" transform="matrix(1,0,0,1,225,103.0999984741211)" style="fill: rgb(255, 255, 255);"><tspan  dy="0">Data Tools</tspan></text><text  id="v-261" font-size="17" xml:space="preserve" y="0.8em" text-anchor="middle" font-family="Red Hat Display" fill="#ffffff" transform="matrix(1,0,0,1,225,143.89999389648438)" style="fill: rgb(255, 255, 255);"><tspan  dy="0">[Container: Python]</tspan></text><text  id="v-262" font-size="24" xml:space="preserve" y="0.8em" text-anchor="middle" font-family="Red Hat Display" fill="#ffffff" transform="matrix(1,0,0,1,225,174.3000030517578)" style="fill: rgb(255, 255, 255);"><tspan  dy="0">Command-line tools for dataset</tspan><tspan dy="1.2em" x="0" >extractor, analyzer, and visualizer.</tspan></text><g  id="v-263" font-weight="normal" text-anchor="middle" color="#ffffff" transform="matrix(1,0,0,1,222.5,258)" style="fill: rgb(255, 255, 255);" display="none"><g ></g><g ></g><g ></g><g ></g></g><image  id="v-264"></image></g></g><!--z-index:60--><g   id="j_27"  transform="translate(1178,862)" style=""><g  id="v-271" style="opacity: 1;"><rect  id="v-272" rx="20" ry="20" stroke="#4b6896" stroke-width="2" pointer-events="visiblePainted" fill="#5374a7" width="450" height="300" style="fill: rgb(83, 116, 167); stroke: rgb(75, 104, 150);"></rect><text  id="v-273" font-size="34" xml:space="preserve" y="0.8em" font-weight="bold" text-anchor="middle" pointer-events="visible" font-family="Red Hat Display" fill="#ffffff" transform="matrix(1,0,0,1,225,73.69999694824219)" style="fill: rgb(255, 255, 255);"><tspan  dy="0">RESTful API</tspan></text><text  id="v-274" font-size="17" xml:space="preserve" y="0.8em" text-anchor="middle" font-family="Red Hat Display" fill="#ffffff" transform="matrix(1,0,0,1,225,114.5)" style="fill: rgb(255, 255, 255);"><tspan  dy="0">[Container: FastAPI]</tspan></text><text  id="v-275" font-size="24" xml:space="preserve" y="0.8em" text-anchor="middle" font-family="Red Hat Display" fill="#ffffff" transform="matrix(1,0,0,1,225,144.89999389648438)" style="fill: rgb(255, 255, 255);"><tspan  dy="0">Provides a stateless standard</tspan><tspan dy="1.2em" x="0" >interface for accessing</tspan><tspan dy="1.2em" x="0" >environmental impact metrics.</tspan></text><g  id="v-276" color="#ffffff" transform="matrix(1,0,0,1,210,268)" style="fill: rgb(255, 255, 255);" display="none"><g  transform="translate(5 0)"><svg xmlns="http://www.w3.org/2000/svg" width="20" height="20" fill="currentColor" viewBox="0 0 16 16"><path fill-rule="evenodd" d="M6.5 12a5.5 5.5 0 1 0 0-11 5.5 5.5 0 0 0 0 11zM13 6.5a6.5 6.5 0 1 1-13 0 6.5 6.5 0 0 1 13 0z"></path><path d="M10.344 11.742c.03.04.062.078.098.115l3.85 3.85a1 1 0 0 0 1.415-1.414l-3.85-3.85a1.007 1.007 0 0 0-.115-.1 6.538 6.538 0 0 1-1.398 1.4z"></path><path fill-rule="evenodd" d="M6.5 3a.5.5 0 0 1 .5.5V6h2.5a.5.5 0 0 1 0 1H7v2.5a.5.5 0 0 1-1 0V7H3.5a.5.5 0 0 1 0-1H6V3.5a.5.5 0 0 1 .5-.5z"></path></svg></g><g ></g><g ></g><g ></g></g><image  id="v-277"></image></g></g><!--z-index:61--><g   id="j_29"  transform="translate(1952,1337)" style=""><g  id="v-286" style="opacity: 1;"><rect  id="v-287" rx="20" ry="20" stroke="#4b6896" stroke-width="2" pointer-events="visiblePainted" fill="#5374a7" width="450" height="300" style="fill: rgb(83, 116, 167); stroke: rgb(75, 104, 150);"></rect><text  id="v-288" font-size="34" xml:space="preserve" y="0.8em" font-weight="bold" text-anchor="middle" pointer-events="visible" font-family="Red Hat Display" fill="#ffffff" transform="matrix(1,0,0,1,225,73.69999694824219)" style="fill: rgb(255, 255, 255);"><tspan  dy="0">Core Engine</tspan></text><text  id="v-289" font-size="17" xml:space="preserve" y="0.8em" text-anchor="middle" font-family="Red Hat Display" fill="#ffffff" transform="matrix(1,0,0,1,225,114.5)" style="fill: rgb(255, 255, 255);"><tspan  dy="0">[Container: Python]</tspan></text><text  id="v-290" font-size="24" xml:space="preserve" y="0.8em" text-anchor="middle" font-family="Red Hat Display" fill="#ffffff" transform="matrix(1,0,0,1,225,144.89999389648438)" style="fill: rgb(255, 255, 255);"><tspan  dy="0">Fetch and processes electricity</tspan><tspan dy="1.2em" x="0" >generation data to compute</tspan><tspan dy="1.2em" x="0" >environmental impact metrics.</tspan></text><g  id="v-291" color="#ffffff" transform="matrix(1,0,0,1,210,268)" style="fill: rgb(255, 255, 255);" display="none"><g  transform="translate(5 0)"><svg xmlns="http://www.w3.org/2000/svg" width="20" height="20" fill="currentColor" viewBox="0 0 16 16"><path fill-rule="evenodd" d="M6.5 12a5.5 5.5 0 1 0 0-11 5.5 5.5 0 0 0 0 11zM13 6.5a6.5 6.5 0 1 1-13 0 6.5 6.5 0 0 1 13 0z"></path><path d="M10.344 11.742c.03.04.062.078.098.115l3.85 3.85a1 1 0 0 0 1.415-1.414l-3.85-3.85a1.007 1.007 0 0 0-.115-.1 6.538 6.538 0 0 1-1.398 1.4z"></path><path fill-rule="evenodd" d="M6.5 3a.5.5 0 0 1 .5.5V6h2.5a.5.5 0 0 1 0 1H7v2.5a.5.5 0 0 1-1 0V7H3.5a.5.5 0 0 1 0-1H6V3.5a.5.5 0 0 1 .5-.5z"></path></svg></g><g ></g><g ></g><g ></g></g><image  id="v-292"></image></g></g><!--z-index:62--><g   id="j_30"  transform="translate(1178,1341)" style=""><g  id="v-296" style="opacity: 1;"><rect  id="v-297" rx="20" ry="20" stroke="#4b6896" stroke-width="2" pointer-events="visiblePainted" fill="#5374a7" width="450" height="300" style="fill: rgb(83, 116, 167); stroke: rgb(75, 104, 150);"></rect><text  id="v-298" font-size="34" xml:space="preserve" y="0.8em" font-weight="bold" text-anchor="middle" pointer-events="visible" font-family="Red Hat Display" fill="#ffffff" transform="matrix(1,0,0,1,225,88.0999984741211)" style="fill: rgb(255, 255, 255);"><tspan  dy="0">Metrics Storage</tspan></text><text  id="v-299" font-size="17" xml:space="preserve" y="0.8em" text-anchor="middle" font-family="Red Hat Display" fill="#ffffff" transform="matrix(1,0,0,1,225,128.89999389648438)" style="fill: rgb(255, 255, 255);"><tspan  dy="0">[Container: Python + Docker]</tspan></text><text  id="v-300" font-size="24" xml:space="preserve" y="0.8em" text-anchor="middle" font-family="Red Hat Display" fill="#ffffff" transform="matrix(1,0,0,1,225,159.3000030517578)" style="fill: rgb(255, 255, 255);"><tspan  dy="0">System for storing and retrieving</tspan><tspan dy="1.2em" x="0" >time-series metrics data.</tspan></text><g  id="v-301" color="#ffffff" transform="matrix(1,0,0,1,210,268)" style="fill: rgb(255, 255, 255);" display="none"><g  transform="translate(5 0)"><svg xmlns="http://www.w3.org/2000/svg" width="20" height="20" fill="currentColor" viewBox="0 0 16 16"><path fill-rule="evenodd" d="M6.5 12a5.5 5.5 0 1 0 0-11 5.5 5.5 0 0 0 0 11zM13 6.5a6.5 6.5 0 1 1-13 0 6.5 6.5 0 0 1 13 0z"></path><path d="M10.344 11.742c.03.04.062.078.098.115l3.85 3.85a1 1 0 0 0 1.415-1.414l-3.85-3.85a1.007 1.007 0 0 0-.115-.1 6.538 6.538 0 0 1-1.398 1.4z"></path><path fill-rule="evenodd" d="M6.5 3a.5.5 0 0 1 .5.5V6h2.5a.5.5 0 0 1 0 1H7v2.5a.5.5 0 0 1-1 0V7H3.5a.5.5 0 0 1 0-1H6V3.5a.5.5 0 0 1 .5-.5z"></path></svg></g><g ></g><g ></g><g ></g></g><image  id="v-302"></image></g></g><!--z-index:63--><g   id="j_31"  transform="translate(1178,1836)" style=""><g  id="v-306" style="opacity: 1;"><rect  id="v-307" rx="20" ry="20" stroke="#4b6896" stroke-width="2" pointer-events="visiblePainted" fill="#5374a7" width="450" height="300" style="fill: rgb(83, 116, 167); stroke: rgb(75, 104, 150);"></rect><text  id="v-308" font-size="34" xml:space="preserve" y="0.8em" font-weight="bold" text-anchor="middle" pointer-events="visible" font-family="Red Hat Display" fill="#ffffff" transform="matrix(1,0,0,1,225,73.69999694824219)" style="fill: rgb(255, 255, 255);"><tspan  dy="0">Forecast Engine</tspan></text><text  id="v-309" font-size="17" xml:space="preserve" y="0.8em" text-anchor="middle" font-family="Red Hat Display" fill="#ffffff" transform="matrix(1,0,0,1,225,114.5)" style="fill: rgb(255, 255, 255);"><tspan  dy="0">[Container: Python]</tspan></text><text  id="v-310" font-size="24" xml:space="preserve" y="0.8em" text-anchor="middle" font-family="Red Hat Display" fill="#ffffff" transform="matrix(1,0,0,1,225,144.89999389648438)" style="fill: rgb(255, 255, 255);"><tspan  dy="0">Forecasts short-term future</tspan><tspan dy="1.2em" x="0" >environmental impact metrics</tspan><tspan dy="1.2em" x="0" >based on historical data.</tspan></text><g  id="v-311" color="#ffffff" transform="matrix(1,0,0,1,210,268)" style="fill: rgb(255, 255, 255);" display="none"><g  transform="translate(5 0)"><svg xmlns="http://www.w3.org/2000/svg" width="20" height="20" fill="currentColor" viewBox="0 0 16 16"><path fill-rule="evenodd" d="M6.5 12a5.5 5.5 0 1 0 0-11 5.5 5.5 0 0 0 0 11zM13 6.5a6.5 6.5 0 1 1-13 0 6.5 6.5 0 0 1 13 0z"></path><path d="M10.344 11.742c.03.04.062.078.098.115l3.85 3.85a1 1 0 0 0 1.415-1.414l-3.85-3.85a1.007 1.007 0 0 0-.115-.1 6.538 6.538 0 0 1-1.398 1.4z"></path><path fill-rule="evenodd" d="M6.5 3a.5.5 0 0 1 .5.5V6h2.5a.5.5 0 0 1 0 1H7v2.5a.5.5 0 0 1-1 0V7H3.5a.5.5 0 0 1 0-1H6V3.5a.5.5 0 0 1 .5-.5z"></path></svg></g><g ></g><g ></g><g ></g></g><image  id="v-312"></image></g></g><!--z-index:64--><g   id="j_32"  transform="translate(1952,862)" style=""><g  id="v-322" style="opacity: 1;"><rect  id="v-323" rx="10" ry="10" stroke="#85b920" stroke-width="2" pointer-events="visiblePainted" fill="#94ce24" x="10" y="0" width="150" height="75" style="fill: rgb(148, 206, 36); stroke: rgb(133, 185, 32);"></rect><rect  id="v-324" rx="5" ry="5" stroke="#85b920" stroke-width="2" pointer-events="visiblePainted" fill="#94ce24" x="0" y="37.5" width="450" height="262.5" style="fill: rgb(148, 206, 36); stroke: rgb(133, 185, 32);"></rect><text  id="v-325" font-size="34" xml:space="preserve" y="0.8em" font-weight="bold" text-anchor="middle" pointer-events="visible" font-family="Red Hat Display" fill="#143262" transform="matrix(1,0,0,1,225,92.5)" style="fill: rgb(20, 50, 98);"><tspan  dy="0">Impacts Database</tspan></text><text  id="v-326" font-size="17" xml:space="preserve" y="0.8em" text-anchor="middle" font-family="Red Hat Display" fill="#143262" transform="matrix(1,0,0,1,225,133.3000030517578)" style="fill: rgb(20, 50, 98);"><tspan  dy="0">[Container: Directory with YAML Files]</tspan></text><text  id="v-327" font-size="24" xml:space="preserve" y="0.8em" text-anchor="middle" font-family="Red Hat Display" fill="#143262" transform="matrix(1,0,0,1,225,163.6999969482422)" style="fill: rgb(20, 50, 98);"><tspan  dy="0">Carbon Neutrality in the UNECE</tspan><tspan dy="1.2em" x="0" >Region: Integrated Life-cycle</tspan><tspan dy="1.2em" x="0" >Assessment of Electricity Sources.</tspan></text><g  id="v-328" font-weight="normal" text-anchor="middle" color="#143262" transform="matrix(1,0,0,1,210,268)" style="fill: rgb(20, 50, 98);" display="none"><g  transform="translate(5 0)"><svg xmlns="http://www.w3.org/2000/svg" width="20" height="20" fill="currentColor" viewBox="0 0 16 16"><path fill-rule="evenodd" d="M6.5 12a5.5 5.5 0 1 0 0-11 5.5 5.5 0 0 0 0 11zM13 6.5a6.5 6.5 0 1 1-13 0 6.5 6.5 0 0 1 13 0z"></path><path d="M10.344 11.742c.03.04.062.078.098.115l3.85 3.85a1 1 0 0 0 1.415-1.414l-3.85-3.85a1.007 1.007 0 0 0-.115-.1 6.538 6.538 0 0 1-1.398 1.4z"></path><path fill-rule="evenodd" d="M6.5 3a.5.5 0 0 1 .5.5V6h2.5a.5.5 0 0 1 0 1H7v2.5a.5.5 0 0 1-1 0V7H3.5a.5.5 0 0 1 0-1H6V3.5a.5.5 0 0 1 .5-.5z"></path></svg></g><g ></g><g ></g><g ></g></g><image  id="v-329"></image></g></g><!--z-index:65--><g   id="j_33"  transform="translate(1952,1836)" style=""><g  id="v-336" style="opacity: 1;"><rect  id="v-337" rx="10" ry="10" stroke="#85b920" stroke-width="2" pointer-events="visiblePainted" fill="#94ce24" x="10" y="0" width="150" height="75" style="fill: rgb(148, 206, 36); stroke: rgb(133, 185, 32);"></rect><rect  id="v-338" rx="5" ry="5" stroke="#85b920" stroke-width="2" pointer-events="visiblePainted" fill="#94ce24" x="0" y="37.5" width="450" height="262.5" style="fill: rgb(148, 206, 36); stroke: rgb(133, 185, 32);"></rect><text  id="v-339" font-size="34" xml:space="preserve" y="0.8em" font-weight="bold" text-anchor="middle" pointer-events="visible" font-family="Red Hat Display" fill="#143262" transform="matrix(1,0,0,1,225,92.5)" style="fill: rgb(20, 50, 98);"><tspan  dy="0">Zone Database</tspan></text><text  id="v-340" font-size="17" xml:space="preserve" y="0.8em" text-anchor="middle" font-family="Red Hat Display" fill="#143262" transform="matrix(1,0,0,1,225,133.3000030517578)" style="fill: rgb(20, 50, 98);"><tspan  dy="0">[Container: YAML and GEOJSON Files]</tspan></text><text  id="v-341" font-size="24" xml:space="preserve" y="0.8em" text-anchor="middle" font-family="Red Hat Display" fill="#143262" transform="matrix(1,0,0,1,225,163.6999969482422)" style="fill: rgb(20, 50, 98);"><tspan  dy="0">Contains metadata about zones,</tspan><tspan dy="1.2em" x="0" >such as their names, EIC codes, and</tspan><tspan dy="1.2em" x="0" >geographical information.</tspan></text><g  id="v-342" font-weight="normal" text-anchor="middle" color="#143262" transform="matrix(1,0,0,1,210,268)" style="fill: rgb(20, 50, 98);" display="none"><g  transform="translate(5 0)"><svg xmlns="http://www.w3.org/2000/svg" width="20" height="20" fill="currentColor" viewBox="0 0 16 16"><path fill-rule="evenodd" d="M6.5 12a5.5 5.5 0 1 0 0-11 5.5 5.5 0 0 0 0 11zM13 6.5a6.5 6.5 0 1 1-13 0 6.5 6.5 0 0 1 13 0z"></path><path d="M10.344 11.742c.03.04.062.078.098.115l3.85 3.85a1 1 0 0 0 1.415-1.414l-3.85-3.85a1.007 1.007 0 0 0-.115-.1 6.538 6.538 0 0 1-1.398 1.4z"></path><path fill-rule="evenodd" d="M6.5 3a.5.5 0 0 1 .5.5V6h2.5a.5.5 0 0 1 0 1H7v2.5a.5.5 0 0 1-1 0V7H3.5a.5.5 0 0 1 0-1H6V3.5a.5.5 0 0 1 .5-.5z"></path></svg></g><g ></g><g ></g><g ></g></g><image  id="v-343"></image></g></g><!--z-index:66--><g   id="j_34" ><path  stroke="#707070" d="M 2177 1337 L 2177 1162" id="v-356" stroke-width="2" stroke-dasharray="30 30" fill="none" style="opacity: 1;"></path><path  fill="black" stroke="black" d="M 0 0 0 0" transform="matrix(-1.8369701465288538e-16,-1,1,-1.8369701465288538e-16,2177,1337)"></path><path  fill="#707070" stroke="#707070" d="M 20 0 L 0 10 L 20 20 z" id="v-358" transform="matrix(6.123234262925839e-17,1,-1,6.123234262925839e-17,2187,1162)" style="opacity: 1;"></path><path  d="M 2177 1337 L 2177 1162" id="v-357" fill="none" style="cursor: default;"></path><g ><g id="v-347"  label-idx="0" cursor="move" transform="matrix(1,0,0,1,2177,1249.5)" style="cursor: default; opacity: 1;"><rect joint-selector="rect" id="v-351" fill="#ffffff" rx="3" ry="3" pointer-events="none" width="68.3499984741211" height="29.999999046325684" transform="matrix(1,0,0,1,-33.099998474121094,-15)"></rect><text joint-selector="text" id="v-350" font-size="24px" xml:space="preserve" y="0.8em" fill="#707070" text-anchor="middle" pointer-events="none" font-family="Red Hat Display" font-weight="normal" transform="matrix(1,0,0,1,0,-10.199999809265137)"><tspan  dy="0">Reads</tspan></text></g><g id="v-348"  label-idx="1" cursor="move" transform="matrix(1,0,0,1,2177,1275.9000244140625)" style="cursor: default; opacity: 1;"><rect joint-selector="rect" id="v-353" fill="#ffffff" rx="3" ry="3" pointer-events="none" width="96.61666870117188" height="21.25" transform="matrix(1,0,0,1,-48,-10.600000381469727)"></rect><text joint-selector="text" id="v-352" font-size="17px" xml:space="preserve" y="0.8em" fill="#707070" text-anchor="middle" pointer-events="none" font-family="Red Hat Display" font-weight="normal" transform="matrix(1,0,0,1,0,-7.199999809265137)"><tspan  dy="0">[YAML Files]</tspan></text></g><g id="v-349"  label-idx="2" cursor="move" transform="matrix(1,0,0,1,2167,1284.300048828125)" style="cursor: default; opacity: 1;"><rect joint-selector="rect" id="v-355" fill="#ffffff" rx="3" ry="3"  width="0" height="0" transform="matrix(1,0,0,1,0,0)" display="none"></rect><text joint-selector="text" id="v-354" fill="#000000" font-size="14" text-anchor="middle" pointer-events="none"></text></g></g><g  display="none"></g><g  id="v-360" display="none"><g  id="v-345"><path  end="source" d="M 26 0 L 0 13 L 26 26 z"></path></g><g  id="v-346"><path  end="target" d="M 26 0 L 0 13 L 26 26 z"></path></g></g><g  id="v-359" display="none"><g  id="v-344" transform="translate(2177, 1297) "><g  event="remove"><circle r="11"></circle><path transform="scale(.8) translate(-16, -16)" d="M24.778,21.419 19.276,15.917 24.777,10.415 21.949,7.585 16.447,13.087 10.945,7.585 8.117,10.415 13.618,15.917 8.116,21.419 10.946,24.248 16.447,18.746 21.948,24.248z"></path><title>Remove link.</title></g><g  event="link:options"><circle r="11" transform="translate(25)"></circle><path fill="white" transform="scale(.55) translate(29, -16)" d="M31.229,17.736c0.064-0.571,0.104-1.148,0.104-1.736s-0.04-1.166-0.104-1.737l-4.377-1.557c-0.218-0.716-0.504-1.401-0.851-2.05l1.993-4.192c-0.725-0.91-1.549-1.734-2.458-2.459l-4.193,1.994c-0.647-0.347-1.334-0.632-2.049-0.849l-1.558-4.378C17.165,0.708,16.588,0.667,16,0.667s-1.166,0.041-1.737,0.105L12.707,5.15c-0.716,0.217-1.401,0.502-2.05,0.849L6.464,4.005C5.554,4.73,4.73,5.554,4.005,6.464l1.994,4.192c-0.347,0.648-0.632,1.334-0.849,2.05l-4.378,1.557C0.708,14.834,0.667,15.412,0.667,16s0.041,1.165,0.105,1.736l4.378,1.558c0.217,0.715,0.502,1.401,0.849,2.049l-1.994,4.193c0.725,0.909,1.549,1.733,2.459,2.458l4.192-1.993c0.648,0.347,1.334,0.633,2.05,0.851l1.557,4.377c0.571,0.064,1.148,0.104,1.737,0.104c0.588,0,1.165-0.04,1.736-0.104l1.558-4.377c0.715-0.218,1.399-0.504,2.049-0.851l4.193,1.993c0.909-0.725,1.733-1.549,2.458-2.458l-1.993-4.193c0.347-0.647,0.633-1.334,0.851-2.049L31.229,17.736zM16,20.871c-2.69,0-4.872-2.182-4.872-4.871c0-2.69,2.182-4.872,4.872-4.872c2.689,0,4.871,2.182,4.871,4.872C20.871,18.689,18.689,20.871,16,20.871z"></path><title>Link options.</title></g></g></g></g><!--z-index:67--><g   id="j_35" ><path  stroke="#707070" d="M 813 1496 L 1178 1493" id="v-373" stroke-width="2" stroke-dasharray="30 30" fill="none" style="opacity: 1;"></path><path  fill="black" stroke="black" d="M 0 0 0 0" transform="matrix(0.9999629855155945,-0.008602436631917953,0.008602436631917953,0.9999629855155945,813,1496.0699462890625)"></path><path  fill="#707070" stroke="#707070" d="M 20 0 L 0 10 L 20 20 z" id="v-375" transform="matrix(-0.9999629855155945,0.008602436631917953,-0.008602436631917953,-0.9999629855155945,1178.0860595703125,1502.9295654296875)" style="opacity: 1;"></path><path  d="M 813 1496 L 1178 1493" id="v-374" fill="none" style="cursor: default;"></path><g ><g id="v-364"  label-idx="0" cursor="move" transform="matrix(1,0,0,1,995.5,1494.5)" style="cursor: default; opacity: 1;"><rect joint-selector="rect" id="v-368" fill="#ffffff" rx="3" ry="3" pointer-events="none" width="86.9000015258789" height="29.999999046325684" transform="matrix(1,0,0,1,-42.29999923706055,-15)"></rect><text joint-selector="text" id="v-367" font-size="24px" xml:space="preserve" y="0.8em" fill="#707070" text-anchor="middle" pointer-events="none" font-family="Red Hat Display" font-weight="normal" transform="matrix(1,0,0,1,0,-10.199999809265137)"><tspan  dy="0">Queries</tspan></text></g><g id="v-365"  label-idx="1" cursor="move" transform="matrix(1,0,0,1,995.5,1520.9000244140625)" style="cursor: default; opacity: 1;"><rect joint-selector="rect" id="v-370" fill="#ffffff" rx="3" ry="3" pointer-events="none" width="47.068748474121094" height="21.25" transform="matrix(1,0,0,1,-23.200000762939453,-10.600000381469727)"></rect><text joint-selector="text" id="v-369" font-size="17px" xml:space="preserve" y="0.8em" fill="#707070" text-anchor="middle" pointer-events="none" font-family="Red Hat Display" font-weight="normal" transform="matrix(1,0,0,1,0,-7.199999809265137)"><tspan  dy="0">[SQL]</tspan></text></g><g id="v-366"  label-idx="2" cursor="move" transform="matrix(1,0,0,1,985.5,1529.300048828125)" style="cursor: default; opacity: 1;"><rect joint-selector="rect" id="v-372" fill="#ffffff" rx="3" ry="3"  width="0" height="0" transform="matrix(1,0,0,1,0,0)" display="none"></rect><text joint-selector="text" id="v-371" fill="#000000" font-size="14" text-anchor="middle" pointer-events="none"></text></g></g><g  display="none"></g><g  id="v-377" display="none"><g  id="v-362"><path  end="source" d="M 26 0 L 0 13 L 26 26 z"></path></g><g  id="v-363"><path  end="target" d="M 26 0 L 0 13 L 26 26 z"></path></g></g><g  id="v-376" display="none"><g  id="v-361" transform="translate(852.9986489706841, 1495.6712439810628) "><g  event="remove"><circle r="11"></circle><path transform="scale(.8) translate(-16, -16)" d="M24.778,21.419 19.276,15.917 24.777,10.415 21.949,7.585 16.447,13.087 10.945,7.585 8.117,10.415 13.618,15.917 8.116,21.419 10.946,24.248 16.447,18.746 21.948,24.248z"></path><title>Remove link.</title></g><g  event="link:options"><circle r="11" transform="translate(25)"></circle><path fill="white" transform="scale(.55) translate(29, -16)" d="M31.229,17.736c0.064-0.571,0.104-1.148,0.104-1.736s-0.04-1.166-0.104-1.737l-4.377-1.557c-0.218-0.716-0.504-1.401-0.851-2.05l1.993-4.192c-0.725-0.91-1.549-1.734-2.458-2.459l-4.193,1.994c-0.647-0.347-1.334-0.632-2.049-0.849l-1.558-4.378C17.165,0.708,16.588,0.667,16,0.667s-1.166,0.041-1.737,0.105L12.707,5.15c-0.716,0.217-1.401,0.502-2.05,0.849L6.464,4.005C5.554,4.73,4.73,5.554,4.005,6.464l1.994,4.192c-0.347,0.648-0.632,1.334-0.849,2.05l-4.378,1.557C0.708,14.834,0.667,15.412,0.667,16s0.041,1.165,0.105,1.736l4.378,1.558c0.217,0.715,0.502,1.401,0.849,2.049l-1.994,4.193c0.725,0.909,1.549,1.733,2.459,2.458l4.192-1.993c0.648,0.347,1.334,0.633,2.05,0.851l1.557,4.377c0.571,0.064,1.148,0.104,1.737,0.104c0.588,0,1.165-0.04,1.736-0.104l1.558-4.377c0.715-0.218,1.399-0.504,2.049-0.851l4.193,1.993c0.909-0.725,1.733-1.549,2.458-2.458l-1.993-4.193c0.347-0.647,0.633-1.334,0.851-2.049L31.229,17.736zM16,20.871c-2.69,0-4.872-2.182-4.872-4.871c0-2.69,2.182-4.872,4.872-4.872c2.689,0,4.871,2.182,4.871,4.872C20.871,18.689,18.689,20.871,16,20.871z"></path><title>Link options.</title></g></g></g></g><!--z-index:68--><g   id="j_36" ><path  stroke="#707070" d="M 813 1849 L 1178 1628" id="v-387" stroke-width="2" stroke-dasharray="30 30" fill="none" style="opacity: 1;"></path><path  fill="black" stroke="black" d="M 0 0 0 0" transform="matrix(0.8547117710113525,-0.5191028714179993,0.5191028714179993,0.8547117710113525,813,1849.3399658203125)"></path><path  fill="#707070" stroke="#707070" d="M 20 0 L 0 10 L 20 20 z" id="v-389" transform="matrix(-0.8547117710113525,0.5191028714179993,-0.5191028714179993,-0.8547117710113525,1183.1910400390625,1636.2071533203125)" style="opacity: 1;"></path><path  d="M 813 1849 L 1178 1628" id="v-388" fill="none" style="cursor: default;"></path><g ><g id="v-381"  label-idx="0" cursor="move" transform="matrix(1,0,0,1,995.5,1738.5)" style="cursor: default; opacity: 1;"><rect joint-selector="rect" id="v-384" fill="#ffffff" rx="3" ry="3" pointer-events="none" width="68.3499984741211" height="29.999999046325684" transform="matrix(1,0,0,1,-33.099998474121094,-15)"></rect><text joint-selector="text" id="v-383" font-size="24px" xml:space="preserve" y="0.8em" fill="#707070" text-anchor="middle" pointer-events="none" font-family="Red Hat Display" font-weight="normal" transform="matrix(1,0,0,1,0,-10.199999809265137)"><tspan  dy="0">Reads</tspan></text></g><g id="v-382"  label-idx="1" cursor="move" transform="matrix(1,0,0,1,985.5,1764.9000244140625)" style="cursor: default; opacity: 1;"><rect joint-selector="rect" id="v-386" fill="#ffffff" rx="3" ry="3"  width="0" height="0" transform="matrix(1,0,0,1,0,0)" display="none"></rect><text joint-selector="text" id="v-385" fill="#000000" font-size="14" text-anchor="middle" pointer-events="none"></text></g></g><g  display="none"></g><g  id="v-391" display="none"><g  id="v-379"><path  end="source" d="M 26 0 L 0 13 L 26 26 z"></path></g><g  id="v-380"><path  end="target" d="M 26 0 L 0 13 L 26 26 z"></path></g></g><g  id="v-390" display="none"><g  id="v-378" transform="translate(847.2167242895433, 1828.2824765260573) "><g  event="remove"><circle r="11"></circle><path transform="scale(.8) translate(-16, -16)" d="M24.778,21.419 19.276,15.917 24.777,10.415 21.949,7.585 16.447,13.087 10.945,7.585 8.117,10.415 13.618,15.917 8.116,21.419 10.946,24.248 16.447,18.746 21.948,24.248z"></path><title>Remove link.</title></g><g  event="link:options"><circle r="11" transform="translate(25)"></circle><path fill="white" transform="scale(.55) translate(29, -16)" d="M31.229,17.736c0.064-0.571,0.104-1.148,0.104-1.736s-0.04-1.166-0.104-1.737l-4.377-1.557c-0.218-0.716-0.504-1.401-0.851-2.05l1.993-4.192c-0.725-0.91-1.549-1.734-2.458-2.459l-4.193,1.994c-0.647-0.347-1.334-0.632-2.049-0.849l-1.558-4.378C17.165,0.708,16.588,0.667,16,0.667s-1.166,0.041-1.737,0.105L12.707,5.15c-0.716,0.217-1.401,0.502-2.05,0.849L6.464,4.005C5.554,4.73,4.73,5.554,4.005,6.464l1.994,4.192c-0.347,0.648-0.632,1.334-0.849,2.05l-4.378,1.557C0.708,14.834,0.667,15.412,0.667,16s0.041,1.165,0.105,1.736l4.378,1.558c0.217,0.715,0.502,1.401,0.849,2.049l-1.994,4.193c0.725,0.909,1.549,1.733,2.459,2.458l4.192-1.993c0.648,0.347,1.334,0.633,2.05,0.851l1.557,4.377c0.571,0.064,1.148,0.104,1.737,0.104c0.588,0,1.165-0.04,1.736-0.104l1.558-4.377c0.715-0.218,1.399-0.504,2.049-0.851l4.193,1.993c0.909-0.725,1.733-1.549,2.458-2.458l-1.993-4.193c0.347-0.647,0.633-1.334,0.851-2.049L31.229,17.736zM16,20.871c-2.69,0-4.872-2.182-4.872-4.871c0-2.69,2.182-4.872,4.872-4.872c2.689,0,4.871,2.182,4.871,4.872C20.871,18.689,18.689,20.871,16,20.871z"></path><title>Link options.</title></g></g></g></g><!--z-index:69--><g   id="j_37" ><path  stroke="#707070" d="M 587 2136 L 585 2361 C 585 2367.6666666666665 588.3333333333333 2371 595 2371 L 1920 2371 C 1926.6666666666665 2371 1931.6666666666665 2368.333333333333 1935 2363 L 2081 2136" id="v-406" stroke-width="2" stroke-dasharray="30 30" fill="none" style="opacity: 1;"></path><path  fill="black" stroke="black" d="M 0 0 0 0" transform="matrix(-0.007787004113197327,0.9999696612358093,-0.9999696612358093,-0.007787004113197327,586.8300170898438,2136)"></path><path  fill="#707070" stroke="#707070" d="M 20 0 L 0 10 L 20 20 z" id="v-408" transform="matrix(-0.5399935245513916,0.8416692018508911,-0.8416692018508911,-0.5399935245513916,2089.186767578125,2141.39990234375)" style="opacity: 1;"></path><path  d="M 587 2136 L 585 2361 C 585 2367.6666666666665 588.3333333333333 2371 595 2371 L 1920 2371 C 1926.6666666666665 2371 1931.6666666666665 2368.333333333333 1935 2363 L 2081 2136" id="v-407" fill="none" style="cursor: default;"></path><g ><g id="v-397"  label-idx="0" cursor="move" transform="matrix(1,0,0,1,1280.7442626953125,2371)" style="cursor: default; opacity: 1;"><rect joint-selector="rect" id="v-401" fill="#ffffff" rx="3" ry="3" pointer-events="none" width="68.3499984741211" height="29.999999046325684" transform="matrix(1,0,0,1,-33.099998474121094,-15)"></rect><text joint-selector="text" id="v-400" font-size="24px" xml:space="preserve" y="0.8em" fill="#707070" text-anchor="middle" pointer-events="none" font-family="Red Hat Display" font-weight="normal" transform="matrix(1,0,0,1,0,-10.199999809265137)"><tspan  dy="0">Reads</tspan></text></g><g id="v-398"  label-idx="1" cursor="move" transform="matrix(1,0,0,1,1280.7442626953125,2397.39990234375)" style="cursor: default; opacity: 1;"><rect joint-selector="rect" id="v-403" fill="#ffffff" rx="3" ry="3" pointer-events="none" width="134.33541870117188" height="21.25" transform="matrix(1,0,0,1,-66.80000305175781,-10.600000381469727)"></rect><text joint-selector="text" id="v-402" font-size="17px" xml:space="preserve" y="0.8em" fill="#707070" text-anchor="middle" pointer-events="none" font-family="Red Hat Display" font-weight="normal" transform="matrix(1,0,0,1,0,-7.199999809265137)"><tspan  dy="0">[GEOJSON Files]</tspan></text></g><g id="v-399"  label-idx="2" cursor="move" transform="matrix(1,0,0,1,1270.7442626953125,2405.800048828125)" style="cursor: default; opacity: 1;"><rect joint-selector="rect" id="v-405" fill="#ffffff" rx="3" ry="3"  width="0" height="0" transform="matrix(1,0,0,1,0,0)" display="none"></rect><text joint-selector="text" id="v-404" fill="#000000" font-size="14" text-anchor="middle" pointer-events="none"></text></g></g><g  display="none"><g  transform="translate(585, 2371)" id="v-393"><circle  idx="0" r="10"></circle><path  idx="0" d="M16,5.333c-7.732,0-14,4.701-14,10.5c0,1.982,0.741,3.833,2.016,5.414L2,25.667l5.613-1.441c2.339,1.317,5.237,2.107,8.387,2.107c7.732,0,14-4.701,14-10.5C30,10.034,23.732,5.333,16,5.333z" transform="translate(5, -33)"></path><path  idx="0" transform="scale(.8) translate(9.5, -37)" d="M24.778,21.419 19.276,15.917 24.777,10.415 21.949,7.585 16.447,13.087 10.945,7.585 8.117,10.415 13.618,15.917 8.116,21.419 10.946,24.248 16.447,18.746 21.948,24.248z"><title>Remove vertex.</title></path></g><g  transform="translate(1930, 2371)" id="v-394"><circle  idx="1" r="10"></circle><path  idx="1" d="M16,5.333c-7.732,0-14,4.701-14,10.5c0,1.982,0.741,3.833,2.016,5.414L2,25.667l5.613-1.441c2.339,1.317,5.237,2.107,8.387,2.107c7.732,0,14-4.701,14-10.5C30,10.034,23.732,5.333,16,5.333z" transform="translate(5, -33)"></path><path  idx="1" transform="scale(.8) translate(9.5, -37)" d="M24.778,21.419 19.276,15.917 24.777,10.415 21.949,7.585 16.447,13.087 10.945,7.585 8.117,10.415 13.618,15.917 8.116,21.419 10.946,24.248 16.447,18.746 21.948,24.248z"><title>Remove vertex.</title></path></g></g><g  id="v-410" display="none"><g  id="v-395"><path  end="source" d="M 26 0 L 0 13 L 26 26 z"></path></g><g  id="v-396"><path  end="target" d="M 26 0 L 0 13 L 26 26 z"></path></g></g><g  id="v-409" display="none"><g  id="v-392" transform="translate(586.6444584902514, 2175.9984198467246) "><g  event="remove"><circle r="11"></circle><path transform="scale(.8) translate(-16, -16)" d="M24.778,21.419 19.276,15.917 24.777,10.415 21.949,7.585 16.447,13.087 10.945,7.585 8.117,10.415 13.618,15.917 8.116,21.419 10.946,24.248 16.447,18.746 21.948,24.248z"></path><title>Remove link.</title></g><g  event="link:options"><circle r="11" transform="translate(25)"></circle><path fill="white" transform="scale(.55) translate(29, -16)" d="M31.229,17.736c0.064-0.571,0.104-1.148,0.104-1.736s-0.04-1.166-0.104-1.737l-4.377-1.557c-0.218-0.716-0.504-1.401-0.851-2.05l1.993-4.192c-0.725-0.91-1.549-1.734-2.458-2.459l-4.193,1.994c-0.647-0.347-1.334-0.632-2.049-0.849l-1.558-4.378C17.165,0.708,16.588,0.667,16,0.667s-1.166,0.041-1.737,0.105L12.707,5.15c-0.716,0.217-1.401,0.502-2.05,0.849L6.464,4.005C5.554,4.73,4.73,5.554,4.005,6.464l1.994,4.192c-0.347,0.648-0.632,1.334-0.849,2.05l-4.378,1.557C0.708,14.834,0.667,15.412,0.667,16s0.041,1.165,0.105,1.736l4.378,1.558c0.217,0.715,0.502,1.401,0.849,2.049l-1.994,4.193c0.725,0.909,1.549,1.733,2.459,2.458l4.192-1.993c0.648,0.347,1.334,0.633,2.05,0.851l1.557,4.377c0.571,0.064,1.148,0.104,1.737,0.104c0.588,0,1.165-0.04,1.736-0.104l1.558-4.377c0.715-0.218,1.399-0.504,2.049-0.851l4.193,1.993c0.909-0.725,1.733-1.549,2.458-2.458l-1.993-4.193c0.347-0.647,0.633-1.334,0.851-2.049L31.229,17.736zM16,20.871c-2.69,0-4.872-2.182-4.872-4.871c0-2.69,2.182-4.872,4.872-4.872c2.689,0,4.871,2.182,4.871,4.872C20.871,18.689,18.689,20.871,16,20.871z"></path><title>Link options.</title></g></g></g></g><!--z-index:70--><g   id="j_38" ><path  stroke="#707070" d="M 1403 1836 L 1403 1641" id="v-423" stroke-width="2" stroke-dasharray="30 30" fill="none" style="opacity: 1;"></path><path  fill="black" stroke="black" d="M 0 0 0 0" transform="matrix(-1.8369701465288538e-16,-1,1,-1.8369701465288538e-16,1403,1836)"></path><path  fill="#707070" stroke="#707070" d="M 20 0 L 0 10 L 20 20 z" id="v-425" transform="matrix(6.123234262925839e-17,1,-1,6.123234262925839e-17,1413,1641)" style="opacity: 1;"></path><path  d="M 1403 1836 L 1403 1641" id="v-424" fill="none" style="cursor: default;"></path><g ><g id="v-417"  label-idx="0" cursor="move" transform="matrix(1,0,0,1,1403,1738.5)" style="cursor: default; opacity: 1;"><rect joint-selector="rect" id="v-420" fill="#ffffff" rx="3" ry="3" pointer-events="none" width="157.89999389648438" height="29.999999046325684" transform="matrix(1,0,0,1,-77.80000305175781,-15)"></rect><text joint-selector="text" id="v-419" font-size="24px" xml:space="preserve" y="0.8em" fill="#707070" text-anchor="middle" pointer-events="none" font-family="Red Hat Display" font-weight="normal" transform="matrix(1,0,0,1,0,-10.199999809265137)"><tspan  dy="0">Reads / Writes</tspan></text></g><g id="v-418"  label-idx="1" cursor="move" transform="matrix(1,0,0,1,1393,1764.9000244140625)" style="cursor: default; opacity: 1;"><rect joint-selector="rect" id="v-422" fill="#ffffff" rx="3" ry="3"  width="0" height="0" transform="matrix(1,0,0,1,0,0)" display="none"></rect><text joint-selector="text" id="v-421" fill="#000000" font-size="14" text-anchor="middle" pointer-events="none"></text></g></g><g  display="none"></g><g  id="v-427" display="none"><g  id="v-415"><path  end="source" d="M 26 0 L 0 13 L 26 26 z"></path></g><g  id="v-416"><path  end="target" d="M 26 0 L 0 13 L 26 26 z"></path></g></g><g  id="v-426" display="none"><g  id="v-414" transform="translate(1403.0000000000002, 1796) "><g  event="remove"><circle r="11"></circle><path transform="scale(.8) translate(-16, -16)" d="M24.778,21.419 19.276,15.917 24.777,10.415 21.949,7.585 16.447,13.087 10.945,7.585 8.117,10.415 13.618,15.917 8.116,21.419 10.946,24.248 16.447,18.746 21.948,24.248z"></path><title>Remove link.</title></g><g  event="link:options"><circle r="11" transform="translate(25)"></circle><path fill="white" transform="scale(.55) translate(29, -16)" d="M31.229,17.736c0.064-0.571,0.104-1.148,0.104-1.736s-0.04-1.166-0.104-1.737l-4.377-1.557c-0.218-0.716-0.504-1.401-0.851-2.05l1.993-4.192c-0.725-0.91-1.549-1.734-2.458-2.459l-4.193,1.994c-0.647-0.347-1.334-0.632-2.049-0.849l-1.558-4.378C17.165,0.708,16.588,0.667,16,0.667s-1.166,0.041-1.737,0.105L12.707,5.15c-0.716,0.217-1.401,0.502-2.05,0.849L6.464,4.005C5.554,4.73,4.73,5.554,4.005,6.464l1.994,4.192c-0.347,0.648-0.632,1.334-0.849,2.05l-4.378,1.557C0.708,14.834,0.667,15.412,0.667,16s0.041,1.165,0.105,1.736l4.378,1.558c0.217,0.715,0.502,1.401,0.849,2.049l-1.994,4.193c0.725,0.909,1.549,1.733,2.459,2.458l4.192-1.993c0.648,0.347,1.334,0.633,2.05,0.851l1.557,4.377c0.571,0.064,1.148,0.104,1.737,0.104c0.588,0,1.165-0.04,1.736-0.104l1.558-4.377c0.715-0.218,1.399-0.504,2.049-0.851l4.193,1.993c0.909-0.725,1.733-1.549,2.458-2.458l-1.993-4.193c0.347-0.647,0.633-1.334,0.851-2.049L31.229,17.736zM16,20.871c-2.69,0-4.872-2.182-4.872-4.871c0-2.69,2.182-4.872,4.872-4.872c2.689,0,4.871,2.182,4.871,4.872C20.871,18.689,18.689,20.871,16,20.871z"></path><title>Link options.</title></g></g></g></g><!--z-index:71--><g   id="j_39" ><path  stroke="#707070" d="M 1628 1986 L 1952 1986" id="v-440" stroke-width="2" stroke-dasharray="30 30" fill="none" style="opacity: 1;"></path><path  fill="black" stroke="black" d="M 0 0 0 0" transform="matrix(1,0,0,1,1628,1986)"></path><path  fill="#707070" stroke="#707070" d="M 20 0 L 0 10 L 20 20 z" id="v-442" transform="matrix(-1,1.2246468525851679e-16,-1.2246468525851679e-16,-1,1952,1996)" style="opacity: 1;"></path><path  d="M 1628 1986 L 1952 1986" id="v-441" fill="none" style="cursor: default;"></path><g ><g id="v-431"  label-idx="0" cursor="move" transform="matrix(1,0,0,1,1790,1986)" style="cursor: default; opacity: 1;"><rect joint-selector="rect" id="v-435" fill="#ffffff" rx="3" ry="3" pointer-events="none" width="68.3499984741211" height="29.999999046325684" transform="matrix(1,0,0,1,-33.099998474121094,-15)"></rect><text joint-selector="text" id="v-434" font-size="24px" xml:space="preserve" y="0.8em" fill="#707070" text-anchor="middle" pointer-events="none" font-family="Red Hat Display" font-weight="normal" transform="matrix(1,0,0,1,0,-10.199999809265137)"><tspan  dy="0">Reads</tspan></text></g><g id="v-432"  label-idx="1" cursor="move" transform="matrix(1,0,0,1,1790,2012.4000244140625)" style="cursor: default; opacity: 1;"><rect joint-selector="rect" id="v-437" fill="#ffffff" rx="3" ry="3" pointer-events="none" width="96.61666870117188" height="21.25" transform="matrix(1,0,0,1,-48,-10.600000381469727)"></rect><text joint-selector="text" id="v-436" font-size="17px" xml:space="preserve" y="0.8em" fill="#707070" text-anchor="middle" pointer-events="none" font-family="Red Hat Display" font-weight="normal" transform="matrix(1,0,0,1,0,-7.199999809265137)"><tspan  dy="0">[YAML Files]</tspan></text></g><g id="v-433"  label-idx="2" cursor="move" transform="matrix(1,0,0,1,1780,2020.800048828125)" style="cursor: default; opacity: 1;"><rect joint-selector="rect" id="v-439" fill="#ffffff" rx="3" ry="3"  width="0" height="0" transform="matrix(1,0,0,1,0,0)" display="none"></rect><text joint-selector="text" id="v-438" fill="#000000" font-size="14" text-anchor="middle" pointer-events="none"></text></g></g><g  display="none"></g><g  id="v-444" display="none"><g  id="v-429"><path  end="source" d="M 26 0 L 0 13 L 26 26 z"></path></g><g  id="v-430"><path  end="target" d="M 26 0 L 0 13 L 26 26 z"></path></g></g><g  id="v-443" display="none"><g  id="v-428" transform="translate(1668, 1986) "><g  event="remove"><circle r="11"></circle><path transform="scale(.8) translate(-16, -16)" d="M24.778,21.419 19.276,15.917 24.777,10.415 21.949,7.585 16.447,13.087 10.945,7.585 8.117,10.415 13.618,15.917 8.116,21.419 10.946,24.248 16.447,18.746 21.948,24.248z"></path><title>Remove link.</title></g><g  event="link:options"><circle r="11" transform="translate(25)"></circle><path fill="white" transform="scale(.55) translate(29, -16)" d="M31.229,17.736c0.064-0.571,0.104-1.148,0.104-1.736s-0.04-1.166-0.104-1.737l-4.377-1.557c-0.218-0.716-0.504-1.401-0.851-2.05l1.993-4.192c-0.725-0.91-1.549-1.734-2.458-2.459l-4.193,1.994c-0.647-0.347-1.334-0.632-2.049-0.849l-1.558-4.378C17.165,0.708,16.588,0.667,16,0.667s-1.166,0.041-1.737,0.105L12.707,5.15c-0.716,0.217-1.401,0.502-2.05,0.849L6.464,4.005C5.554,4.73,4.73,5.554,4.005,6.464l1.994,4.192c-0.347,0.648-0.632,1.334-0.849,2.05l-4.378,1.557C0.708,14.834,0.667,15.412,0.667,16s0.041,1.165,0.105,1.736l4.378,1.558c0.217,0.715,0.502,1.401,0.849,2.049l-1.994,4.193c0.725,0.909,1.549,1.733,2.459,2.458l4.192-1.993c0.648,0.347,1.334,0.633,2.05,0.851l1.557,4.377c0.571,0.064,1.148,0.104,1.737,0.104c0.588,0,1.165-0.04,1.736-0.104l1.558-4.377c0.715-0.218,1.399-0.504,2.049-0.851l4.193,1.993c0.909-0.725,1.733-1.549,2.458-2.458l-1.993-4.193c0.347-0.647,0.633-1.334,0.851-2.049L31.229,17.736zM16,20.871c-2.69,0-4.872-2.182-4.872-4.871c0-2.69,2.182-4.872,4.872-4.872c2.689,0,4.871,2.182,4.871,4.872C20.871,18.689,18.689,20.871,16,20.871z"></path><title>Link options.</title></g></g></g></g><!--z-index:72--><g   id="j_40" ><path  stroke="#707070" d="M 363 1011 L 235 1011 C 228.33333333333331 1011 225 1014.3333333333333 225 1021 L 224 2461 C 223.99999999999997 2467.6666666666665 227.33333333333331 2471 234 2471 L 2155 2471 C 2161.6666666666665 2471 2165 2467.6666666666665 2165 2461 L 2173 2136" id="v-460" stroke-width="2" stroke-dasharray="30 30" fill="none" style="opacity: 1;"></path><path  fill="black" stroke="black" d="M 0 0 0 0" transform="matrix(-0.9999961853027344,-0.002753705019131303,0.002753705019131303,-0.9999961853027344,363,1011.3800048828125)"></path><path  fill="#707070" stroke="#707070" d="M 20 0 L 0 10 L 20 20 z" id="v-462" transform="matrix(-0.02473864145576954,0.9996939301490784,-0.9996939301490784,-0.02473864145576954,2183.287109375,2136.247314453125)" style="opacity: 1;"></path><path  d="M 363 1011 L 235 1011 C 228.33333333333331 1011 225 1014.3333333333333 225 1021 L 224 2461 C 223.99999999999997 2467.6666666666665 227.33333333333331 2471 234 2471 L 2155 2471 C 2161.6666666666665 2471 2165 2467.6666666666665 2165 2461 L 2173 2136" id="v-461" fill="none" style="cursor: default;"></path><g ><g id="v-451"  label-idx="0" cursor="move" transform="matrix(1,0,0,1,564.9337158203125,2471)" style="cursor: default; opacity: 1;"><rect joint-selector="rect" id="v-455" fill="#ffffff" rx="3" ry="3" pointer-events="none" width="68.3499984741211" height="29.999999046325684" transform="matrix(1,0,0,1,-33.099998474121094,-15)"></rect><text joint-selector="text" id="v-454" font-size="24px" xml:space="preserve" y="0.8em" fill="#707070" text-anchor="middle" pointer-events="none" font-family="Red Hat Display" font-weight="normal" transform="matrix(1,0,0,1,0,-10.199999809265137)"><tspan  dy="0">Reads</tspan></text></g><g id="v-452"  label-idx="1" cursor="move" transform="matrix(1,0,0,1,564.9337158203125,2497.39990234375)" style="cursor: default; opacity: 1;"><rect joint-selector="rect" id="v-457" fill="#ffffff" rx="3" ry="3" pointer-events="none" width="134.33541870117188" height="21.25" transform="matrix(1,0,0,1,-66.80000305175781,-10.600000381469727)"></rect><text joint-selector="text" id="v-456" font-size="17px" xml:space="preserve" y="0.8em" fill="#707070" text-anchor="middle" pointer-events="none" font-family="Red Hat Display" font-weight="normal" transform="matrix(1,0,0,1,0,-7.199999809265137)"><tspan  dy="0">[GEOJSON Files]</tspan></text></g><g id="v-453"  label-idx="2" cursor="move" transform="matrix(1,0,0,1,554.9337158203125,2505.800048828125)" style="cursor: default; opacity: 1;"><rect joint-selector="rect" id="v-459" fill="#ffffff" rx="3" ry="3"  width="0" height="0" transform="matrix(1,0,0,1,0,0)" display="none"></rect><text joint-selector="text" id="v-458" fill="#000000" font-size="14" text-anchor="middle" pointer-events="none"></text></g></g><g  display="none"><g  transform="translate(225, 1011)" id="v-446"><circle  idx="0" r="10"></circle><path  idx="0" d="M16,5.333c-7.732,0-14,4.701-14,10.5c0,1.982,0.741,3.833,2.016,5.414L2,25.667l5.613-1.441c2.339,1.317,5.237,2.107,8.387,2.107c7.732,0,14-4.701,14-10.5C30,10.034,23.732,5.333,16,5.333z" transform="translate(5, -33)"></path><path  idx="0" transform="scale(.8) translate(9.5, -37)" d="M24.778,21.419 19.276,15.917 24.777,10.415 21.949,7.585 16.447,13.087 10.945,7.585 8.117,10.415 13.618,15.917 8.116,21.419 10.946,24.248 16.447,18.746 21.948,24.248z"><title>Remove vertex.</title></path></g><g  transform="translate(224, 2471)" id="v-447"><circle  idx="1" r="10"></circle><path  idx="1" d="M16,5.333c-7.732,0-14,4.701-14,10.5c0,1.982,0.741,3.833,2.016,5.414L2,25.667l5.613-1.441c2.339,1.317,5.237,2.107,8.387,2.107c7.732,0,14-4.701,14-10.5C30,10.034,23.732,5.333,16,5.333z" transform="translate(5, -33)"></path><path  idx="1" transform="scale(.8) translate(9.5, -37)" d="M24.778,21.419 19.276,15.917 24.777,10.415 21.949,7.585 16.447,13.087 10.945,7.585 8.117,10.415 13.618,15.917 8.116,21.419 10.946,24.248 16.447,18.746 21.948,24.248z"><title>Remove vertex.</title></path></g><g  transform="translate(2165, 2471)" id="v-448"><circle  idx="2" r="10"></circle><path  idx="2" d="M16,5.333c-7.732,0-14,4.701-14,10.5c0,1.982,0.741,3.833,2.016,5.414L2,25.667l5.613-1.441c2.339,1.317,5.237,2.107,8.387,2.107c7.732,0,14-4.701,14-10.5C30,10.034,23.732,5.333,16,5.333z" transform="translate(5, -33)"></path><path  idx="2" transform="scale(.8) translate(9.5, -37)" d="M24.778,21.419 19.276,15.917 24.777,10.415 21.949,7.585 16.447,13.087 10.945,7.585 8.117,10.415 13.618,15.917 8.116,21.419 10.946,24.248 16.447,18.746 21.948,24.248z"><title>Remove vertex.</title></path></g></g><g  id="v-464" display="none"><g  id="v-449"><path  end="source" d="M 26 0 L 0 13 L 26 26 z"></path></g><g  id="v-450"><path  end="target" d="M 26 0 L 0 13 L 26 26 z"></path></g></g><g  id="v-463" display="none"><g  id="v-445" transform="translate(323, 1011) "><g  event="remove"><circle r="11"></circle><path transform="scale(.8) translate(-16, -16)" d="M24.778,21.419 19.276,15.917 24.777,10.415 21.949,7.585 16.447,13.087 10.945,7.585 8.117,10.415 13.618,15.917 8.116,21.419 10.946,24.248 16.447,18.746 21.948,24.248z"></path><title>Remove link.</title></g><g  event="link:options"><circle r="11" transform="translate(25)"></circle><path fill="white" transform="scale(.55) translate(29, -16)" d="M31.229,17.736c0.064-0.571,0.104-1.148,0.104-1.736s-0.04-1.166-0.104-1.737l-4.377-1.557c-0.218-0.716-0.504-1.401-0.851-2.05l1.993-4.192c-0.725-0.91-1.549-1.734-2.458-2.459l-4.193,1.994c-0.647-0.347-1.334-0.632-2.049-0.849l-1.558-4.378C17.165,0.708,16.588,0.667,16,0.667s-1.166,0.041-1.737,0.105L12.707,5.15c-0.716,0.217-1.401,0.502-2.05,0.849L6.464,4.005C5.554,4.73,4.73,5.554,4.005,6.464l1.994,4.192c-0.347,0.648-0.632,1.334-0.849,2.05l-4.378,1.557C0.708,14.834,0.667,15.412,0.667,16s0.041,1.165,0.105,1.736l4.378,1.558c0.217,0.715,0.502,1.401,0.849,2.049l-1.994,4.193c0.725,0.909,1.549,1.733,2.459,2.458l4.192-1.993c0.648,0.347,1.334,0.633,2.05,0.851l1.557,4.377c0.571,0.064,1.148,0.104,1.737,0.104c0.588,0,1.165-0.04,1.736-0.104l1.558-4.377c0.715-0.218,1.399-0.504,2.049-0.851l4.193,1.993c0.909-0.725,1.733-1.549,2.458-2.458l-1.993-4.193c0.347-0.647,0.633-1.334,0.851-2.049L31.229,17.736zM16,20.871c-2.69,0-4.872-2.182-4.872-4.871c0-2.69,2.182-4.872,4.872-4.872c2.689,0,4.871,2.182,4.871,4.872C20.871,18.689,18.689,20.871,16,20.871z"></path><title>Link options.</title></g></g></g></g><!--z-index:73--><g   id="j_41" ><path  stroke="#707070" d="M 588 551 L 588 862" id="v-477" stroke-width="2" stroke-dasharray="30 30" fill="none" style="opacity: 1;"></path><path  fill="black" stroke="black" d="M 0 0 0 0" transform="matrix(6.123234262925839e-17,1,-1,6.123234262925839e-17,588,551)"></path><path  fill="#707070" stroke="#707070" d="M 20 0 L 0 10 L 20 20 z" id="v-479" transform="matrix(-1.8369701465288538e-16,-1,1,-1.8369701465288538e-16,578,862)" style="opacity: 1;"></path><path  d="M 588 551 L 588 862" id="v-478" fill="none" style="cursor: default;"></path><g ><g id="v-468"  label-idx="0" cursor="move" transform="matrix(1,0,0,1,588,706.5)" style="cursor: default; opacity: 1;"><rect joint-selector="rect" id="v-472" fill="#ffffff" rx="3" ry="3" pointer-events="none" width="55" height="29.999999046325684" transform="matrix(1,0,0,1,-26.399999618530273,-15)"></rect><text joint-selector="text" id="v-471" font-size="24px" xml:space="preserve" y="0.8em" fill="#707070" text-anchor="middle" pointer-events="none" font-family="Red Hat Display" font-weight="normal" transform="matrix(1,0,0,1,0,-10.199999809265137)"><tspan  dy="0">Uses</tspan></text></g><g id="v-469"  label-idx="1" cursor="move" transform="matrix(1,0,0,1,588,732.9000244140625)" style="cursor: default; opacity: 1;"><rect joint-selector="rect" id="v-474" fill="#ffffff" rx="3" ry="3" pointer-events="none" width="179.2791748046875" height="21.25" transform="matrix(1,0,0,1,-89.30000305175781,-10.600000381469727)"></rect><text joint-selector="text" id="v-473" font-size="17px" xml:space="preserve" y="0.8em" fill="#707070" text-anchor="middle" pointer-events="none" font-family="Red Hat Display" font-weight="normal" transform="matrix(1,0,0,1,0,-7.199999809265137)"><tspan  dy="0">[dashboard.wattnet.eu]</tspan></text></g><g id="v-470"  label-idx="2" cursor="move" transform="matrix(1,0,0,1,578,741.2999877929688)" style="cursor: default; opacity: 1;"><rect joint-selector="rect" id="v-476" fill="#ffffff" rx="3" ry="3"  width="0" height="0" transform="matrix(1,0,0,1,0,0)" display="none"></rect><text joint-selector="text" id="v-475" fill="#000000" font-size="14" text-anchor="middle" pointer-events="none"></text></g></g><g  display="none"></g><g  id="v-481" display="none"><g  id="v-466"><path  end="source" d="M 26 0 L 0 13 L 26 26 z"></path></g><g  id="v-467"><path  end="target" d="M 26 0 L 0 13 L 26 26 z"></path></g></g><g  id="v-480" display="none"><g  id="v-465" transform="translate(587.9999999999999, 591) "><g  event="remove"><circle r="11"></circle><path transform="scale(.8) translate(-16, -16)" d="M24.778,21.419 19.276,15.917 24.777,10.415 21.949,7.585 16.447,13.087 10.945,7.585 8.117,10.415 13.618,15.917 8.116,21.419 10.946,24.248 16.447,18.746 21.948,24.248z"></path><title>Remove link.</title></g><g  event="link:options"><circle r="11" transform="translate(25)"></circle><path fill="white" transform="scale(.55) translate(29, -16)" d="M31.229,17.736c0.064-0.571,0.104-1.148,0.104-1.736s-0.04-1.166-0.104-1.737l-4.377-1.557c-0.218-0.716-0.504-1.401-0.851-2.05l1.993-4.192c-0.725-0.91-1.549-1.734-2.458-2.459l-4.193,1.994c-0.647-0.347-1.334-0.632-2.049-0.849l-1.558-4.378C17.165,0.708,16.588,0.667,16,0.667s-1.166,0.041-1.737,0.105L12.707,5.15c-0.716,0.217-1.401,0.502-2.05,0.849L6.464,4.005C5.554,4.73,4.73,5.554,4.005,6.464l1.994,4.192c-0.347,0.648-0.632,1.334-0.849,2.05l-4.378,1.557C0.708,14.834,0.667,15.412,0.667,16s0.041,1.165,0.105,1.736l4.378,1.558c0.217,0.715,0.502,1.401,0.849,2.049l-1.994,4.193c0.725,0.909,1.549,1.733,2.459,2.458l4.192-1.993c0.648,0.347,1.334,0.633,2.05,0.851l1.557,4.377c0.571,0.064,1.148,0.104,1.737,0.104c0.588,0,1.165-0.04,1.736-0.104l1.558-4.377c0.715-0.218,1.399-0.504,2.049-0.851l4.193,1.993c0.909-0.725,1.733-1.549,2.458-2.458l-1.993-4.193c0.347-0.647,0.633-1.334,0.851-2.049L31.229,17.736zM16,20.871c-2.69,0-4.872-2.182-4.872-4.871c0-2.69,2.182-4.872,4.872-4.872c2.689,0,4.871,2.182,4.871,4.872C20.871,18.689,18.689,20.871,16,20.871z"></path><title>Link options.</title></g></g></g></g><!--z-index:74--><g   id="j_42" ><path  stroke="#707070" d="M 1403 546 L 1403 862" id="v-494" stroke-width="2" stroke-dasharray="30 30" fill="none" style="opacity: 1;"></path><path  fill="black" stroke="black" d="M 0 0 0 0" transform="matrix(6.123234262925839e-17,1,-1,6.123234262925839e-17,1403,546)"></path><path  fill="#707070" stroke="#707070" d="M 20 0 L 0 10 L 20 20 z" id="v-496" transform="matrix(-1.8369701465288538e-16,-1,1,-1.8369701465288538e-16,1393,862)" style="opacity: 1;"></path><path  d="M 1403 546 L 1403 862" id="v-495" fill="none" style="cursor: default;"></path><g ><g id="v-485"  label-idx="0" cursor="move" transform="matrix(1,0,0,1,1403,704)" style="cursor: default; opacity: 1;"><rect joint-selector="rect" id="v-489" fill="#ffffff" rx="3" ry="3" pointer-events="none" width="89.74999237060547" height="29.999999046325684" transform="matrix(1,0,0,1,-44.900001525878906,-15)"></rect><text joint-selector="text" id="v-488" font-size="24px" xml:space="preserve" y="0.8em" fill="#707070" text-anchor="middle" pointer-events="none" font-family="Red Hat Display" font-weight="normal" transform="matrix(1,0,0,1,0,-10.199999809265137)"><tspan  dy="0">Request</tspan></text></g><g id="v-486"  label-idx="1" cursor="move" transform="matrix(1,0,0,1,1403,730.4000244140625)" style="cursor: default; opacity: 1;"><rect joint-selector="rect" id="v-491" fill="#ffffff" rx="3" ry="3" pointer-events="none" width="142.30416870117188" height="21.25" transform="matrix(1,0,0,1,-70.80000305175781,-10.600000381469727)"></rect><text joint-selector="text" id="v-490" font-size="17px" xml:space="preserve" y="0.8em" fill="#707070" text-anchor="middle" pointer-events="none" font-family="Red Hat Display" font-weight="normal" transform="matrix(1,0,0,1,0,-7.199999809265137)"><tspan  dy="0">[api.wattnet.eu/v1]</tspan></text></g><g id="v-487"  label-idx="2" cursor="move" transform="matrix(1,0,0,1,1393,738.7999877929688)" style="cursor: default; opacity: 1;"><rect joint-selector="rect" id="v-493" fill="#ffffff" rx="3" ry="3"  width="0" height="0" transform="matrix(1,0,0,1,0,0)" display="none"></rect><text joint-selector="text" id="v-492" fill="#000000" font-size="14" text-anchor="middle" pointer-events="none"></text></g></g><g  display="none"></g><g  id="v-498" display="none"><g  id="v-483"><path  end="source" d="M 26 0 L 0 13 L 26 26 z"></path></g><g  id="v-484"><path  end="target" d="M 26 0 L 0 13 L 26 26 z"></path></g></g><g  id="v-497" display="none"><g  id="v-482" transform="translate(1403, 586) "><g  event="remove"><circle r="11"></circle><path transform="scale(.8) translate(-16, -16)" d="M24.778,21.419 19.276,15.917 24.777,10.415 21.949,7.585 16.447,13.087 10.945,7.585 8.117,10.415 13.618,15.917 8.116,21.419 10.946,24.248 16.447,18.746 21.948,24.248z"></path><title>Remove link.</title></g><g  event="link:options"><circle r="11" transform="translate(25)"></circle><path fill="white" transform="scale(.55) translate(29, -16)" d="M31.229,17.736c0.064-0.571,0.104-1.148,0.104-1.736s-0.04-1.166-0.104-1.737l-4.377-1.557c-0.218-0.716-0.504-1.401-0.851-2.05l1.993-4.192c-0.725-0.91-1.549-1.734-2.458-2.459l-4.193,1.994c-0.647-0.347-1.334-0.632-2.049-0.849l-1.558-4.378C17.165,0.708,16.588,0.667,16,0.667s-1.166,0.041-1.737,0.105L12.707,5.15c-0.716,0.217-1.401,0.502-2.05,0.849L6.464,4.005C5.554,4.73,4.73,5.554,4.005,6.464l1.994,4.192c-0.347,0.648-0.632,1.334-0.849,2.05l-4.378,1.557C0.708,14.834,0.667,15.412,0.667,16s0.041,1.165,0.105,1.736l4.378,1.558c0.217,0.715,0.502,1.401,0.849,2.049l-1.994,4.193c0.725,0.909,1.549,1.733,2.459,2.458l4.192-1.993c0.648,0.347,1.334,0.633,2.05,0.851l1.557,4.377c0.571,0.064,1.148,0.104,1.737,0.104c0.588,0,1.165-0.04,1.736-0.104l1.558-4.377c0.715-0.218,1.399-0.504,2.049-0.851l4.193,1.993c0.909-0.725,1.733-1.549,2.458-2.458l-1.993-4.193c0.347-0.647,0.633-1.334,0.851-2.049L31.229,17.736zM16,20.871c-2.69,0-4.872-2.182-4.872-4.871c0-2.69,2.182-4.872,4.872-4.872c2.689,0,4.871,2.182,4.871,4.872C20.871,18.689,18.689,20.871,16,20.871z"></path><title>Link options.</title></g></g></g></g><!--z-index:75--><g   id="j_43" ><path  stroke="#707070" d="M 813 1012 L 1178 1012" id="v-511" stroke-width="2" stroke-dasharray="30 30" fill="none" style="opacity: 1;"></path><path  fill="black" stroke="black" d="M 0 0 0 0" transform="matrix(1,0,0,1,813,1012)"></path><path  fill="#707070" stroke="#707070" d="M 20 0 L 0 10 L 20 20 z" id="v-513" transform="matrix(-1,1.2246468525851679e-16,-1.2246468525851679e-16,-1,1178,1022)" style="opacity: 1;"></path><path  d="M 813 1012 L 1178 1012" id="v-512" fill="none" style="cursor: default;"></path><g ><g id="v-502"  label-idx="0" cursor="move" transform="matrix(1,0,0,1,995.5,1012)" style="cursor: default; opacity: 1;"><rect joint-selector="rect" id="v-506" fill="#ffffff" rx="3" ry="3" pointer-events="none" width="89.74999237060547" height="29.999999046325684" transform="matrix(1,0,0,1,-44.900001525878906,-15)"></rect><text joint-selector="text" id="v-505" font-size="24px" xml:space="preserve" y="0.8em" fill="#707070" text-anchor="middle" pointer-events="none" font-family="Red Hat Display" font-weight="normal" transform="matrix(1,0,0,1,0,-10.199999809265137)"><tspan  dy="0">Request</tspan></text></g><g id="v-503"  label-idx="1" cursor="move" transform="matrix(1,0,0,1,995.5,1038.4000244140625)" style="cursor: default; opacity: 1;"><rect joint-selector="rect" id="v-508" fill="#ffffff" rx="3" ry="3" pointer-events="none" width="142.30416870117188" height="21.25" transform="matrix(1,0,0,1,-70.80000305175781,-10.600000381469727)"></rect><text joint-selector="text" id="v-507" font-size="17px" xml:space="preserve" y="0.8em" fill="#707070" text-anchor="middle" pointer-events="none" font-family="Red Hat Display" font-weight="normal" transform="matrix(1,0,0,1,0,-7.199999809265137)"><tspan  dy="0">[api.wattnet.eu/v1]</tspan></text></g><g id="v-504"  label-idx="2" cursor="move" transform="matrix(1,0,0,1,985.5,1046.800048828125)" style="cursor: default; opacity: 1;"><rect joint-selector="rect" id="v-510" fill="#ffffff" rx="3" ry="3"  width="0" height="0" transform="matrix(1,0,0,1,0,0)" display="none"></rect><text joint-selector="text" id="v-509" fill="#000000" font-size="14" text-anchor="middle" pointer-events="none"></text></g></g><g  display="none"></g><g  id="v-515" display="none"><g  id="v-500"><path  end="source" d="M 26 0 L 0 13 L 26 26 z"></path></g><g  id="v-501"><path  end="target" d="M 26 0 L 0 13 L 26 26 z"></path></g></g><g  id="v-514" display="none"><g  id="v-499" transform="translate(853, 1012) "><g  event="remove"><circle r="11"></circle><path transform="scale(.8) translate(-16, -16)" d="M24.778,21.419 19.276,15.917 24.777,10.415 21.949,7.585 16.447,13.087 10.945,7.585 8.117,10.415 13.618,15.917 8.116,21.419 10.946,24.248 16.447,18.746 21.948,24.248z"></path><title>Remove link.</title></g><g  event="link:options"><circle r="11" transform="translate(25)"></circle><path fill="white" transform="scale(.55) translate(29, -16)" d="M31.229,17.736c0.064-0.571,0.104-1.148,0.104-1.736s-0.04-1.166-0.104-1.737l-4.377-1.557c-0.218-0.716-0.504-1.401-0.851-2.05l1.993-4.192c-0.725-0.91-1.549-1.734-2.458-2.459l-4.193,1.994c-0.647-0.347-1.334-0.632-2.049-0.849l-1.558-4.378C17.165,0.708,16.588,0.667,16,0.667s-1.166,0.041-1.737,0.105L12.707,5.15c-0.716,0.217-1.401,0.502-2.05,0.849L6.464,4.005C5.554,4.73,4.73,5.554,4.005,6.464l1.994,4.192c-0.347,0.648-0.632,1.334-0.849,2.05l-4.378,1.557C0.708,14.834,0.667,15.412,0.667,16s0.041,1.165,0.105,1.736l4.378,1.558c0.217,0.715,0.502,1.401,0.849,2.049l-1.994,4.193c0.725,0.909,1.549,1.733,2.459,2.458l4.192-1.993c0.648,0.347,1.334,0.633,2.05,0.851l1.557,4.377c0.571,0.064,1.148,0.104,1.737,0.104c0.588,0,1.165-0.04,1.736-0.104l1.558-4.377c0.715-0.218,1.399-0.504,2.049-0.851l4.193,1.993c0.909-0.725,1.733-1.549,2.458-2.458l-1.993-4.193c0.347-0.647,0.633-1.334,0.851-2.049L31.229,17.736zM16,20.871c-2.69,0-4.872-2.182-4.872-4.871c0-2.69,2.182-4.872,4.872-4.872c2.689,0,4.871,2.182,4.871,4.872C20.871,18.689,18.689,20.871,16,20.871z"></path><title>Link options.</title></g></g></g></g><!--z-index:76--><g   id="j_44" ><path  stroke="#707070" d="M 1628 1011 L 1774 1011 C 1780.6666666666665 1011 1784 1014.3333333333333 1784 1021 L 1779 1691 C 1779 1697.6666666666665 1781.6666666666665 1703 1787 1707 L 1968 1836" id="v-530" stroke-width="2" stroke-dasharray="30 30" fill="none" style="opacity: 1;"></path><path  fill="black" stroke="black" d="M 0 0 0 0" transform="matrix(0.999996542930603,-0.0026280044112354517,0.0026280044112354517,0.999996542930603,1628,1011.4099731445312)"></path><path  fill="#707070" stroke="#707070" d="M 20 0 L 0 10 L 20 20 z" id="v-532" transform="matrix(-0.8130481243133545,-0.5821964740753174,0.5821964740753174,-0.8130481243133545,1961.7080078125,1844.13037109375)" style="opacity: 1;"></path><path  d="M 1628 1011 L 1774 1011 C 1780.6666666666665 1011 1784 1014.3333333333333 1784 1021 L 1779 1691 C 1779 1697.6666666666665 1781.6666666666665 1703 1787 1707 L 1968 1836" id="v-531" fill="none" style="cursor: default;"></path><g ><g id="v-521"  label-idx="0" cursor="move" transform="matrix(1,0,0,1,1781.20654296875,1395.3192138671875)" style="cursor: default; opacity: 1;"><rect joint-selector="rect" id="v-525" fill="#ffffff" rx="3" ry="3" pointer-events="none" width="68.3499984741211" height="29.999999046325684" transform="matrix(1,0,0,1,-33.099998474121094,-15)"></rect><text joint-selector="text" id="v-524" font-size="24px" xml:space="preserve" y="0.8em" fill="#707070" text-anchor="middle" pointer-events="none" font-family="Red Hat Display" font-weight="normal" transform="matrix(1,0,0,1,0,-10.199999809265137)"><tspan  dy="0">Reads</tspan></text></g><g id="v-522"  label-idx="1" cursor="move" transform="matrix(1,0,0,1,1781.20654296875,1421.71923828125)" style="cursor: default; opacity: 1;"><rect joint-selector="rect" id="v-527" fill="#ffffff" rx="3" ry="3" pointer-events="none" width="96.61666870117188" height="21.25" transform="matrix(1,0,0,1,-48,-10.600000381469727)"></rect><text joint-selector="text" id="v-526" font-size="17px" xml:space="preserve" y="0.8em" fill="#707070" text-anchor="middle" pointer-events="none" font-family="Red Hat Display" font-weight="normal" transform="matrix(1,0,0,1,0,-7.199999809265137)"><tspan  dy="0">[YAML Files]</tspan></text></g><g id="v-523"  label-idx="2" cursor="move" transform="matrix(1,0,0,1,1771.20654296875,1430.119140625)" style="cursor: default; opacity: 1;"><rect joint-selector="rect" id="v-529" fill="#ffffff" rx="3" ry="3"  width="0" height="0" transform="matrix(1,0,0,1,0,0)" display="none"></rect><text joint-selector="text" id="v-528" fill="#000000" font-size="14" text-anchor="middle" pointer-events="none"></text></g></g><g  display="none"><g  transform="translate(1784, 1011)" id="v-517"><circle  idx="0" r="10"></circle><path  idx="0" d="M16,5.333c-7.732,0-14,4.701-14,10.5c0,1.982,0.741,3.833,2.016,5.414L2,25.667l5.613-1.441c2.339,1.317,5.237,2.107,8.387,2.107c7.732,0,14-4.701,14-10.5C30,10.034,23.732,5.333,16,5.333z" transform="translate(5, -33)"></path><path  idx="0" transform="scale(.8) translate(9.5, -37)" d="M24.778,21.419 19.276,15.917 24.777,10.415 21.949,7.585 16.447,13.087 10.945,7.585 8.117,10.415 13.618,15.917 8.116,21.419 10.946,24.248 16.447,18.746 21.948,24.248z"><title>Remove vertex.</title></path></g><g  transform="translate(1779, 1701)" id="v-518"><circle  idx="1" r="10"></circle><path  idx="1" d="M16,5.333c-7.732,0-14,4.701-14,10.5c0,1.982,0.741,3.833,2.016,5.414L2,25.667l5.613-1.441c2.339,1.317,5.237,2.107,8.387,2.107c7.732,0,14-4.701,14-10.5C30,10.034,23.732,5.333,16,5.333z" transform="translate(5, -33)"></path><path  idx="1" transform="scale(.8) translate(9.5, -37)" d="M24.778,21.419 19.276,15.917 24.777,10.415 21.949,7.585 16.447,13.087 10.945,7.585 8.117,10.415 13.618,15.917 8.116,21.419 10.946,24.248 16.447,18.746 21.948,24.248z"><title>Remove vertex.</title></path></g></g><g  id="v-534" display="none"><g  id="v-519"><path  end="source" d="M 26 0 L 0 13 L 26 26 z"></path></g><g  id="v-520"><path  end="target" d="M 26 0 L 0 13 L 26 26 z"></path></g></g><g  id="v-533" display="none"><g  id="v-516" transform="translate(1668, 1011) "><g  event="remove"><circle r="11"></circle><path transform="scale(.8) translate(-16, -16)" d="M24.778,21.419 19.276,15.917 24.777,10.415 21.949,7.585 16.447,13.087 10.945,7.585 8.117,10.415 13.618,15.917 8.116,21.419 10.946,24.248 16.447,18.746 21.948,24.248z"></path><title>Remove link.</title></g><g  event="link:options"><circle r="11" transform="translate(25)"></circle><path fill="white" transform="scale(.55) translate(29, -16)" d="M31.229,17.736c0.064-0.571,0.104-1.148,0.104-1.736s-0.04-1.166-0.104-1.737l-4.377-1.557c-0.218-0.716-0.504-1.401-0.851-2.05l1.993-4.192c-0.725-0.91-1.549-1.734-2.458-2.459l-4.193,1.994c-0.647-0.347-1.334-0.632-2.049-0.849l-1.558-4.378C17.165,0.708,16.588,0.667,16,0.667s-1.166,0.041-1.737,0.105L12.707,5.15c-0.716,0.217-1.401,0.502-2.05,0.849L6.464,4.005C5.554,4.73,4.73,5.554,4.005,6.464l1.994,4.192c-0.347,0.648-0.632,1.334-0.849,2.05l-4.378,1.557C0.708,14.834,0.667,15.412,0.667,16s0.041,1.165,0.105,1.736l4.378,1.558c0.217,0.715,0.502,1.401,0.849,2.049l-1.994,4.193c0.725,0.909,1.549,1.733,2.459,2.458l4.192-1.993c0.648,0.347,1.334,0.633,2.05,0.851l1.557,4.377c0.571,0.064,1.148,0.104,1.737,0.104c0.588,0,1.165-0.04,1.736-0.104l1.558-4.377c0.715-0.218,1.399-0.504,2.049-0.851l4.193,1.993c0.909-0.725,1.733-1.549,2.458-2.458l-1.993-4.193c0.347-0.647,0.633-1.334,0.851-2.049L31.229,17.736zM16,20.871c-2.69,0-4.872-2.182-4.872-4.871c0-2.69,2.182-4.872,4.872-4.872c2.689,0,4.871,2.182,4.871,4.872C20.871,18.689,18.689,20.871,16,20.871z"></path><title>Link options.</title></g></g></g></g><!--z-index:77--><g   id="j_45" ><path  stroke="#707070" d="M 1403 1162 L 1403 1341" id="v-544" stroke-width="2" stroke-dasharray="30 30" fill="none" style="opacity: 1;"></path><path  fill="black" stroke="black" d="M 0 0 0 0" transform="matrix(6.123234262925839e-17,1,-1,6.123234262925839e-17,1403,1162)"></path><path  fill="#707070" stroke="#707070" d="M 20 0 L 0 10 L 20 20 z" id="v-546" transform="matrix(-1.8369701465288538e-16,-1,1,-1.8369701465288538e-16,1393,1341)" style="opacity: 1;"></path><path  d="M 1403 1162 L 1403 1341" id="v-545" fill="none" style="cursor: default;"></path><g ><g id="v-538"  label-idx="0" cursor="move" transform="matrix(1,0,0,1,1403,1251.5)" style="cursor: default; opacity: 1;"><rect joint-selector="rect" id="v-541" fill="#ffffff" rx="3" ry="3" pointer-events="none" width="68.3499984741211" height="29.999999046325684" transform="matrix(1,0,0,1,-33.099998474121094,-15)"></rect><text joint-selector="text" id="v-540" font-size="24px" xml:space="preserve" y="0.8em" fill="#707070" text-anchor="middle" pointer-events="none" font-family="Red Hat Display" font-weight="normal" transform="matrix(1,0,0,1,0,-10.199999809265137)"><tspan  dy="0">Reads</tspan></text></g><g id="v-539"  label-idx="1" cursor="move" transform="matrix(1,0,0,1,1393,1277.9000244140625)" style="cursor: default; opacity: 1;"><rect joint-selector="rect" id="v-543" fill="#ffffff" rx="3" ry="3"  width="0" height="0" transform="matrix(1,0,0,1,0,0)" display="none"></rect><text joint-selector="text" id="v-542" fill="#000000" font-size="14" text-anchor="middle" pointer-events="none"></text></g></g><g  display="none"></g><g  id="v-548" display="none"><g  id="v-536"><path  end="source" d="M 26 0 L 0 13 L 26 26 z"></path></g><g  id="v-537"><path  end="target" d="M 26 0 L 0 13 L 26 26 z"></path></g></g><g  id="v-547" display="none"><g  id="v-535" transform="translate(1403, 1202) "><g  event="remove"><circle r="11"></circle><path transform="scale(.8) translate(-16, -16)" d="M24.778,21.419 19.276,15.917 24.777,10.415 21.949,7.585 16.447,13.087 10.945,7.585 8.117,10.415 13.618,15.917 8.116,21.419 10.946,24.248 16.447,18.746 21.948,24.248z"></path><title>Remove link.</title></g><g  event="link:options"><circle r="11" transform="translate(25)"></circle><path fill="white" transform="scale(.55) translate(29, -16)" d="M31.229,17.736c0.064-0.571,0.104-1.148,0.104-1.736s-0.04-1.166-0.104-1.737l-4.377-1.557c-0.218-0.716-0.504-1.401-0.851-2.05l1.993-4.192c-0.725-0.91-1.549-1.734-2.458-2.459l-4.193,1.994c-0.647-0.347-1.334-0.632-2.049-0.849l-1.558-4.378C17.165,0.708,16.588,0.667,16,0.667s-1.166,0.041-1.737,0.105L12.707,5.15c-0.716,0.217-1.401,0.502-2.05,0.849L6.464,4.005C5.554,4.73,4.73,5.554,4.005,6.464l1.994,4.192c-0.347,0.648-0.632,1.334-0.849,2.05l-4.378,1.557C0.708,14.834,0.667,15.412,0.667,16s0.041,1.165,0.105,1.736l4.378,1.558c0.217,0.715,0.502,1.401,0.849,2.049l-1.994,4.193c0.725,0.909,1.549,1.733,2.459,2.458l4.192-1.993c0.648,0.347,1.334,0.633,2.05,0.851l1.557,4.377c0.571,0.064,1.148,0.104,1.737,0.104c0.588,0,1.165-0.04,1.736-0.104l1.558-4.377c0.715-0.218,1.399-0.504,2.049-0.851l4.193,1.993c0.909-0.725,1.733-1.549,2.458-2.458l-1.993-4.193c0.347-0.647,0.633-1.334,0.851-2.049L31.229,17.736zM16,20.871c-2.69,0-4.872-2.182-4.872-4.871c0-2.69,2.182-4.872,4.872-4.872c2.689,0,4.871,2.182,4.871,4.872C20.871,18.689,18.689,20.871,16,20.871z"></path><title>Link options.</title></g></g></g></g><!--z-index:78--><g   id="j_46" ><path  stroke="#707070" d="M 1952 1488 L 1628 1490" id="v-561" stroke-width="2" stroke-dasharray="30 30" fill="none" style="opacity: 1;"></path><path  fill="black" stroke="black" d="M 0 0 0 0" transform="matrix(-0.9999865293502808,0.005185151472687721,-0.005185151472687721,-0.9999865293502808,1952,1488.1600341796875)"></path><path  fill="#707070" stroke="#707070" d="M 20 0 L 0 10 L 20 20 z" id="v-563" transform="matrix(0.9999865293502808,-0.005185151472687721,0.005185151472687721,0.9999865293502808,1627.9481201171875,1479.8402099609375)" style="opacity: 1;"></path><path  d="M 1952 1488 L 1628 1490" id="v-562" fill="none" style="cursor: default;"></path><g ><g id="v-555"  label-idx="0" cursor="move" transform="matrix(1,0,0,1,1790,1489)" style="cursor: default; opacity: 1;"><rect joint-selector="rect" id="v-558" fill="#ffffff" rx="3" ry="3" pointer-events="none" width="157.89999389648438" height="29.999999046325684" transform="matrix(1,0,0,1,-77.80000305175781,-15)"></rect><text joint-selector="text" id="v-557" font-size="24px" xml:space="preserve" y="0.8em" fill="#707070" text-anchor="middle" pointer-events="none" font-family="Red Hat Display" font-weight="normal" transform="matrix(1,0,0,1,0,-10.199999809265137)"><tspan  dy="0">Reads / Writes</tspan></text></g><g id="v-556"  label-idx="1" cursor="move" transform="matrix(1,0,0,1,1780,1515.4000244140625)" style="cursor: default; opacity: 1;"><rect joint-selector="rect" id="v-560" fill="#ffffff" rx="3" ry="3"  width="0" height="0" transform="matrix(1,0,0,1,0,0)" display="none"></rect><text joint-selector="text" id="v-559" fill="#000000" font-size="14" text-anchor="middle" pointer-events="none"></text></g></g><g  display="none"></g><g  id="v-565" display="none"><g  id="v-553"><path  end="source" d="M 26 0 L 0 13 L 26 26 z"></path></g><g  id="v-554"><path  end="target" d="M 26 0 L 0 13 L 26 26 z"></path></g></g><g  id="v-564" display="none"><g  id="v-552" transform="translate(1912.0007620571735, 1488.2469088761902) "><g  event="remove"><circle r="11"></circle><path transform="scale(.8) translate(-16, -16)" d="M24.778,21.419 19.276,15.917 24.777,10.415 21.949,7.585 16.447,13.087 10.945,7.585 8.117,10.415 13.618,15.917 8.116,21.419 10.946,24.248 16.447,18.746 21.948,24.248z"></path><title>Remove link.</title></g><g  event="link:options"><circle r="11" transform="translate(25)"></circle><path fill="white" transform="scale(.55) translate(29, -16)" d="M31.229,17.736c0.064-0.571,0.104-1.148,0.104-1.736s-0.04-1.166-0.104-1.737l-4.377-1.557c-0.218-0.716-0.504-1.401-0.851-2.05l1.993-4.192c-0.725-0.91-1.549-1.734-2.458-2.459l-4.193,1.994c-0.647-0.347-1.334-0.632-2.049-0.849l-1.558-4.378C17.165,0.708,16.588,0.667,16,0.667s-1.166,0.041-1.737,0.105L12.707,5.15c-0.716,0.217-1.401,0.502-2.05,0.849L6.464,4.005C5.554,4.73,4.73,5.554,4.005,6.464l1.994,4.192c-0.347,0.648-0.632,1.334-0.849,2.05l-4.378,1.557C0.708,14.834,0.667,15.412,0.667,16s0.041,1.165,0.105,1.736l4.378,1.558c0.217,0.715,0.502,1.401,0.849,2.049l-1.994,4.193c0.725,0.909,1.549,1.733,2.459,2.458l4.192-1.993c0.648,0.347,1.334,0.633,2.05,0.851l1.557,4.377c0.571,0.064,1.148,0.104,1.737,0.104c0.588,0,1.165-0.04,1.736-0.104l1.558-4.377c0.715-0.218,1.399-0.504,2.049-0.851l4.193,1.993c0.909-0.725,1.733-1.549,2.458-2.458l-1.993-4.193c0.347-0.647,0.633-1.334,0.851-2.049L31.229,17.736zM16,20.871c-2.69,0-4.872-2.182-4.872-4.871c0-2.69,2.182-4.872,4.872-4.872c2.689,0,4.871,2.182,4.871,4.872C20.871,18.689,18.689,20.871,16,20.871z"></path><title>Link options.</title></g></g></g></g><!--z-index:79--><g   id="j_47" ><path  stroke="#707070" d="M 2177 1637 L 2177 1836" id="v-578" stroke-width="2" stroke-dasharray="30 30" fill="none" style="opacity: 1;"></path><path  fill="black" stroke="black" d="M 0 0 0 0" transform="matrix(6.123234262925839e-17,1,-1,6.123234262925839e-17,2177,1637)"></path><path  fill="#707070" stroke="#707070" d="M 20 0 L 0 10 L 20 20 z" id="v-580" transform="matrix(-1.8369701465288538e-16,-1,1,-1.8369701465288538e-16,2167,1836)" style="opacity: 1;"></path><path  d="M 2177 1637 L 2177 1836" id="v-579" fill="none" style="cursor: default;"></path><g ><g id="v-569"  label-idx="0" cursor="move" transform="matrix(1,0,0,1,2177,1736.5)" style="cursor: default; opacity: 1;"><rect joint-selector="rect" id="v-573" fill="#ffffff" rx="3" ry="3" pointer-events="none" width="68.3499984741211" height="29.999999046325684" transform="matrix(1,0,0,1,-33.099998474121094,-15)"></rect><text joint-selector="text" id="v-572" font-size="24px" xml:space="preserve" y="0.8em" fill="#707070" text-anchor="middle" pointer-events="none" font-family="Red Hat Display" font-weight="normal" transform="matrix(1,0,0,1,0,-10.199999809265137)"><tspan  dy="0">Reads</tspan></text></g><g id="v-570"  label-idx="1" cursor="move" transform="matrix(1,0,0,1,2177,1762.9000244140625)" style="cursor: default; opacity: 1;"><rect joint-selector="rect" id="v-575" fill="#ffffff" rx="3" ry="3" pointer-events="none" width="96.61666870117188" height="21.25" transform="matrix(1,0,0,1,-48,-10.600000381469727)"></rect><text joint-selector="text" id="v-574" font-size="17px" xml:space="preserve" y="0.8em" fill="#707070" text-anchor="middle" pointer-events="none" font-family="Red Hat Display" font-weight="normal" transform="matrix(1,0,0,1,0,-7.199999809265137)"><tspan  dy="0">[YAML Files]</tspan></text></g><g id="v-571"  label-idx="2" cursor="move" transform="matrix(1,0,0,1,2167,1771.300048828125)" style="cursor: default; opacity: 1;"><rect joint-selector="rect" id="v-577" fill="#ffffff" rx="3" ry="3"  width="0" height="0" transform="matrix(1,0,0,1,0,0)" display="none"></rect><text joint-selector="text" id="v-576" fill="#000000" font-size="14" text-anchor="middle" pointer-events="none"></text></g></g><g  display="none"></g><g  id="v-582" display="none"><g  id="v-567"><path  end="source" d="M 26 0 L 0 13 L 26 26 z"></path></g><g  id="v-568"><path  end="target" d="M 26 0 L 0 13 L 26 26 z"></path></g></g><g  id="v-581" display="none"><g  id="v-566" transform="translate(2177, 1677) "><g  event="remove"><circle r="11"></circle><path transform="scale(.8) translate(-16, -16)" d="M24.778,21.419 19.276,15.917 24.777,10.415 21.949,7.585 16.447,13.087 10.945,7.585 8.117,10.415 13.618,15.917 8.116,21.419 10.946,24.248 16.447,18.746 21.948,24.248z"></path><title>Remove link.</title></g><g  event="link:options"><circle r="11" transform="translate(25)"></circle><path fill="white" transform="scale(.55) translate(29, -16)" d="M31.229,17.736c0.064-0.571,0.104-1.148,0.104-1.736s-0.04-1.166-0.104-1.737l-4.377-1.557c-0.218-0.716-0.504-1.401-0.851-2.05l1.993-4.192c-0.725-0.91-1.549-1.734-2.458-2.459l-4.193,1.994c-0.647-0.347-1.334-0.632-2.049-0.849l-1.558-4.378C17.165,0.708,16.588,0.667,16,0.667s-1.166,0.041-1.737,0.105L12.707,5.15c-0.716,0.217-1.401,0.502-2.05,0.849L6.464,4.005C5.554,4.73,4.73,5.554,4.005,6.464l1.994,4.192c-0.347,0.648-0.632,1.334-0.849,2.05l-4.378,1.557C0.708,14.834,0.667,15.412,0.667,16s0.041,1.165,0.105,1.736l4.378,1.558c0.217,0.715,0.502,1.401,0.849,2.049l-1.994,4.193c0.725,0.909,1.549,1.733,2.459,2.458l4.192-1.993c0.648,0.347,1.334,0.633,2.05,0.851l1.557,4.377c0.571,0.064,1.148,0.104,1.737,0.104c0.588,0,1.165-0.04,1.736-0.104l1.558-4.377c0.715-0.218,1.399-0.504,2.049-0.851l4.193,1.993c0.909-0.725,1.733-1.549,2.458-2.458l-1.993-4.193c0.347-0.647,0.633-1.334,0.851-2.049L31.229,17.736zM16,20.871c-2.69,0-4.872-2.182-4.872-4.871c0-2.69,2.182-4.872,4.872-4.872c2.689,0,4.871,2.182,4.871,4.872C20.871,18.689,18.689,20.871,16,20.871z"></path><title>Link options.</title></g></g></g></g><!--z-index:80--><g   id="j_48" ><path  stroke="#707070" d="M 2402 1422 L 2843 1296" id="v-598" stroke-width="2" stroke-dasharray="30 30" fill="none" style="opacity: 1;"></path><path  fill="black" stroke="black" d="M 0 0 0 0" transform="matrix(0.9611198902130127,-0.27613139152526855,0.27613139152526855,0.9611198902130127,2402,1422.3499755859375)"></path><path  fill="#707070" stroke="#707070" d="M 20 0 L 0 10 L 20 20 z" id="v-600" transform="matrix(-0.9611198902130127,0.27613139152526855,-0.27613139152526855,-0.9611198902130127,2845.761474609375,1305.2611083984375)" style="opacity: 1;"></path><path  d="M 2402 1422 L 2843 1296" id="v-599" fill="none" style="cursor: default;"></path><g ><g id="v-589"  label-idx="0" cursor="move" transform="matrix(1,0,0,1,2622.5,1359)" style="cursor: default; opacity: 1;"><rect joint-selector="rect" id="v-593" fill="#ffffff" rx="3" ry="3" pointer-events="none" width="145.6999969482422" height="29.999999046325684" transform="matrix(1,0,0,1,-72.80000305175781,-15)"></rect><text joint-selector="text" id="v-592" font-size="24px" xml:space="preserve" y="0.8em" fill="#707070" text-anchor="middle" pointer-events="none" font-family="Red Hat Display" font-weight="normal" transform="matrix(1,0,0,1,0,-10.199999809265137)"><tspan  dy="0">Request Data</tspan></text></g><g id="v-590"  label-idx="1" cursor="move" transform="matrix(1,0,0,1,2622.5,1385.4000244140625)" style="cursor: default; opacity: 1;"><rect joint-selector="rect" id="v-595" fill="#ffffff" rx="3" ry="3" pointer-events="none" width="202.83123779296875" height="21.25" transform="matrix(1,0,0,1,-101.0999984741211,-10.600000381469727)"></rect><text joint-selector="text" id="v-594" font-size="17px" xml:space="preserve" y="0.8em" fill="#707070" text-anchor="middle" pointer-events="none" font-family="Red Hat Display" font-weight="normal" transform="matrix(1,0,0,1,0,-7.199999809265137)"><tspan  dy="0">[web-api.tp.entsoe.eu/api]</tspan></text></g><g id="v-591"  label-idx="2" cursor="move" transform="matrix(1,0,0,1,2612.5,1393.800048828125)" style="cursor: default; opacity: 1;"><rect joint-selector="rect" id="v-597" fill="#ffffff" rx="3" ry="3"  width="0" height="0" transform="matrix(1,0,0,1,0,0)" display="none"></rect><text joint-selector="text" id="v-596" fill="#000000" font-size="14" text-anchor="middle" pointer-events="none"></text></g></g><g  display="none"></g><g  id="v-602" display="none"><g  id="v-587"><path  end="source" d="M 26 0 L 0 13 L 26 26 z"></path></g><g  id="v-588"><path  end="target" d="M 26 0 L 0 13 L 26 26 z"></path></g></g><g  id="v-601" display="none"><g  id="v-586" transform="translate(2440.4609579056328, 1411.0111548841048) "><g  event="remove"><circle r="11"></circle><path transform="scale(.8) translate(-16, -16)" d="M24.778,21.419 19.276,15.917 24.777,10.415 21.949,7.585 16.447,13.087 10.945,7.585 8.117,10.415 13.618,15.917 8.116,21.419 10.946,24.248 16.447,18.746 21.948,24.248z"></path><title>Remove link.</title></g><g  event="link:options"><circle r="11" transform="translate(25)"></circle><path fill="white" transform="scale(.55) translate(29, -16)" d="M31.229,17.736c0.064-0.571,0.104-1.148,0.104-1.736s-0.04-1.166-0.104-1.737l-4.377-1.557c-0.218-0.716-0.504-1.401-0.851-2.05l1.993-4.192c-0.725-0.91-1.549-1.734-2.458-2.459l-4.193,1.994c-0.647-0.347-1.334-0.632-2.049-0.849l-1.558-4.378C17.165,0.708,16.588,0.667,16,0.667s-1.166,0.041-1.737,0.105L12.707,5.15c-0.716,0.217-1.401,0.502-2.05,0.849L6.464,4.005C5.554,4.73,4.73,5.554,4.005,6.464l1.994,4.192c-0.347,0.648-0.632,1.334-0.849,2.05l-4.378,1.557C0.708,14.834,0.667,15.412,0.667,16s0.041,1.165,0.105,1.736l4.378,1.558c0.217,0.715,0.502,1.401,0.849,2.049l-1.994,4.193c0.725,0.909,1.549,1.733,2.459,2.458l4.192-1.993c0.648,0.347,1.334,0.633,2.05,0.851l1.557,4.377c0.571,0.064,1.148,0.104,1.737,0.104c0.588,0,1.165-0.04,1.736-0.104l1.558-4.377c0.715-0.218,1.399-0.504,2.049-0.851l4.193,1.993c0.909-0.725,1.733-1.549,2.458-2.458l-1.993-4.193c0.347-0.647,0.633-1.334,0.851-2.049L31.229,17.736zM16,20.871c-2.69,0-4.872-2.182-4.872-4.871c0-2.69,2.182-4.872,4.872-4.872c2.689,0,4.871,2.182,4.871,4.872C20.871,18.689,18.689,20.871,16,20.871z"></path><title>Link options.</title></g></g></g></g><!--z-index:81--><g   id="j_49" ><path  stroke="#707070" d="M 2402 1544 L 2843 1654" id="v-618" stroke-width="2" stroke-dasharray="30 30" fill="none" style="opacity: 1;"></path><path  fill="black" stroke="black" d="M 0 0 0 0" transform="matrix(0.9698260426521301,0.24379800260066986,-0.24379800260066986,0.9698260426521301,2402,1543.5699462890625)"></path><path  fill="#707070" stroke="#707070" d="M 20 0 L 0 10 L 20 20 z" id="v-620" transform="matrix(-0.9698260426521301,-0.24379798769950867,0.24379798769950867,-0.9698260426521301,2840.56201171875,1664.1282958984375)" style="opacity: 1;"></path><path  d="M 2402 1544 L 2843 1654" id="v-619" fill="none" style="cursor: default;"></path><g ><g id="v-609"  label-idx="0" cursor="move" transform="matrix(1,0,0,1,2622.5,1599)" style="cursor: default; opacity: 1;"><rect joint-selector="rect" id="v-613" fill="#ffffff" rx="3" ry="3" pointer-events="none" width="145.6999969482422" height="29.999999046325684" transform="matrix(1,0,0,1,-72.80000305175781,-15)"></rect><text joint-selector="text" id="v-612" font-size="24px" xml:space="preserve" y="0.8em" fill="#707070" text-anchor="middle" pointer-events="none" font-family="Red Hat Display" font-weight="normal" transform="matrix(1,0,0,1,0,-10.199999809265137)"><tspan  dy="0">Request Data</tspan></text></g><g id="v-610"  label-idx="1" cursor="move" transform="matrix(1,0,0,1,2622.5,1625.4000244140625)" style="cursor: default; opacity: 1;"><rect joint-selector="rect" id="v-615" fill="#ffffff" rx="3" ry="3" pointer-events="none" width="240.97500610351562" height="21.25" transform="matrix(1,0,0,1,-120.19999694824219,-10.600000381469727)"></rect><text joint-selector="text" id="v-614" font-size="17px" xml:space="preserve" y="0.8em" fill="#707070" text-anchor="middle" pointer-events="none" font-family="Red Hat Display" font-weight="normal" transform="matrix(1,0,0,1,0,-7.199999809265137)"><tspan  dy="0">[data.elexon.co.uk/bmrs/api/v1]</tspan></text></g><g id="v-611"  label-idx="2" cursor="move" transform="matrix(1,0,0,1,2612.5,1633.800048828125)" style="cursor: default; opacity: 1;"><rect joint-selector="rect" id="v-617" fill="#ffffff" rx="3" ry="3"  width="0" height="0" transform="matrix(1,0,0,1,0,0)" display="none"></rect><text joint-selector="text" id="v-616" fill="#000000" font-size="14" text-anchor="middle" pointer-events="none"></text></g></g><g  display="none"></g><g  id="v-622" display="none"><g  id="v-607"><path  end="source" d="M 26 0 L 0 13 L 26 26 z"></path></g><g  id="v-608"><path  end="target" d="M 26 0 L 0 13 L 26 26 z"></path></g></g><g  id="v-621" display="none"><g  id="v-606" transform="translate(2440.810871334476, 1553.6807162058783) "><g  event="remove"><circle r="11"></circle><path transform="scale(.8) translate(-16, -16)" d="M24.778,21.419 19.276,15.917 24.777,10.415 21.949,7.585 16.447,13.087 10.945,7.585 8.117,10.415 13.618,15.917 8.116,21.419 10.946,24.248 16.447,18.746 21.948,24.248z"></path><title>Remove link.</title></g><g  event="link:options"><circle r="11" transform="translate(25)"></circle><path fill="white" transform="scale(.55) translate(29, -16)" d="M31.229,17.736c0.064-0.571,0.104-1.148,0.104-1.736s-0.04-1.166-0.104-1.737l-4.377-1.557c-0.218-0.716-0.504-1.401-0.851-2.05l1.993-4.192c-0.725-0.91-1.549-1.734-2.458-2.459l-4.193,1.994c-0.647-0.347-1.334-0.632-2.049-0.849l-1.558-4.378C17.165,0.708,16.588,0.667,16,0.667s-1.166,0.041-1.737,0.105L12.707,5.15c-0.716,0.217-1.401,0.502-2.05,0.849L6.464,4.005C5.554,4.73,4.73,5.554,4.005,6.464l1.994,4.192c-0.347,0.648-0.632,1.334-0.849,2.05l-4.378,1.557C0.708,14.834,0.667,15.412,0.667,16s0.041,1.165,0.105,1.736l4.378,1.558c0.217,0.715,0.502,1.401,0.849,2.049l-1.994,4.193c0.725,0.909,1.549,1.733,2.459,2.458l4.192-1.993c0.648,0.347,1.334,0.633,2.05,0.851l1.557,4.377c0.571,0.064,1.148,0.104,1.737,0.104c0.588,0,1.165-0.04,1.736-0.104l1.558-4.377c0.715-0.218,1.399-0.504,2.049-0.851l4.193,1.993c0.909-0.725,1.733-1.549,2.458-2.458l-1.993-4.193c0.347-0.647,0.633-1.334,0.851-2.049L31.229,17.736zM16,20.871c-2.69,0-4.872-2.182-4.872-4.871c0-2.69,2.182-4.872,4.872-4.872c2.689,0,4.871,2.182,4.871,4.872C20.871,18.689,18.689,20.871,16,20.871z"></path><title>Link options.</title></g></g></g></g><!--z-index:82--></g><g ></g><g ></g><g ></g></g></svg>