<svg xmlns="http://www.w3.org/2000/svg" xmlns:xlink="http://www.w3.org/1999/xlink" version="1.1" viewBox="0 0 1685 811" style="background: #ffffff"><defs><style>@import url(https://fonts.googleapis.com/css2?family=Red+Hat+Display:wght@500..900);</style></defs><defs joint-selector="defs"></defs><g  joint-selector="layers" transform="matrix(1,0,0,1,0,0)"><g ></g><g ><!--z-index:-1--><!--z-index:0--><!--z-index:1--><!--z-index:2--><!--z-index:3--><!--z-index:4--><!--z-index:5--><!--z-index:6--><!--z-index:7--><!--z-index:8--><g   id="j_71"  transform="translate(20,705)"><g id="v-601"><image  id="v-602" xlink:href="https://raw.githubusercontent.com/jaimeib/hosting/refs/heads/main/wattnet-logo-icon-dark-background-rounded.png" pointer-events="none" width="96" height="96"></image></g></g><!--z-index:9--><g   id="j_70"  transform="translate(136,774.6)"><g id="v-599"><text  id="v-600" font-size="22px" xml:space="preserve" y="0.8em" font-weight="normal" text-anchor="start" fill="#aaaaaa" pointer-events="none" display="block" font-family="Red Hat Display"><tspan  dy="0" display="block">Thursday, July 16, 2026 at 7:31 PM Central European Summer Time</tspan></text></g></g><!--z-index:10--><g   id="j_69"  transform="translate(136,748.2)"><g id="v-597"><text  id="v-598" font-size="22px" xml:space="preserve" y="0.8em" font-weight="normal" text-anchor="start" fill="#aaaaaa" pointer-events="none" display="block" font-family="Red Hat Display"><tspan  dy="0" display="block">© Spanish National Research Council (CSIC) | Licensed under CC BY 4.0</tspan></text></g></g><!--z-index:11--><g   id="j_68"  transform="translate(136,705)"><g id="v-595"><text  id="v-596" font-size="36px" xml:space="preserve" y="0.8em" font-weight="normal" text-anchor="start" fill="#000000" pointer-events="none" display="block" font-family="Red Hat Display"><tspan  dy="0" display="block">[Component] External Consumer - Third-Party Application</tspan></text></g></g><!--z-index:12--><g   id="j_73"  transform="translate(199,151)" style=""><g id="v-616"><rect  id="v-617" width="490" height="411" rx="0" ry="0" fill="#ffffff" stroke="#0a1932" stroke-width="1" stroke-dasharray="20,20" pointer-events="none"></rect><text  id="v-618" font-size="24px" xml:space="preserve" y="372" font-weight="normal" fill="#0a1932" text-anchor="start" pointer-events="visible" font-family="Red Hat Display" transform="matrix(1,0,0,1,15,0)"><tspan  dy="0">Third-Party Application</tspan></text><text  id="v-619" font-size="17px" xml:space="preserve" y="396" font-weight="normal" fill="#0a1932" text-anchor="start" pointer-events="visible" font-family="Red Hat Display" transform="matrix(1,0,0,1,15,0)"><tspan  dy="0">[Container]</tspan></text><image  id="v-620" pointer-events="visible"></image></g></g><!--z-index:13--><g   id="j_72"  transform="translate(219,171)" style=""><g  id="v-609" style="opacity: 1;"><rect  id="v-610" rx="20" ry="20" stroke="#326a9a" stroke-width="2" pointer-events="visiblePainted" fill="#3776ab" width="450" height="300" style="fill: rgb(55, 118, 171); stroke: rgb(50, 106, 154);"></rect><text  id="v-611" font-size="34" xml:space="preserve" y="0.8em" font-weight="bold" text-anchor="middle" pointer-events="visible" font-family="Red Hat Display" fill="#ffffff" transform="matrix(1,0,0,1,225,44.900001525878906)" style="fill: rgb(255, 255, 255);"><tspan  dy="0">wattnet-client-python</tspan></text><text  id="v-612" font-size="17" xml:space="preserve" y="0.8em" text-anchor="middle" font-family="Red Hat Display" fill="#ffffff" transform="matrix(1,0,0,1,225,85.69999694824219)" style="fill: rgb(255, 255, 255);"><tspan  dy="0">[Component: Python]</tspan></text><text  id="v-613" font-size="24" xml:space="preserve" y="0.8em" text-anchor="middle" font-family="Red Hat Display" fill="#ffffff" transform="matrix(1,0,0,1,225,116.0999984741211)" style="fill: rgb(255, 255, 255);"><tspan  dy="0">Python library that provides a</tspan><tspan dy="1.2em" x="0" >function-based interface for</tspan><tspan dy="1.2em" x="0" >interacting with the wattnet API,</tspan><tspan dy="1.2em" x="0" >mapping each endpoint to a</tspan><tspan dy="1.2em" x="0" >corresponding Python function.</tspan></text><g  id="v-614" color="#ffffff" transform="matrix(1,0,0,1,222.5,268)" style="fill: rgb(255, 255, 255);" display="none"><g ></g><g ></g><g ></g><g ></g></g><image  id="v-615"></image></g></g><!--z-index:14--><g   id="j_74"  transform="translate(1034,168)" style=""><g  id="v-624" style="opacity: 1;"><rect  id="v-625" rx="20" ry="20" stroke="#1a417e" stroke-width="2" pointer-events="visiblePainted" fill="#1d488c" width="450" height="300" style="fill: rgb(29, 72, 140); stroke: rgb(26, 65, 126);"></rect><text  id="v-626" font-size="34" xml:space="preserve" y="0.8em" font-weight="bold" text-anchor="middle" pointer-events="visible" font-family="Red Hat Display" fill="#ffffff" transform="matrix(1,0,0,1,225,73.69999694824219)" style="fill: rgb(255, 255, 255);"><tspan  dy="0">wattnet</tspan></text><text  id="v-627" font-size="17" xml:space="preserve" y="0.8em" text-anchor="middle" font-family="Red Hat Display" fill="#ffffff" transform="matrix(1,0,0,1,225,114.5)" style="fill: rgb(255, 255, 255);"><tspan  dy="0">[Software System]</tspan></text><text  id="v-628" font-size="24" xml:space="preserve" y="0.8em" text-anchor="middle" font-family="Red Hat Display" fill="#ffffff" transform="matrix(1,0,0,1,225,144.89999389648438)" style="fill: rgb(255, 255, 255);"><tspan  dy="0">An open-source service for tracking</tspan><tspan dy="1.2em" x="0" >the environmental footprint of</tspan><tspan dy="1.2em" x="0" >electricity across Europe.</tspan></text><g  id="v-629" color="#ffffff" transform="matrix(1,0,0,1,210,268)" style="fill: rgb(255, 255, 255);" display="none"><g  transform="translate(5 0)"><svg xmlns="http://www.w3.org/2000/svg" width="20" height="20" fill="currentColor" viewBox="0 0 16 16"><path fill-rule="evenodd" d="M6.5 12a5.5 5.5 0 1 0 0-11 5.5 5.5 0 0 0 0 11zM13 6.5a6.5 6.5 0 1 1-13 0 6.5 6.5 0 0 1 13 0z"></path><path d="M10.344 11.742c.03.04.062.078.098.115l3.85 3.85a1 1 0 0 0 1.415-1.414l-3.85-3.85a1.007 1.007 0 0 0-.115-.1 6.538 6.538 0 0 1-1.398 1.4z"></path><path fill-rule="evenodd" d="M6.5 3a.5.5 0 0 1 .5.5V6h2.5a.5.5 0 0 1 0 1H7v2.5a.5.5 0 0 1-1 0V7H3.5a.5.5 0 0 1 0-1H6V3.5a.5.5 0 0 1 .5-.5z"></path></svg></g><g ></g><g ></g><g ></g></g><image  id="v-630"></image></g></g><!--z-index:15--><g   id="j_75" ><path  stroke="#707070" d="M 669 320 L 1034 319" id="v-643" stroke-width="2" stroke-dasharray="30 30" fill="none" style="opacity: 1;"></path><path  fill="black" stroke="black" d="M 0 0 0 0" transform="matrix(0.9999932646751404,-0.0036714256275445223,0.0036714256275445223,0.9999932646751404,669,320.1700134277344)"></path><path  fill="#707070" stroke="#707070" d="M 20 0 L 0 10 L 20 20 z" id="v-645" transform="matrix(-0.9999932646751404,0.0036711592692881823,-0.0036711592692881823,-0.9999932646751404,1034.0367431640625,328.8299255371094)" style="opacity: 1;"></path><path  d="M 669 320 L 1034 319" id="v-644" fill="none" style="cursor: default;"></path><g ><g id="v-634"  label-idx="0" cursor="move" transform="matrix(1,0,0,1,851.5,319.5)" style="cursor: default; opacity: 1;"><rect joint-selector="rect" id="v-638" fill="#ffffff" rx="3" ry="3" pointer-events="none" width="89.690185546875" height="30.90473175048828" transform="matrix(1,0,0,1,-44.79999923706055,-15.399999618530273)"></rect><text joint-selector="text" id="v-637" font-size="24px" xml:space="preserve" y="0.8em" fill="#707070" text-anchor="middle" pointer-events="none" font-family="Red Hat Display" font-weight="normal" transform="matrix(1,0,0,1,0,-10.699999809265137)"><tspan  dy="0">Request</tspan></text></g><g id="v-635"  label-idx="1" cursor="move" transform="matrix(1,0,0,1,851.5,345.8999938964844)" style="cursor: default; opacity: 1;"><rect joint-selector="rect" id="v-640" fill="#ffffff" rx="3" ry="3" pointer-events="none" width="141.696533203125" height="21.932390213012695" transform="matrix(1,0,0,1,-70.80000305175781,-10.899999618530273)"></rect><text joint-selector="text" id="v-639" font-size="17px" xml:space="preserve" y="0.8em" fill="#707070" text-anchor="middle" pointer-events="none" font-family="Red Hat Display" font-weight="normal" transform="matrix(1,0,0,1,0,-7.599999904632568)"><tspan  dy="0">[api.wattnet.eu/v1]</tspan></text></g><g id="v-636"  label-idx="2" cursor="move" transform="matrix(1,0,0,1,841.5,354.29998779296875)" style="cursor: default; opacity: 1;"><rect joint-selector="rect" id="v-642" fill="#ffffff" rx="3" ry="3"  width="0" height="0" transform="matrix(1,0,0,1,0,0)" display="none"></rect><text joint-selector="text" id="v-641" fill="#000000" font-size="14" text-anchor="middle" pointer-events="none"></text></g></g><g  display="none"></g><g  id="v-647" display="none"><g  id="v-632"><path  end="source" d="M 26 0 L 0 13 L 26 26 z"></path></g><g  id="v-633"><path  end="target" d="M 26 0 L 0 13 L 26 26 z"></path></g></g><g  id="v-646" display="none"><g  id="v-631" transform="translate(708.999849878871, 319.8904113701949) "><g  event="remove"><circle r="11"></circle><path transform="scale(.8) translate(-16, -16)" d="M24.778,21.419 19.276,15.917 24.777,10.415 21.949,7.585 16.447,13.087 10.945,7.585 8.117,10.415 13.618,15.917 8.116,21.419 10.946,24.248 16.447,18.746 21.948,24.248z"></path><title>Remove link.</title></g><g  event="link:options"><circle r="11" transform="translate(25)"></circle><path fill="white" transform="scale(.55) translate(29, -16)" d="M31.229,17.736c0.064-0.571,0.104-1.148,0.104-1.736s-0.04-1.166-0.104-1.737l-4.377-1.557c-0.218-0.716-0.504-1.401-0.851-2.05l1.993-4.192c-0.725-0.91-1.549-1.734-2.458-2.459l-4.193,1.994c-0.647-0.347-1.334-0.632-2.049-0.849l-1.558-4.378C17.165,0.708,16.588,0.667,16,0.667s-1.166,0.041-1.737,0.105L12.707,5.15c-0.716,0.217-1.401,0.502-2.05,0.849L6.464,4.005C5.554,4.73,4.73,5.554,4.005,6.464l1.994,4.192c-0.347,0.648-0.632,1.334-0.849,2.05l-4.378,1.557C0.708,14.834,0.667,15.412,0.667,16s0.041,1.165,0.105,1.736l4.378,1.558c0.217,0.715,0.502,1.401,0.849,2.049l-1.994,4.193c0.725,0.909,1.549,1.733,2.459,2.458l4.192-1.993c0.648,0.347,1.334,0.633,2.05,0.851l1.557,4.377c0.571,0.064,1.148,0.104,1.737,0.104c0.588,0,1.165-0.04,1.736-0.104l1.558-4.377c0.715-0.218,1.399-0.504,2.049-0.851l4.193,1.993c0.909-0.725,1.733-1.549,2.458-2.458l-1.993-4.193c0.347-0.647,0.633-1.334,0.851-2.049L31.229,17.736zM16,20.871c-2.69,0-4.872-2.182-4.872-4.871c0-2.69,2.182-4.872,4.872-4.872c2.689,0,4.871,2.182,4.871,4.872C20.871,18.689,18.689,20.871,16,20.871z"></path><title>Link options.</title></g></g></g></g><!--z-index:16--><!--z-index:17--><!--z-index:18--><!--z-index:19--><!--z-index:20--><!--z-index:21--><!--z-index:22--><!--z-index:23--><!--z-index:24--><!--z-index:25--><!--z-index:26--><!--z-index:27--><!--z-index:28--><!--z-index:29--><!--z-index:30--><!--z-index:31--><!--z-index:32--><!--z-index:33--><!--z-index:34--><!--z-index:35--><!--z-index:36--><!--z-index:37--><!--z-index:38--><!--z-index:39--><!--z-index:40--><!--z-index:41--><!--z-index:42--><!--z-index:43--><!--z-index:44--><!--z-index:45--><!--z-index:46--><!--z-index:47--><!--z-index:48--><!--z-index:49--><!--z-index:50--><!--z-index:51--><!--z-index:52--><!--z-index:53--><!--z-index:54--></g><g ></g><g ></g><g ></g></g></svg>